<?xml version="1.0" ?><svg viewBox="0 0 512 512" xmlns="http://www.w3.org/2000/svg"><defs><style>.cls-1{fill:#f2ddd4;}.cls-2{fill:#ff7769;}.cls-3{fill:#427c54;}.cls-4{fill:#739e71;}.cls-5{fill:#7d6fdb;}.cls-6{fill:#49448a;}.cls-7{fill:#aba1ff;}.cls-8{fill:#9e5458;}.cls-9{fill:#b96062;}.cls-10{fill:#ffbd54;}.cls-11{fill:#ce7b30;}.cls-12{fill:#873030;}.cls-13{fill:#eaa542;}.cls-14{fill:#a24547;}.cls-15{fill:#000002;}.cls-16{fill:#fff;}.cls-17{fill:#dbdbdb;}.cls-18{fill:#020202;}.cls-19{fill:#4e4e56;}</style></defs><title/><g data-name="Male with peace hand" id="Male_with_peace_hand"><path class="cls-1" d="M420.42,164C365.57,61.87,214.49,17.77,155.73,64.89,146,72.67,128.54,91.2,120,117.39c-11.73,36.16,3.51,56.49-14,84.36-9.28,14.81-15.17,11.61-33.41,34.14-5.42,6.71-22.66,28-28.12,47.37-14.85,52.61,45.36,132.83,93.84,130,27.44-1.61,28.57-28.52,61.75-36.66,50.56-12.4,75.67,44.88,127.21,39.28,55.19-6,99.58-71.31,111.71-128C452.05,227,427.69,177.52,420.42,164Z"/><path class="cls-2" d="M131.12,188.62l4-11.87a2.62,2.62,0,0,1,5,0l4.05,11.87a2.64,2.64,0,0,0,1.63,1.63l11.87,4.05a2.62,2.62,0,0,1,0,5l-11.87,4.06a2.61,2.61,0,0,0-1.63,1.63l-4.05,11.87a2.62,2.62,0,0,1-5,0l-4-11.87a2.63,2.63,0,0,0-1.64-1.63l-11.87-4.06a2.62,2.62,0,0,1,0-5l11.87-4.05A2.65,2.65,0,0,0,131.12,188.62Z"/><path class="cls-2" d="M142.94,70.16l3.16-9.25a2,2,0,0,1,3.87,0l3.15,9.25a2.09,2.09,0,0,0,1.28,1.27l9.24,3.15a2,2,0,0,1,0,3.87l-9.24,3.16a2,2,0,0,0-1.28,1.27L150,92.12a2,2,0,0,1-3.87,0l-3.16-9.24a2,2,0,0,0-1.27-1.27l-9.24-3.16a2,2,0,0,1,0-3.87l9.24-3.15A2.05,2.05,0,0,0,142.94,70.16Z"/><path class="cls-2" d="M373.58,107.15l4.06-11.87a2.62,2.62,0,0,1,5,0l4,11.87a2.59,2.59,0,0,0,1.63,1.63l11.87,4a2.62,2.62,0,0,1,0,5l-11.87,4.06a2.59,2.59,0,0,0-1.63,1.63l-4,11.87a2.62,2.62,0,0,1-5,0l-4.06-11.87a2.59,2.59,0,0,0-1.63-1.63l-11.87-4.06a2.62,2.62,0,0,1,0-5l11.87-4A2.59,2.59,0,0,0,373.58,107.15Z"/><path class="cls-3" d="M148,456.13a1.89,1.89,0,0,1-1.08-.34C116.22,434,99.25,393.52,90.41,363.37A342.56,342.56,0,0,1,78.48,302.7a1.87,1.87,0,1,1,3.72-.31c.09,1.09,9.68,109.84,66.89,150.35a1.87,1.87,0,0,1,.45,2.6A1.9,1.9,0,0,1,148,456.13Z"/><path class="cls-4" d="M113.86,416.48s-16.36-39.54,2.55-72.25,17,.14,18.84,14.73S133.93,405.43,113.86,416.48Z"/><path class="cls-4" d="M106.06,399.79s-12-41.07-47.23-54.73-13.16,10.75-5.46,23.28S83.49,403.74,106.06,399.79Z"/><circle class="cls-5" cx="78.42" cy="288.29" r="42.07"/><path class="cls-6" d="M100,324.91a.46.46,0,0,1-.38-.2L52.19,255.36a.46.46,0,0,1,.12-.65.48.48,0,0,1,.65.12l47.38,69.35a.48.48,0,0,1-.12.65A.45.45,0,0,1,100,324.91Z"/><path class="cls-6" d="M55.64,324.12a.38.38,0,0,1-.27-.09.47.47,0,0,1-.11-.65l49.45-67.9a.47.47,0,0,1,.75.55L56,323.93A.46.46,0,0,1,55.64,324.12Z"/><path class="cls-6" d="M119.22,299.05h-.09L36.58,283.52a.47.47,0,0,1,.17-.92l82.55,15.52a.47.47,0,0,1-.08.93Z"/><path class="cls-6" d="M72.79,330.46h0a.47.47,0,0,1-.42-.51l8.3-83.69a.47.47,0,0,1,.51-.42.46.46,0,0,1,.42.51L73.26,330A.48.48,0,0,1,72.79,330.46Z"/><path class="cls-6" d="M39.28,304.22a.48.48,0,0,1-.45-.33.47.47,0,0,1,.31-.58l79.93-25.79a.46.46,0,1,1,.28.88L39.42,304.19A.35.35,0,0,1,39.28,304.22Z"/><path class="cls-6" d="M112.34,313.64a.5.5,0,0,1-.26-.08L42.11,267a.46.46,0,0,1-.13-.65.46.46,0,0,1,.64-.13l70,46.54a.48.48,0,0,1,.13.65A.48.48,0,0,1,112.34,313.64Z"/><path class="cls-6" d="M85.43,330.24a.47.47,0,0,1-.46-.36L66.51,248.19a.47.47,0,1,1,.91-.2l18.46,81.68a.47.47,0,0,1-.35.56Z"/><path class="cls-6" d="M46.07,315.65a.46.46,0,0,1-.37-.18.47.47,0,0,1,.09-.66l30.63-23.46,16.19-41.54a.48.48,0,0,1,.61-.27.47.47,0,0,1,.26.61L77.24,291.81a.43.43,0,0,1-.15.2L46.35,315.55A.42.42,0,0,1,46.07,315.65Z"/><path class="cls-6" d="M79.29,291.65a.46.46,0,0,1-.4-.21.48.48,0,0,1,.14-.65l36.09-23a.48.48,0,0,1,.65.14.47.47,0,0,1-.15.65l-36.08,23A.47.47,0,0,1,79.29,291.65Z"/><circle class="cls-7" cx="78.38" cy="287.97" r="25.58"/><path class="cls-3" d="M406,427.75a1.83,1.83,0,0,1-1.11-.37,1.86,1.86,0,0,1-.38-2.61c42-56.14,17.7-162.56,17.45-163.63a1.86,1.86,0,1,1,3.63-.85,343.74,343.74,0,0,1,7.29,61.4c.86,31.41-2.84,75.18-25.38,105.31A1.87,1.87,0,0,1,406,427.75Z"/><path class="cls-4" d="M426.91,379.43s3.41-42.65-24.63-68-16.13,5.36-13.4,19.81S404.42,375.09,426.91,379.43Z"/><path class="cls-4" d="M429.21,361.16s-1.2-42.78,28.11-66.6,15.83,6.19,12.36,20.47S451.89,358,429.21,361.16Z"/><circle class="cls-5" cx="421.24" cy="246.56" r="42.07"/><path class="cls-6" d="M411.86,288.05l-.13,0a.47.47,0,0,1-.32-.58l23.77-80.56a.47.47,0,0,1,.9.27l-23.77,80.55A.47.47,0,0,1,411.86,288.05Z"/><path class="cls-6" d="M453.78,273.68a.46.46,0,0,1-.27-.09l-67.92-49.42a.47.47,0,1,1,.55-.75l67.92,49.42a.46.46,0,0,1,.1.65A.47.47,0,0,1,453.78,273.68Z"/><path class="cls-6" d="M385.58,269.36a.45.45,0,0,1-.41-.25.46.46,0,0,1,.19-.63l73.78-40.14a.47.47,0,0,1,.45.82L385.8,269.3A.46.46,0,0,1,385.58,269.36Z"/><path class="cls-6" d="M439.41,285a.48.48,0,0,1-.43-.28l-33.62-77.09a.45.45,0,0,1,.24-.61.46.46,0,0,1,.61.24l33.63,77.09a.47.47,0,0,1-.24.61A.46.46,0,0,1,439.41,285Z"/><path class="cls-6" d="M379.25,249.73a.47.47,0,1,1,0-.93l84,0a.47.47,0,0,1,0,.94Z"/><path class="cls-6" d="M396.61,281.12a.43.43,0,0,1-.29-.1.45.45,0,0,1-.08-.65l52.28-65.8a.47.47,0,0,1,.66-.07.46.46,0,0,1,.08.65L397,281A.48.48,0,0,1,396.61,281.12Z"/><path class="cls-6" d="M427.32,288.66a.47.47,0,0,1-.46-.43l-7.54-83.4a.46.46,0,0,1,.42-.51.45.45,0,0,1,.5.42l7.55,83.41a.47.47,0,0,1-.43.5Z"/><path class="cls-6" d="M460.29,262.67l-.16,0-36.48-13a.46.46,0,0,1-.21-.14l-28.26-34.66a.47.47,0,0,1,.73-.59l28.17,34.56,36.36,12.91a.46.46,0,0,1,.28.59A.45.45,0,0,1,460.29,262.67Z"/><path class="cls-6" d="M421.3,250.05l-.11,0-41.42-10.8a.46.46,0,0,1-.33-.57.47.47,0,0,1,.57-.34l41.41,10.81a.47.47,0,0,1-.12.92Z"/><circle class="cls-7" cx="421.18" cy="246.24" r="25.58"/><rect class="cls-8" height="81.06" rx="15.17" width="46.42" x="234.1" y="212.94"/><circle class="cls-9" cx="255.42" cy="174.54" r="70.05"/><path class="cls-9" d="M185.37,164.14c-.33,2.46-7.61,62.42,25.64,81.24,7.74,4.38,14.82,4.91,22.26,5.48,33.11,2.51,74.7-14.57,88.15-49.22,2.35-6.06,5.47-16.85,4.05-31.85-10.06-7.19-28.93-15.67-53.66-22.27C242.25,139.62,207.22,138.21,185.37,164.14Z"/><path class="cls-10" d="M234.1,262.13s-35.45.37-48.73,13.71-2.54,42.61-5.51,95.22-5.19,79.29-5.19,79.29,78.55,28.16,157.84,8.89c0,0,14.08-162.28,9.64-176s-61.63-21.12-61.63-21.12c-4.1,16.43-19.66,24.84-31.19,21.12C241.28,280.65,235.31,272.18,234.1,262.13Z"/><path class="cls-10" d="M317.42,269.58s29.17,7.37,39.18,20.34,28.52,113.75,21.11,126.34-33.34,33-58.17-5.55Z"/><path class="cls-11" d="M341.31,374.59a.93.93,0,0,1-.93-.89l-1.95-40.57a1,1,0,0,1,.05-.33c8.71-27.76,2.83-49.08,2.77-49.29A.93.93,0,1,1,343,283c.06.22,6.07,22-2.73,50.21l1.93,40.41a.94.94,0,0,1-.88,1Z"/><path class="cls-9" d="M316.52,342s-13.75-34.7-6.71-38.34,14.58,27.21,14.58,27.21-1.42-26.75,5-28.43S336.72,332,336.72,332s10.36.5,10.31,7.5c0,0,7.16,3.1,5.93,9.93s-5.44,11-5,15.84,3.56,9.63,3.56,9.63-13.28,9.35-25.31,6.78c0,0-1-11.36-4.3-16.18S308.66,353.13,316.52,342Z"/><path class="cls-12" d="M330,359a.48.48,0,0,1-.41-.23c0-.05-2.54-4.4-6.56-5.35a.47.47,0,0,1-.36-.41.49.49,0,0,1,.28-.47c3.37-1.46,8.58-4.49,8.22-6.36s-3.2-4-14.64-3.67a.42.42,0,0,1-.48-.45.46.46,0,0,1,.45-.48c9.73-.26,15,1.23,15.59,4.42.51,2.66-5.13,5.68-7.66,6.89a13.65,13.65,0,0,1,6,5.42.47.47,0,0,1-.18.63A.46.46,0,0,1,330,359Z"/><path class="cls-12" d="M341.74,355a3.18,3.18,0,0,1-1.48-.34A2.54,2.54,0,0,1,339,353c-.58-2.22,1.09-5.82,2.38-8.15-1.55,1.08-3.76,2.3-5.78,2.22a4,4,0,0,1-2.94-1.34c-3.68-4,3.42-13.55,3.72-13.95a.47.47,0,0,1,.75.56c-.07.09-6.94,9.33-3.78,12.76a3.08,3.08,0,0,0,2.28,1c3.21.12,7.13-3.59,7.17-3.63a.47.47,0,0,1,.62,0,.47.47,0,0,1,.09.62c0,.06-4.39,6.64-3.61,9.65a1.57,1.57,0,0,0,.83,1.08c2.79,1.43,8.08-3.81,9.88-5.94a.46.46,0,0,1,.66-.06.47.47,0,0,1,0,.66C351,348.75,345.74,355,341.74,355Z"/><path class="cls-11" d="M335.12,428.71a1,1,0,0,1-.83-.49c-1.31-2.45-2.53-5-3.61-7.53a94.23,94.23,0,0,1-7.25-39,.92.92,0,0,1,1.06-.9,33,33,0,0,0,13-.81,33.35,33.35,0,0,0,13.78-7.57.94.94,0,0,1,1.19-.06,75.94,75.94,0,0,1,26.16,35.73.92.92,0,0,1-.57,1.19.93.93,0,0,1-1.19-.57,73.91,73.91,0,0,0-24.91-34.39,35.14,35.14,0,0,1-14,7.47,34.41,34.41,0,0,1-12.66,1A92.25,92.25,0,0,0,332.4,420c1.06,2.49,2.25,5,3.54,7.37a1,1,0,0,1-.38,1.27A1,1,0,0,1,335.12,428.71Z"/><path class="cls-10" d="M205.12,266.17s-29.18,7.38-39.18,20.35-28.53,113.74-21.12,126.34,33.34,33,58.17-5.56Z"/><path class="cls-11" d="M181.22,371.18h0a.92.92,0,0,1-.89-1l1.93-40.41a104.38,104.38,0,0,1-4.71-35.71,69.25,69.25,0,0,1,2-14.5.93.93,0,0,1,1.79.51c-.06.21-5.93,21.57,2.78,49.3a1.24,1.24,0,0,1,0,.33l-1.95,40.57A.92.92,0,0,1,181.22,371.18Z"/><path class="cls-9" d="M206,338.6s13.75-34.69,6.71-38.34-14.57,27.22-14.57,27.22,1.41-26.76-5-28.44-7.34,29.57-7.34,29.57-10.36.5-10.31,7.5c0,0-7.16,3.09-5.93,9.92s5.44,11,5,15.84S171,371.5,171,371.5s13.28,9.36,25.32,6.78c0,0,.95-11.36,4.29-16.17S213.87,349.73,206,338.6Z"/><path class="cls-12" d="M192.52,355.56a.46.46,0,0,1-.23-.06.47.47,0,0,1-.17-.64,13.66,13.66,0,0,1,6-5.41c-2.53-1.22-8.17-4.24-7.65-6.89.62-3.2,5.85-4.68,15.58-4.42a.47.47,0,0,1,0,.93h0c-11.46-.3-14.28,1.82-14.64,3.67s4.85,4.89,8.22,6.36a.46.46,0,0,1-.08.88c-4,.95-6.54,5.3-6.56,5.35A.48.48,0,0,1,192.52,355.56Z"/><path class="cls-12" d="M180.79,351.56c-4,0-9.29-6.22-9.54-6.52a.46.46,0,0,1,.05-.65.47.47,0,0,1,.66.05c1.81,2.14,7.1,7.37,9.88,5.94a1.55,1.55,0,0,0,.83-1.07c.78-3-3.57-9.59-3.61-9.65a.47.47,0,0,1,.71-.6s3.93,3.72,7.17,3.62a3.08,3.08,0,0,0,2.28-1c3.16-3.43-3.71-12.66-3.78-12.75a.48.48,0,0,1,.09-.66.48.48,0,0,1,.66.1c.3.4,7.4,9.95,3.72,13.95a4,4,0,0,1-2.94,1.34c-2.06.06-4.23-1.14-5.78-2.22,1.3,2.33,3,5.93,2.38,8.14a2.44,2.44,0,0,1-1.3,1.67A3.16,3.16,0,0,1,180.79,351.56Z"/><path class="cls-11" d="M177.2,429.8a.93.93,0,0,1-.43-1.76,40.21,40.21,0,0,0,14.85-12.68c10-14.11,7.28-30.29,5.85-36a34.77,34.77,0,0,1-26.86-8.44,74,74,0,0,0-24.91,34.4.93.93,0,0,1-1.76-.62A75.94,75.94,0,0,1,170.1,369a.92.92,0,0,1,1.19.06,33.43,33.43,0,0,0,13.78,7.57,33,33,0,0,0,13,.81.92.92,0,0,1,1,.68c1.38,5.08,5,22.88-5.92,38.37a42.1,42.1,0,0,1-15.53,13.26A.92.92,0,0,1,177.2,429.8Z"/><path class="cls-13" d="M282.67,382.66s-41.55-16.91-56.34-38.24-6.65,8.38,3.72,19.09,29.27,26.4,27.42,27.63-34.46-16.7-29.64-8.48,36.31,38.24,51.5,43.8-6.67-15.93-4.82-18.53,33.84,5.91,33.69-4.07S302.91,392.47,282.67,382.66Z"/><ellipse class="cls-14" cx="198.34" cy="199.17" rx="6.33" ry="9.24" transform="matrix(0.07, -1, 1, 0.07, -14.87, 382.34)"/><ellipse class="cls-14" cx="267.66" cy="205" rx="6.33" ry="9.24" transform="translate(43.54 456.86) rotate(-85.78)"/><path class="cls-12" d="M237.58,200.44c-2.52,0-6.87-.25-8-1.9s1.61-10.3,4.05-17.26a.94.94,0,0,1,1.77.62c-2.33,6.61-4.6,14.49-4.22,15.69.37.55,3.79,1,7.14,1a1,1,0,0,1,.95.91.93.93,0,0,1-.91,1Z"/><path class="cls-15" d="M272.57,172.46a16.88,16.88,0,0,0-9-4.68c-2.3-.43-5.42-1-6.68.63a2.56,2.56,0,0,0-.36,2.56c.84,1.63,3.79.77,8.2,1.46,5.81.9,9.21,3.72,9.73,3C274.84,174.83,273.21,173.13,272.57,172.46Z"/><path class="cls-15" d="M199.39,166.31A16.79,16.79,0,0,1,209,163.2c2.34,0,5.51-.11,6.48,1.73a2.56,2.56,0,0,1-.07,2.59c-1.11,1.47-3.86.12-8.33.07-5.88-.08-9.71,2.13-10.09,1.29C196.75,168.27,198.64,166.86,199.39,166.31Z"/><path class="cls-16" d="M230.68,225.34a21,21,0,0,0,21.6-13.75,196.85,196.85,0,0,1-20.55-.76A198,198,0,0,1,211.82,208C214.74,217.59,222.2,224.6,230.68,225.34Z"/><path class="cls-12" d="M232.6,230.86a18.7,18.7,0,0,1-6.69-1.39.47.47,0,0,1-.24-.61.45.45,0,0,1,.61-.24c.07,0,6.64,2.79,10.85.15a.48.48,0,0,1,.65.15.47.47,0,0,1-.15.64A9.37,9.37,0,0,1,232.6,230.86Z"/><path class="cls-17" d="M241.43,218.2a123.35,123.35,0,0,1-26.61-3.2.23.23,0,1,1,.12-.45c.17,0,17.7,4.42,33.9,2.85a.22.22,0,0,1,.25.21.23.23,0,0,1-.21.25C246.41,218.1,243.9,218.2,241.43,218.2Z"/><path class="cls-18" d="M218.52,187.08a.93.93,0,0,1-.9-.68,9.07,9.07,0,0,0-17-1.55A.93.93,0,1,1,199,184a10.94,10.94,0,0,1,20.44,1.87.94.94,0,0,1-.65,1.15Z"/><path class="cls-18" d="M273.24,191.54a.93.93,0,0,1-.89-.67,9.08,9.08,0,0,0-17-1.3.93.93,0,1,1-1.69-.79,10.94,10.94,0,0,1,20.47,1.57.94.94,0,0,1-.64,1.16A1.09,1.09,0,0,1,273.24,191.54Z"/><path class="cls-9" d="M290.84,189.3c.85-.66,5.49-4.13,11.44-3,.87.16,4.33.81,6.44,3.29,5.45,6.4,1.06,24.17-10,27.6-6.19,1.92-12.16-1.35-14.17-2.57Z"/><path class="cls-12" d="M295.18,211.2a.49.49,0,0,1-.37-.18.47.47,0,0,1,.08-.66c2.7-2.07,4.08-4.34,4.1-6.75,0-4.2-4.06-7.49-4.1-7.52a.48.48,0,0,1-.14-.56.47.47,0,0,1,.5-.27l10.13,1.63a.47.47,0,0,1-.15.92l-8.62-1.38c1.33,1.39,3.34,4,3.31,7.19,0,2.71-1.52,5.23-4.46,7.48A.42.42,0,0,1,295.18,211.2Z"/><path class="cls-15" d="M286.85,163s-3.06,8.34-1.25,15.28-2.23,20.71,1.25,21.26,5-12.1,8.77-12.78,14.64-1.84,15.44,8.94-5.49,22.54-18.67,21.87c0,0-14.58,19.31-11.87,24.61s45.92-25.27,46.9-48.61c0,0,14.17-1.81,15.42-15.43s-9-13.47-9-13.47,17.37-7.62,10-22.22S327,129.26,327,129.26s4.31-43.21-33.76-26.54c0,0-22.33-31.68-44.65-7.23,0,0-11.18-15.28-31.76-7.22s-14.08,22.51-14.08,22.51-8.39-7.78-18.28,6.39,3.45,20.28,3.45,20.28-7.45,31.21-3.45,43.4a91.31,91.31,0,0,1,11.23-40.62s17.81,5.56,21.13-6.67c0,0,13.33,11.95,26.11-4.44,0,0-5,15.86,18.06,13.35C261,142.47,257.39,167.47,286.85,163Z"/><path class="cls-19" d="M201.07,135.42a8.38,8.38,0,0,1-6-2.28c-4.42-4.21-3.88-12.67-3.86-13a.47.47,0,0,1,.93.06c0,.09-.52,8.4,3.57,12.3a8,8,0,0,0,6.75,1.94c3.61-.42,6.23-1.74,7.8-3.92a10.47,10.47,0,0,0,1.52-7.47.47.47,0,0,1,.9-.26c0,.07,2.72,6.82,16.22,6.36,5.1-.17,8.82-1.48,11-3.89a7.69,7.69,0,0,0,2.11-5.07.47.47,0,0,1,.45-.48.44.44,0,0,1,.48.44,8.47,8.47,0,0,1-2.34,5.73c-2.4,2.61-6.35,4-11.72,4.21-10,.34-14.29-3-16.06-5.23A10.53,10.53,0,0,1,211,131c-1.73,2.4-4.58,3.85-8.46,4.3A12.59,12.59,0,0,1,201.07,135.42Z"/><path class="cls-19" d="M290,144.86a14.37,14.37,0,0,1-3.17-.37,9.64,9.64,0,0,1-6.46-4.43c-2.57-4.23-1.93-10-1.44-12.73-3.33,2.92-13.68,10.62-24,4.33a9.73,9.73,0,0,1-4.81-6.84c-1.52-8.79,7.58-20.09,8-20.56a.47.47,0,0,1,.66-.07.46.46,0,0,1,.06.66c-.09.11-9.22,11.44-7.77,19.81a8.8,8.8,0,0,0,4.37,6.2c11.89,7.21,23.89-5.08,24-5.21a.47.47,0,0,1,.79.45c0,.08-2.16,8.26,1,13.47a8.71,8.71,0,0,0,5.86,4c3.21.71,5.94.32,8.11-1.15,3.75-2.54,4.6-7.5,4.61-7.55a.47.47,0,1,1,.92.15c0,.22-.92,5.4-5,8.17A9.92,9.92,0,0,1,290,144.86Z"/><path class="cls-19" d="M303.36,172.06a8.29,8.29,0,0,1-5.36-1.85c-4.93-4-5.29-12.9-5.3-13.28a.46.46,0,0,1,.45-.48.46.46,0,0,1,.48.45c0,.09.36,8.88,5,12.59a7.93,7.93,0,0,0,6.63,1.47c3.32-.6,5.76-2,7.26-4.27C315,163,314,158.17,314,158.12a.46.46,0,0,1,.2-.48.47.47,0,0,1,.53,0c.08.06,8.23,5.66,14.54,4a8.53,8.53,0,0,0,5.52-4.92.47.47,0,0,1,.62-.22.48.48,0,0,1,.22.63,9.4,9.4,0,0,1-6.13,5.41C324,164,317.42,160.42,315.08,159a12.79,12.79,0,0,1-1.82,8.23c-1.65,2.46-4.3,4-7.87,4.67A11.12,11.12,0,0,1,303.36,172.06Z"/><path class="cls-19" d="M308.55,185.47c-10.42,0-15.52-6.16-15.75-6.44a.47.47,0,1,1,.73-.59c.05.07,5.86,7.06,17.48,6s13.91-9.64,14-10a.46.46,0,0,1,.57-.33.45.45,0,0,1,.33.56c0,.1-2.61,9.57-14.82,10.7Q309.78,185.47,308.55,185.47Z"/><path class="cls-2" d="M448.26,395.31l2.63-7.71a1.7,1.7,0,0,1,3.22,0l2.64,7.71a1.71,1.71,0,0,0,1.06,1.07l7.71,2.63a1.7,1.7,0,0,1,0,3.22l-7.71,2.64a1.69,1.69,0,0,0-1.06,1.06l-2.64,7.71a1.7,1.7,0,0,1-3.22,0l-2.63-7.71a1.71,1.71,0,0,0-1.07-1.06l-7.71-2.64a1.7,1.7,0,0,1,0-3.22l7.71-2.63A1.72,1.72,0,0,0,448.26,395.31Z"/></g></svg>