<svg version="1.2" xmlns="http://www.w3.org/2000/svg" viewBox="0 0 4680 3120" width="720" height="480"><style>.a{opacity:0;fill:#fff}.b{fill:#f5f5f7}.c{fill:#2e6857}.d{fill:#8b8b8b}.e{fill:#5f5f5f}.f{fill:#40947e}.g{fill:#6fc183}.h{fill:#787878}.i{fill:#f3ce90}.j{fill:#ef7c59}.k{fill:#fff}.l{fill:#f5b0a6}.m{fill:#f18a8b}.n{fill:#2c4da2}.o{fill:#294675}.p{fill:#cbcbcb}.q{fill:#93493a}.r{fill:#5681bf}.s{fill:#afafaf}.t{fill:#3d5891}.u{fill:#2f4171}.v{fill:#2b2b2b}.w{fill:#393939}.x{fill:#b5cae8}.y{fill:#99b1da}.z{fill:#d1dbed}.A{fill:#969696}.B{fill:#151f30}.C{fill:#243354}</style><path class="a" d="m4680 3119.8h-4680v-3120h4680z"/><path class="b" d="m2369.6 402.9c-923.1 0-1671.4 527.6-1671.4 1178.5 0 650.8 748.3 1178.4 1671.4 1178.4 923.1 0 1671.4-527.6 1671.4-1178.4 0-650.9-748.3-1178.5-1671.4-1178.5z"/><path class="c" d="m4041.2 1438c-1.8-6.8-4.6-13.5-8.3-20.5-3.1-5.9-7.4-11.6-12.9-17.4-5.3-5.5-11.7-9.9-17.4-13.5-10.6-6.9-21.9-12-33.6-15.2q-2.7-0.8-5.6-1.4c-8.4-1.7-17.3-2.2-25.8-1.4-9.9 1-19.6 3.7-28.9 8.2-5.4 2.6-10.1 5.3-14.2 8.1-5 3.3-9.5 7.1-13.3 10.4-7.7 6.7-15 14.6-22.3 24.1-13.9 17.9-26.5 39.4-38.5 65.8-4.9 10.6-9.6 22.1-15.3 37.3-4.7 12.6-9.1 25.6-13.6 39.8-6.9 22.1-13.2 45.8-19.8 74.7-4.7 20.7-8.7 41.2-11.8 61.1-1.2 7.1-2.2 14.2-3.1 21.4-2.7 23.4-4.5 49.2-5.5 78.8-1 29.8-0.9 60.1-0.7 89.4 0 10.4 0.1 20.9 0.1 31.4 0 39.1-0.2 80.7-2.9 121.3-2.3 32.1-6 60.8-11.2 87.8l-0.9 1.3-0.1 0.2q0 0-0.1 0l-0.4 0.6-0.4 0.6 0.1 0.1 0.1-0.2c-0.7 0.9-1.4 1.8-2 2.7-1 1.3-1.6 2.5-1.5 4.2 0.1 1.5 0.8 2.9 1.9 3.9 0.7 0.7 1.7 1.1 2.7 1.3q0.7 0.2 1.5 0.1c1.3 0 3-0.7 3.9-1.8q2.2-3.2 4.4-6.4c3.4-4.9 6.9-9.8 10.4-14.7 4.2-6 8.4-12 12.6-18.1 6.8-10 13.8-20.6 22-33.4 12.8-20 26.2-42.3 40.8-68.1 16.7-29.4 32.7-59.9 48.2-89.4 9.2-17.5 18.4-35 27.8-52.4l0.8-1.4c25-46.4 50.9-94.4 72.6-143.4 9.7-21.9 18.6-45.2 27.4-71l2.7-7.9c3.4-9.9 6.8-19.7 10-29.6 8.3-25.7 18.5-59.8 22.9-95.4 2.3-18.5 2.8-34.5 1.4-49-0.7-7.7-2.1-15.4-4.2-23z"/><path class="d" d="m3709.1 1842.9c-1.4-9.2-3-18.4-4.8-27.4-2.1-10.9-4.4-19.7-7-27.6-2.5-7.5-5.7-15.1-9.6-22.6-3.1-6-6.6-11.5-10.6-16.4-8.3-10.1-17.5-17.2-27.4-21-3.3-1.3-6.4-2.2-9.4-2.8q-2.8-0.6-5.8-0.8c-2.4-0.2-5.3-0.4-8.3-0.2-2.8 0.1-5.6 0.6-8.8 1.2-4.4 0.9-8.9 2.4-13.4 4.6-5.4 2.5-10 5.3-14.2 8.5-8.9 6.8-16.8 15.6-24.3 26.8-6.5 9.7-11.7 21.5-15.9 35.9-4 13.4-6 28.1-6.1 43.7-0.1 9.2 0.8 18.2 1.6 25.7 0.9 8.1 2.2 16.7 4.2 27.9 3.5 18.9 8 37.5 13.6 55.4 11.8 38.4 26.8 75 41.4 108.8 4.4 10.3 8.8 20.4 13.3 30.6 10.8 24.5 21.9 49.9 31.8 75.2q2.5 6.3 4.9 12.7 0.1 0.4 0.3 0.9l0.4 1 0.3 1c0.3 0.8 1 1.4 1.8 1.5q0.6 0.1 1.1-0.1c0.4 0 0.6-0.2 0.8-0.4 2.1 0.2 4.1-1 5.2-2.9 33.5-60.4 51.3-135.6 52.8-223.7 0.3-18.4-0.2-37.6-1.6-58.6-1.3-18.9-3.4-38.1-6.3-56.9z"/><path class="e" d="m3591.3 2204.4c-6.4-15.1-13.7-28.7-21.7-40.4-9.1-13.4-19.8-24.9-31.7-34.2-10.1-7.9-19.9-12.9-29.2-14.8-2.7-0.5-5.3-0.9-7.9-0.9-5-0.2-10.1 1-14.7 3.3-4.1 2-7.9 5.1-11 9.2-6.4 8.1-9.7 18.9-10.3 32.9-0.5 13.5 2.2 28 8.5 45.9 5.7 16.1 13.3 32.2 23.1 49.2 8.8 15.3 19.1 30.4 31.4 46.1 24.9 31.8 56 62.7 92.4 91.7 0.4 0.3 0.9 0.6 1.4 0.7 0.7 1.6 2.1 2.9 3.8 3.2q0.6 0.2 1.2 0.1c1.3-0.1 2.5-0.7 3.4-1.7 0.8-0.9 1.2-2.1 1.1-3.3-3-34.2-7.1-64.2-12.4-91.9-7.2-37.9-15.9-68.1-27.4-95.1z"/><path class="f" d="m4128.5 1983.3c-2.7-4.8-6.1-9.5-10.2-13.9-3.4-3.7-7.4-7.1-12.2-10.2-6.4-4.2-14-7.2-22.5-9-2.2-0.4-4.3-0.7-6.5-1-10.2-1.3-21.3-0.9-33.8 1.3-11.5 2-23.3 5.3-36.2 10.1-11.5 4.2-23.4 9.5-36.5 16.2-11.1 5.7-22.7 12.3-34.3 19.6-19.7 12.4-37.7 25.5-53.4 39-12.7 11-25.5 23.4-39.1 38-13 13.9-25.7 28.9-37.5 44.6-23.1 30.6-43.1 63.9-59.7 99-24.9 53.1-41.4 109.9-49 168.9-0.1 0.5-0.1 1 0.1 1.5-0.3 0.4-0.6 0.9-0.7 1.5-0.2 1.3 0 2.6 0.7 3.7 0.7 1.1 1.9 1.8 3.1 2.1 1.1 0.2 2.7 0.1 3.7-0.7l1.5-1.2 1.5-1.3c0.6-0.5 1.3-1 2-1.5l1-0.7q3.1-2.3 6.1-4.6l6.5-4.9 6.6-5c8.4-6.3 16.8-12.5 25.4-18.6 15.7-11.1 30-20.5 43.5-28.6 16.7-9.9 34.2-19.1 51.1-28.1l4.9-2.5 4.2-2.3c46.2-24.3 93.9-49.5 138.5-78.3 25.7-16.6 47.7-32.9 67.2-49.6 21.4-18.4 38-36.5 50.9-55.4 13.7-20 22-40.4 24.9-60.6 1.5-10.9 1.4-21.9-0.3-32.5-2-12.8-5.9-24.6-11.5-35z"/><path class="g" d="m4140.5 2273.6c-4.9-8.9-13.3-13.9-19.6-16.7-4.2-1.8-8.9-3.3-14.2-4.4-4.5-0.9-9.5-1.6-15.2-2-10-0.8-21.1-0.6-33.8 0.7-10.4 1-21.3 2.7-33.3 5.1-9.4 2-18.5 4.3-27.1 6.9-13 4-25.5 9.6-35 14.1-15.7 7.5-31.8 16.8-47.6 27.7-41.5 28.5-78.8 67.1-107.9 111.5q-0.2 0.4-0.2 0.9c-2 1.2-2.9 3.6-2.2 5.9 0.5 1.9 2.1 3.2 4 3.6 0.9 0.2 1.7 0.2 2.6-0.1l7.3-2.2c3.5-1 7-2.1 10.5-3.2l5.3-1.6c4.6-1.5 9.2-3 13.8-4.4 4.7-1.4 9.8-2.6 15.4-3.9 11.3-2.4 23-4.5 34-6.3l18.5-3.1c18.6-3.1 37.7-6.3 56.5-9.9 21.6-4 49.9-9.8 78-18.3 13-3.9 24.3-8 34.5-12.4 11.3-4.9 20.8-10 28.9-15.5 8.7-6 15.5-12.2 20.6-18.9 2.8-3.7 5-7.5 6.6-11.2 1.8-3.9 3-8.3 3.7-12.9 0.9-5.7 1-11.1 0.3-16.1-0.7-4.8-2.1-9.2-4.4-13.3z"/><path class="f" d="m3951.6 1416.3c-1.1-0.2-2.4 0.5-2.5 1.7-10.9 71.1-26.3 141.4-44.8 210.9-9.1 34.5-19.2 68.7-29.8 102.7-10.4 33.8-21.5 67.3-33.1 100.7q0-0.2 0-0.3-2 5.8-4 11.6 0.1-0.4 0.2-0.7-9.1 25.9-18.5 51.8c-6.4 17.4-12.9 34.7-19.4 52-12.9 34.7-26.4 69.2-39.8 103.7-13.5 34.6-27.1 69.2-40.3 103.9q-9.9 26.1-19.4 52.4c-6.4 17.6-12.8 35.2-18.6 53.1-7.4 22.7-13.6 45.8-18.6 69.2-4.8 22.4-8.2 45.1-10.5 67.9-4.9 48-4.2 96.3 0.7 144.2 0.3 2.8 1.4 5.2 3.4 7 2.1 1.9 4.8 2.8 7.6 2.7 5.5-0.4 10-5.4 9.6-11-1.6-21.3-2.7-42.7-3.1-64.1q-0.6-31.3 1.6-62.4c2.1-27.6 5.9-55 11.6-82.1 6.1-29.2 14.4-57.9 24.2-86.1q-0.4 1.3-0.9 2.6c8.6-24.5 17.3-48.9 25.9-73.4q0.1-0.2 0.1-0.4c10.7-30.3 21-60.7 31.7-91q0 0-0.1 0.1c12-34.3 23.7-68.7 35.6-103.1 12.2-34.9 24-70 35.7-105.1 11.8-35.1 23-70.3 33.9-105.7q16.5-53.1 31-106.8c21.7-80.1 39.7-161.3 52.3-243.4 0.2-1.2-0.5-2.3-1.7-2.6z"/><path class="f" d="m3733.4 2173.4q-0.1 0.2-0.2 0.5 0 0.2-0.1 0.4 0.2-0.5 0.3-0.9z"/><path class="e" d="m3670.8 2315.4c-0.4-10.4-0.5-20.8-0.8-31.2-0.7-20.6-1.6-41.1-2.5-61.6-0.9-20.6-2-41.2-2.8-61.8-0.3-10.3-1-20.7-1.6-31-0.6-10.3-1.1-20.6-1.8-30.9-1.3-20.6-2.7-41.2-4.2-61.8-1.5-20.6-3.6-41.2-5.6-61.7-4.1-40.9-9.6-81.8-17.5-122.2q-6-30.5-14-60.6c-0.2-0.7-0.7-1-1.2-1.2-1.1-0.2-2.5 0.8-2.1 2.3 4.6 17.4 8.6 34.9 12.1 52.6q0-0.1 0-0.1c7.9 40.3 13.3 81.2 16.3 122.2 1.5 20.6 2.7 41.2 3.3 61.8q0.8 31 1.1 62c0.3 20.7 0.1 41.4 0.2 62.1 0 10.3 0.3 20.7 0.3 31 0 10.3 0.1 20.6 0.3 31 0.3 20.5 0.8 41.1 1.9 61.6 0.7 10.3 1.4 20.5 2.4 30.7 1.1 10.9 1.9 22 4.1 32.8 0.6 2.9 1.3 5.8 2.2 8.7 0.7 2.3 3.1 3.9 5.5 3.7 1.5-0.1 2.8-0.7 3.8-1.8 1-1.2 1.3-2.5 1.4-4 0.3-5.2 0.1-10.5-0.1-15.7-0.2-5.6-0.5-11.3-0.7-16.9z"/><path class="h" d="m3575.7 2287.9q-0.1 0-0.1-0.1 0 0 0 0 0 0 0.1 0.1z"/><path class="h" d="m3575.2 2287.1q0.2 0.3 0.4 0.7-0.1-0.1-0.1-0.2-0.1-0.3-0.3-0.5z"/><path class="h" d="m3575.6 2287.8q0 0 0 0-0.1-0.1-0.1-0.2 0 0.1 0.1 0.2z"/><path class="h" d="m3644.4 2425.2c-2.1-9.5-4.7-18.8-7.6-28.1-5.9-18.6-13.9-36.6-22.1-54.4-8.2-17.9-17.9-35.2-27.3-52.7-9.3-17.3-19.1-34.3-29.5-51-15.7-25.5-32.8-50.1-50.4-74.3-0.4-0.6-1-1-1.7-1.1-0.6-0.2-1.3-0.1-1.8 0.3-1.2 0.7-1.6 2.4-0.8 3.5 13.7 18.9 26.5 38.5 38.6 58.4 12 19.9 23.2 40.4 33.4 61.3q0-0.1-0.1-0.2 0.2 0.3 0.4 0.7 0 0.1 0.1 0.2c3.1 6.4 6.1 12.8 8.9 19.4 2.9 6.8 5.5 13.8 8.1 20.7 5.3 14.3 10.4 28.7 14.7 43.4 4.3 14.5 8.4 29.2 12.2 43.9 3.8 14.6 7.2 29.3 10.9 43.9 1.1 4.2 5.8 6.9 10 6.6 5.2-0.3 9.7-5.1 9.2-10.4-1.1-10.1-3-20.2-5.2-30.1z"/><path class="g" d="m3911.5 2128.2q0.3-0.2 0.6-0.4 0 0 0 0-0.3 0.2-0.6 0.4z"/><path class="g" d="m3912.4 2127.5q-0.1 0-0.1 0.1-0.1 0.1-0.2 0.2 0.1-0.2 0.3-0.3z"/><path fill-rule="evenodd" class="g" d="m4075 1997c-0.7-0.2-1.5-0.1-2.2 0.4-24.9 17.5-49.9 34.7-74.6 52.4-13.4 9.7-26.9 19.3-40.2 29.2-13.8 10.3-27.5 20.7-40.9 31.4-27.8 22-54.9 44.7-80.9 68.8-25.6 23.9-50.5 48.7-73 75.6-10.8 13.1-21.3 26.5-31.1 40.4-5.2 7.4-10.2 14.8-15.1 22.4-4.4 7-8.5 14.2-12.4 21.5-7.7 14.2-14.3 29.1-19.8 44.4-5.7 15.7-10.4 31.8-13.5 48.2-1.5 7.9-2.6 15.8-3.2 23.7-0.4 4.5-0.7 8.9-0.7 13.5q-0.1 2.8 0.1 5.7c0 0.9 0.1 1.9 0.2 2.8 0.1 1.3 0 2.6-0.1 3.9-0.1 2.4 1.5 5.1 3.3 6.6 1.9 1.8 4.5 2.7 7.2 2.5 2.5-0.1 4.9-1.3 6.6-3.2q0.8-1.1 1.5-2.1 1.2-2.4 1.1-5.1 0-0.6 0-1.2c0.2-1.2 0.5-2.5 0.7-3.8 0.3-1.8 0.6-3.7 0.9-5.6q0.7-5.2 1.6-10.3c1.1-7.3 2.4-14.5 3.9-21.6 3-13.9 6.9-27.6 11.6-41.1 6.9-18.9 15.2-37.3 24.6-55.2 9.9-18.9 20.9-37.3 32.9-55q-0.2 0.2-0.3 0.3 0.2-0.3 0.5-0.6l1-1.5q-0.3 0.5-0.6 0.9c4.6-6.6 9.4-13.1 14.3-19.5 5.3-7 10.6-13.8 16.2-20.5 11.1-13.5 22.7-26.8 34.7-39.5 24.2-25.7 50.1-49.7 76.8-72.9q2.7-2.3 5.4-4.7-0.1 0.1-0.1 0.1 0.3-0.2 0.7-0.5 0.1-0.1 0.2-0.2c12.9-11 26-21.7 39.3-32.3 13.1-10.5 26.4-20.9 39.7-31 24.7-18.8 49.9-37 75.1-54.9l9.8-6.9c1.3-0.9 1.8-2.8 0.8-4.2-0.4-0.7-1.2-1.1-2-1.3zm-370 402.2q0.4-1 0.7-2-0.3 1-0.7 2z"/><path class="g" d="m3763.5 2286.2q0.3-0.5 0.6-0.9-0.2 0.3-0.4 0.6-0.1 0.1-0.2 0.3z"/><path class="f" d="m4103.3 2283.9q-0.5-0.1-1 0c-33.3 7.1-66.4 14.9-99.1 24.7-16.3 4.9-32.5 10.3-48.5 16.2-15.8 5.9-31.5 12.2-46.8 19.3-30.7 14.1-60 31.4-86.7 52-26.9 20.9-51.4 45.2-71.1 73.2-7.8 11.2-15.1 23-20.9 35.4-2 4.1-0.4 9.3 3 11.9 2.1 1.7 4.7 2.4 7.3 2.1 2.5-0.2 5.5-1.6 6.9-3.8 5-7.9 10-15.8 15.2-23.6 5.4-7.9 11-15.6 16.9-23.2 11-14.2 23-27.6 35.8-40.3q0.1 0 0.2-0.1 0.7-0.7 1.4-1.4-0.7 0.7-1.4 1.4c14.2-13.7 29.6-26.1 45.7-37.6 16.2-11.7 33.2-22.2 50.6-31.9 12.9-7 26-13.7 39.4-19.7 13.9-6.3 28.2-12 42.6-17.2 28.6-10.4 57.9-18.9 87.5-26.1q-0.1 0-0.2 0 0.3-0.1 0.5-0.1 0.2-0.1 0.4-0.1-0.2 0-0.4 0.1 11.2-2.7 22.4-5.1c1.6-0.4 2.9-1.6 2.7-3.4-0.1-1.2-1.2-2.4-2.4-2.7z"/><path class="f" d="m3912.7 1454.1q0-0.2-0.1-0.4l0.1 0.3q0 0 0 0.1z"/><path class="f" d="m3927.2 1502.7c-2-5.1-3.8-10.4-5.6-15.7-3.6-10.7-6.6-21.7-8.9-32.9v0.1q0-0.1 0-0.2-0.1-0.2-0.1-0.3 0 0 0 0-1.2-6.2-2.1-12.4c-0.6-4.2-1.1-8.5-1.5-12.7-0.1-0.8-0.6-1.5-1.4-1.6q-0.2 0-0.4 0c-0.9 0-1.7 0.9-1.6 1.8 1.4 15.7 3.2 31.4 6.1 46.9 1.4 7.7 3.3 15.4 5.7 22.8 2.5 7.8 5.7 15.3 10.1 22.2 0.7 1.1 2.2 1.6 3.5 1.2 1.5-0.5 2.4-2.3 1.8-3.8-1.8-5.2-3.7-10.2-5.6-15.4z"/><path class="f" d="m3879.3 1660.9c-4.3-6.7-8-13.7-11.5-20.8q0 0.2 0.1 0.3l-0.3-0.6q0 0.1 0.1 0.1-0.1-0.1-0.1-0.2c-3-6.2-5.8-12.4-8.3-18.8-2.8-7-5.3-14.1-7.5-21.3-4.4-13.9-8-28-10.8-42.3q0 0.3 0.1 0.5c-2-9.9-3.7-19.9-4.9-29.9-0.1-0.8-0.7-1.5-1.4-1.6q-0.2-0.1-0.5 0c-0.9 0-1.7 0.9-1.6 1.8 0.8 6.4 1.7 12.8 2.6 19.2 1.1 6.9 2.3 13.8 3.7 20.6 2.7 13.8 6.1 27.5 10.2 40.9 4.2 13.6 9.2 26.9 15.2 39.8q4.5 9.4 9.5 18.4c3.4 6.1 7.2 11.9 11.5 17.2 0.7 0.9 1.4 1.5 2.6 1.8 1 0.2 2.1 0 3-0.6 1.9-1.2 2.5-3.8 1.2-5.7-4.4-6.2-8.7-12.4-12.9-18.8z"/><path class="f" d="m3839.9 1804.2c-2.8-4.3-5.5-8.7-8.2-13.1-5.5-9.1-10.5-18.4-15.2-27.9l0.1 0.2c-10-20.6-18.3-42-24.6-64.1-0.2-0.6-0.7-1-1.3-1.1q-0.5-0.1-0.9 0.1c-0.9 0.3-1.4 1.2-1.1 2.1 6.1 21.4 13.3 42.5 22.3 62.8 4.4 10 9.1 19.8 14 29.5q3.8 7.4 7.9 14.7c2.7 4.9 5.6 9.7 9.1 14.1 0.6 0.8 1.2 1.4 2.2 1.6 1 0.2 2 0 2.7-0.5 0.8-0.5 1.4-1.4 1.6-2.3 0.2-1 0-1.9-0.5-2.7-2.4-4.6-5.3-9-8.1-13.4z"/><path class="f" d="m3795.7 1911c-2.2-3.5-4.4-7.1-6.5-10.7-2.1-3.6-4-7.3-5.9-11.1q-3.1-6.5-5.7-13.3c-1.9-4.8-3.4-9.7-4.7-14.6-0.1-0.6-0.7-1-1.3-1.1q-0.4-0.1-0.9 0c-0.9 0.3-1.3 1.3-1 2.2 1.6 6.4 3.6 12.8 5.8 19.1 2.3 6.5 4.9 12.8 7.8 19.1 2.7 5.8 5.4 11.5 8.4 17.2 3.3 6.2 7.1 12.1 11.1 17.9 1.1 1.6 3.3 2.1 4.9 1 1.8-1.1 2.1-3.3 1.1-4.9-4.2-7-8.6-13.9-13.1-20.8z"/><path class="f" d="m4006.1 1497.3c-0.6-0.1-1.3 0-1.6 0.5-6.8 8.5-14 16.7-21.6 24.4-7.6 7.7-15.4 15.2-23.6 22.3-6.5 5.6-13.2 11-20 16.3-3.4 2.7-6.9 5.3-10.4 7.9-3.6 2.7-7.2 5.4-10.7 8.3q-0.4 0.3-0.8 0.7-0.6 0.7-0.8 1.8c-0.3 1-0.1 2 0.5 2.9 1.2 1.8 3.7 2.3 5.5 1.2 4.1-2.6 8-5.5 11.8-8.6 4.1-3.1 8-6.4 11.9-9.8 7.5-6.4 14.6-13.2 21.5-20.2 14-14.1 26.9-29.3 39.2-44.9 0.6-0.7 0.6-1.8-0.1-2.4q-0.4-0.3-0.8-0.4z"/><path class="f" d="m3939.3 1704.3q0.2-0.1 0.3-0.3 0 0 0.1 0c-0.2 0.1-0.3 0.2-0.4 0.3z"/><path class="f" d="m3945.6 1695.3c-0.4-0.1-0.9 0-1.2 0.3-6 4.9-12 9.8-18 14.7-6.3 5.2-12.7 10.4-19 15.5-6 4.9-12 9.7-18.2 14.4q-4.6 3.6-9.2 7.1c-3.5 2.7-6.9 5.3-10.4 8-0.8 0.6-1.4 1.3-1.7 2.4-0.2 1 0 2.1 0.6 2.9 1.1 1.8 3.6 2.4 5.4 1.2 6-4.3 11.6-9.1 17.2-13.9 5.5-4.7 10.8-9.6 16.1-14.4 10.8-9.8 21.4-19.9 32.4-29.5q-0.1 0.2-0.3 0.3c0.1-0.1 0.2-0.2 0.4-0.3q-0.1 0-0.1 0 3.3-2.8 6.7-5.6c0.7-0.5 1-1.5 0.5-2.3-0.3-0.4-0.7-0.7-1.2-0.8z"/><path class="f" d="m3882.6 1851.9c-0.5-0.1-0.9 0-1.3 0.3-4.5 3.6-9 7.3-13.5 11q-6.7 5.4-13.5 10.9c-9.3 7.6-18.9 14.7-28.9 21.5-1.3 1-1.8 2.9-0.9 4.3 0.9 1.4 2.9 1.8 4.3 0.9q6.2-4.3 12-8.9c3.7-3.1 7.4-6.2 11-9.4 7.4-6.5 14.7-13.3 22.2-19.8q-0.2 0.1-0.4 0.3 4.8-4.1 9.6-8c0.8-0.5 1.1-1.5 0.5-2.3-0.2-0.4-0.7-0.7-1.1-0.8z"/><path class="g" d="m4039.9 1980.9c-0.6-0.1-1.3 0.1-1.6 0.6-7.5 9.8-14.5 19.9-20.5 30.6q-4.6 8.2-8.3 17-1.8 4.3-3.2 8.8c-1 3.2-1.7 6.4-2.2 9.6-0.3 1.3 0.5 2.6 1.8 2.9 1.3 0.3 2.6-0.6 2.9-1.9 1.3-5.4 2.9-10.8 4.7-16.1 2.4-6.8 5.3-13.3 8.6-19.6 3.3-6.3 7.1-12.4 11-18.4q-0.1 0.2-0.2 0.4 3.8-5.6 7.9-11c0.6-0.8 0.6-1.8-0.1-2.5q-0.4-0.3-0.8-0.4z"/><path class="g" d="m4050.5 2078.6q-0.4-0.1-0.8 0.1c-8.4 3.6-17 6.6-25.8 9.2-8.8 2.6-17.8 4.6-26.8 6.3q0.2-0.1 0.5-0.1c-5.2 0.9-10.3 1.7-15.5 2.3-5.5 0.8-11.1 1.3-16.7 1.8-11.1 1-22.2 1.2-33.4 1.8-1.6 0.1-2.9 1.5-2.8 3.2 0.1 1.6 1.5 2.8 3.1 2.8 10-0.2 19.9-1.1 29.8-2.3 10.1-1.1 20.3-2.6 30.3-4.4 9.9-1.8 19.6-4.1 29.2-6.9 9.9-2.8 19.7-6.3 29.1-10.4 0.9-0.4 1.5-1.3 1.2-2.2-0.2-0.6-0.8-1.1-1.4-1.2z"/><path class="g" d="m3928.2 2185.9q-0.2 0-0.3 0.1 0.1-0.1 0.2-0.1 0.1 0 0.1 0z"/><path class="g" d="m3982.8 2170.5q-0.4-0.1-0.9 0c-4.3 1.8-8.7 3.5-13.1 5-4.5 1.6-9 2.9-13.5 4.1-9 2.5-18 4.6-27.1 6.3q0 0 0.1 0h-0.1q0 0-0.1 0-0.2 0.1-0.5 0.1 0.2 0 0.3 0c-16.6 2.9-33.5 4.9-50.3 6.3-8.7 0.7-17.4 1.3-26.1 2-8.5 0.6-17.1 1.2-25.7 2.3-1 0.1-1.8 0.4-2.5 1.2-0.6 0.7-1 1.6-0.9 2.6 0.1 2 1.8 3.5 3.8 3.4 6.6-0.3 13.2-0.8 19.8-1.4q10.1-1 20.1-2.1c13.4-1.5 26.8-3.2 40.2-5.3 13.1-2 26.1-4.7 38.9-8 13-3.4 25.6-7.8 37.9-13 0.9-0.3 1.5-1.3 1.2-2.3-0.2-0.6-0.8-1.1-1.5-1.2z"/><path class="g" d="m3928.2 2185.9q0 0 0 0 0 0 0 0z"/><path class="g" d="m3827.7 2273.6q-0.4-0.1-0.9 0c-10.9 2.9-21.9 5.6-33 7.7l0.6-0.2c-7 1.3-14 2.3-21 3.1-7.5 0.7-15 1-22.6 0.7-0.9 0-1.8 0.5-2.3 1.1-0.6 0.7-0.9 1.6-0.9 2.4 0.1 1.9 1.7 3.2 3.6 3.2 6.3-0.1 12.5-0.6 18.8-1.3 6.4-0.8 12.8-1.9 19.1-3.3 6.5-1.3 13-2.9 19.4-4.6 6.5-1.7 13-3.5 19.4-5.2 1-0.3 1.6-1.4 1.3-2.4-0.3-0.7-0.8-1.1-1.5-1.2z"/><path class="g" d="m3898.8 2056.3q-0.2-0.1-0.4-0.1c-0.8-0.2-1.6 0.1-1.9 0.8-5.1 13.3-9.6 26.8-13.1 40.6q-2.6 10.5-4.3 21.3c-1.2 7.4-2 14.8-2.2 22.3 0 0.8 0.5 1.7 1.1 2.2 0.7 0.6 1.6 0.9 2.5 0.9 1.8-0.1 3.1-1.7 3.1-3.6-0.1-5.2 0-10.5 0.3-15.8 1.5-20.4 6.5-40.4 13.2-59.6l-0.2 0.4q1.3-3.6 2.6-7.1c0.4-0.9 0.2-1.8-0.7-2.3z"/><path fill-rule="evenodd" class="g" d="m3800.3 2167.5c-1-0.1-1.8 0.5-2.1 1.4-2.2 9.6-4.4 19.2-5.9 29q-1.1 7.5-1.7 15.2c-0.4 4.9-0.5 9.9-0.2 14.9 0.1 1.5 1.5 2.7 3 2.6 1.6-0.1 2.7-1.4 2.7-3q-0.4-5.8-0.5-11.6c0-4.1 0.1-8.2 0.4-12.2 0.9-11.6 3.1-23 5.6-34.2 0.2-0.9-0.4-1.9-1.3-2.1zm-4.3 35.9q0-0.1 0-0.2 0 0.1 0 0.2z"/><path class="e" d="m3628.8 1860.5c-2.9-2.9-5.7-5.9-8.4-9.1q0.1 0.2 0.2 0.3-0.2-0.2-0.4-0.5 0.1 0.1 0.2 0.2c-4.2-4.9-8.1-10.1-11.7-15.5-3.8-5.8-7.2-11.8-10.3-18.1 0 0.2 0.1 0.3 0.2 0.4q-2.3-4.7-4.2-9.5c-0.3-0.6-0.8-1-1.3-1.1q-0.5-0.1-0.9 0c-0.9 0.3-1.5 1.3-1.1 2.2 4.7 11.7 10.5 22.7 17.3 33.3 3.3 5.3 6.8 10.3 10.5 15.3q2.8 3.7 5.7 7.3c2.2 2.5 4.4 5 7 7.2 1.1 1 2.7 1.1 3.9 0.3 0.7-0.5 1.2-1.2 1.4-2 0.1-0.8 0-1.8-0.5-2.4-2.4-2.9-5-5.5-7.6-8.3z"/><path class="e" d="m3620.6 1851.7q-0.1-0.1-0.2-0.3-0.1-0.1-0.2-0.2 0.2 0.3 0.4 0.5z"/><path fill-rule="evenodd" class="e" d="m3639.8 1976.4q-5.4-4.2-10.6-8.6c-7-6-13.5-12.7-19.6-19.6-9.1-10.7-17-22.4-23.4-34.9-0.3-0.5-0.8-0.8-1.4-1-0.6-0.1-1.3 0-1.8 0.4-0.5 0.3-0.9 0.8-1 1.4-0.1 0.7 0.1 1.2 0.4 1.7 3.7 7.5 7.9 14.7 12.6 21.6 4.5 6.8 9.6 13.3 14.9 19.5q8.3 9.5 17.5 18.1c5.9 5.7 12.5 10.8 19.5 15.2 1.2 0.7 3 0.3 3.9-0.8 1.2-1.2 1.2-3.5-0.2-4.6-3.6-2.8-7.2-5.6-10.8-8.4zm-30.7-28.8q0.2 0.2 0.3 0.3-0.1-0.1-0.3-0.3z"/><path class="e" d="m3645.4 2074c-2.8-2.3-5.4-4.7-8-7.1-4.7-4.6-9-9.5-13.3-14.4q0 0 0 0-0.1-0.1-0.2-0.2 0-0.1-0.1-0.1 0.1 0 0.1 0.1c-3.3-3.9-6.6-7.8-9.8-11.8-0.3-0.4-0.7-0.6-1.1-0.7q-0.6-0.2-1.3 0.2c-0.7 0.5-1.1 1.7-0.5 2.4q4.6 5.6 9 11.3c3 3.7 6 7.3 9 11 2.9 3.4 5.9 6.8 9 10.1 3.4 3.5 6.8 6.8 10.7 9.7 0.6 0.5 1.3 0.9 2.2 0.8 0.8 0 1.5-0.4 2.1-1 1-1.2 1-3.2-0.3-4.3-2.5-2-5-4-7.5-6z"/><path class="e" d="m3672.1 1829.8c-0.9-0.2-1.9 0.4-2.1 1.4-2 12-4.2 24.1-6.7 36-2.5 12-5.5 23.8-9.5 35.4q0.1-0.4 0.2-0.7c-1.7 4.9-3.5 9.7-5.5 14.6-1.9 4.8-4.1 9.6-6 14.6-0.2 0.7-0.4 1.3-0.1 2.1 0.2 0.7 0.7 1.3 1.4 1.6 0.7 0.4 1.4 0.4 2.2 0.2 0.7-0.3 1.2-0.7 1.6-1.4 2.3-3.7 4.1-7.7 5.8-11.7 1.6-3.9 2.9-7.9 4.2-11.9 1.3-4.1 2.5-8.3 3.5-12.5 1.2-4.3 2.1-8.5 3.1-12.7 1.9-8.6 3.4-17.2 4.9-25.8 1.6-9 2.9-18.1 4.4-27.1 0.1-0.9-0.4-1.9-1.4-2.1z"/><path class="e" d="m3688.5 1970.6c-1-0.2-1.9 0.4-2.1 1.3-3 13.1-6.5 26-10.9 38.6q0-0.2 0.1-0.3c-2.7 7.6-5.7 15-9 22.4-3.3 7.5-7.2 14.8-11 22-0.7 1.4-0.1 3 1.2 3.7 1.4 0.7 2.9 0.1 3.7-1.2 3.6-6.4 6.7-13 9.6-19.8 2.9-6.9 5.4-14 7.8-21.1 4.7-14.3 8.5-28.9 11.9-43.6 0.2-0.9-0.5-1.8-1.3-2z"/><path class="h" d="m3540.5 2217.8c-3.4-1.8-6.9-3.4-10.4-5.1q-5.2-2.5-10.3-5.1c-7.1-3.7-14.1-7.8-20.7-12.3q0.1 0 0.2 0.1-0.2-0.1-0.3-0.2-0.1 0-0.1-0.1 0 0.1 0.1 0.1-3-2.1-6-4.3-0.3-0.3-0.8-0.4c-0.6-0.1-1.1 0-1.6 0.5-0.6 0.7-0.6 1.9 0.2 2.4 7.2 5.6 14.8 10.7 22.6 15.4 4 2.5 8.2 4.7 12.3 6.9 4.2 2.1 8.5 4.1 12.9 5.8 0.5 0.2 1 0.3 1.6 0.1 0.5-0.2 0.9-0.6 1.2-1 0.5-1.1 0.1-2.3-0.9-2.8z"/><path class="h" d="m3579.3 2291.3c-4.1-2.6-8.2-4.9-12.4-7.3q-6.2-3.6-12.3-7.2-6.2-3.6-12.2-7.4c-4-2.5-8-5.2-11.9-7.9q0 0.1 0 0.1-3.6-2.5-7.1-5.1-0.4-0.3-0.8-0.4c-0.6-0.1-1.2 0-1.6 0.5-0.6 0.6-0.6 1.9 0.1 2.4 8.8 6.6 17.8 13.1 27 19.1q7.1 4.6 14.3 9.1c4.8 2.9 9.6 5.8 14.7 8.5 1.2 0.6 2.7 0.1 3.3-1.1 0.3-0.6 0.3-1.3 0.1-1.9-0.2-0.7-0.6-1.1-1.2-1.4z"/><path class="h" d="m3599.5 2337.1c-5.2-2.1-10.4-4.1-15.5-6.4-5.2-2.3-10.1-5-14.7-8.2q-0.2-0.1-0.4-0.1c-0.3-0.1-0.7 0-1 0.1-0.4 0.1-0.8 0.4-1 0.8-0.2 0.4-0.2 0.9-0.1 1.3 0.2 0.5 0.5 0.7 0.9 1 9.3 6.3 19.4 11.3 29.7 15.6 0.6 0.2 1.2 0.3 1.8 0.1 0.6-0.2 1.1-0.6 1.3-1.1 0.3-0.6 0.3-1.2 0.1-1.8-0.1-0.5-0.6-1.1-1.1-1.3z"/><path class="h" d="m3562.4 2204.4c-1.1-6.4-2.4-12.8-3.6-19.2-0.1-0.5-0.2-0.9-0.6-1.2q-0.3-0.3-0.8-0.4-0.2-0.1-0.4 0c-0.9 0-1.8 0.9-1.6 1.8 1.1 6 2.1 12 3.1 18 0.5 3 0.9 5.9 1.3 8.9 0.4 3 0.7 6 1.1 9 0.7 5.9 1.2 11.9 1.6 17.9 0.5 6.5 0.9 13 1.4 19.5 0.2 1.4 1.3 2.5 2.8 2.4 1.4-0.1 2.4-1.3 2.4-2.7-0.2-12.2-2-24.2-3.8-36.1-0.9-6-1.9-11.9-2.9-17.9z"/><path class="h" d="m3595.2 2268.6q-0.2 0-0.4 0c-0.9 0-1.7 0.9-1.6 1.8q1 9.9 1.5 19.9c0.4 7.1 0.5 14.2 0.5 21.3 0 1 1 1.8 2 1.7 0.5 0 0.9-0.2 1.3-0.6 0.3-0.4 0.4-0.9 0.4-1.4 0.3-13.8-0.8-27.5-2.3-41.1-0.1-0.8-0.6-1.4-1.4-1.6z"/><path class="f" d="m4084 2264.3c-0.4-0.1-0.9 0-1.3 0.3-10.9 8.2-21.6 17.9-27.5 30.6-0.5 1-0.1 2.2 0.9 2.7 1 0.4 2.2 0 2.7-1q2-4 4.4-7.7c1.9-2.8 4-5.5 6.3-8.1 2.3-2.6 4.9-5 7.4-7.4-0.1 0.1-0.2 0.2-0.3 0.3q3.9-3.4 8.1-6.5c0.8-0.6 1-1.6 0.5-2.5-0.3-0.3-0.7-0.6-1.2-0.7z"/><path class="f" d="m4002.8 2275q-0.2 0-0.4 0c-0.5 0-0.8 0.3-1.2 0.6-6.8 6.1-13.5 12.5-19.4 19.6-3 3.6-5.7 7.4-8.1 11.2-2.6 4.1-4.8 8.3-6.3 12.9-0.2 0.5-0.3 1-0.1 1.7 0.2 0.5 0.6 1 1.2 1.3 1 0.5 2.5 0 3-1.1 1.2-2.9 2.5-5.8 3.9-8.6 1.4-2.7 3-5.3 4.6-7.9q0 0.1 0 0.1 0.1-0.2 0.2-0.3 0-0.1 0.1-0.2 0 0 0 0.1c3.2-4.9 6.9-9.5 10.8-14 4-4.4 8.3-8.6 12.7-12.6 0.3-0.2 0.5-0.8 0.4-1.2 0-0.4-0.2-0.9-0.6-1.2q-0.3-0.3-0.8-0.4z"/><path class="f" d="m3980 2304.7q0.2-0.2 0.3-0.3-0.1 0-0.1 0.1z"/><path class="f" d="m3918.2 2314c-0.6-0.1-1.2 0.1-1.6 0.6-7.5 11.2-14.2 23.2-17.2 36.5-0.3 1.3 0.6 2.6 1.9 2.8 1.3 0.3 2.6-0.6 2.9-1.9 0.7-3.2 1.5-6.3 2.5-9.4q-0.1 0.1-0.1 0.2 0-0.1 0.1-0.2 0-0.2 0.1-0.4 0 0.1-0.1 0.2 1-2.8 2.1-5.7c0.9-2.3 2-4.7 3.1-7 2-4.2 4.3-8.3 6.9-12.2l-0.3 0.4q0.4-0.5 0.7-1.1c0.3-0.4 0.4-0.7 0.4-1.2 0-0.5-0.2-0.9-0.6-1.2q-0.3-0.3-0.8-0.4z"/><path class="f" d="m4057.7 2322.2q0 0-0.1 0-0.2 0-0.4 0 0.3 0 0.5 0z"/><path class="f" d="m4087 2322.2q-0.2 0-0.4 0c-9.7 0.5-19.3 0.5-29 0q0.1 0 0.1 0-0.2 0-0.5 0 0.2 0 0.4 0c-7.7-0.5-15.4-1.5-23.1-2.9-8.3-1.5-16.4-3.7-24.4-6.3 0.2 0 0.4 0.1 0.6 0.2-2.1-0.7-4.1-1.4-6.2-2.2-0.7-0.2-1.4-0.3-2.1-0.1-0.7 0.3-1.3 0.8-1.6 1.4-0.3 0.7-0.3 1.4-0.1 2.1 0.2 0.6 0.7 1.3 1.4 1.6 13.3 4.7 27.2 7.7 41.3 9.2 14.4 1.5 29 1.2 43.4 0.4 0.9 0 1.6-0.9 1.6-1.8-0.1-0.8-0.6-1.4-1.4-1.6z"/><path class="f" d="m4005.9 2358q-0.2-0.1-0.5-0.1c-7.9 0.8-15.7 0.9-23.6 0.4q0.3 0 0.5 0.1c-10.7-0.8-21.2-2.5-31.8-4.7-11-2.2-21.9-5.2-32.9-7.6-1.2-0.2-2.5 0.6-2.7 1.8-0.1 0.6 0 1.3 0.4 1.8 0.3 0.5 0.8 0.8 1.4 1q10.8 2.9 21.6 5.3c7.5 1.7 15.1 3.3 22.7 4.5 7 1.1 14 1.8 21.1 2.2 7.8 0.4 15.7 0.2 23.6-0.6 1.1-0.1 2-1 1.9-2.2-0.1-0.9-0.8-1.8-1.7-1.9z"/><path class="f" d="m3904.1 2386.2q-0.3 0-0.5 0-3.1 0.3-6.4 0.4c-2.1 0.1-4.2 0-6.3-0.1q0.2 0 0.5 0c-5.1-0.3-10.2-1-15.2-2-5.5-1-10.8-2.3-16.2-3.5-1.1-0.3-2.1 0.5-2.3 1.5-0.3 1.2 0.5 2.1 1.6 2.4 7.4 1.8 14.9 3.3 22.5 4.4 7.3 0.9 14.7 1.1 22 0.4 1-0.2 1.7-0.9 1.6-1.9 0-0.7-0.6-1.4-1.3-1.6z"/><path class="g" d="m980 2227.5c-0.8-0.7-1.6-1.4-2.5-2.1l0.2 0.2v-0.1l-0.5-0.5v0.1l-0.5-0.5q0 0-0.1-0.1h-0.1l-1.1-1.1c-11-24-21-50-30.3-79.4-11.8-37.3-21.4-76.1-30.2-112.7q-3.6-14.7-7-29.3c-6.5-27.4-13.2-55.8-20.9-83.4-7.6-27.3-15.2-51-23-72.3-2.4-6.5-5-12.9-7.7-19.3-7.4-17.8-15.8-36.1-24.9-54.3-12.7-25.5-23.9-46.3-35.4-65.3-7.3-12.2-14.4-23.3-21.7-34-8.7-12.9-15.7-22.6-22.7-31.5-17.2-21.8-33.8-39.1-50.8-52.7-9-7.2-17.6-12.9-26.3-17.4-4.3-2.3-9.4-4.8-14.8-6.8-4.5-1.7-9.4-3.1-15.1-4.3-9.7-2.1-19.3-2.5-28.8-1.1-8.1 1.1-16.3 3.6-23.8 7.2q-2.5 1.1-4.9 2.5c-10.2 5.6-19.6 13-28 21.8-4.4 4.7-9.4 10.2-13.1 16.5-3.9 6.7-6.5 13-8.1 19.2-1.9 7.4-3 14.3-3.2 21-0.2 7.6 0.3 15.1 1.3 22.4 2 13.9 6.1 28.8 12.4 45.5 12.2 32.2 29.4 61.8 43 83.9 5.3 8.5 10.6 16.9 16 25.3l4.3 6.9c14.1 22.1 27.7 41.7 41.7 60 31.3 40.9 66.4 79.8 100.3 117.5l1 1.2c12.7 14.1 25.3 28.4 37.8 42.6 21.1 24.1 43 48.9 65.2 72.6 19.5 20.8 37.1 38.5 53.6 54.4 10.5 10 19.5 18.3 28.1 26.1 5.2 4.8 10.5 9.4 15.9 14 4.3 3.8 8.6 7.6 12.9 11.4q2.8 2.5 5.6 5c1.1 0.9 2.9 1.1 4.1 0.9q0.7-0.1 1.4-0.5c0.9-0.4 1.6-1 2.2-1.8 0.8-1.2 1.1-2.7 0.8-4.1-0.2-1.6-1.1-2.5-2.3-3.6z"/><path class="f" d="m1095.9 1939.4c-1-7.2-2.2-15.7-4.4-24.3-3.6-14.6-8.8-27.8-15.5-39.4-7.2-12.5-14.7-22.3-23.1-30-9.4-8.7-18.8-15.1-28.7-19.4-4.6-2.1-9.5-3.7-15.2-4.9-4.6-0.9-9.2-1.3-13.5-1.2-3.2 0.2-5.8 0.4-8.5 0.9-2.8 0.5-5.5 1.3-7.7 2q-2.7 0.9-5.2 2.1c-2.7 1.3-5.4 2.8-8.2 4.8-8.3 5.8-15.3 14.5-20.8 25.8-2.6 5.5-4.7 11.4-6.2 17.7-2 7.9-3.3 15.7-3.9 23.2-0.6 8-0.7 16.8-0.3 27.5 0.4 8.7 1 17.7 1.8 26.6 1.5 18.2 3.9 36.6 7 54.6 3.4 19.9 7.2 37.9 11.7 55.1 21.4 81.8 55 148.1 100 196.9 1.4 1.5 3.5 2.1 5.4 1.5 0.3 0.1 0.6 0.2 0.9 0.2q0.5 0.1 1.1-0.2c0.7-0.3 1.2-1 1.2-1.8l0.2-1 0.1-1q0.1-0.5 0.1-1 0.8-6.4 1.7-12.8c3.5-26 8.2-52.2 12.7-77.5 1.8-10.5 3.7-21 5.5-31.5 5.9-34.9 11.7-72.5 14-111 1.1-18 1.2-36.5 0.1-54.9-0.6-10.8-1.3-19.2-2.3-27z"/><path class="e" d="m1219.2 2162.7c-3.9-3.1-8-5.1-12.4-6.1-4.8-1.1-9.8-1-14.4 0.3-2.5 0.6-4.8 1.5-7.2 2.6-8.3 3.9-16.3 10.8-23.9 20.4-9.1 11.4-16.4 24.6-21.9 39.1-4.8 12.8-8.6 27.2-11.1 42.7-4.7 27.8-6 58-4.1 95 1.3 27.1 4.3 56 9.2 88.6 0.2 1.1 0.8 2.2 1.8 2.9 1.1 0.7 2.3 1 3.5 0.8q0.6-0.1 1.2-0.4c1.5-0.7 2.5-2.2 2.8-3.9 0.4-0.2 0.8-0.5 1.1-0.9 27.4-35.4 49.5-71.2 65.5-106.5 8-17.5 14.2-33.9 19-50.2 5.3-18.1 8.7-34.8 10.4-51.2 1.8-18.1 1.1-32.3-2.5-44.7-3.7-13-9.3-22.3-17-28.5z"/><path class="f" d="m1070.3 2456.6c0.1-0.4 0-0.9-0.2-1.4-20.4-53.3-48.7-102.7-84-146.6-23.4-29-49.7-55.6-78.1-78.9-14.7-12-29.8-23.2-45.1-33.3-16-10.4-30.8-19.1-45.2-26.5-17.7-9.1-37.4-17.3-58.7-24.4-12.4-4.1-24.7-7.7-36.4-10.5-13.8-3.3-26.1-5.5-37.7-6.9-13.2-1.5-25-1.9-36.1-1.2-12.2 0.8-22.6 2.9-31.9 6.4q-3 1.1-5.8 2.4c-7.6 3.6-14 8.2-19 13.5-3.8 4-6.8 8-9.2 12.3-2.8 5.1-4.9 10.2-6.2 15.3-3 11-3.9 22.8-2.9 35.2 0.8 10.4 3.2 20.6 7.1 30.4 7.2 18.3 19.6 35.5 36.9 51.1 16.3 14.7 36 27.8 60.1 40.1 22 11.3 46.2 21.5 74 31.2 48.2 16.8 98.4 29.5 147 41.8l4.4 1.1 5.2 1.3c17.8 4.5 36.2 9.2 54.1 14.7 14.5 4.5 29.9 9.9 47.1 16.8 9.4 3.7 18.7 7.6 27.9 11.6l7.2 3.2 7.2 3.1q3.4 1.5 6.8 2.9l1.1 0.5c0.8 0.2 1.5 0.5 2.2 0.9l1.7 0.8 1.7 0.8c1.1 0.6 2.6 0.3 3.6-0.1 1.1-0.6 1.9-1.5 2.4-2.7 0.4-1.2 0.3-2.5-0.2-3.6q-0.4-0.8-1-1.3z"/><path class="c" d="m975.4 2509.3q-0.1-0.5-0.4-0.8c-37.2-34.9-80.7-62.5-125.9-79.7-17.3-6.6-34.4-11.6-50.8-15.1-9.8-2-22.8-4.5-35.9-5.2-8.6-0.5-17.6-0.6-26.8-0.3-11.8 0.4-22.3 1.3-32.3 2.7-12.1 1.7-22.5 4-31.7 7-5.2 1.7-9.7 3.4-13.7 5.3-4.7 2.3-8.7 4.7-12.3 7.4-5.2 3.9-12 10.6-14.5 19.9-1.2 4.4-1.6 8.8-1.1 13.5 0.4 4.8 1.8 9.9 3.9 15 1.7 4.1 3.9 7.9 6.4 11.2 2.3 3.1 5.3 6.1 8.7 8.9 6.3 5.2 14 9.4 23.5 13 8.8 3.3 18.8 5.9 30.5 7.9 10.5 1.9 22 3.1 35 3.8 28.1 1.6 55.9 0.6 77-0.5 18.3-0.9 36.9-2.3 54.9-3.6l18.1-1.3c10.7-0.7 22-1.5 33.1-1.7 5.6-0.2 10.6-0.1 15.3 0.1 4.7 0.3 9.3 0.6 13.9 0.9l5.3 0.4c3.5 0.2 7 0.4 10.6 0.6l7.3 0.4c0.8 0 1.6-0.1 2.4-0.5 1.7-0.8 2.8-2.4 2.9-4.3 0.2-2.3-1.3-4.4-3.4-5z"/><path class="f" d="m1114.7 2455.3c-7.3-20.8-15.6-41.2-25.2-61-9.9-20.7-21-40.9-33-60.5-9.5-15.3-19.4-30.3-29.4-45.3q-14.8-22.4-30-44.6c-20.2-29.4-40.6-58.6-61.1-87.8-20.3-29.2-40.8-58.4-60.7-87.9-9.9-14.7-20-29.4-29.8-44.2q-14.7-22-29.1-44.2 0.2 0.3 0.4 0.6-3.2-4.9-6.4-9.9 0.1 0.2 0.2 0.3c-18.4-28.6-36.4-57.4-53.8-86.5-17.6-29.4-34.7-59.1-51-89.1-33-60.8-63.3-123-89.5-186.9-0.5-1-1.8-1.4-2.8-1-1.1 0.5-1.5 1.8-1 2.8 30.3 73.8 65.5 145.5 103.9 215.5q25.7 46.8 53.1 92.7c18.2 30.5 36.7 60.9 55.6 91 18.9 30.1 37.8 60.2 57.1 90.1 18.9 29.4 37.6 58.9 56.6 88.2q-0.1-0.1-0.1-0.1c16.8 25.9 33.3 51.9 50.1 77.8q0.1 0.2 0.2 0.3c13.6 21 27.3 41.8 40.8 62.8q-0.7-1.2-1.4-2.3c15.5 24.1 29.8 49.1 42.1 75 11.4 24 21.2 48.7 29.4 73.9q9.1 28.7 15.6 58c4.5 20 8.3 40.3 11.6 60.5 0.9 5.4 6.2 9 11.5 8.1 2.6-0.5 5-2 6.4-4.2 1.5-2.1 2-4.7 1.6-7.3-6.2-45.8-16.5-91.1-31.9-134.8z"/><path class="f" d="m988.5 2264.9q0.3 0.4 0.5 0.7-0.1-0.1-0.2-0.3-0.1-0.2-0.3-0.4z"/><path class="e" d="m1092.7 2373.3c-1.3-9.8-3-19.5-4.7-29.1-3.6-19.5-7.7-38.8-12.1-58.1-2.2-9.7-4.5-19.3-6.8-29-2.3-9.6-4.3-19.3-6.7-29-4.6-19.3-9.4-38.6-13.9-58q-6.7-29-12.9-58.2c-4.2-19.4-7.8-38.9-11-58.4-6.4-39-10.7-78.4-12.4-117.8q0 0 0 0.1c-0.7-17.3-1-34.6-0.6-51.9 0-1.5-1.5-2.1-2.5-1.6-0.4 0.2-0.8 0.6-0.8 1.3q-0.7 29.9 0.6 59.8c1.8 39.5 5.9 78.9 11.3 118.1 2.8 19.6 5.5 39.3 8.8 58.8 3.2 19.6 6.6 39.1 10 58.7 1.7 9.8 3.5 19.6 5.3 29.3 1.8 9.8 3.5 19.5 5.5 29.3 3.9 19.4 7.6 38.9 11.4 58.3 3.8 19.4 7.6 38.7 11.7 58.1 2 9.8 4.2 19.5 6.2 29.3 1.1 5.3 2.2 10.6 3.2 16 1 4.9 2 9.8 3.5 14.6 0.4 1.5 1 2.6 2.2 3.5 1.2 0.7 2.6 1 3.9 0.8 2.3-0.4 4.2-2.4 4.4-4.7 0.2-2.9 0.1-5.8 0-8.6-0.4-10.6-2.2-21.1-3.6-31.6z"/><path class="h" d="m1161.8 2336.1q0 0 0-0.1 0 0 0 0.1 0 0 0 0z"/><path class="h" d="m1200.7 2204.1c-0.7-0.2-1.3-0.2-1.9 0.1-0.5 0.3-1 0.8-1.3 1.4-10.9 26.6-21.3 53.5-30.2 80.9-5.9 17.9-11.3 36-16.1 54.3-4.8 18.4-9.8 36.7-13.5 55.4-3.7 18.4-7 37-8.3 55.7-0.6 9.3-1 18.6-0.8 28 0.2 9.7 0.7 19.5 2 29.2 0.8 5.1 6 8.6 11 7.7 3.9-0.7 7.7-4.3 7.7-8.5 0.3-14.4 0.1-28.9 0.3-43.4 0.3-14.6 0.7-29.2 1.4-43.8 0.8-14.6 2.3-29.2 4-43.8 0.9-7.1 1.7-14.2 2.9-21.2 1.1-6.7 2.4-13.4 3.9-20q0-0.2 0.1-0.3 0-0.4 0.1-0.8 0 0.1 0 0.2c4.8-21.8 10.6-43.5 17.4-64.8 6.7-21.3 14.3-42.4 22.7-63.1 0.5-1.3-0.2-2.8-1.4-3.2z"/><path class="h" d="m1161.8 2336q0.1-0.4 0.2-0.8-0.1 0.3-0.1 0.6-0.1 0.1-0.1 0.2z"/><path class="h" d="m1161.8 2336.1q0-0.1 0-0.1 0-0.1 0.1-0.2-0.1 0.1-0.1 0.3z"/><path class="g" d="m811 2262.5q0.2 0.1 0.4 0.2-0.1-0.1-0.2-0.1-0.1-0.1-0.2-0.1z"/><path class="g" d="m811.2 2262.6q0.1 0 0.2 0.1 0 0 0 0-0.1-0.1-0.2-0.1z"/><path fill-rule="evenodd" class="g" d="m1118.7 2533.9c-0.2-0.9-0.3-1.8-0.4-2.7q-0.5-2.7-1.2-5.3c-1.1-4.2-2.4-8.4-3.7-12.5-2.4-7.2-5.2-14.3-8.4-21.3-6.6-14.7-14.6-28.6-23.5-42.1-8.6-13-18.2-25.3-28.6-36.9-5.3-6-10.7-11.7-16.4-17.3-6.2-6-12.7-11.8-19.2-17.4-12.2-10.8-25.1-21-38.2-30.7-27-20.1-55.9-37.7-85.2-54.1-29.7-16.6-60.2-31.7-91.1-46-15-6.9-30.1-13.5-45.3-20-14.6-6.3-29.4-12.2-44.2-18.2-27.1-10.9-54.3-21.3-81.5-32-0.7-0.3-1.5-0.3-2.2 0.1-0.7 0.3-1.3 0.9-1.5 1.6-0.6 1.6 0.3 3.2 1.7 3.8l10.7 4.2c27.6 11 55.2 22.3 82.5 34.3 14.8 6.4 29.5 13.1 44.2 19.9 14.7 6.9 29.4 13.9 44 21.3q0.1 0 0.2 0.1 0.4 0.2 0.8 0.4-0.1 0-0.1-0.1 3 1.6 6.1 3.2c30.1 15.6 59.7 32.2 88.1 50.6 14.2 9.2 27.9 19 41.4 29.1 6.7 5 13.2 10.2 19.7 15.4 6 4.9 12 9.9 17.9 15q-0.4-0.3-0.8-0.7l1.2 1.2q0.3 0.2 0.6 0.5-0.1-0.2-0.3-0.3c15.2 13.8 29.6 28.5 43.2 44 12.7 14.5 24.7 29.8 35.4 45.9 7.4 11.5 14.2 23.4 20.1 35.8 3.1 6.3 5.9 12.7 8.6 19.2q1.9 4.7 3.8 9.3c0.7 1.7 1.4 3.4 2.1 5.1 0.5 1.1 1.1 2.2 1.5 3.4q0.2 0.5 0.3 1 0.5 2.6 2.2 4.6 0.9 0.8 1.8 1.6c2 1.4 4.6 1.9 7 1.5 2.5-0.4 4.7-1.9 6.1-4 1.3-1.8 2.2-4.7 1.5-6.9-0.3-1.2-0.7-2.4-0.9-3.6zm-53.6-66.2q0.5 0.8 1 1.6-0.5-0.8-1-1.6z"/><path class="g" d="m985.3 2376.3q0.3 0.4 0.7 0.7-0.1-0.1-0.3-0.2-0.2-0.2-0.4-0.5z"/><path class="g" d="m811.4 2262.7q0.3 0.2 0.7 0.3-0.4-0.1-0.7-0.3 0 0 0 0z"/><path class="f" d="m1039.9 2545c-24.7-21.7-53.1-38.9-83-52.3-29.6-13.2-60.8-22.7-92.6-29-15.9-3.1-32-5.4-48.1-7.3-16.3-2-32.7-3.3-49-4.2-32.7-1.7-65.4-1.6-98.1-0.6q-0.5 0-0.9 0.2c-1.1 0.5-1.8 1.9-1.7 3.1 0.2 1.7 1.7 2.5 3.3 2.5q11-0.3 22.1-0.3-0.2 0-0.4 0 0.2 0 0.4 0 0.2 0 0.4 0 0 0-0.1 0c29.3 0 58.5 1.4 87.6 4.6 14.6 1.6 29.3 3.7 43.7 6.4 13.9 2.6 27.6 5.9 41.2 9.5 18.5 5.1 36.7 11 54.5 18.3 17.6 7.2 34.8 15.2 51.2 24.8q-0.9-0.5-1.7-1 0.8 0.5 1.7 1 0.1 0.1 0.1 0.1c14.9 8.9 29.2 18.7 42.7 29.5 7.1 5.7 14.2 11.7 20.9 17.9 6.7 6 13.1 12.3 19.6 18.5 1.8 1.8 4.9 2.4 7.3 2 2.5-0.3 4.8-1.6 6.3-3.6 2.6-3.3 2.9-8.4 0.2-11.8-8.3-10.2-17.7-19.6-27.6-28.3z"/><path class="f" d="m659.3 1608.6c-0.1-0.9-1-1.5-1.9-1.4q-0.2 0-0.4 0.1c-0.7 0.3-1 1.1-0.9 1.8 0.5 4.1 1.1 8.2 1.5 12.3q0.5 6 0.8 12 0 0 0 0 0 0.1 0 0.2 0 0.2 0 0.3v-0.1c0.4 11 0.1 21.9-0.9 32.8-0.5 5.3-1 10.6-1.6 15.9-0.6 5.2-1.3 10.4-1.8 15.6-0.2 1.5 1 3 2.6 3.1 1.3 0.1 2.6-0.7 3-1.9 2.5-7.4 3.8-15.2 4.4-23 0.5-7.5 0.5-15 0.1-22.6-0.8-15.1-2.7-30.2-4.9-45.1z"/><path class="f" d="m658.4 1633.4q0 0.2 0 0.4 0-0.1 0-0.2z"/><path class="f" d="m751.7 1703.3c-0.5-6.2-1.2-12.4-1.9-18.5-0.1-0.9-1.1-1.5-1.9-1.4q-0.2 0.1-0.4 0.2c-0.7 0.3-1 1-0.9 1.8 1 9.6 1.7 19.3 2.1 29.1q0-0.3 0-0.6c0.6 14 0.5 28-0.5 42-0.5 7.2-1.2 14.4-2.2 21.6-0.9 6.5-2.1 13-3.5 19.4q0 0.1 0 0.2 0-0.1 0-0.1l-0.1 0.6q0-0.1 0-0.3c-1.6 7.4-3.6 14.8-6.1 22-2.4 6.9-5.1 13.7-7.7 20.5-0.8 2 0.4 4.4 2.3 5.1 1 0.3 2.1 0.3 3-0.2 1-0.5 1.6-1.2 2-2.2 2.9-6 5.1-12.2 6.9-18.7q2.6-9.6 4.7-19.3c2.7-13.4 4.3-27 5.2-40.6 0.8-13.5 0.9-27 0.3-40.5-0.3-6.7-0.7-13.4-1.3-20.1z"/><path class="f" d="m828.4 1834q-0.4-0.1-0.8 0.1c-0.6 0.3-1 0.8-1 1.4-0.9 22-3.9 43.9-8.5 65.4l0.1-0.3c-2.2 10-4.8 19.8-7.9 29.6-1.5 4.7-3.1 9.4-4.7 14-1.7 4.8-3.3 9.5-4.5 14.4-0.3 0.9-0.3 1.7 0.1 2.6 0.4 0.8 1.1 1.5 2 1.8 0.8 0.3 1.8 0.2 2.6-0.2 0.9-0.4 1.4-1 1.8-1.9 2.2-4.9 3.8-10.1 5.3-15.3q2.1-7.7 4-15.5c2.4-10.1 4.6-20.4 6.4-30.7 3.7-21 5.8-42.3 6.6-63.7 0-0.9-0.6-1.7-1.5-1.7z"/><path class="f" d="m882.8 1980.9q-0.4-0.1-0.8 0.1c-0.5 0.3-0.9 0.8-1 1.4-0.1 4.9-0.4 9.8-1 14.7q-0.9 6.9-2.4 13.7c-0.9 3.9-1.8 7.8-2.9 11.7-1.1 3.8-2.4 7.7-3.7 11.5-2.6 7.4-5.2 14.8-7.5 22.3-0.6 1.8 0.2 3.8 2.1 4.4 1.8 0.7 3.7-0.3 4.4-2.1 2.4-6.3 4.6-12.7 6.2-19.2 1.6-6 2.8-12 4-18 1.3-6.5 2.3-13 3-19.5 0.6-6.4 1-12.8 1.1-19.2 0.1-0.9-0.5-1.7-1.5-1.8z"/><path class="f" d="m681.9 1750.2q-0.4-0.2-0.9-0.4c-3.8-1.9-7.8-3.6-11.8-5.3q-5.8-2.5-11.5-5.1c-7.5-3.4-15-6.9-22.4-10.7-9.2-4.8-18.2-9.9-27.1-15.4-8.8-5.5-17.4-11.5-25.6-17.9-0.5-0.4-1.1-0.4-1.7-0.1q-0.3 0.1-0.6 0.5c-0.5 0.8-0.3 1.7 0.4 2.3 15.1 11.8 30.5 23.1 46.8 33.1 8.1 4.9 16.2 9.6 24.6 13.9 4.4 2.3 8.9 4.5 13.4 6.5 4.2 2 8.5 3.9 13 5.3 1.9 0.7 4.1-0.3 4.8-2.3 0.3-0.9 0.3-2-0.1-2.9q-0.5-0.9-1.3-1.5z"/><path class="f" d="m766.8 1905.3c-3.9-1.8-7.7-3.4-11.5-5.1q-5.1-2.2-10.2-4.5c-6.8-3-13.6-6.2-20.3-9.4-7.1-3.4-14.1-6.7-21.2-10.1-6.7-3.3-13.5-6.5-20.2-9.8-0.4-0.1-0.8-0.1-1.2 0.1-0.4 0.2-0.7 0.5-0.9 0.9-0.3 1 0.2 1.8 1 2.1q3.8 1.9 7.5 3.8 0 0-0.1-0.1c0.2 0.1 0.3 0.2 0.5 0.2q-0.2 0-0.4-0.1c12.5 6.4 24.6 13.4 36.9 20.1 6.1 3.4 12.1 6.7 18.3 9.9 6.3 3.2 12.7 6.3 19.3 9 1.9 0.7 4.1-0.4 4.7-2.3 0.4-0.9 0.3-1.9-0.1-2.8-0.5-1-1.2-1.5-2.1-1.9z"/><path class="f" d="m689.7 1873.2q0.1 0.1 0.1 0.1 0.2 0.1 0.4 0.1c-0.2 0-0.3-0.1-0.5-0.2z"/><path class="f" d="m839.8 2026.3c-10.8-4.1-21.5-8.5-31.9-13.5q-7.5-3.6-15.1-7.2c-5-2.4-10-4.9-15.1-7.2-0.3-0.2-0.8-0.1-1.2 0-0.4 0.2-0.7 0.6-0.9 1-0.3 0.9 0.2 1.7 1 2.1q5.4 2.6 10.8 5.3-0.2-0.1-0.4-0.2c8.4 4.3 16.8 9 25.2 13.4 4.1 2.2 8.2 4.3 12.4 6.3q6.4 3.1 13.2 5.6c1.5 0.6 3.3-0.3 3.8-1.8 0.5-1.5-0.3-3.2-1.8-3.8z"/><path class="g" d="m703 2200.1q-2.3-3.8-4.9-7.5-5.4-7.3-11.6-14c-8.1-8.6-16.9-16.5-26-23.9-0.5-0.4-1.1-0.4-1.7-0.2q-0.4 0.2-0.6 0.6c-0.6 0.8-0.3 1.7 0.4 2.3q5.1 4.1 9.9 8.5-0.2-0.2-0.3-0.3c5 4.6 9.9 9.5 14.4 14.7 4.6 5.1 8.7 10.5 12.5 16.3 2.9 4.5 5.6 9.2 8.1 14 0.5 1.1 1.9 1.6 3 1.1 1.2-0.6 1.6-2 1.1-3.1-1.2-2.9-2.6-5.8-4.3-8.5z"/><path class="g" d="m786.5 2241.3c-10.5 2-21 4.2-31.6 5.9-5.3 0.8-10.7 1.6-16 2.1-5 0.5-10 1-15 1.3q0.3 0 0.5 0c-8.8 0.4-17.6 0.6-26.5 0.2-8.7-0.4-17.5-1.3-26.1-2.8q-0.4-0.1-0.8 0.1c-0.6 0.3-1 0.9-1 1.4-0.1 1 0.6 1.7 1.5 1.8 9.8 1.7 19.7 2.8 29.6 3.2 9.6 0.4 19.2 0.3 28.8-0.2 9.8-0.6 19.6-1.5 29.4-2.7 9.5-1.2 18.9-2.6 28.2-4.6 1.6-0.4 2.6-1.8 2.3-3.4-0.3-1.5-1.8-2.6-3.3-2.3z"/><path class="g" d="m809.5 2320.7q0 0 0 0 0 0 0 0z"/><path class="g" d="m910.1 2308c-0.8-0.6-1.6-0.7-2.6-0.6-8.2 0.9-16.4 2.3-24.5 3.7-8.3 1.4-16.5 2.8-24.8 4.1-16 2.5-32.2 4.4-48.4 5.4q0.1 0 0.3 0-0.3 0-0.5 0.1-0.1 0-0.1 0h-0.1q0.1 0 0.1 0c-8.9 0.4-17.8 0.5-26.7 0.2-4.5-0.2-9-0.4-13.5-0.8-4.5-0.3-9-0.9-13.5-1.7q-0.4 0-0.8 0.2c-0.6 0.2-1 0.9-1.1 1.5 0 1 0.7 1.7 1.7 1.9 12.6 2.1 25.4 3.3 38.2 3.5 12.8 0.2 25.5-0.3 38.2-1.3 13-1.1 25.9-2.5 38.8-4.2q9.6-1.2 19.1-2.6c6.3-0.9 12.6-1.9 18.9-3.1 1.9-0.4 3.1-2.2 2.8-4.1-0.2-0.9-0.7-1.7-1.5-2.2z"/><path class="g" d="m809.8 2320.6q-0.2 0.1-0.3 0.1 0 0 0.1 0 0.1-0.1 0.2-0.1z"/><path class="g" d="m1000 2373.5c-0.7-0.5-1.7-0.8-2.5-0.5-7 1.9-14.1 3.4-21.2 4.4-6.8 0.9-13.5 1.5-20.3 1.9h0.6c-10.9 0.6-21.7 0.5-32.6 0.3q-0.5 0-0.9 0.2c-0.5 0.2-0.9 0.8-1 1.5-0.1 0.9 0.7 1.9 1.7 1.9 6.4 0.1 12.8 0.4 19.3 0.5 6.4 0.1 12.8 0.1 19.2-0.1 6.2-0.2 12.4-0.6 18.6-1.3 6-0.7 11.9-1.7 17.8-3 1.8-0.4 2.9-2 2.6-3.8-0.1-0.8-0.6-1.5-1.3-2z"/><path class="g" d="m840.2 2247q-4-9.7-8.9-19c-6.4-12.1-13.6-23.6-21.4-34.9-0.4-0.6-1.3-0.7-1.9-0.4q-0.2 0.1-0.4 0.3c-0.7 0.6-0.6 1.5-0.1 2.3q2 3 4 6l-0.3-0.3c10.6 16.4 19.9 34 25.9 52.6 1.4 4.9 2.7 9.8 3.8 14.8 0.4 1.7 2 2.9 3.8 2.6 0.8-0.2 1.6-0.7 2.1-1.4 0.4-0.6 0.7-1.6 0.5-2.3-1.9-6.9-4.4-13.7-7.1-20.3z"/><path fill-rule="evenodd" class="g" d="m944.2 2314.9q-2.3-7-5.1-13.8c-3.6-8.8-7.8-17.3-12.1-25.8-0.4-0.8-1.4-1.1-2.2-0.7-0.8 0.3-1.2 1.4-0.8 2.2 4.9 9.9 9.6 20 13 30.6 1.2 3.7 2.2 7.5 3.1 11.3q1.2 5.5 2.2 11c0.3 1.5 1.7 2.5 3.2 2.2 1.4-0.2 2.4-1.7 2.2-3.1-0.8-4.7-2-9.4-3.5-13.9zm-7.4-8q0.1 0.1 0.1 0.2 0-0.1-0.1-0.2z"/><path class="e" d="m1037.7 1891.4q-0.5 0-0.8 0.2c-0.6 0.2-0.9 0.7-1 1.3q-0.8 4.9-1.8 9.8c0-0.1 0.1-0.3 0.1-0.4-1.5 6.5-3.3 13-5.6 19.3-2.1 5.8-4.6 11.5-7.3 17.1q0-0.2 0.1-0.3-0.2 0.3-0.3 0.6 0.1-0.2 0.2-0.3c-1.9 3.5-3.8 7-5.8 10.4-1.8 3.1-3.7 6.2-5.3 9.4-0.3 0.7-0.2 1.7 0.1 2.4 0.4 0.7 1 1.2 1.8 1.5 1.3 0.5 2.7 0 3.5-1.1 1.9-2.7 3.5-5.5 4.9-8.4q2-3.9 3.7-8.1c2.3-5.4 4.5-11 6.4-16.6 3.9-11.4 6.8-23.1 8.6-35 0.1-0.9-0.7-1.7-1.5-1.8z"/><path class="e" d="m1021.4 1938.4q-0.1 0.1-0.1 0.3-0.1 0.1-0.2 0.3 0.1-0.3 0.3-0.6z"/><path fill-rule="evenodd" class="e" d="m1070 1987.4c-0.5-0.2-1.2-0.2-1.8 0.1-0.5 0.2-0.9 0.7-1 1.2-3.2 13.1-7.9 25.8-14 37.9-4.1 7.8-8.7 15.5-13.9 22.7q-3.9 5.3-7.9 10.5c-2.7 3.4-5.5 6.8-8.2 10.2-1 1.4-0.5 3.5 0.9 4.4 1 0.8 2.8 0.8 3.8-0.2 5.6-5.6 10.5-11.9 14.8-18.6q6.6-10.1 12.2-20.8c3.6-7 6.8-14.2 9.5-21.6q4.2-11.3 6.9-23c0.2-0.6 0.2-1.1-0.1-1.7-0.2-0.5-0.7-0.9-1.2-1.1zm-16.6 38.9q0-0.2 0.1-0.3-0.1 0.1-0.1 0.3z"/><path class="e" d="m1072 2112.8q-0.7-0.2-1.2 0.1c-0.4 0.1-0.7 0.5-0.9 0.9-2.1 4.4-4.3 8.8-6.5 13.2q0 0 0.1-0.1-0.1 0.1-0.1 0.1-0.1 0.2-0.1 0.3 0 0 0 0c-2.9 5.6-5.9 11.1-9.2 16.4-1.9 2.9-3.8 5.7-5.8 8.4-1.9 2.5-3.8 4.9-5.7 7.4-1 1.2-0.5 3.2 0.7 4.1 0.7 0.4 1.4 0.5 2.2 0.4 0.8-0.1 1.4-0.6 1.9-1.2 2.9-3.6 5.4-7.5 7.7-11.5 2.2-3.8 4.2-7.6 6.2-11.5 2-4.1 3.9-8.2 5.8-12.3q2.9-6.3 5.9-12.6c0.4-0.8-0.2-1.8-1-2.1z"/><path class="e" d="m1009.7 2005.8c-2.9-4.1-5.8-8.2-8.5-12.4q0.2 0.3 0.4 0.6c-6.3-9.9-11.9-20.3-16.9-30.9-5-10.6-9.8-21.3-14.4-32.1-0.4-0.8-1.4-1.2-2.2-0.8-0.9 0.4-1.2 1.4-0.8 2.2 3.4 8.1 6.7 16.3 10.2 24.4 3.3 7.7 6.7 15.4 10.4 22.9 1.8 3.8 3.7 7.5 5.7 11.2 2 3.7 4 7.3 6.1 10.9 2.1 3.4 4.3 6.9 6.7 10.1 2.5 3.4 5 6.7 8 9.7 0.6 0.5 1.1 0.8 1.9 0.9 0.7 0.1 1.4-0.2 2-0.6 0.5-0.5 0.8-1.2 0.9-1.9 0.1-0.8-0.2-1.3-0.6-2-2.9-4.2-6-8.1-8.9-12.2z"/><path class="e" d="m1019.1 2118.3c-4.8-6.1-9.3-12.4-13.5-18.9q0.1 0.1 0.2 0.3c-7-10.8-13.2-22.1-19-33.6-0.4-0.8-1.3-1.1-2.1-0.8-0.8 0.4-1.2 1.4-0.8 2.2 6.4 13 13.3 25.8 20.9 38 3.9 6.2 7.8 12.2 12.1 18 4.2 5.6 8.6 11.2 13.5 16.3 0.9 1.1 2.5 1.3 3.7 0.3 1-0.9 1.2-2.6 0.2-3.7-5.2-5.9-10.5-11.8-15.2-18.1z"/><path class="h" d="m1219.2 2226.4c-0.5-0.3-1.1-0.3-1.6-0.1q-0.3 0.2-0.6 0.5-2.3 2.8-4.6 5.4 0 0 0.1-0.1-0.1 0.1-0.1 0.1-0.1 0.1-0.2 0.3 0-0.1 0.1-0.2c-5.2 5.7-10.7 11.1-16.5 16.2q-4.2 3.6-8.5 7.1c-2.9 2.4-5.7 4.7-8.5 7.1-0.9 0.7-1 2-0.3 2.8 0.4 0.4 0.9 0.6 1.4 0.7 0.6 0 1-0.2 1.5-0.5 3.7-2.5 7.2-5.3 10.6-8.3 3.5-3 6.8-6 10-9.2 6.2-6.2 12.2-12.7 17.7-19.5 0.5-0.7 0.2-1.8-0.5-2.3z"/><path class="h" d="m1205.7 2294.5c-0.5-0.3-1.1-0.3-1.6-0.1q-0.4 0.2-0.7 0.5-2.6 3.3-5.4 6.4 0 0 0 0c-3.1 3.4-6.2 6.7-9.4 10q-4.7 4.9-9.6 9.7-5 4.8-10 9.5c-3.3 3.2-6.6 6.3-9.9 9.6-0.4 0.5-0.7 0.9-0.8 1.6-0.1 0.6 0.2 1.2 0.6 1.7 0.8 1 2.3 1.1 3.3 0.3 4.1-3.6 8-7.4 11.8-11.2q5.7-5.8 11.3-11.7c7.2-7.8 14.1-15.8 20.9-24 0.5-0.7 0.2-1.8-0.5-2.3z"/><path class="h" d="m1176.8 2366.6c-0.3 0-0.6 0.1-0.9 0.2q-0.2 0.1-0.3 0.2c-3.6 4-7.6 7.6-11.9 10.9-4.3 3.3-8.7 6.5-13.1 9.6-0.4 0.3-0.7 0.9-0.7 1.5-0.1 0.6 0.1 1.1 0.5 1.6 0.3 0.4 0.9 0.7 1.5 0.7 0.6 0.1 1.1-0.1 1.6-0.5 8.7-6.3 17-13.3 24.2-21.3 0.3-0.3 0.6-0.6 0.6-1.1 0.1-0.4-0.1-0.9-0.4-1.2-0.3-0.3-0.7-0.5-1.1-0.6z"/><path class="h" d="m1163 2287.7c-0.9-5.7-1.8-11.4-2.5-17.2-0.4-2.8-0.7-5.7-1.1-8.5-0.2-2.9-0.5-5.8-0.7-8.7-0.5-5.8-0.9-11.6-1.2-17.5 0-0.9-1.1-1.5-1.9-1.3q-0.2 0-0.4 0.1-0.4 0.2-0.7 0.6c-0.2 0.3-0.3 0.7-0.2 1.2 0.3 6.2 0.6 12.5 1 18.8 0.4 5.7 0.8 11.5 1.3 17.3 1 11.6 2 23.2 4.7 34.6 0.3 1.3 1.4 2.2 2.8 2 1.4-0.3 2.2-1.6 2-2.9-0.9-6.2-2-12.3-3.1-18.5z"/><path class="h" d="m1144.5 2342.7q-1.8-9.4-3-18.9c-0.1-0.9-1.1-1.5-2-1.4q-0.2 0.1-0.4 0.1c-0.6 0.4-1 1.1-0.9 1.8 1.7 13.1 3.7 26.2 7.1 39 0.1 0.4 0.4 0.8 0.8 1.1 0.4 0.3 0.9 0.4 1.3 0.3 0.9-0.1 1.7-1.1 1.5-2.1-1.7-6.6-3.2-13.2-4.4-19.9z"/><path class="f" d="m683 2429.1c-0.4-0.2-0.9-0.2-1.3 0-0.4 0.2-0.7 0.5-0.9 1-0.3 0.8 0.2 1.8 1 2.1q4.6 2 9.1 4.3-0.2-0.1-0.4-0.2c2.9 1.6 5.8 3.3 8.6 5.2 2.7 1.9 5.3 3.9 7.7 6.2q3.1 2.9 5.8 6.2c0.7 0.8 1.9 0.9 2.8 0.2 0.8-0.6 0.9-1.9 0.2-2.7-8.3-10.5-20.5-17.1-32.6-22.3z"/><path class="f" d="m794.3 2443.5c-3.2-3.1-6.5-6-10.1-8.6-7.1-5.3-14.8-9.8-22.6-14-0.4-0.2-0.8-0.3-1.2-0.3q-0.3 0.1-0.4 0.2-0.4 0.2-0.7 0.5c-0.3 0.4-0.4 0.8-0.3 1.3 0.1 0.3 0.3 0.8 0.7 1 5 2.7 10 5.6 14.7 8.9 4.6 3.3 9.1 6.7 13.3 10.5q0 0-0.1 0 0.1 0.1 0.2 0.1 0.1 0.1 0.3 0.3-0.1 0-0.1-0.1c2.1 2 4.1 4.1 6 6.4 2 2.3 3.9 4.6 5.7 7.1 0.7 0.9 2.2 1 3.1 0.3 0.4-0.4 0.7-0.9 0.7-1.5 0.1-0.6-0.1-1.1-0.5-1.6-2.4-3.8-5.4-7.4-8.7-10.5z"/><path class="f" d="m787.7 2443q0.1 0.2 0.3 0.3l-0.2-0.2q-0.1 0-0.1-0.1z"/><path class="f" d="m849.4 2438.2c-0.4-0.4-1.1-0.4-1.6-0.2q-0.4 0.2-0.7 0.6c-0.2 0.3-0.3 0.8-0.3 1.2 0.1 0.5 0.4 0.7 0.7 1.1q0.5 0.4 0.9 0.8l-0.3-0.3c3.2 3.1 6.3 6.3 9.2 9.8 1.5 1.9 3.1 3.9 4.5 5.9q1.6 2.4 3.2 4.9-0.1-0.1-0.2-0.3 0.1 0.2 0.3 0.4 0 0.1 0 0.1 0 0 0-0.1c1.6 2.7 3 5.4 4.4 8.2 0.6 1.1 1.9 1.7 3.1 1.2 1.2-0.6 1.7-2 1.2-3.2-5.8-11.7-14.8-21.4-24.4-30.1z"/><path class="f" d="m768.5 2454.2c-0.8-0.1-1.3 0.2-1.9 0.5q-2.7 1.8-5.4 3.5c0.2-0.2 0.4-0.3 0.6-0.4-6.9 4.3-14 8.2-21.4 11.5-6.8 3-13.8 5.6-20.9 7.9q0.2-0.1 0.4-0.1-0.3 0-0.5 0.1 0.1 0 0.1 0c-8.9 2.7-17.9 4.8-27.1 6.6q-0.2 0-0.4 0.1c-0.6 0.3-1 1-0.9 1.8 0.2 0.8 1 1.5 1.9 1.3 13.7-2.5 27.3-5.5 40.4-10.2 12.8-4.6 25.1-10.5 36.5-18 0.6-0.4 0.9-1.1 1-1.8 0-0.7-0.2-1.3-0.6-1.9-0.5-0.5-1.1-0.9-1.8-0.9z"/><path class="f" d="m719.9 2477.1q-0.2 0-0.4 0.1 0 0-0.1 0 0.2-0.1 0.5-0.1z"/><path class="h" d="m855.6 2467.9c-9.7 4.7-19.2 9.9-29 14.5-9.3 4.4-18.8 8.4-28.6 11.5q0.2-0.1 0.5-0.1c-7.3 2.2-14.6 3.9-22.2 4.9q-0.2 0.1-0.5 0.2c-0.8 0.4-1.2 1.3-1.1 2.2 0.2 1.1 1.3 1.8 2.3 1.6 7.5-1 14.9-2.6 22.2-4.8 6.5-2 12.9-4.2 19.1-6.8 6.9-2.9 13.6-6 20.3-9.3q9.5-4.8 18.9-9.9c0.5-0.3 0.9-0.7 1.1-1.2 0.2-0.6 0.2-1.2 0-1.8-0.5-1-1.9-1.6-3-1z"/><path class="h" d="m917.3 2487.4c-4.8 2.3-9.4 4.8-14.3 6.9-4.5 2.1-9 3.9-13.7 5.3q0.2 0 0.4-0.1c-1.9 0.6-3.9 1.1-5.9 1.6q-3 0.6-6 1-0.2 0.1-0.4 0.2c-0.7 0.3-1.1 1-1 1.7 0.2 1 1 1.5 1.9 1.4 7.1-1 13.9-2.8 20.5-5.4 6.9-2.6 13.6-5.8 20.1-9.1 0.9-0.5 1.4-1.6 1-2.6-0.5-0.9-1.7-1.4-2.6-0.9z"/><path class="i" d="m2435.8 885c-14.5 0-24.6-14.1-20.3-28.1 10.4-34.2 15.2-70.9 13-109-8.9-156.6-136.3-284.2-292.9-293.1-151.6-8.7-281.3 91-319 228.8-3.9 14.2-21 19.7-33.1 11.1-32.6-23.2-72.5-36.9-115.6-36.9-110.2 0-199.6 89.4-199.6 199.6 0 5.4 0.3 10.7 0.8 15.9 0.5 6.3-4.4 11.7-10.7 11.7-78.2 0-141.5 63.3-141.5 141.4v33.3c0 78.2 63.3 141.5 141.5 141.5h977.4c78.2 0 141.5-63.3 141.5-141.5v-33.3c0-78.1-63.3-141.4-141.5-141.4z"/><g style="opacity:.4"><path class="j" d="m2435.8 1153.6h-977.4c-75.8 0-137.4-59.6-141.2-134.3-0.1 2.4-0.3 4.7-0.3 7.1v33.3c0 78.2 63.3 141.5 141.5 141.5h977.4c78.2 0 141.5-63.3 141.5-141.5v-33.3c0-2.4-0.2-4.7-0.3-7.1-3.8 74.7-65.4 134.3-141.2 134.3z"/></g><path class="k" d="m2062.4 561.4c-9.2-1.1-17.2 6.1-17.2 15.3 0 7.7 5.7 14.3 13.4 15.2 83.7 10.2 149.7 75.4 162.4 157.1 1.1 7.4 7.6 12.9 15.1 12.9 9.4 0 16.7-8.4 15.2-17.6-14.8-95.1-91.5-171-188.9-182.9z"/><path class="k" d="m2063 615.6c-9.3-1.6-17.8 5.7-17.8 15.2 0 7.5 5.5 13.9 12.9 15.1 54.4 9.2 97.2 50.9 108.6 103.8 1.5 7.1 7.7 12.2 15 12.2 9.8 0 17.1-9.1 15-18.7-14-65-66.8-116.5-133.7-127.6z"/><path class="k" d="m2064.7 673c-9.8-2.7-19.5 4.7-19.5 14.8v0.1c0 6.8 4.5 12.9 11.1 14.7 24.7 6.7 44.4 25.2 53 48.9 2.2 6.1 7.9 10.4 14.5 10.4 10.6 0 18.1-10.5 14.5-20.4-11.8-33.1-39.2-59-73.6-68.5z"/><path class="j" d="m1739.2 860.4h63.8v190.6c15.6-5.7 32.9-5.9 49.1 0.9 5.8 2.5 11 5.6 15.7 9.4q0.4-1.2 0.9-2.4c11.2-26.5 40.9-39.2 66.3-28.5 8.9 3.8 16.2 10 21.3 17.6 22.3-16.5 51.9-21.3 78.5-10 4.8 2 9.3 4.5 13.4 7.3v-184.9h63.9l-186.5-182.1z"/><path class="i" d="m2755.9 359.8c-114 94.6-229.9 60.4-229.9 60.4 0 0-56.8 324.1 229.9 463.4 286.7-139.3 229.9-463.4 229.9-463.4 0 0-115.9 34.2-229.9-60.4z"/><path class="k" d="m2755.9 404c-99.1 82.2-199.7 52.4-199.7 52.4 0 0-49.3 274.7 199.7 395.7 249.1-121 199.7-395.7 199.7-395.7 0 0-100.6 29.8-199.7-52.4z"/><path class="j" d="m2755.9 426.3c-88.7 73.6-182.4 51-182.4 51 0 0-40.6 248 182.4 356.3 223-108.3 182.4-356.3 182.4-356.3 0 0-93.7 22.6-182.4-51z"/><path class="k" d="m2742 637.4l-43.9-64.1-54.8 33.5 97 129.9 187.6-239-16.2-6.9z"/><path class="l" d="m3373.9 719.1c-4.5 3.4-9 6.8-13.5 10.1-53.4 40-109.6 57.2-165 88.2 6.1 24.9 9.1 68.1 9.4 94.8 0 5.8 0.1 3.3-0.1 9.2q-21.2 8-42.3 16c15.8 47.6 43.5 98.8 79.7 130.5 13 11.5 28.7 22 45.3 20 12.5-1.6 23.2-10 33.1-18.4 59.9-51.7 111.2-109.2 141-185.8-31.1-4.7-46.7-9.7-58-13.9-23.3-47.3-35-96.2-29.6-150.7z"/><path class="m" d="m3204.8 912.2c36-10.2 81-23.9 107.2-50.6 33.2-34.1 43-85.1 48.4-132.4-53.4 40-109.6 57.3-165 88.2 6.1 24.9 9.2 68.1 9.4 94.8z"/><path class="n" d="m3059.9 1804.6c-13.9 200.2-54.6 483.7-90.2 756.1q-2.8 21.9-5.6 43.7c-6.1 47.4-12 94.3-17.5 140.2h307.7c9.6-46 19.5-93.1 29.3-140.2q4.5-21.9 8.9-43.7c22.5-110 43.4-217.4 57.4-305.8q1-6.8 2-13.5c3.5 105.8 7 213.3 10.5 319.3q0.8 21.9 1.5 43.7c1.5 47.2 3.1 94 4.6 140.2h315.2c3.2-45.7 6.2-92.6 8.9-140.2q1.2-21.8 2.4-43.7c9.9-187.1 15.9-382.5 15.9-557.9 0-116.1-5.9-204.3-27.6-291.5-209.2 11.3-421.8 50.6-623.4 93.3z"/><path class="o" d="m3148.9 2604.4c-10.8 48.1-21.4 95.6-31.4 140.2h136.8c9.6-46 19.5-93.1 29.3-140.2q4.5-21.9 8.9-43.7c22.5-110 43.4-217.4 57.4-305.8l0.1-7.2-88.5-142c0 0-58.5 257.8-112.6 498.7z"/><path class="k" d="m3412.8 872.9c0 0-72.4 207.5-134.4 207.5-62.1 0-82-150.6-82-150.6 0 0-167.3 71.1-178.8 121.7-11.4 50.5 85.4 817 85.4 817l569.9-49.3c0 0 25.4-812.6-3.4-857.8-28.8-45.1-256.7-88.5-256.7-88.5z"/><path class="k" d="m3035.3 1002.4c-41.2 16.2-112.5 134.5-133.3 209-20.8 74.4-38.6 149.9-47.4 226.8 66 27.4 138.1 40.1 209.5 36.8 25.1-119.4 53-242.3 30.2-357.5-9.3-46.6-8.4-90.9-59-115.1z"/><path class="g" d="m3715.7 1478.4c-2.1-50.5-1.5-101.3 1.5-151.8 1.4-25 3.5-50.2 6.3-75.2-3.9-7.2-7.8-14.5-11.5-21.7-49.6-97.8-73.7-201.1-60.9-306.7-24.4-7.9-47.2-14.7-69.3-20.6-20.3-5.4-40.2-10.2-60.5-14.3-29.5-6.1-59.9-10.9-94-15.2-14.8 77.3-25.6 153.6-32.6 229.3-5.9 63.4-9.1 126.4-9.7 189.3 0 4.4 0 8.9 0 13.3 0 23.6 0.3 47.2 0.9 70.8 1.7 56.6 5.4 113.1 11.3 169.8 3.1 31 6.9 62 11.5 93.1 11.2 78.8 26.5 157.9 45.6 238 104.4 20.6 218.8 15.3 325.2-16.3-28.4-94.1-47.5-191-57.3-288.9-3.2-30.8-5.3-61.8-6.5-92.9z"/><g style="opacity:.4"><path class="c" d="m3397.3 1545.4c3.1 31 6.9 62 11.4 93.1 106.5-11.5 211.8-34.1 313.6-67.1-3.1-30.9-5.3-61.9-6.5-93-102.7 35.9-210.1 58.5-318.5 67z"/></g><g style="opacity:.4"><path class="c" d="m3388.7 1291.4c-1.3 0-2.4 0-3.7 0.1 0 4.4 0 8.9 0 13.3 0 23.6 0.3 47.2 0.9 70.8 111.7-5.1 222.9-21.6 331.3-49 1.5-25 3.6-50.2 6.3-75.2-3.9-7.2-7.8-14.5-11.5-21.7-103.8 36.6-213.3 57.5-323.3 61.7z"/></g><g style="opacity:.4"><path class="c" d="m3513.3 897.4c-50.7 60.9-87.2 131.6-118.5 204.9-5.9 63.4-9.1 126.4-9.7 189.3 0 4.4-0.1 8.9-0.1 13.3 1.3-4.5 2.5-9 3.7-13.5 39-140.3 105-273.1 193.2-389-20.3-5.4-40.2-10.2-60.6-14.3-2.7 3-5.4 6.2-8 9.3z"/></g><path class="g" d="m3191.9 1588.2c-6.7-61.3-14.3-122.2-20.5-183.3-0.5-5.1-1-10.1-1.4-15.2-1.2-11.7-2.2-23.3-3.2-35-1.2-13.9-2.1-28.1-3-42-3-48.1-4.3-96.4-2.8-144.3 0 0 0 0 0-0.1 2.7-83.4 13.8-165.9 39.4-245.2-28.3 5.1-60.6 17.5-90.9 32.5-26.2 12.9-50.9 27.7-70.4 41.4-17.9 12.6-31.4 24.2-37.7 32.6-24.7 33.3-24 170.1-13.6 284 1.6 17.7 3.5 35 5.5 51.1 1.3 10.1 2.5 20.3 3.6 30.4 6.2 53.8 10.9 107.9 13.9 162.1 1.5 27.7 2.6 55.5 3.4 83.2 2.4 88.8 0.5 177.7-5.6 266.3 62.7 18.7 134.1 13.5 196.3-13.4 4.4-74.4 1.4-147.7-4.8-220.5-2.4-28.2-5.2-56.4-8.2-84.6z"/><g style="opacity:.4"><path class="c" d="m3163.8 1312.6c-7.9 1-15.7 1.7-23.4 2.4-51.9 4.6-102.7 4-152.5-1.5 1.6 17.7 3.5 35 5.5 51.2 1.3 10 2.4 20.2 3.6 30.3 57.3 9.5 116.5 7.7 173-5.4l-3.2-34.9c-1.2-14-2.2-28.1-3-42.1z"/></g><path class="p" d="m3010.8 1557.1c1.5 27.8 2.6 55.5 3.4 83.3 24.8 6.3 49.4 12.6 74.2 19 26.2 6.7 52.6 13.5 79.6 14.8 10.7 0.5 21.5 0.1 32.2-1.4-2.4-28.3-5.2-56.5-8.3-84.7-61.5-0.6-122.8-11-181.1-31z"/><g style="opacity:.4"><path class="c" d="m3160.9 1168.3c0 0 0 0 0-0.1-30.5-66.7-48.1-139.4-51.5-212.7-26.2 12.9-50.9 27.8-70.4 41.5 6.8 112 42.1 222.5 101.3 318 8.4 13.6 17.2 26.7 26.5 39.7-1.2-14-2.1-28.1-3.1-42.1-3-48.1-4.3-96.4-2.8-144.3z"/></g><path class="l" d="m3780.6 1338.2c-57.3 24.3-116.3 40.3-176.4 49.2 4.1 45.3 14.8 95.3 13.5 121.2-0.2 5.7-1.1 10.4-2.8 13.5-7.7 14.3-136 80.5-229.9 102.8-0.9 41.3 5 51.1 7.8 86.4 140.7 7.5 349.2-8.8 386.7-46.3 23-22.9 17.4-144 11.8-207.1-3.6-39.9-7.1-79.8-10.7-119.7z"/><path class="m" d="m3604.3 1387.4c4 45.3 14.7 95.3 13.5 121.2 60.7-3 120.7-20.6 173.6-50.7-3.7-39.9-7.2-79.8-10.7-119.7-57.3 24.3-116.3 40.3-176.4 49.2z"/><path class="k" d="m3649.4 923c-93.4 24-71.7 458.2-67.1 532.9 98.4 0 155.5-9.5 225.9-22.4-0.5-86.1-11.6-195.4-28.6-296.7-17.8-105.4-64.8-189.6-130.2-213.8z"/><path class="q" d="m900.6 2744.6h2819.4v-140.2h-2819.4z"/><path class="j" d="m667.6 2604.4h3336.1v-92.3h-3336.1z"/><path class="i" d="m1103.3 2415.8l-435.7 96.3h3336.1l-362.4-96.4z"/><path class="r" d="m3892.8 552.7h-349.4c-15.5 0-28.1 12.5-28.1 28.1v185.6c0 15.5 12.6 28.1 28.1 28.1h57.7c-2.9 22-7 80.6-4.8 80.6 2.2 0 49.8-60.6 64-80.6h232.5c15.5 0 28-12.6 28-28.1v-185.6c0-15.6-12.5-28.1-28-28.1z"/><path class="k" d="m3809.9 645.4c-12.6 0-22.8 10.2-22.8 22.8 0 12.6 10.2 22.8 22.8 22.8 12.6 0 22.8-10.2 22.8-22.8 0-12.6-10.2-22.8-22.8-22.8z"/><path class="k" d="m3718.1 645.4c-12.6 0-22.8 10.2-22.8 22.8 0 12.6 10.2 22.8 22.8 22.8 12.6 0 22.8-10.2 22.8-22.8 0-12.6-10.2-22.8-22.8-22.8z"/><path class="k" d="m3626.3 645.4c-12.6 0-22.8 10.2-22.8 22.8 0 12.6 10.2 22.8 22.8 22.8 12.6 0 22.8-10.2 22.8-22.8 0-12.6-10.2-22.8-22.8-22.8z"/><path class="s" d="m2640 1432.4c-19.4-17.1-43.7-26-67.5-34.3-5.1-1.8-10.3-3.6-15.7-3.6-5.3-0.1-11 2-14.2 6.5-3.5 5-3.5 11.9-1.5 17.8 1.9 5.8 5.7 10.7 9.3 15.5 31.6 12 52.3 18.7 73.5 23.6 4.6 1.1 9.4 2.1 14.1 1.2 4.7-0.9 9.3-4.4 10.5-9.3 1.5-6.8-3.5-13-8.5-17.4z"/><path class="s" d="m2652.5 1479c-19.4-17-43.7-26-67.5-34.3-5.1-1.8-10.3-3.5-15.7-3.6-5.3 0-10.9 2-14.2 6.6-3.5 4.9-3.5 11.9-1.5 17.7 2 5.9 5.7 10.8 9.3 15.6 31.6 12 52.3 18.6 73.5 23.6 4.6 1.1 9.5 2.1 14.1 1.1 4.7-0.9 9.4-4.3 10.5-9.3 1.5-6.7-3.5-13-8.5-17.4z"/><path class="s" d="m2662.5 1522.1c-19.4-17.1-43.7-26-67.5-34.3-5.2-1.8-10.3-3.6-15.7-3.6-5.3-0.1-11 2-14.2 6.5-3.5 5-3.5 11.9-1.6 17.8 2 5.8 5.8 10.7 9.4 15.5 31.6 12.1 52.3 18.7 73.5 23.6 4.6 1.1 9.4 2.1 14.1 1.2 4.7-0.9 9.3-4.4 10.4-9.3 1.6-6.7-3.4-13-8.4-17.4z"/><path class="s" d="m2667.4 1567.7c-19.3-17.1-43.6-26-67.5-34.3-5.1-1.8-10.3-3.6-15.6-3.6-5.4-0.1-11 2-14.2 6.5-3.6 5-3.6 11.9-1.6 17.8 2 5.8 5.7 10.7 9.4 15.5 31.5 12 52.3 18.7 73.4 23.6 4.6 1.1 9.5 2.1 14.2 1.2 4.7-0.9 9.3-4.4 10.4-9.3 1.6-6.8-3.5-13-8.5-17.4z"/><path class="l" d="m3538.8 1568.3c-103.6 10.1-363 128.3-433 160.5l11.6 92.7c98.3-5.5 347.3-45 483.2-80.5 180.6-47.1 195.2-125.6 188-142.2 0 0-129.6-42.3-249.8-30.5z"/><path class="t" d="m3468.6 1760.5c-23.3-1.1-223-13.1-223-13.1l-111-415.7c-3.1-11.5-13.4-19.4-25.3-19.4h-579.9c-15.5 0-27.2 14.3-24.1 29.5l68.9 372.1 6.7 36.2c3.4 18.5 19.5 31.9 38.4 31.9h877.3c0 0-4.8-20.4-28-21.5z"/><g style="opacity:.5"><path class="r" d="m2529.4 1312.3c-15.5 0-27.2 14.3-24.1 29.5l68.9 372.1c40.8-5.7 114.6-24.5 215.8-84.2 119.6-70.6 113.8-236.9 103-317.4z"/></g><path class="u" d="m3109.3 1312.3h-16.6c4.7 7.2 10.3 18.6 15.8 36.3 14 44.5 107.7 398.8 107.7 398.8h29.4l-111-415.7c-3.1-11.5-13.4-19.4-25.3-19.4z"/><path class="k" d="m2831.7 1475.7c-35.1 5.6-57.8 45.9-50.8 90 7.1 44.1 41.2 75.3 76.2 69.7 35.1-5.6 57.8-45.9 50.8-90-7.1-44.1-41.2-75.3-76.2-69.7z"/><path class="l" d="m3045.6 1840.5c81.3-5.3 126.1-58.5 126.1-58.5h-261.5c-6.1 30.3 54 63.7 135.4 58.5z"/><path class="l" d="m3056.6 1703.8c0 0-27.1-19-44.7 10.3 0 0-32.6-20.1-52.8 14.7 0 0-32.6-20.8-44.2 13.3-11.5 34.2-0.4 63.2 16.4 64.5 16.7 1.3 21.5-18.3 21.5-18.3 0 0-0.6 25.1 19.9 26.9 20.4 1.9 24.8-17.3 24.8-17.3 0 0 4.9 18.5 25.2 19.3 19.8 0.8 25.2-17 25.2-17 0 0 16 8.8 30.1-2.4 14.1-11.2 22.8-69.1 13.2-85.3-9.5-16.3-27.2-15.7-34.6-8.7z"/><path class="m" d="m2997.5 1797.9c1.7-5.7 14.4-83.8 14.4-83.8-26.5 49.8-14.4 83.8-14.4 83.8z"/><path class="m" d="m2952.8 1788.3l6.3-59.5c-18.1 44.6-6.3 59.5-6.3 59.5z"/><path class="m" d="m3047.9 1800.2l8.7-96.4c0 0-17.1 48.5-8.7 96.4z"/><path class="l" d="m3326.6 461c-88.6-12.6-143.5 15.5-168.9 106.9-1.3 4.7-2.3 9.4-3.4 14-4.9 22.1-8.7 49.2-2.6 61.5 0 0-45.2 115.5 48.2 212.2 10.6 11.1 60.8 4 74.8 0.8 118.3-26.2 103.6-156.6 103.6-156.6 2.5-7.9 46.5-11.9 48.8-20.1 22.6-79 7.8-203.2-100.5-218.7z"/><path class="m" d="m3151.1 641.8c0.2 0.5 0.4 1.1 0.6 1.6 0 0-26.2 67 2.6 141.7 17.8-17.3 28.9-43.3 28.3-72.2-0.6-29-12.9-54.6-31.5-71.1z"/><path class="m" d="m3371.6 664.3c-29.5 0.6-52.8 31.7-52 69.4 0.7 30.4 16.7 55.7 38.4 64.2 26.2-45.2 20.3-98.1 20.3-98.1 1.6-5.1 20.4-8.6 34.2-12.6-10.1-14.3-24.7-23.2-40.9-22.9z"/><path  d="m3324.6 609.5c-1.6-0.8-38.6-16.8-46-9.1-2.9 3-3.2 9.2-0.7 13.4 4.2 7 13.9 3.8 36.6 9.4 10.6 2.7 14.9 5 15.9 3.5 1.6-2.6 5.7-10.4-5.8-17.2z"/><path  d="m3169.8 601.2c-9.7 4.8-9.8 13.6-8.9 16.1 0.5 1.5 4.1-0.2 12.4-1.4 17.9-2.7 24.7 1.1 28.9-4.7 2.5-3.4 3.2-9 1.4-12-4.3-7.7-32.6 1.4-33.8 2z"/><path class="v" d="m3297.5 651.5c-3.7-0.9-7.9 3.2-9.3 9.1-1.4 5.8 0.5 11.3 4.3 12.2 3.7 0.9 7.9-3.1 9.3-9 1.4-5.9-0.5-11.4-4.3-12.3z"/><path class="v" d="m3189.5 640.1c-3.4-0.8-7.3 3.3-8.7 9.2-1.4 5.8 0.2 11.2 3.6 12.1 3.4 0.8 7.3-3.3 8.7-9.2 1.4-5.8-0.2-11.2-3.6-12.1z"/><path  d="m3353.8 452.5c-80.1-44.8-137.5-10.2-186.3 5.7-48.8 15.8-9.8 109.7-9.8 109.7 4.7-22.4 18.5-39 18.5-39 38.9 34.7 189 23.9 189 23.9l7.6 137.6 6.2 36.7 3.8 45.5c7.7 18.2 20.6-7.2 29.9-24.7 29.1-54.7 71.9-154 56.4-176.5-12.2-17.6-35.2-74.1-115.3-118.9z"/><path class="l" d="m3417.6 652.3c-23.9-7.1-49.6 8.6-57.4 35-7.8 26.5 5.2 53.6 29 60.7 23.9 7 49.6-8.7 57.4-35.1 7.8-26.4-5.2-53.6-29-60.6z"/><path class="v" d="m3403.8 679.8c-8 2.8-14.4 9.9-18.9 21.3l-1.2 3.1 3.3 0.4c4.7 0.6 17.4 3.8 20.1 10.7l4.8-1.9c-3.3-8.4-15.1-12-20.9-13.3 3.7-8.2 8.6-13.4 14.4-15.4 7.8-2.8 15 1.3 15.1 1.3l2.6-4.5c-0.4-0.2-9.2-5.2-19.3-1.7z"/><path  d="m3357.7 521.3c0 0-34.1 150.2 14.2 157.8l-1.2-131.6z"/><path class="v" d="m3232.1 671.7l-1-5.1c-5.4 1.1-32.5 7.2-36.4 16.3-0.9 2-0.8 4.1 0.4 6 6.2 10.5 20.9 19 21.6 19.3l2.5-4.5c-0.1 0-14.2-8.1-19.7-17.4-0.4-0.5-0.3-0.9-0.1-1.3 2.1-4.9 20.4-10.8 32.7-13.3z"/><path class="w" d="m3271.7 752.7c-1.1-0.5-2.4-0.6-3.6-0.7-2.3 0.1-4.6 0.6-6.9 1.1-12.1 2.6-24.8 2.8-37.1 0.6-4.3-0.9-8.6-1.2-12.1-0.6-3.6 0.6-6.4 2-8 5-3.2 5.9-1.2 13 2.7 18.6 1 1.6 2.3 2.9 3.6 4.2 8.9 8.7 23.2 13.3 36.3 11.1 5.8-0.9 11.3-3.2 15.9-6.3 7.4-5.2 12.8-12.6 14.3-20.6 0.8-4.7-0.2-10.5-5.1-12.4z"/><path class="k" d="m3261.2 753.1c-12.1 2.6-24.8 2.8-37.1 0.6-4.3-0.9-8.6-1.2-12.1-0.6 0.2 3.1 0.9 6.2 3 8.4 2.3 2.4 5.7 3.3 8.9 3.9 11.8 2.2 24 1.8 35.6-1.3 2.7-0.7 5.6-1.7 7.3-4 1.7-2.3 1.7-5.2 1.3-8.1-2.3 0.1-4.6 0.6-6.9 1.1z"/><path class="j" d="m3242.1 775.4c-10.9-1.7-22.4 0-31.8 5.5 8.9 8.7 23.2 13.3 36.3 11.1 5.8-0.9 11.3-3.2 15.9-6.3-4.7-5.9-12.7-9.2-20.4-10.3z"/><path class="u" d="m3477.4 504.5c-18.1-55.6-57.4-90.9-117-106.8q-25.7-6.9-56.5-8.9c-17.3-1.2-32.9 0.2-46.9 3.4-51.3 11.9-81.4 49.4-98.7 85.4-5.6 11.6-9.9 23-13.1 33.3-7.4 23.6-9.5 41.6-9.5 43.3l134.9 17.4 59.7 7.7 23.1 3 123.1 15.9q0.2 0 0.5 0.1c6.4 0.5 11.9-4.3 12-10.6q0-12-0.7-23.2-2.1-33.2-10.9-60z"/><path class="u" d="m3306.9 563.2c-35.6-19.8-94.3-50.2-127.1-54.5-8.9-1.1-18.9 0-29.2 2.7-7.5 1.9-15.1 4.7-22.5 7.9q-2.5 1.1-4.9 2.3-2.8 1.3-5.6 2.8c-21.6 11.1-48.1 12.1-52.4 21.5-2.5 5.4 21.1 16.7 61.8 22.3 37.8 5.2 88.2 9.4 131.3 10.7 44.1 1.3 78.7 1.7 78.7 1.7 0 0-0.5-0.3-1.3-0.8-3.6-2.1-14.2-8.5-28.8-16.6z"/><path class="r" d="m3474.5 491.5c-18.1-55.6-57.5-90.9-117-106.8q-25.8-6.9-56.5-8.9c-17.4-1.1-33 0.2-47 3.4-51.3 11.9-81.3 49.5-98.7 85.5-5.6 11.5-9.8 22.9-13.1 33.3-7.4 23.5-9.4 41.5-9.5 43.2l134.9 17.4 59.7 7.7 23.1 3 123.1 15.9q0.3 0.1 0.5 0.1c6.4 0.5 12-4.3 12-10.6q0.1-12-0.6-23.2-2.1-33.2-10.9-60z"/><path class="x" d="m3357.5 384.7c3.5 24.1 22.8 73.2 117 106.8-18.1-55.6-57.5-90.9-117-106.8z"/><path class="t" d="m3245.3 471.2c-11.2-27.7-1.2-65.8 8.7-92-51.3 11.9-81.3 49.5-98.7 85.5-5.6 11.5-9.8 22.9-13.1 33.3-7.4 23.5-9.4 41.5-9.5 43.2l134.9 17.4 59.7 7.7 23.1 3 123.1 15.9q0.3 0.1 0.5 0.1c6.4 0.5 12-4.3 12-10.6q0.1-12-0.6-23.2c-95 8.2-223.2-38.4-240.1-80.3z"/><path class="u" d="m3451.7 444.3c-23.3-11.5-48.5-12.6-76.3-3.4-31.4 10.4-98.4 44.6-119.3 114.4 13-14.7 54.8-63.3 124-87.3 28.1-9.7 65-6.4 90 11.4 3.6-10.7 0.1-25.9-18.4-35.1z"/><path class="u" d="m3286.9 360.9c-27.5 1.6-69.2 20.8-84.5 39.5-29.5 36.1-43.1 88.2-34.3 130.5 6.2-39.2 19.6-78.4 49.1-108.1 29.6-29.7 92.5-45 140-38.4-5.6-16.2-35.3-25.5-70.3-23.5z"/><path class="u" d="m3133.1 472.8c-1.2 3.2-2.1 6.2-2.6 8.9-1.5 6.9-2.4 13.9-2.4 20.8 0.1 9.5 1.8 18.7 6.4 26.5 2.9 5.1 7 9.5 12.6 13.2-6-14.4-6.1-29.7-2.9-44.7 2.5-11.3 6.8-22.5 11.9-33 5.4-11 11.6-21.4 17.6-30.6q-0.1 0-0.1 0.1c-21.9 4.9-34.9 23.3-40.5 38.8z"/><path class="y" d="m3298.6 549.8c-35.6-19.9-94.3-50.3-127.2-54.5-8.3-1.1-17.6-0.2-27.2 2.2q-0.9 0.2-2 0.5c-4.6 1.2-9.4 2.7-14.1 4.5q-4.2 1.6-8.3 3.4-2.6 1.1-5 2.3-2.8 1.3-5.5 2.7-1.7 0.9-3.4 1.8c-20.2 10.9-36.6 24.3-40.7 33.2-2.5 5.4 19.3 9.4 51.4 12.5q1.9 0.2 3.9 0.4c23.2 2 51.2 3.6 79.1 4.8 17.3 0.8 34.4 1.4 50.4 1.8q5.8 0.2 11.4 0.4c38.5 1 67.2 1.3 67.2 1.3q0 0-1.3-0.8c-3.5-2.1-14.2-8.4-28.7-16.5z"/><g style="opacity:.4"><path class="k" d="m3155.6 505.9c0 0-41.7 7.6-71.3 32.1 0 0 30.6 9.6 40.5 5.4 23.9-10.2 59.4-21.6 58.9-24.6-0.6-3.1-16.6-15.3-28.1-12.9z"/><path class="k" d="m3193.6 525.6c-1.9 0.3-55 15-45.6 19.5 9.3 4.6 79.2 13.2 76.7 5.5-2.4-7.7-24.8-26-31.1-25z"/></g><path class="x" d="m1918.7 1821.5h13.9v-620.3h-13.9z"/><path class="x" d="m2050.3 1201.2h-13.9v400.5h563v-13.9h-549.1z"/><path class="x" d="m1802 1707h-811.4v-153.5h-13.8v167.4h839.1v-532.8h-13.9z"/><path fill-rule="evenodd" class="i" d="m1545.8 1330.6q8.7 12.2 8.7 36.7c0 15.9-3.1 28.1-9.3 36.6-6.2 8.3-15.1 12.5-26.5 12.5-6.1 0-11.4-1.1-15.9-3.4-4.5-2.3-8.2-5.6-11.1-9.8-2.9-4.3-5.1-9.5-6.6-15.5-1.4-6.1-2.1-12.9-2.1-20.4q0-24.1 9.2-36.4 9.3-12.5 26.5-12.5 18.4 0 27.1 12.2zm-10.7 36.7q0-7.7-0.9-13.8c-0.5-4.1-1.5-7.6-2.8-10.4-1.2-2.9-2.9-5.1-5-6.6q-3.2-2.3-7.7-2.3c-5.9 0-10.1 2.8-12.5 8.5-2.6 5.5-3.8 13.8-3.8 24.6 0 10.3 1.2 18.4 3.8 24.4 2.4 6 6.6 9 12.5 9 5.9 0 10.1-2.7 12.7-8.1 2.5-5.4 3.7-13.8 3.7-25.3z"/><path class="i" d="m1647 1318.7h-10.7l-33 24.6 7.6 11.1 13.2-8.6 7-8.2-2.3 9.4v51.8h-20.2v15.8h58.2v-15.8h-19.8z"/><path class="i" d="m1763.7 1318.7h-10.7l-32.9 24.6 7.5 11.1 13.2-8.6 7-8.2-2.3 9.4v51.8h-20.2v15.8h58.2v-15.8h-19.8z"/><path fill-rule="evenodd" class="i" d="m1895.9 1330.6c5.8 8.1 8.7 20.4 8.7 36.7 0 15.9-3.1 28.1-9.3 36.6-6.2 8.3-15 12.5-26.5 12.5-6.1 0-11.4-1.1-15.9-3.4-4.5-2.3-8.2-5.6-11.1-9.8-2.9-4.3-5.1-9.5-6.5-15.5-1.5-6.1-2.2-12.9-2.2-20.4q0.1-24.1 9.2-36.4c6.2-8.3 15-12.5 26.5-12.5 12.3 0 21.4 4.1 27.1 12.2zm-10.7 36.7q0-7.7-0.9-13.8c-0.5-4.1-1.5-7.6-2.7-10.4-1.3-2.9-2.9-5.1-5.1-6.6q-3.1-2.3-7.7-2.3c-5.8 0-10 2.8-12.5 8.5-2.5 5.5-3.8 13.8-3.8 24.6 0 10.3 1.3 18.4 3.8 24.4 2.5 6 6.7 9 12.5 9q8.8 0 12.7-8.1c2.4-5.4 3.7-13.8 3.7-25.3z"/><path class="i" d="m1997.1 1318.7h-10.7l-32.9 24.6 7.5 11.1 13.2-8.6 7-8.2-2.3 9.4v51.8h-20.2v15.8h58.2v-15.8h-19.8z"/><path fill-rule="evenodd" class="i" d="m2129.4 1330.6c5.8 8.1 8.6 20.4 8.6 36.7 0 15.9-3.1 28.1-9.3 36.6-6.2 8.3-15 12.5-26.5 12.5-6.1 0-11.4-1.1-15.8-3.4-4.6-2.3-8.2-5.6-11.2-9.8-2.9-4.3-5.1-9.5-6.5-15.5-1.4-6.1-2.2-12.9-2.2-20.4 0-16.1 3.1-28.2 9.2-36.4 6.2-8.3 15-12.5 26.5-12.5q18.5 0 27.2 12.2zm-10.8 36.7q0-7.7-0.9-13.8c-0.5-4.1-1.4-7.6-2.7-10.4-1.2-2.9-2.9-5.1-5-6.6q-3.2-2.3-7.8-2.3c-5.8 0-10 2.8-12.5 8.5-2.5 5.5-3.8 13.8-3.8 24.6 0 10.3 1.3 18.4 3.8 24.4 2.5 6 6.7 9 12.5 9 5.9 0 10.2-2.7 12.7-8.1 2.5-5.4 3.7-13.8 3.7-25.3z"/><path class="i" d="m2230.5 1318.7h-10.7l-32.9 24.6 7.5 11.1 13.2-8.6 7-8.2-2.3 9.4v51.8h-20.2v15.8h58.2v-15.8h-19.8z"/><path fill-rule="evenodd" class="i" d="m2127.2 1474.3c5.8 8.2 8.7 20.4 8.7 36.7 0 16-3.1 28.1-9.2 36.6-6.3 8.3-15.1 12.6-26.6 12.6-6.1 0-11.4-1.2-15.9-3.5-4.4-2.3-8.2-5.6-11.1-9.8-2.9-4.3-5.1-9.5-6.5-15.5-1.4-6.1-2.2-12.9-2.2-20.4 0-16.1 3.1-28.3 9.3-36.5 6.1-8.2 14.9-12.4 26.4-12.4 12.3 0 21.3 4.1 27.1 12.2zm-10.7 36.7c0-5.1-0.3-9.8-0.8-13.8-0.6-4.1-1.6-7.6-2.8-10.5-1.2-2.8-2.9-5-5-6.5q-3.2-2.3-7.8-2.3c-5.8 0-10 2.8-12.5 8.4-2.5 5.6-3.8 13.8-3.8 24.7 0 10.3 1.3 18.5 3.8 24.4q3.8 9 12.5 9 8.9 0 12.6-8.1 3.8-8 3.8-25.3z"/><path class="i" d="m2228.4 1462.4h-10.6l-33 24.6 7.5 11.1 13.2-8.6 7.1-8.1-2.3 9.3v51.8h-20.2v15.8h58.1v-15.8h-19.8z"/><path class="i" d="m1528.7 1462.4h-10.6l-33 24.6 7.6 11.1 13.1-8.6 7-8.1-2.3 9.3v51.8h-20.2v15.8h58.2v-15.8h-19.8z"/><path fill-rule="evenodd" class="i" d="m1661 1474.3c5.8 8.2 8.7 20.4 8.7 36.7 0 16-3.2 28.1-9.4 36.6-6.1 8.3-15 12.6-26.5 12.6-6 0-11.4-1.2-15.9-3.5q-6.7-3.4-11-9.8c-3-4.3-5.2-9.5-6.6-15.5-1.4-6.1-2.1-12.9-2.1-20.4 0-16.1 3-28.3 9.2-36.5 6.1-8.2 15-12.4 26.4-12.4 12.3 0 21.4 4.1 27.2 12.2zm-10.7 36.7c0-5.1-0.3-9.8-0.9-13.8q-0.9-6.1-2.8-10.5c-1.2-2.8-2.9-5-5-6.5q-3.2-2.3-7.8-2.3-8.7 0-12.5 8.4c-2.5 5.6-3.8 13.8-3.8 24.7 0 10.3 1.3 18.5 3.8 24.4q3.8 9 12.5 9c6 0 10.1-2.7 12.7-8.1q3.8-8 3.8-25.3z"/><path class="i" d="m1762.1 1462.4h-10.6l-33 24.6 7.5 11.1 13.2-8.6 7-8.1-2.2 9.3v51.8h-20.3v15.8h58.2v-15.8h-19.8z"/><path fill-rule="evenodd" class="i" d="m1894.4 1474.3c5.8 8.2 8.6 20.4 8.6 36.7 0 16-3 28.1-9.2 36.6-6.2 8.3-15.1 12.6-26.6 12.6q-9.1 0-15.8-3.5c-4.5-2.3-8.2-5.6-11.1-9.8-3-4.3-5.1-9.5-6.5-15.5-1.5-6.1-2.2-12.9-2.2-20.4 0-16.1 3-28.3 9.2-36.5 6.2-8.2 15-12.4 26.4-12.4 12.3 0 21.4 4.1 27.2 12.2zm-10.7 36.7c0-5.1-0.3-9.8-0.9-13.8q-0.9-6.1-2.7-10.5c-1.3-2.8-3-5-5.1-6.5q-3.2-2.3-7.8-2.3c-5.7 0-9.9 2.8-12.5 8.4-2.5 5.6-3.7 13.8-3.7 24.7 0 10.3 1.2 18.5 3.7 24.4 2.6 6 6.8 9 12.5 9 6 0 10.2-2.7 12.7-8.1 2.5-5.4 3.8-13.8 3.8-25.3z"/><path class="i" d="m1995.5 1462.4h-10.6l-33 24.6 7.6 11.1 13.1-8.6 7.1-8.1-2.3 9.3v51.8h-20.2v15.8h58.1v-15.8h-19.8z"/><path fill-rule="evenodd" class="i" d="m1662.8 1618.1q8.7 12.1 8.7 36.6c0 15.9-3.1 28.1-9.3 36.6-6.2 8.3-15 12.5-26.5 12.5-6.1 0-11.5-1.1-15.9-3.4q-6.8-3.4-11.1-9.8c-2.9-4.3-5.1-9.5-6.6-15.5-1.4-6.1-2.1-12.9-2.1-20.4 0-16.1 3-28.2 9.2-36.5 6.2-8.2 15-12.4 26.5-12.4q18.4 0 27.1 12.3zm-10.7 36.6q0-7.7-0.9-13.8-0.9-6.1-2.8-10.4c-1.2-2.9-2.9-5.1-5-6.6-2.1-1.6-4.7-2.3-7.7-2.3-5.9 0-10.1 2.7-12.6 8.4-2.4 5.6-3.7 13.9-3.7 24.7 0 10.3 1.3 18.4 3.7 24.4 2.5 6 6.7 9 12.6 9 5.9 0 10.1-2.7 12.6-8.1 2.6-5.3 3.8-13.8 3.8-25.3z"/><path fill-rule="evenodd" class="i" d="m1779.3 1618.1c5.8 8.1 8.7 20.3 8.7 36.6 0 15.9-3.1 28.1-9.3 36.6-6.2 8.3-15 12.5-26.5 12.5q-9.2 0-15.9-3.4-6.8-3.4-11.1-9.8-4.4-6.5-6.6-15.5c-1.4-6.1-2.1-12.9-2.1-20.4 0-16.1 3.1-28.2 9.2-36.5 6.2-8.2 15-12.4 26.5-12.4 12.3 0 21.3 4.1 27.1 12.3zm-10.7 36.6c0-5.1-0.3-9.7-0.9-13.8q-0.8-6.1-2.7-10.4c-1.3-2.9-3-5.1-5.1-6.6q-3.1-2.3-7.7-2.3c-5.9 0-10 2.7-12.5 8.4-2.6 5.6-3.8 13.9-3.8 24.7q0 15.5 3.8 24.4 3.7 9 12.5 9 8.8 0 12.6-8.1c2.5-5.3 3.8-13.8 3.8-25.3z"/><path fill-rule="evenodd" class="i" d="m2010.7 1618.1c5.8 8.1 8.7 20.3 8.7 36.6 0 15.9-3.1 28.1-9.3 36.6-6.2 8.3-15 12.5-26.5 12.5q-9.2 0-15.9-3.4-6.8-3.4-11.1-9.8-4.4-6.5-6.6-15.5c-1.4-6.1-2.1-12.9-2.1-20.4 0-16.1 3.1-28.2 9.2-36.5 6.2-8.2 15-12.4 26.5-12.4 12.3 0 21.3 4.1 27.1 12.3zm-10.7 36.6c0-5.1-0.3-9.7-0.9-13.8q-0.8-6.1-2.7-10.4c-1.3-2.9-3-5.1-5.1-6.6q-3.1-2.3-7.7-2.3c-5.9 0-10 2.7-12.5 8.4-2.6 5.6-3.8 13.9-3.8 24.7q0 15.5 3.8 24.4 3.7 9 12.5 9 8.8 0 12.6-8.1c2.5-5.3 3.8-13.8 3.8-25.3z"/><path fill-rule="evenodd" class="i" d="m2129.3 1618.1c5.8 8.1 8.7 20.3 8.7 36.6 0 15.9-3.1 28.1-9.3 36.6-6.2 8.3-15 12.5-26.5 12.5q-9.2 0-15.9-3.4-6.7-3.4-11.1-9.8-4.4-6.5-6.5-15.5c-1.5-6.1-2.2-12.9-2.2-20.4 0-16.1 3.1-28.2 9.2-36.5 6.2-8.2 15-12.4 26.5-12.4 12.3 0 21.4 4.1 27.1 12.3zm-10.7 36.6c0-5.1-0.3-9.7-0.9-13.8q-0.8-6.1-2.7-10.4c-1.3-2.9-2.9-5.1-5-6.6q-3.2-2.3-7.8-2.3c-5.8 0-10 2.7-12.5 8.4-2.5 5.6-3.8 13.9-3.8 24.7q0 15.5 3.8 24.4 3.7 9 12.5 9 8.9 0 12.7-8.1c2.5-5.3 3.7-13.8 3.7-25.3z"/><path fill-rule="evenodd" class="i" d="m2247.9 1618.1c5.9 8.1 8.7 20.3 8.7 36.6 0 15.9-3.1 28.1-9.2 36.6-6.2 8.3-15.1 12.5-26.6 12.5q-9.2 0-15.8-3.4-6.8-3.4-11.2-9.8-4.3-6.5-6.5-15.5c-1.4-6.1-2.2-12.9-2.2-20.4 0-16.1 3.1-28.2 9.3-36.5 6.1-8.2 14.9-12.4 26.4-12.4 12.3 0 21.4 4.1 27.1 12.3zm-10.7 36.6c0-5.1-0.2-9.7-0.8-13.8q-0.9-6.1-2.8-10.4c-1.2-2.9-2.9-5.1-5-6.6q-3.2-2.3-7.8-2.3c-5.8 0-10 2.7-12.5 8.4-2.5 5.6-3.8 13.9-3.8 24.7q0 15.5 3.8 24.4 3.8 9 12.5 9 8.9 0 12.7-8.1c2.5-5.3 3.7-13.8 3.7-25.3z"/><path class="i" d="m1880.7 1606.9h-10.7l-32.9 24.6 7.5 11.1 13.2-8.6 6.9-8.1-2.2 9.3v51.8h-20.2v15.7h58.1v-15.7h-19.7z"/><path class="i" d="m1528.7 1606.9h-10.7l-32.9 24.6 7.5 11.1 13.2-8.6 7-8.1-2.3 9.3v51.8h-20.2v15.7h58.2v-15.7h-19.8z"/><path class="y" d="m1226.3 1170h-493.3v357.2c0 17.1 12.5 30.9 27.8 30.9h468.4c15.4 0 27.8-13.8 27.8-30.9v-323c0-18.9-13.7-34.2-30.7-34.2z"/><path class="z" d="m1274.7 1265.9h-461.3c-14.5 0-27 11.3-30 27.1l-38.1 200.5-5.2 27.3c-3.6 19.2 9.5 37.3 27.2 37.3h467.2c13.1 0 24.4-10.2 27.1-24.5l43.1-226.5c4-21.2-10.5-41.2-30-41.2z"/><g style="opacity:.7"><path class="x" d="m1274.7 1264.4h-75.2c15.7 28.3 36.4 131.3 8 191.1-30.8 64.9-345.6 32.4-462.2 36.5l-5.2 27.3c-3.6 19.2 9.5 37.3 27.2 37.3h467.2c13.1 0 24.4-10.2 27.1-24.5l43.1-226.4c4-21.3-10.5-41.3-30-41.3z"/></g><path class="r" d="m816.8 1227.3c-27.4 0.1-50.5 23.2-53.4 53.6l-23.3 239.9 43.3-227.8c3-15.8 15.5-27.1 30-27.1h443.6v-39c-122.5-0.2-343 0.2-440.2 0.4z"/><path class="r" d="m939.4 1110.2h-188.8c-9.7 0-17.6 8.8-17.6 19.6v40.2h238v-24.5q0-2.7-0.4-5.3c-2.3-16.9-15.4-30-31.2-30z"/><path class="t" d="m966 1143.4c-9.9 9.1-22.2 14.4-35.1 15.4l-136.7 11.2h176.8v-24.5q0-2.7-0.4-5.3c-1.5 0.6-3 1.7-4.6 3.2z"/><path fill-rule="evenodd" class="t" d="m1114.1 1420l21 8.9c-0.8 8.6-2.5 17.2-5.4 25.6l-22.7-0.3-11.2 19.5 11.7 19.5c-5.8 6.7-12.4 12.5-19.4 17.5l-18.2-13.6-20.6 9.2-2 22.6c-8.5 2-17.2 2.9-26 2.8l-6.7-21.7-22-4.6-14.9 17.1c-4.1-1.7-8.1-3.7-11.9-6-3.8-2.1-7.4-4.5-10.8-7.1l7.3-21.5-15-16.7-22.2 5.1c-4.5-7.6-8-15.6-10.6-23.9l18.5-13.1-2.3-22.4-20.9-8.9c0.8-8.3 2.5-16.7 5.2-24.9l22.7 0.3 11.2-19.6-11.8-19.5c5.8-6.7 12.3-12.6 19.3-17.6l18.3 13.6 20.5-9.3 1.9-22.6c8.5-2 17.2-3 26-2.9l6.8 21.7 22 4.5 14.9-17.1c4.2 1.7 8.3 3.7 12.3 6.1q5.4 3.2 10.4 6.8l-7.2 21.6 15.1 16.6 22.1-5.1c4.5 7.5 8.2 15.6 10.8 23.9l-18.6 13.1zm-44.2-19.1c-9.8-26.3-39-39.6-65.2-29.8-26.3 9.8-39.6 39-29.8 65.2 9.8 26.3 39 39.6 65.2 29.8 26.2-9.8 39.7-38.9 29.8-65.2z"/><path fill-rule="evenodd" class="A" d="m1092 1392.7c14.3 38.3-5.2 81.1-43.6 95.4-38.4 14.4-81.2-5.2-95.5-43.5-14.3-38.4 5.2-81.2 43.6-95.6 38.4-14.3 81.1 5.2 95.5 43.7zm-6.9 2.5c-12.9-34.7-51.4-52.3-86.1-39.4-34.6 13-52.2 51.6-39.3 86.2 12.9 34.6 51.5 52.3 86.1 39.3 34.6-12.9 52.3-51.5 39.3-86.1z"/><path class="A" d="m1045.8 1481.3c-7.2 2.7-14.6 4.1-21.8 4.2q-7.5 3.3-15.3 6c12.8 2.5 26.5 1.6 39.7-3.4 22.6-8.4 38.6-26.7 45.1-48.1q-5.8 5.3-12.3 10.5c-7.4 13.7-19.6 24.9-35.4 30.8z"/><path fill-rule="evenodd" class="r" d="m1122.2 1415.6l21 8.9c-0.8 8.6-2.6 17.2-5.4 25.6l-22.8-0.3-11.2 19.5 11.8 19.5c-5.9 6.7-12.4 12.5-19.4 17.5l-18.2-13.6-20.6 9.2-2 22.6c-8.5 2-17.2 2.9-26 2.8l-6.7-21.7-22.1-4.6-14.9 17.1c-4-1.7-8-3.7-11.9-6-3.7-2.1-7.3-4.5-10.7-7.1l7.3-21.5-15.1-16.7-22.1 5.1c-4.5-7.6-8.1-15.6-10.7-23.9l18.6-13.1-2.3-22.4-20.9-8.9c0.7-8.3 2.4-16.7 5.2-24.9l22.7 0.3 11.1-19.6-11.8-19.5c5.9-6.7 12.4-12.5 19.4-17.6l18.2 13.6 20.6-9.3 1.9-22.6c8.5-2 17.2-3 26-2.9l6.8 21.7 22 4.5 14.9-17.1c4.1 1.7 8.2 3.7 12.2 6.1q5.5 3.2 10.5 6.8l-7.3 21.6 15.1 16.6 22.2-5.1c4.5 7.5 8.1 15.6 10.7 23.9l-18.5 13.1zm-44.2-19.1c-9.9-26.3-39-39.6-65.3-29.8-26.2 9.8-39.6 39-29.8 65.2 9.8 26.3 39.1 39.6 65.3 29.8 26.2-9.8 39.6-38.9 29.8-65.2z"/><path fill-rule="evenodd" class="t" d="m1100 1388.3c14.3 38.3-5.2 81.1-43.6 95.4-38.4 14.4-81.1-5.2-95.4-43.5-14.4-38.4 5.1-81.2 43.5-95.6 38.4-14.3 81.2 5.2 95.5 43.7zm-6.8 2.5c-12.9-34.7-51.5-52.3-86.1-39.4-34.7 13-52.3 51.6-39.3 86.2 12.9 34.6 51.5 52.3 86.1 39.3 34.6-12.9 52.2-51.5 39.3-86.1z"/><path class="l" d="m2567.9 1484.6c-26.8-9.3-29.5-30.8-40.9-34.2-11.5-3.5-37.3 14.9-25.2 39.1 0 0-29.8 21-3.6 50.8 0 0-14.4 31 3.5 48.2l2.9 19.1c0.8 3.2 8.6 21.3 32 28.7 23.4 7.3 38.1 10 45.1 6.5 7-3.5 16.3-12.8 4.4-25 0 0 13.8-0.4 14.1-16.2 0.2-15.8-11.8-20.5-11.8-20.5 0 0 17.8-2.3 16.4-20.2-1.3-17.9-15-24.9-15-24.9 0 0 20.5-3.4 21.7-19.3 1.1-15.8-16.7-22.8-43.6-32.1z"/><path class="z" d="m3391.4 1772.9c0 0.6 4.4 60.5-16.9 132.6-19.5 66.2-65.4 156.7-173.1 211.7-143.5 73.3-254.4 56.9-322.2 30.2-73.6-28.9-113.8-75.9-114.2-76.3l-4.6 3.8 4.6-3.8-9.1 7.6c1.7 2 42.2 49.5 118.4 79.6 40.1 15.8 82.5 23.8 126.5 23.8q7.6 0 15.2-0.3c61.5-2.6 125.7-20.7 190.8-54 49.3-25.2 90.3-59.6 121.9-102.2 25.2-34.1 44.5-73.5 57.3-117.1 21.9-74.2 17.4-134.1 17.2-136.6z"/><path class="y" d="m3358.1 1763.7c0.1 1 3.2 104.6-68.4 211.8-66.2 99.4-211.9 221.9-529.6 241.7l0.7 11.9c142.2-8.9 262.7-38.7 358.2-88.8 76.7-40.2 137.4-93.4 180.6-158.2 38.5-57.7 55.6-114 63.2-151.1 8.2-40.3 7.3-66.7 7.2-67.8z"/><path class="B" d="m1800.4 2160.9h648v-25.2h-648z"/><path class="u" d="m2482.6 2160.9h-716.5c-2.8 0-5 2.2-5 5v131.2c0 2.8 2.2 5.1 5 5.1h716.5c2.8 0 5.1-2.3 5.1-5.1v-131.2c0-2.8-2.3-5-5.1-5z"/><path class="B" d="m1800.4 2327.4h648v-25.2h-648z"/><path class="u" d="m2482.6 2327.4h-716.5c-2.8 0-5 2.2-5 5v131.2c0 2.8 2.2 5.1 5 5.1h716.5c2.8 0 5.1-2.3 5.1-5.1v-131.2c0-2.8-2.3-5-5.1-5z"/><path class="t" d="m2049.8 2160.9h648.1v-25.2h-648.1z"/><path class="y" d="m2732.1 2160.9h-716.5c-2.8 0-5 2.2-5 5v131.2c0 2.8 2.2 5.1 5 5.1h716.5c2.8 0 5.1-2.3 5.1-5.1v-131.2c0-2.8-2.3-5-5.1-5z"/><path class="t" d="m2049.8 2327.4h648.1v-25.2h-648.1z"/><path class="r" d="m2195.6 2193.7h-95.4c-7.9 0-14.3 6.4-14.3 14.2v43.6c0 7.8 6.4 14.2 14.3 14.2h95.4c7.9 0 14.3-6.4 14.3-14.2v-43.6c0-7.8-6.4-14.2-14.3-14.2z"/><path class="k" d="m2106.2 2224.5h85.1v-12.1h-85.1z"/><path class="k" d="m2106.2 2250.7h85.1v-12.1h-85.1z"/><path class="z" d="m2067.2 2193.7h-9.8c-1.4 0-2.5 1.1-2.5 2.5v67c0 1.4 1.1 2.5 2.5 2.5h9.8c1.4 0 2.5-1.1 2.5-2.5v-67c0-1.4-1.1-2.5-2.5-2.5z"/><path class="C" d="m2453.5 2222.1c-8.3 0-15 5.6-15 12.4 0 6.8 6.7 12.3 15 12.3 8.3 0 15-5.5 15-12.3 0-6.8-6.7-12.4-15-12.4z"/><path class="u" d="m2509 2222.1c-8.3 0-15 5.6-15 12.4 0 6.8 6.7 12.3 15 12.3 8.2 0 15-5.5 15-12.3 0-6.8-6.8-12.4-15-12.4z"/><path class="t" d="m2564.5 2222.1c-8.3 0-15 5.6-15 12.4 0 6.8 6.7 12.3 15 12.3 8.2 0 14.9-5.5 14.9-12.3 0-6.8-6.7-12.4-14.9-12.4z"/><path class="z" d="m2620 2222.1c-8.3 0-15 5.6-15 12.4 0 6.8 6.7 12.3 15 12.3 8.2 0 14.9-5.5 14.9-12.3 0-6.8-6.7-12.4-14.9-12.4z"/><path class="k" d="m2675.4 2222.1c-8.2 0-14.9 5.6-14.9 12.4 0 6.8 6.7 12.3 14.9 12.3 8.3 0 15-5.5 15-12.3 0-6.8-6.7-12.4-15-12.4z"/><path class="r" d="m1987.3 2195.1v76.5c0 7.2 5.8 13 13 13h10.3v-102.5h-10.3c-7.2 0-13 5.8-13 13z"/><path class="r" d="m2747.4 2182.1h-10.2v102.5h10.2c7.2 0 13-5.8 13-13v-76.5c0-7.2-5.8-13-13-13z"/><path class="y" d="m2732.1 2327.4h-716.5c-2.8 0-5 2.2-5 5v131.2c0 2.8 2.2 5.1 5 5.1h716.5c2.8 0 5.1-2.3 5.1-5.1v-131.2c0-2.8-2.3-5-5.1-5z"/><path class="r" d="m2195.6 2360.2h-95.4c-7.9 0-14.3 6.3-14.3 14.2v43.6c0 7.8 6.4 14.2 14.3 14.2h95.4c7.9 0 14.3-6.4 14.3-14.2v-43.6c0-7.9-6.4-14.2-14.3-14.2z"/><path class="k" d="m2106.2 2390.9h85.1v-12.1h-85.1z"/><path class="k" d="m2106.2 2417.2h85.1v-12.1h-85.1z"/><path class="z" d="m2067.2 2360.2h-9.8c-1.4 0-2.5 1.1-2.5 2.5v67c0 1.4 1.1 2.5 2.5 2.5h9.8c1.4 0 2.5-1.1 2.5-2.5v-67c0-1.4-1.1-2.5-2.5-2.5z"/><path class="t" d="m2453.5 2399.8c-8.3 0-15 5.4-15 12.1 0 6.6 6.7 12 15 12 8.3 0 15-5.4 15-12 0-6.7-6.7-12.1-15-12.1z"/><path class="x" d="m2509 2399.8c-8.3 0-15 5.4-15 12.1 0 6.6 6.7 12 15 12 8.2 0 15-5.4 15-12 0-6.7-6.8-12.1-15-12.1z"/><path class="z" d="m2564.5 2399.8c-8.3 0-15 5.4-15 12.1 0 6.6 6.7 12 15 12 8.2 0 14.9-5.4 14.9-12 0-6.7-6.7-12.1-14.9-12.1z"/><path class="z" d="m2620 2399.8c-8.3 0-15 5.4-15 12.1 0 6.6 6.7 12 15 12 8.2 0 14.9-5.4 14.9-12 0-6.7-6.7-12.1-14.9-12.1z"/><path class="k" d="m2675.4 2399.8c-8.2 0-14.9 5.4-14.9 12.1 0 6.6 6.7 12 14.9 12 8.3 0 15-5.4 15-12 0-6.7-6.7-12.1-15-12.1z"/><path class="r" d="m1987.3 2361.6v76.5c0 7.2 5.8 13 13 13h10.3v-102.5h-10.3c-7.2 0-13 5.8-13 13z"/><path class="r" d="m2747.4 2348.6h-10.2v102.5h10.2c7.2 0 13-5.8 13-13v-76.5c0-7.2-5.8-13-13-13z"/><path class="B" d="m1800.4 1827.9h648v-25.2h-648z"/><path class="u" d="m2482.6 1827.9h-716.5c-2.8 0-5 2.2-5 5v131.3c0 2.7 2.2 5 5 5h716.5c2.8 0 5.1-2.3 5.1-5v-131.3c0-2.8-2.3-5-5.1-5z"/><path class="B" d="m1800.4 1994.4h648v-25.2h-648z"/><path class="u" d="m2482.6 1994.4h-716.5c-2.8 0-5 2.2-5 5v131.2c0 2.8 2.2 5.1 5 5.1h716.5c2.8 0 5.1-2.3 5.1-5.1v-131.2c0-2.8-2.3-5-5.1-5z"/><path class="t" d="m2049.8 1827.9h648.1v-25.2h-648.1z"/><path class="y" d="m2732.1 1827.9h-716.5c-2.8 0-5 2.2-5 5v131.3c0 2.7 2.2 5 5 5h716.5c2.8 0 5.1-2.3 5.1-5v-131.3c0-2.8-2.3-5-5.1-5z"/><path class="t" d="m2049.8 1994.4h648.1v-25.2h-648.1z"/><path class="r" d="m2195.6 1860.7h-95.4c-7.9 0-14.3 6.4-14.3 14.2v43.6c0 7.9 6.4 14.2 14.3 14.2h95.4c7.9 0 14.3-6.3 14.3-14.2v-43.6c0-7.8-6.4-14.2-14.3-14.2z"/><path class="k" d="m2106.2 1891.5h85.1v-12.1h-85.1z"/><path class="k" d="m2106.2 1917.7h85.1v-12.1h-85.1z"/><path class="z" d="m2067.2 1860.7h-9.8c-1.4 0-2.5 1.1-2.5 2.5v67c0 1.4 1.1 2.5 2.5 2.5h9.8c1.4 0 2.5-1.1 2.5-2.5v-67c0-1.4-1.1-2.5-2.5-2.5z"/><path class="C" d="m2453.5 1889.1c-8.3 0-15 5.6-15 12.4 0 6.8 6.7 12.4 15 12.4 8.3 0 15-5.6 15-12.4 0-6.8-6.7-12.4-15-12.4z"/><path class="u" d="m2509 1889.1c-8.3 0-15 5.6-15 12.4 0 6.8 6.7 12.4 15 12.4 8.2 0 15-5.6 15-12.4 0-6.8-6.8-12.4-15-12.4z"/><path class="t" d="m2564.5 1889.1c-8.3 0-15 5.6-15 12.4 0 6.8 6.7 12.4 15 12.4 8.2 0 14.9-5.6 14.9-12.4 0-6.8-6.7-12.4-14.9-12.4z"/><path class="z" d="m2620 1889.1c-8.3 0-15 5.6-15 12.4 0 6.8 6.7 12.4 15 12.4 8.2 0 14.9-5.6 14.9-12.4 0-6.8-6.7-12.4-14.9-12.4z"/><path class="k" d="m2675.4 1889.1c-8.2 0-14.9 5.6-14.9 12.4 0 6.8 6.7 12.4 14.9 12.4 8.3 0 15-5.6 15-12.4 0-6.8-6.7-12.4-15-12.4z"/><path class="r" d="m1987.3 1862.1v76.5c0 7.2 5.8 13 13 13h10.3v-102.5h-10.3c-7.2 0-13 5.9-13 13z"/><path class="r" d="m2747.4 1849.1h-10.2v102.5h10.2c7.2 0 13-5.8 13-13v-76.5c0-7.1-5.8-13-13-13z"/><path class="y" d="m2732.1 1994.4h-716.5c-2.8 0-5 2.2-5 5v131.2c0 2.8 2.2 5.1 5 5.1h716.5c2.8 0 5.1-2.3 5.1-5.1v-131.2c0-2.8-2.3-5-5.1-5z"/><path class="r" d="m2195.6 2027.2h-95.4c-7.9 0-14.3 6.4-14.3 14.2v43.6c0 7.8 6.4 14.2 14.3 14.2h95.4c7.9 0 14.3-6.4 14.3-14.2v-43.6c0-7.8-6.4-14.2-14.3-14.2z"/><path class="k" d="m2106.2 2058h85.1v-12.1h-85.1z"/><path class="k" d="m2106.2 2084.2h85.1v-12.1h-85.1z"/><path class="z" d="m2067.2 2027.2h-9.8c-1.4 0-2.5 1.1-2.5 2.5v67c0 1.4 1.1 2.5 2.5 2.5h9.8c1.4 0 2.5-1.1 2.5-2.5v-67c0-1.4-1.1-2.5-2.5-2.5z"/><path class="u" d="m2453.5 2066.8c-8.3 0-15 5.4-15 12.1 0 6.7 6.7 12.1 15 12.1 8.3 0 15-5.4 15-12.1 0-6.7-6.7-12.1-15-12.1z"/><path class="t" d="m2509 2066.8c-8.3 0-15 5.4-15 12.1 0 6.7 6.7 12.1 15 12.1 8.2 0 15-5.4 15-12.1 0-6.7-6.8-12.1-15-12.1z"/><path class="x" d="m2564.5 2066.8c-8.3 0-15 5.4-15 12.1 0 6.7 6.7 12.1 15 12.1 8.2 0 14.9-5.4 14.9-12.1 0-6.7-6.7-12.1-14.9-12.1z"/><path class="z" d="m2620 2066.8c-8.3 0-15 5.4-15 12.1 0 6.7 6.7 12.1 15 12.1 8.2 0 14.9-5.4 14.9-12.1 0-6.7-6.7-12.1-14.9-12.1z"/><path class="k" d="m2675.4 2066.8c-8.2 0-14.9 5.4-14.9 12.1 0 6.7 6.7 12.1 14.9 12.1 8.3 0 15-5.4 15-12.1 0-6.7-6.7-12.1-15-12.1z"/><path class="r" d="m1987.3 2028.6v76.5c0 7.2 5.8 13 13 13h10.3v-102.5h-10.3c-7.2 0-13 5.8-13 13z"/><path class="r" d="m2747.4 2015.6h-10.2v102.5h10.2c7.2 0 13-5.8 13-13v-76.5c0-7.2-5.8-13-13-13z"/><path class="B" d="m982 2160.9h648v-25.2h-648z"/><path class="u" d="m1664.3 2160.9h-716.5c-2.8 0-5.1 2.2-5.1 5v131.2c0 2.8 2.3 5.1 5.1 5.1h716.5c2.8 0 5-2.3 5-5.1v-131.2c0-2.8-2.2-5-5-5z"/><path class="B" d="m982 2327.4h648v-25.2h-648z"/><path class="u" d="m1664.3 2327.4h-716.5c-2.8 0-5.1 2.2-5.1 5v131.2c0 2.8 2.3 5.1 5.1 5.1h716.5c2.8 0 5-2.3 5-5.1v-131.2c0-2.8-2.2-5-5-5z"/><path class="t" d="m1231.5 2160.9h648v-25.2h-648z"/><path class="y" d="m1913.7 2160.9h-716.5c-2.8 0-5 2.2-5 5v131.2c0 2.8 2.2 5.1 5 5.1h716.5c2.8 0 5.1-2.3 5.1-5.1v-131.2c0-2.8-2.3-5-5.1-5z"/><path class="t" d="m1231.5 2327.4h648v-25.2h-648z"/><path class="r" d="m1377.3 2193.7h-95.5c-7.8 0-14.2 6.4-14.2 14.2v43.6c0 7.8 6.4 14.2 14.2 14.2h95.5c7.8 0 14.2-6.4 14.2-14.2v-43.6c0-7.8-6.4-14.2-14.2-14.2z"/><path class="k" d="m1287.9 2224.5h85.1v-12.1h-85.1z"/><path class="k" d="m1287.9 2250.7h85.1v-12.1h-85.1z"/><path class="z" d="m1248.8 2193.7h-9.8c-1.4 0-2.5 1.1-2.5 2.5v67c0 1.4 1.1 2.5 2.5 2.5h9.8c1.4 0 2.6-1.1 2.6-2.5v-67c0-1.4-1.2-2.5-2.6-2.5z"/><path class="C" d="m1635.1 2222.1c-8.3 0-15 5.6-15 12.4 0 6.8 6.7 12.3 15 12.3 8.3 0 15-5.5 15-12.3 0-6.8-6.7-12.4-15-12.4z"/><path class="u" d="m1690.6 2222.1c-8.3 0-15 5.6-15 12.4 0 6.8 6.7 12.3 15 12.3 8.3 0 15-5.5 15-12.3 0-6.8-6.7-12.4-15-12.4z"/><path class="t" d="m1746.1 2222.1c-8.3 0-15 5.6-15 12.4 0 6.8 6.7 12.3 15 12.3 8.3 0 15-5.5 15-12.3 0-6.8-6.7-12.4-15-12.4z"/><path class="z" d="m1801.6 2222.1c-8.3 0-15 5.6-15 12.4 0 6.8 6.7 12.3 15 12.3 8.3 0 15-5.5 15-12.3 0-6.8-6.7-12.4-15-12.4z"/><path class="k" d="m1857.1 2222.1c-8.3 0-15 5.6-15 12.4 0 6.8 6.7 12.3 15 12.3 8.2 0 15-5.5 15-12.3 0-6.8-6.8-12.4-15-12.4z"/><path class="r" d="m1168.9 2195.1v76.5c0 7.2 5.8 13 13 13h10.3v-102.5h-10.3c-7.2 0-13 5.8-13 13z"/><path class="r" d="m1929.1 2182.1h-10.3v102.5h10.3c7.2 0 13-5.8 13-13v-76.5c0-7.2-5.8-13-13-13z"/><path class="y" d="m1913.7 2327.4h-716.5c-2.8 0-5 2.2-5 5v131.2c0 2.8 2.2 5.1 5 5.1h716.5c2.8 0 5.1-2.3 5.1-5.1v-131.2c0-2.8-2.3-5-5.1-5z"/><path class="r" d="m1377.3 2360.2h-95.5c-7.8 0-14.2 6.3-14.2 14.2v43.6c0 7.8 6.4 14.2 14.2 14.2h95.5c7.8 0 14.2-6.4 14.2-14.2v-43.6c0-7.9-6.4-14.2-14.2-14.2z"/><path class="k" d="m1287.9 2390.9h85.1v-12.1h-85.1z"/><path class="k" d="m1287.9 2417.2h85.1v-12.1h-85.1z"/><path class="z" d="m1248.8 2360.2h-9.8c-1.4 0-2.5 1.1-2.5 2.5v67c0 1.4 1.1 2.5 2.5 2.5h9.8c1.4 0 2.6-1.1 2.6-2.5v-67c0-1.4-1.2-2.5-2.6-2.5z"/><path class="t" d="m1635.1 2399.8c-8.3 0-15 5.4-15 12.1 0 6.6 6.7 12 15 12 8.3 0 15-5.4 15-12 0-6.7-6.7-12.1-15-12.1z"/><path class="x" d="m1690.6 2399.8c-8.3 0-15 5.4-15 12.1 0 6.6 6.7 12 15 12 8.3 0 15-5.4 15-12 0-6.7-6.7-12.1-15-12.1z"/><path class="z" d="m1746.1 2399.8c-8.3 0-15 5.4-15 12.1 0 6.6 6.7 12 15 12 8.3 0 15-5.4 15-12 0-6.7-6.7-12.1-15-12.1z"/><path class="z" d="m1801.6 2399.8c-8.3 0-15 5.4-15 12.1 0 6.6 6.7 12 15 12 8.3 0 15-5.4 15-12 0-6.7-6.7-12.1-15-12.1z"/><path class="k" d="m1857.1 2399.8c-8.3 0-15 5.4-15 12.1 0 6.6 6.7 12 15 12 8.2 0 15-5.4 15-12 0-6.7-6.8-12.1-15-12.1z"/><path class="r" d="m1168.9 2361.6v76.5c0 7.2 5.8 13 13 13h10.3v-102.5h-10.3c-7.2 0-13 5.8-13 13z"/><path class="r" d="m1929.1 2348.6h-10.3v102.5h10.3c7.2 0 13-5.8 13-13v-76.5c0-7.2-5.8-13-13-13z"/><path class="B" d="m982 1827.9h648v-25.2h-648z"/><path class="u" d="m1664.3 1827.9h-716.5c-2.8 0-5.1 2.2-5.1 5v131.3c0 2.7 2.3 5 5.1 5h716.5c2.8 0 5-2.3 5-5v-131.3c0-2.8-2.2-5-5-5z"/><path class="B" d="m982 1994.4h648v-25.2h-648z"/><path class="u" d="m1664.3 1994.4h-716.5c-2.8 0-5.1 2.2-5.1 5v131.2c0 2.8 2.3 5.1 5.1 5.1h716.5c2.8 0 5-2.3 5-5.1v-131.2c0-2.8-2.2-5-5-5z"/><path class="t" d="m1231.5 1827.9h648v-25.2h-648z"/><path class="y" d="m1913.7 1827.9h-716.5c-2.8 0-5 2.2-5 5v131.3c0 2.7 2.2 5 5 5h716.5c2.8 0 5.1-2.3 5.1-5v-131.3c0-2.8-2.3-5-5.1-5z"/><path class="t" d="m1231.5 1994.4h648v-25.2h-648z"/><path class="r" d="m1377.3 1860.7h-95.5c-7.8 0-14.2 6.4-14.2 14.2v43.6c0 7.9 6.4 14.2 14.2 14.2h95.5c7.8 0 14.2-6.3 14.2-14.2v-43.6c0-7.8-6.4-14.2-14.2-14.2z"/><path class="k" d="m1287.9 1891.5h85.1v-12.1h-85.1z"/><path class="k" d="m1287.9 1917.7h85.1v-12.1h-85.1z"/><path class="z" d="m1248.8 1860.7h-9.8c-1.4 0-2.5 1.1-2.5 2.5v67c0 1.4 1.1 2.5 2.5 2.5h9.8c1.4 0 2.6-1.1 2.6-2.5v-67c0-1.4-1.2-2.5-2.6-2.5z"/><path class="C" d="m1635.1 1889.1c-8.3 0-15 5.6-15 12.4 0 6.8 6.7 12.4 15 12.4 8.3 0 15-5.6 15-12.4 0-6.8-6.7-12.4-15-12.4z"/><path class="u" d="m1690.6 1889.1c-8.3 0-15 5.6-15 12.4 0 6.8 6.7 12.4 15 12.4 8.3 0 15-5.6 15-12.4 0-6.8-6.7-12.4-15-12.4z"/><path class="t" d="m1746.1 1889.1c-8.3 0-15 5.6-15 12.4 0 6.8 6.7 12.4 15 12.4 8.3 0 15-5.6 15-12.4 0-6.8-6.7-12.4-15-12.4z"/><path class="z" d="m1801.6 1889.1c-8.3 0-15 5.6-15 12.4 0 6.8 6.7 12.4 15 12.4 8.3 0 15-5.6 15-12.4 0-6.8-6.7-12.4-15-12.4z"/><path class="k" d="m1857.1 1889.1c-8.3 0-15 5.6-15 12.4 0 6.8 6.7 12.4 15 12.4 8.2 0 15-5.6 15-12.4 0-6.8-6.8-12.4-15-12.4z"/><path class="r" d="m1168.9 1862.1v76.5c0 7.2 5.8 13 13 13h10.3v-102.5h-10.3c-7.2 0-13 5.9-13 13z"/><path class="r" d="m1929.1 1849.1h-10.3v102.5h10.3c7.2 0 13-5.8 13-13v-76.5c0-7.1-5.8-13-13-13z"/><path class="y" d="m1913.7 1994.4h-716.5c-2.8 0-5 2.2-5 5v131.2c0 2.8 2.2 5.1 5 5.1h716.5c2.8 0 5.1-2.3 5.1-5.1v-131.2c0-2.8-2.3-5-5.1-5z"/><path class="r" d="m1377.3 2027.2h-95.5c-7.8 0-14.2 6.4-14.2 14.2v43.6c0 7.8 6.4 14.2 14.2 14.2h95.5c7.8 0 14.2-6.4 14.2-14.2v-43.6c0-7.8-6.4-14.2-14.2-14.2z"/><path class="k" d="m1287.9 2058h85.1v-12.1h-85.1z"/><path class="k" d="m1287.9 2084.2h85.1v-12.1h-85.1z"/><path class="z" d="m1248.8 2027.2h-9.8c-1.4 0-2.5 1.1-2.5 2.5v67c0 1.4 1.1 2.5 2.5 2.5h9.8c1.4 0 2.6-1.1 2.6-2.5v-67c0-1.4-1.2-2.5-2.6-2.5z"/><path class="u" d="m1635.1 2066.8c-8.3 0-15 5.4-15 12.1 0 6.7 6.7 12.1 15 12.1 8.3 0 15-5.4 15-12.1 0-6.7-6.7-12.1-15-12.1z"/><path class="t" d="m1690.6 2066.8c-8.3 0-15 5.4-15 12.1 0 6.7 6.7 12.1 15 12.1 8.3 0 15-5.4 15-12.1 0-6.7-6.7-12.1-15-12.1z"/><path class="x" d="m1746.1 2066.8c-8.3 0-15 5.4-15 12.1 0 6.7 6.7 12.1 15 12.1 8.3 0 15-5.4 15-12.1 0-6.7-6.7-12.1-15-12.1z"/><path class="z" d="m1801.6 2066.8c-8.3 0-15 5.4-15 12.1 0 6.7 6.7 12.1 15 12.1 8.3 0 15-5.4 15-12.1 0-6.7-6.7-12.1-15-12.1z"/><path class="k" d="m1857.1 2066.8c-8.3 0-15 5.4-15 12.1 0 6.7 6.7 12.1 15 12.1 8.2 0 15-5.4 15-12.1 0-6.7-6.8-12.1-15-12.1z"/><path class="r" d="m1168.9 2028.6v76.5c0 7.2 5.8 13 13 13h10.3v-102.5h-10.3c-7.2 0-13 5.8-13 13z"/><path class="r" d="m1929.1 2015.6h-10.3v102.5h10.3c7.2 0 13-5.8 13-13v-76.5c0-7.2-5.8-13-13-13z"/></svg>