<svg version="1.2" xmlns="http://www.w3.org/2000/svg" viewBox="0 0 4680 3120" width="720" height="480"><style>.a{opacity:0;fill:#fff}.b{fill:#f5f5f7}.c{fill:#419786}.d{fill:#35776a}.e{fill:#6fc183}.f{fill:#a5a5a5}.g{fill:#7e7e7e}.h{fill:#7a8db0}.i{fill:#d9eefc}.j{opacity:.3;fill:#86c3f2}.k{fill:#b1d5f2}.l{opacity:.4;fill:#5896e0}.m{fill:#5291ce}.n{fill:#f6f6f6}.o{fill:#2e4ea4}.p{fill:#fff}.q{fill:#254384}.r{fill:#d1dbed}.s{fill:#85a0c1}.t{fill:#678fb7}.u{opacity:.5;fill:#9bb0c4}.v{fill:#14284c}.w{fill:#d7d7d7}.x{fill:#bebebe}.y{fill:#78b7ea}.z{fill:#e9e9e9}.A{fill:#f4aea2}.B{fill:#e8e8e8}.C{fill:#1d2f59}.D{fill:#723328}.E{fill:#f4a471}.F{fill:#2b4a8e}.G{fill:#719bd8}.H{fill:#4079a8}.I{fill:#154f44}.J{fill:#171717}.K{fill:#5aa86a}.L{fill:#facc88}.M{opacity:.6;fill:#5aa86a}.N{fill:#3f70a0}.O{fill:#0d0d0d}.P{fill:#f18a8b}.Q{fill:#d1696e}.R{fill:#d3d3d3}.S{fill:#204f46}.T{opacity:.5;fill:#1a1a1a}.U{fill:#3071b2}.V{fill:#234175}.W{fill:#6c97c1}.X{fill:#446ea0}</style><path class="a" d="m4680.2 3119.6h-4680v-3120h4680z"/><path class="b" d="m1158.2 2146c0 0-388.3-459.1-295.4-1040.3 92.9-581.2 598.5-880.9 939.9-842.9 341.5 37.9 684.4 383.6 1018.3 429.2 333.8 45.6 839.1 351.6 743.2 923.2-95.9 571.5-404.1 624.2-903.4 640.3-499.4 16.2-1203.8 271-1502.6-109.5z"/><path class="c" d="m3418.5 2457.6c2.9-15.2 6.7-29.5 9.1-44.1 2.2-13.6 3.1-27.5 1-42.2-3.6-25.4-13-48.7-22.9-72-6.4-15.3-11.9-30.5-8.9-47.2 7.1-38.9 32.5-68 19.4-110.1-4.6-14.8-12.8-28.2-16.8-43.2-7.6-28.1 0.6-57.8 0.5-87-0.2-33.5-12-66.9-32.7-92.9-12.4-15.5-29.1-29-48.9-21.8-17.3 6.3-31.2 20.2-39.8 36.4-20.4 38.6-8.7 89.5-32.5 126-11.5 17.7-30 29.3-44.9 44.3-28 28.1-37.3 88.9-20.8 125.3 7 15.5 15.8 30.3 21.2 46.6 9.2 27.4-5 53.5-13.2 80-4 13.3-8.1 26.7-10 40.6q-0.9 7.2-0.9 14.3c4.9-4.4 13.5-5.8 21.9-2.7 11.2 4 18 14.1 15 22.6-2.9 8.5-14.4 12.2-25.6 8.1-3.7-1.3-6.9-3.3-9.4-5.7 13.2 74.5 92.2 134.3 123.7 198.6 4.7-19.5 17.7-35.9 32-49.8 14.2-13.9 30.1-26.1 42.9-41.5 18.7-22.5 34.9-53.6 40.6-82.6z"/><path class="d" d="m3324.2 1992.6c5.7 63 7.5 124.4-3 187-10.3 61.9-34 119.2-48.9 179.7-13.8 55.7 0.3 106.8 13 161 15.2 64.9 20.8 132.3 11 198.5-0.9 6 8.1 7.6 9 1.7 8.4-56.6 5.4-113.1-4.3-169.2-11.4-65.3-34.3-123.2-19.7-190.4 6.8-31.3 19.3-61.4 28.4-92.1 9.3-31.7 16.6-63.9 22-96.4 10.1-60.2 7.1-120.3 1.7-180.7-0.6-6-9.7-5.1-9.2 0.9z"/><path class="d" d="m3287.9 2521c-33.8-19.9-67.4-40.1-100.8-60.7q1.5 3.7 3.1 7.3c31.5 19.4 63.2 38.5 95.1 57.2 0.4 0.8 1.2 1.3 2.2 1.3q0.6 0.4 1.3 0.8c2 1.2 3.6-1.1 3-2.8 43.4-23.5 86.1-48.2 128.2-73.9q0.7-3.1 1.3-6.2c-43.8 26.8-88.2 52.6-133.4 77z"/><path class="d" d="m3267.3 2411.4c0.4 1.4 2 2.5 3.4 1.4q42.9-32.7 89.1-60.3c18.1-10.8 36.7-20.7 54.7-31.5q-0.8-2.2-1.6-4.3c-18.4 11-37.3 21.1-55.7 31.9-30.2 17.9-59.2 37.7-87.2 58.9-21.9-9-42.6-22.1-63.5-33.3q-10.2-5.5-20.4-11-0.7 2.2-1.4 4.5 10 5.4 19.9 10.7c20.6 11.1 41.1 24 62.7 33z"/><path class="d" d="m3283.4 2329.5q0.2-0.2 0.4-0.3c1.3 0.5 2.4-0.5 2.6-1.8q56-37.2 110.6-76.3 0.7-3.4 1.5-6.7-56.8 40.7-115 79.4-40.9-23.9-81.9-47.8c0.7 2.1 1.2 4.2 1.6 6.3q38.3 22.4 76.6 44.7c-0.3 1.7 1.7 3.7 3.6 2.5z"/><path class="d" d="m3317.4 2226.1q-0.2-0.1-0.5-0.3c32.1-28.5 65.6-55.3 100.2-80.6-0.3-1.1-0.5-2.1-0.9-3.2-0.1-0.5-0.3-1-0.5-1.5-35.6 25.9-70 53.5-103 82.9q-67-38.9-135.2-75.6-0.7 2.3-1.2 4.6 70.2 37.8 139.1 78c2.6 1.5 4.6-2.8 2-4.3z"/><path class="d" d="m3333.7 2123q0.7-0.1 1.2-0.6c21-13.5 41.5-27.8 61.5-42.7q-0.1-2.8-0.2-5.6-30.8 23.1-63.2 44c-32.4-14.7-64-30.9-94.9-48.5q-1.6 1.8-3.3 3.5c31.4 18 63.6 34.4 96.5 49.3 0.6 0.6 1.5 0.9 2.4 0.6z"/><path class="d" d="m3334 2021c19-19.2 38.3-37.9 57.9-56.4q-0.8-2.3-1.6-4.7c-19.6 18.4-38.9 37.1-57.9 56.2-22.2-13.5-44.2-27.4-66-41.6q-0.4 2.5-0.7 5c21.2 13.9 42.6 27.4 64.3 40.5 0.5 1.4 2.6 2.4 4 1z"/><g style="opacity:.2;mix-blend-mode:multiply"><path class="d" d="m3303 2631.5c4.7-19.5 17.7-35.9 32-49.8 14.2-13.9 30.1-26.1 42.9-41.5 18.7-22.5 34.9-53.6 40.6-82.6 2.9-15.2 6.7-29.5 9.1-44.1 2.2-13.6 3.1-27.5 1-42.2-3.6-25.4-13-48.7-22.9-72-6.4-15.3-11.9-30.5-8.9-47.2 7.1-38.9 32.5-68 19.4-110.1-4.6-14.8-12.8-28.2-16.8-43.2-7.6-28.1 0.6-57.8 0.5-87-0.2-33.5-12-66.9-32.7-92.9-12.4-15.5-29.1-29-48.9-21.8-6.6 2.4-12.6 5.8-18.1 10.1 1.3 4.5 2.6 8.8 3.7 12.7 10.7 37.9 23.1 75.8 25.3 115.4 2 34.3-3.9 68.9-16.9 100.6-9 21.8-21.5 42.6-25.9 65.8-8.7 44.7 13.2 88.7 29.5 131 21.6 56.3 34.2 117.3 27 177.3-4.9 40.8-19.8 81-44.1 113.5q2.2 4 4.2 8z"/></g><path class="e" d="m3615.8 2324.2c1.4-6.4 2.5-13 3.7-19.6 2.5-14.6 5.1-29.2 11.5-42.3 7.7-15.8 20.2-28.5 31.5-41.9 40.5-48.3 83.6-130.9 40.6-194.8-17.6-26.2-51.2-42.5-80.5-34.6-31.2 8.4-43.1 35.6-62.7 57.6-19.1 21.6-50.7 26.5-70.5 49.7q-2.3 2.8-4.4 5.6c4.5 1.2 9.2 3.6 13.4 7.3 10.6 9.4 13.8 23.4 7.1 31.2-6.7 7.8-20.7 6.4-31.3-3-2.4-2.2-4.4-4.6-6.1-7.1-7 15.6-11.5 32.5-13.4 49.7-1.5 12.7-1.7 25.7-4.8 38-9.5 37.7-44.4 62-79.5 77.3-35.1 15.3-73.4 25.5-103.1 49.5-33.6 27.4-46.9 65.4-54.9 107.3-8 41.1 4.3 89.9 8.8 132.1-1-9.7 107.3-16 119-17.9 32.4-5.5 64.6-14.2 94.1-28.2 29.2-13.8 50.3-34.5 74-55.8 47.9-42.9 93.1-94.4 107.5-160.1z"/><g style="opacity:.2;mix-blend-mode:multiply"><path class="f" d="m3615.8 2324.2c1.4-6.4 2.5-13 3.7-19.6 2.5-14.6 5.1-29.2 11.5-42.3 7.7-15.8 20.2-28.5 31.5-41.9 40.5-48.3 83.6-130.9 40.6-194.8-8.5-12.7-20.8-23-34.5-29.4-10.1 53.5-22.2 109.6-59.5 147.6-19.1 19.5-43.8 33.1-60.8 54.5-20.4 25.5-27.6 59.2-36 91.2-25.9 99.5-80.3 173-173.5 215.3-39.8 18.1-81.8 31.7-122 48.6 1.7 11.2 3.3 22.2 4.4 32.8-1-9.7 107.3-16 119-17.9 32.4-5.5 64.6-14.2 94.1-28.2 29.2-13.8 50.3-34.5 74-55.8 47.9-42.9 93.1-94.4 107.5-160.1z"/></g><path class="c" d="m3641.1 2070.8c-30.7 62-69.5 119.5-110.7 174.5-41.9 55.8-92.9 92.9-151.3 129.4-50.3 31.6-88.5 70.5-119.1 121.8-35.1 59-58.2 124.7-96.2 181.9-3.6 5.3 4.2 12.3 7.8 6.9 33.5-50.4 56.7-106.8 84.7-160.6 16.3-31.3 35.3-60.6 58.9-86.5 24-26.5 55-45.7 85.2-64.4 57.2-35.3 102.8-74.9 143.4-129 39.8-53.1 76.9-109.4 106.5-169.3 2.9-5.9-6.4-10.6-9.2-4.7z"/><path class="c" d="m3235.7 2384.6q-1.9 3.4-3.6 6.8c8.2 34.1 18 67.9 29.5 101.2-0.2 0.8 0.1 1.7 0.7 2.3q0.2 0.5 0.4 1.1c0.8 2.4 3.9 2 4.7 0.3 65.5 12.2 131.5 20.6 197.6 25.1q3.1-2.3 6.1-4.7c-68.5-4.5-136.9-13.1-204.8-25.8-12.1-35-22.2-70.4-30.6-106.3z"/><path class="c" d="m3333.4 2409.9q-10.8-44.5-21.6-88.9-2.4 1-4.7 2.1c7.2 29.4 14.4 58.9 21.6 88.3 0.8 3.3 5.5 1.7 4.7-1.5z"/><path class="c" d="m3335.4 2415.3c70.1 7.4 140 18.7 209.3 33.6q2-2.2 4-4.4c-70.3-15.2-141.3-26.7-212.5-34.2-3.2-0.3-4.1 4.7-0.8 5z"/><path class="c" d="m3427.8 2350.3c-1.1-0.2-2 0.4-2.4 1.2q-8.7-37.6-17.3-75.2-2.2 1.5-4.4 3 8.4 36.9 16.9 73.8c0.6 2.4 3.3 2.2 4.4 0.6 0.2 0.8 0.8 1.5 2 1.6 56.7 6.1 113.4 13.1 170 20.8 0.8-1.6 1.7-3.2 2.5-4.8-57.2-7.8-114.4-14.9-171.7-21z"/><path class="c" d="m3502.8 2288.6c0.2 0 0.3 0.1 0.5 0.1 39.6-0.4 79.3-0.1 119 0.7q0.6-2.6 1.2-5.1c-40.3-0.9-80.5-1.2-120.7-0.8q0 0-0.1 0.1c-17.3-41.6-31.7-84.2-43-127.6q-1.3 5.1-2.4 10.2c11.2 41.1 25 81.6 41.6 121.1 0.7 1.8 2.7 2 3.9 1.3z"/><path class="c" d="m3567.1 2199.7q0 0 0.1 0.1c1.2 2.6 4.8 1.8 5-0.3q54.7-2.2 109.4-4.4 1.7-2.6 3.5-5.3-57.5 2.3-115 4.6-28-57.8-56-115.6-2.2 1.3-4.3 2.6 27.7 57.1 55.3 114.2c-0.9 1.4-0.1 3.9 2 4.1z"/><path class="c" d="m3631.8 2106.5c0.1 0 0.1 0 0.2 0 29.4-4.7 58.9-8.5 88.6-11.3q0.2-2.6 0.3-5.2c-29.8 2.8-59.5 6.6-88.9 11.3q-23.4-42.4-46.7-84.7-1.8 2-3.4 4.1 23.4 42.5 46.7 84.9c0.8 1.4 2.2 1.5 3.2 0.9z"/><path class="c" d="m3484.2 2393.8c26.3 4.2 49.3 20.4 75.1 26.8 75.1 18.6 159.8-51.9 231.5-9.9 20.2 11.9 34 33.5 39.3 56.7 2.5 11.2 3.1 23.3-0.9 34.1-4.6 12.2-14.5 21.5-24.3 30-9.7 8.6-19.5 17-29.4 25.3 0.2-1.6 0.3-3.3 0.3-4.9-0.7-15-14.8-26.5-31.6-25.7-16.7 0.7-29.8 13.5-29.1 28.5 0.7 15 14.8 26.5 31.6 25.7q0.2 0 0.4 0c-22.2 18.3-45.6 36.1-73.1 43.5-27.7 7.5-56.9 3.8-85.4 2.5-63.8-2.8-132.2 8.7-179.2 52.6-13.2 12.4-24.6 27-39.7 36.8-12.3 8.1-26.5 12.2-40.9 14.2-12.4 1.7-23.8 6.4-36.2 7.4-28.1 2.5-57.1-3.6-82-17.2-18.3-10.1-37.2-19.4-55.2-29.5-4.6-2.5-10.2-4.5-15-2.3 6.4-2.9 7.5-25.1 9.3-31.1 2.2-7.4 5.3-15.2 8.1-22.5 6.7-17.3 8.1-36 13.1-54 6.8-24.1 23.4-49.8 40.2-67.7 5.8-6.1 13.3-11.2 21.8-15.5q3-1.5 6.3-2.9-0.1 2 0 4.1c0.9 19.3 9.9 34.7 20.2 34.2 10.3-0.5 17.9-16.6 17-36-0.2-4.8-1-9.4-2.1-13.6 10.9-2.6 21.5-4.5 30.6-6 15.9-2.7 32.4-4.1 46.7-11.8 14.3-7.7 24.8-20.9 36.2-32.6 23.8-24.8 61.6-44.7 96.4-39.2z"/><g style="opacity:.2;mix-blend-mode:multiply"><path  d="m3731.6 2487.2c-60.9 6-120.3 9.5-179.3 27.4-62.4 19-123.9 43.2-183.6 69.6-27.6 12.2-54.5 25.8-82.7 36.8-29.9 11.6-57 30.7-85.6 45.3-50.7 25.9-106 43-163.1 40.5-6-0.3-5.7-9.8 0.4-9.6 62 2.8 119.5-18.6 173.8-47.4 26.1-13.8 50.6-29.7 78.3-40.5 31-12 60.6-27.6 91.1-40.9 55.2-23.9 112-45 169.2-63.1 58.9-18.6 118.5-21.4 179.4-27.4 5.9-0.6 8.2 8.7 2.1 9.3z"/><path  d="m3510.2 2519.9c15-33.5 30.4-66.9 46-100.2 1 0.3 2.1 0.7 3.1 0.9 0.5 0.2 1 0.2 1.5 0.3-15.9 33.9-31.5 67.9-46.9 102.1 32.8 35.2 66.1 70.1 99.5 104.8q-3.5-0.2-6.9-0.4c-33-34.2-65.8-68.7-98.2-103.5-1.7-1.7 0-4.1 1.9-4z"/><path  d="m3599.5 2494.9q20.1-39.3 40.1-78.6 3.1-0.7 6.1-1.5-21.1 41.3-42.2 82.6c-1.4 2.7-5.4 0.2-4-2.5z"/><path  d="m3608.6 2500.4c37.2 33.1 73.3 67.5 108.2 103.1q-2 1.3-4.1 2.6c-34.7-35.3-70.5-69.5-107.5-102.4-2.3-2 1.1-5.3 3.4-3.3z"/><path  d="m3437.3 2546.4c2.2-19.2 10.1-36.7 16.8-54.5 7.8-20.8 15.1-41.7 22-62.8 3.7-11.5 7.3-23.1 10.8-34.7q2.3 0.4 4.6 1-4.6 15.5-9.6 30.9c-6.3 19.7-13.1 39.3-20.2 58.7-7.1 19.3-16.4 38.5-19.3 59 0.6-0.1 1.3 0.1 1.9 0.7 27.9 27.2 55 55.3 81.3 84.2q-2.9 0.4-5.7 0.8c-25.5-27.9-51.7-55.1-78.8-81.4-1.4 1.1-4 0.5-3.8-1.9z"/><path  d="m3365.8 2582.4q39.3 35.8 78.5 71.7-2.2 1.2-4.4 2.4-38.7-35.4-77.5-70.8c-2.2-2.1 1.2-5.4 3.4-3.3z"/><path  d="m3363.3 2580.4c-0.9 3-5.3 1.6-4.5-1.4 14-50.1 25.7-100.8 35.1-151.9q2.7-2.5 5.6-4.9c-9.6 53.2-21.6 106.1-36.2 158.2z"/><path  d="m3269.5 2622.2c0.7-1.1 2.4-1.8 3.7-0.6 34.1 30.2 68.7 59.8 103.6 89.1q-1.9 1.5-3.9 2.9c-34.7-29.1-69.1-58.7-103.1-88.7-0.9-0.8-0.9-1.8-0.4-2.6-1.4 1.6-4.7 0.2-4-2.4 13.5-47.2 26.1-94.7 38.1-142.3 0.4-0.1 0.9-0.2 1.4-0.2q1.8-0.3 3.6-0.6c-12.1 48.4-24.9 96.6-38.6 144.5q-0.2 0.5-0.4 0.9z"/><path  d="m3184.4 2669.3q45.3 34.3 90.7 68.5-4.3-0.2-8.7-0.6-43.2-32.7-86.5-65.3c-1.5-1.2-1.1-3.2 0.1-4.1q13.3-70 26.7-140 1.1-6.2 2.3-12.3c0.7-0.8 1.4-1.7 2.1-2.4 1.2-1.3 2.5-2.4 3.8-3.6q-1.9 9.8-3.7 19.7-13.4 70.1-26.8 140.1z"/></g><g style="opacity:.2;mix-blend-mode:multiply"><path class="g" d="m3484.2 2393.8c26.3 4.2 49.3 20.4 75.1 26.8 75.1 18.6 159.8-51.9 231.5-9.9 20.2 11.9 34 33.5 39.3 56.7 0.9 4.2 1.6 8.6 1.9 12.9-54-17-111.3-23.4-164-4.9-68.6 24.1-122 87.6-193.9 97.2-51.2 6.8-103.7-15.5-154.1-4-32.4 7.3-60.2 27.9-87 48q-44.3 33.2-88.7 66.5c3.1-7.8 4-21.3 5.4-25.8 2.2-7.4 5.3-15.2 8.1-22.5 6.7-17.3 8.1-36 13.1-54 6.8-24.1 23.4-49.8 40.2-67.7 5.8-6.1 13.3-11.2 21.8-15.5q3-1.5 6.3-2.9-0.1 2 0 4.1c0.9 19.3 9.9 34.7 20.2 34.2 10.3-0.5 17.9-16.6 17-36-0.2-4.8-1-9.4-2.1-13.6 10.9-2.6 21.5-4.5 30.6-6 15.9-2.7 32.4-4.1 46.7-11.8 14.3-7.7 24.8-20.9 36.2-32.6 23.8-24.8 61.6-44.7 96.4-39.2z"/></g><path class="h" d="m3624.6 2696.8c0 89.9-602.7 162.8-1346.1 162.8-743.4 0-1346.1-72.9-1346.1-162.8 0-89.9 602.7-162.8 1346.1-162.8 743.4 0 1346.1 72.9 1346.1 162.8z"/><path class="i" d="m2959.2 1537.7h-1677.9c-13.7 0-24.8-11.1-24.8-24.8v-982.5c0-13.7 11.1-24.9 24.8-24.9h1677.9c13.7 0 24.8 11.2 24.8 24.9v982.5c0 13.7-11.1 24.8-24.8 24.8z"/><path class="j" d="m2883.2 1483h-1607.5c-33.1 0-60-26.9-60-60v-912.2c0-33.1 26.9-60 60-60h1607.5c33.2 0 60 26.9 60 60v912.2c0 33.1-26.8 60-60 60z"/><path class="k" d="m1902.6 770.7h-608.2v-218.4h608.2z"/><path class="l" d="m2484.9 1416.4h-1190.5v-579.9h1190.5z"/><path class="m" d="m2769.8 1170.3l-235.2-0.7 0.2-34.6 235.1 0.7z"/><path class="n" d="m2779.6 1135.8l-19.9-0.1-10 17.2 9.8 17.4 19.9 0.1 10-17.3z"/><path class="o" d="m2738 1215.5l-203.5-0.6 0.1-34.5 203.5 0.5z"/><path class="m" d="m2749.4 1181l-19.9-0.1-10 17.2 9.9 17.4h19.9l10-17.2z"/><path class="m" d="m2703.5 1262.8l-169.2-0.5 0.1-34.6 169.3 0.5z"/><path class="n" d="m2715.5 1228.2l-19.9-0.1-10 17.3 9.8 17.3 19.9 0.1 10.1-17.3z"/><path class="n" d="m2622.6 1083.6h-34.4v-217.7h34.4z"/><path class="o" d="m2676.5 1083.6h-34.5v-130.2h34.5z"/><path class="o" d="m2568.7 1083.6h-34.4v-179.8h34.4z"/><path class="n" d="m2730.3 1083.6h-34.4v-179.8h34.4z"/><path class="o" d="m2784.2 1083.6h-34.4v-221.3h34.4z"/><path class="m" d="m2767.7 953.6c-1.5 0-2.8-0.7-3.7-1.9l-52.1-73-48.4 61.6c-0.9 1.1-2.4 1.8-3.9 1.7-1.4-0.1-2.8-0.9-3.5-2.2l-50.4-85.5-56 80.2c-1.4 2.1-4.2 2.6-6.2 1.1-2.1-1.4-2.6-4.2-1.2-6.3l60.1-86c0.9-1.2 2.4-1.9 3.8-1.9 1.6 0.1 3 0.9 3.7 2.2l50.6 85.9 48.1-61.1c0.8-1.1 2.3-1.7 3.6-1.7 1.4 0 2.7 0.7 3.6 1.9l51.8 72.6 95.8-140.5c1.4-2 4.2-2.5 6.2-1.1 2.1 1.4 2.6 4.2 1.2 6.2l-99.4 145.8c-0.8 1.2-2.2 2-3.7 2q0 0 0 0z"/><path class="n" d="m2559.6 967.5c0 4.5-3.6 8.1-8.1 8.1-4.5 0-8.1-3.6-8.1-8.1 0-4.5 3.6-8.2 8.1-8.2 4.5 0 8.1 3.7 8.1 8.2z"/><path class="n" d="m2667.4 967.5c0 4.5-3.7 8.1-8.2 8.1-4.4 0-8.1-3.6-8.1-8.1 0-4.5 3.7-8.2 8.1-8.2 4.5 0 8.2 3.7 8.2 8.2z"/><path class="n" d="m2775.1 967.2c0 4.5-3.6 8.2-8.1 8.2-4.5 0-8.1-3.7-8.1-8.2 0-4.5 3.6-8.1 8.1-8.1 4.5 0 8.1 3.6 8.1 8.1z"/><path fill-rule="evenodd" class="m" d="m2081.8 798.1c-26.1 0-52.5-7.6-75.7-23.5-61-42-76.6-126-34.8-187.3 20.3-29.7 50.8-49.7 86.1-56.3 35.2-6.6 70.9 1 100.5 21.3 29.5 20.4 49.4 51.1 56 86.4 6.6 35.4-0.9 71.2-21.2 100.9-26 38-68.1 58.5-110.9 58.5zm0.4-206.8q-6.7 0-13.4 1.2c-18.9 3.5-35.2 14.2-46.1 30.1-10.9 15.9-14.9 35.1-11.4 54.1 3.6 18.9 14.2 35.4 30.1 46.3 32.7 22.5 77.5 14.1 99.9-18.8 10.9-15.9 14.9-35 11.4-54-3.6-18.9-14.2-35.4-30.1-46.3-12.1-8.3-26.1-12.6-40.4-12.6z"/><path class="o" d="m2081.7 798.2c-26.8 0-53-8.1-75.6-23.7l35.3-51.5c15.8 10.9 34.9 14.9 53.8 11.4 18.9-3.6 35.2-14.3 46.1-30.2 10.9-15.9 14.9-35.1 11.4-54-3.6-18.9-14.2-35.4-30.1-46.3l35.3-51.6c29.5 20.4 49.4 51.1 56 86.4 6.6 35.4-0.9 71.2-21.2 100.9-20.3 29.7-50.8 49.7-86.1 56.3-8.3 1.5-16.6 2.3-24.9 2.3z"/><path class="p" d="m2122.7 603.9l-8.2-38.2 43.4-13.4z"/><path class="p" d="m2041.3 722.9l8.2 38.3-43.4 13.3z"/><path class="k" d="m2051.4 651.5c0 5.8-4.7 10.5-10.4 10.5-5.8 0-10.5-4.7-10.5-10.5 0-5.8 4.7-10.5 10.5-10.5 5.7 0 10.4 4.7 10.4 10.5z"/><path class="k" d="m2139 657.4h-81.6v-11.7h81.6z"/><path class="k" d="m2139 678.4h-108.5v-11.8h108.5z"/><path fill-rule="evenodd" class="o" d="m2384.2 798.2c-26.9 0-53-8.1-75.6-23.7-29.6-20.3-49.5-51-56.1-86.3-6.6-35.4 1-71.2 21.3-100.9 41.8-61.3 125.5-77 186.5-35 61 42 76.7 126 34.8 187.3-20.2 29.7-50.8 49.6-86 56.2-8.3 1.6-16.7 2.4-24.9 2.4zm0.4-206.9c-23 0-45.5 11-59.5 31.3-10.8 15.9-14.9 35.1-11.3 54.1 3.5 18.9 14.2 35.4 30 46.3 15.8 10.9 35 14.9 53.8 11.4 18.9-3.6 35.3-14.3 46.1-30.2 22.5-32.8 14.1-77.8-18.6-100.3-12.4-8.5-26.5-12.6-40.5-12.6z"/><path class="p" d="m2384.2 798.2c-26.9 0-53-8.1-75.6-23.7-29.6-20.3-49.5-51-56.1-86.3-6.6-35.4 1-71.2 21.3-100.9l51.3 35.3c-10.8 15.9-14.9 35.1-11.3 54.1 3.5 18.9 14.2 35.4 30 46.3 15.8 10.9 35 14.9 53.8 11.4 18.9-3.6 35.3-14.3 46.1-30.2l51.4 35.4c-20.2 29.7-50.8 49.6-86 56.2-8.3 1.6-16.7 2.4-24.9 2.4z"/><path class="m" d="m2443.7 704.2l38.1-8.2 13.3 43.6z"/><path class="m" d="m2325.2 622.6l-38.1 8.2-13.3-43.6z"/><path class="k" d="m2333.9 668.5h81.6v11.7h-81.6z"/><path class="k" d="m2333.9 647.5h108.6v11.7h-108.6z"/><path class="n" d="m2827.5 663.4c0 75.1-60.7 136-135.5 136-74.8 0-135.4-60.9-135.4-136 0-75 60.6-135.9 135.4-135.9 74.8 0 135.5 60.9 135.5 135.9z"/><path class="o" d="m2827.5 663.4c0-75-60.7-135.9-135.5-135.9v135.3z"/><path class="n" d="m2864.9 1412h-330.6v-106.3h330.6z"/><path class="n" d="m1875.6 609h-552.1v-21.8h552.1z"/><path class="n" d="m1682.2 651.9h-359.7v-21.8h359.7z"/><path class="q" d="m1521.2 905.1h-108.7c-4 0-7.3-3.3-7.3-7.3v-0.1c0-4 3.3-7.2 7.3-7.2h108.7c4 0 7.3 3.2 7.3 7.2v0.1c0 4-3.3 7.3-7.3 7.3z"/><path class="q" d="m1812.4 905.1h-237.6c-4.1 0-7.3-3.3-7.3-7.3v-0.1c0-4 3.2-7.2 7.3-7.2h237.6c4 0 7.3 3.2 7.3 7.2v0.1c0 4-3.3 7.3-7.3 7.3z"/><path class="p" d="m1573.5 964.2h-108.7c-4 0-7.2-3.2-7.2-7.3 0-4 3.2-7.3 7.2-7.3h108.7c4 0 7.3 3.3 7.3 7.3 0 4.1-3.3 7.3-7.3 7.3z"/><path class="p" d="m1573.5 1019.1h-108.7c-4 0-7.2-3.2-7.2-7.3 0-4 3.2-7.3 7.2-7.3h108.7c4 0 7.3 3.3 7.3 7.3 0 4.1-3.3 7.3-7.3 7.3z"/><path class="p" d="m1573.5 1074h-108.7c-4 0-7.2-3.2-7.2-7.3 0-4 3.2-7.3 7.2-7.3h108.7c4 0 7.3 3.3 7.3 7.3 0 4.1-3.3 7.3-7.3 7.3z"/><path class="p" d="m1573.5 1128.9h-108.7c-4 0-7.2-3.2-7.2-7.3 0-4 3.2-7.3 7.2-7.3h108.7c4 0 7.3 3.3 7.3 7.3 0 4.1-3.3 7.3-7.3 7.3z"/><path class="q" d="m1521.2 1187h-108.7c-4 0-7.3-3.2-7.3-7.3 0-4 3.3-7.3 7.3-7.3h108.7c4 0 7.3 3.3 7.3 7.3 0 4.1-3.3 7.3-7.3 7.3z"/><path class="q" d="m1812.4 1187h-237.6c-4.1 0-7.3-3.2-7.3-7.3 0-4 3.2-7.3 7.3-7.3h237.6c4 0 7.3 3.3 7.3 7.3 0 4.1-3.3 7.3-7.3 7.3z"/><path class="p" d="m2338.2 1246.2h-213.1c-4 0-7.3-3.3-7.3-7.3v-0.1c0-4 3.3-7.2 7.3-7.2h213.1c4.1 0 7.3 3.2 7.3 7.2v0.1c0 4-3.2 7.3-7.3 7.3z"/><path class="p" d="m2338.2 1301.1h-213.1c-4 0-7.3-3.3-7.3-7.3v-0.1c0-4 3.3-7.2 7.3-7.2h213.1c4.1 0 7.3 3.2 7.3 7.2v0.1c0 4-3.2 7.3-7.3 7.3z"/><path class="p" d="m2338.2 1356h-213.1c-4 0-7.3-3.3-7.3-7.3v-0.1c0-4 3.3-7.2 7.3-7.2h213.1c4.1 0 7.3 3.2 7.3 7.2v0.1c0 4-3.2 7.3-7.3 7.3z"/><path class="o" d="m1773 967.2h-121.5c-4.1 0-7.3-3.3-7.3-7.3v-4.2c0-4.1 3.2-7.3 7.3-7.3h121.5c4 0 7.3 3.2 7.3 7.3v4.2c0 4-3.3 7.3-7.3 7.3z"/><path class="p" d="m2011.3 967.2h-121.5c-4 0-7.3-3.3-7.3-7.3v-4.2c0-4.1 3.3-7.3 7.3-7.3h121.5c4 0 7.3 3.2 7.3 7.3v4.2c0 4-3.3 7.3-7.3 7.3z"/><path class="o" d="m1885.2 1019.1h-236.3c-4.1 0-7.3-3.3-7.3-7.3v-4.2c0-4.1 3.2-7.3 7.3-7.3h236.3c4 0 7.2 3.2 7.2 7.3v4.2c0 4-3.2 7.3-7.2 7.3z"/><path class="o" d="m2162.9 1021.8h-236.3c-4 0-7.3-3.3-7.3-7.3v-4.2c0-4.1 3.3-7.3 7.3-7.3h236.3c4 0 7.3 3.2 7.3 7.3v4.2c0 4-3.3 7.3-7.3 7.3z"/><path class="o" d="m2314.4 1076.4h-236.3c-4 0-7.3-3.3-7.3-7.4v-4.2c0-4 3.3-7.3 7.3-7.3h236.3c4 0 7.3 3.3 7.3 7.3v4.2c0 4.1-3.3 7.4-7.3 7.4z"/><path class="p" d="m1854.4 1130.9h-226.3c-4 0-7.3-3.2-7.3-7.3v-4.2c0-4 3.3-7.3 7.3-7.3h226.3c4 0 7.3 3.3 7.3 7.3v4.2c0 4.1-3.3 7.3-7.3 7.3z"/><path class="o" d="m2010.8 1076.4h-367.7c-4 0-7.3-3.3-7.3-7.4v-4.2c0-4 3.3-7.3 7.3-7.3h367.7c4 0 7.2 3.3 7.2 7.3v4.2c0 4.1-3.2 7.4-7.2 7.4z"/><path class="q" d="m2338.6 1130.9h-367.7c-4 0-7.3-3.2-7.3-7.3v-4.2c0-4 3.3-7.3 7.3-7.3h367.7c4 0 7.3 3.3 7.3 7.3v4.2c0 4.1-3.3 7.3-7.3 7.3z"/><path class="r" d="m1851.5 967.2h-47.2c-4 0-7.3-3.3-7.3-7.3v-4.2c0-4.1 3.3-7.3 7.3-7.3h47.2c4 0 7.3 3.2 7.3 7.3v4.2c0 4-3.3 7.3-7.3 7.3z"/><path class="p" d="m2094.4 967.2h-47.2c-4 0-7.3-3.3-7.3-7.3v-4.2c0-4.1 3.3-7.3 7.3-7.3h47.2c4 0 7.3 3.2 7.3 7.3v4.2c0 4-3.3 7.3-7.3 7.3z"/><path class="p" d="m2178.4 967.2h-47.2c-4 0-7.3-3.3-7.3-7.3v-4.2c0-4.1 3.3-7.3 7.3-7.3h47.2c4 0 7.2 3.2 7.2 7.3v4.2c0 4-3.2 7.3-7.2 7.3z"/><path class="o" d="m2240.1 1021.8h-47.2c-4 0-7.3-3.3-7.3-7.3v-4.2c0-4.1 3.3-7.3 7.3-7.3h47.2c4 0 7.3 3.2 7.3 7.3v4.2c0 4-3.3 7.3-7.3 7.3z"/><path class="r" d="m2392.5 1076.4h-47.1c-4 0-7.3-3.3-7.3-7.4v-4.2c0-4 3.3-7.3 7.3-7.3h47.1c4.1 0 7.3 3.3 7.3 7.3v4.2c0 4.1-3.2 7.4-7.3 7.4z"/><path class="o" d="m1937 1130.9h-47.2c-4 0-7.3-3.2-7.3-7.3v-4.2c0-4 3.3-7.3 7.3-7.3h47.2c4 0 7.2 3.3 7.2 7.3v4.2c0 4.1-3.2 7.3-7.2 7.3z"/><path class="o" d="m2318.3 1021.8h-47.2c-4.1 0-7.3-3.3-7.3-7.3v-4.2c0-4.1 3.2-7.3 7.3-7.3h47.2c4 0 7.2 3.2 7.2 7.3v4.2c0 4-3.2 7.3-7.2 7.3z"/><path class="r" d="m1842.2 1247.7h221.9c4 0 7.3-3.3 7.3-7.3v-3.8c0-4.1-3.3-7.3-7.3-7.3h-221.9c-4 0-7.3 3.2-7.3 7.3v3.8c0 4 3.3 7.3 7.3 7.3z"/><path class="o" d="m1592.9 1247.7h222c4 0 7.2-3.3 7.2-7.3v-3.8c0-4.1-3.2-7.3-7.2-7.3h-222c-4 0-7.2 3.2-7.2 7.3v3.8c0 4 3.2 7.3 7.2 7.3z"/><path class="s" d="m1442.9 1301h236.4v-18.4h-236.4z"/><path class="o" d="m1883.8 1354.3h181.3c4 0 7.3-3.3 7.3-7.3v-3.8c0-4-3.3-7.3-7.3-7.3h-181.3c-4.1 0-7.3 3.3-7.3 7.3v3.8c0 4 3.2 7.3 7.3 7.3z"/><path class="o" d="m1718.4 1301.9h345.8c4 0 7.3-3.3 7.3-7.3v-3.8c0-4.1-3.3-7.3-7.3-7.3h-345.8c-4 0-7.3 3.2-7.3 7.3v3.8c0 4 3.3 7.3 7.3 7.3z"/><path class="q" d="m1427.3 1354.3h345.8c4 0 7.3-3.3 7.3-7.3v-3.8c0-4-3.3-7.3-7.3-7.3h-345.8c-4 0-7.3 3.3-7.3 7.3v3.8c0 4 3.3 7.3 7.3 7.3z"/><path class="s" d="m1512.9 1247.7h58.2v-18.4h-58.2z"/><path class="s" d="m1369.2 1301h58.2v-18.4h-58.2z"/><path class="p" d="m1805.9 1354.3h43.7c4 0 7.3-3.3 7.3-7.3v-3.8c0-4-3.3-7.3-7.3-7.3h-43.7c-4 0-7.2 3.3-7.2 7.3v3.8c0 4 3.2 7.3 7.2 7.3z"/><path class="s" d="m1439.2 1247.7h58.2v-18.4h-58.2z"/><path class="p" d="m1352.4 953.9l27.1-12.2v3.5l-22.8 10.1v0.1l22.8 10v3.5l-27.1-12.2z"/><path class="p" d="m1383.3 971l16.2-37.1h4l-16.3 37.1z"/><path class="p" d="m1434.2 956.8l-27 12.1v-3.5l22.9-10v-0.1l-22.9-10.1v-3.5l27 12.2z"/><path class="t" d="m1674.2 1668.8h-649.3c-5.9 0-10.7-4.9-10.7-10.8v-466.3c0-6 4.8-10.8 10.7-10.8h649.3c6 0 10.8 4.8 10.8 10.8v466.3c0 5.9-4.8 10.8-10.8 10.8z"/><path class="u" d="m1648.9 1688.8h-649.4c-5.9 0-10.7-4.8-10.7-10.7v-466.3c0-6 4.8-10.8 10.7-10.8h649.4c5.9 0 10.7 4.8 10.7 10.8v466.3c0 5.9-4.8 10.7-10.7 10.7z"/><path class="q" d="m1668.8 1664h-639.1c-5.8 0-10.5-4.7-10.5-10.4v-435h660.1v435c0 5.7-4.7 10.4-10.5 10.4z"/><path class="b" d="m1679.3 1187.5c0 1.4-147.4 2.5-329.1 2.5-181.7 0-329-1.1-329-2.5 0-1.4 147.3-2.5 329-2.5 181.7 0 329.1 1.1 329.1 2.5z"/><path class="p" d="m1057.6 1254l-4.1 4.2 7.5 7.5-7.5 7.5 4.1 4.2 11.6-11.7z"/><path class="p" d="m1073.9 1282.7l-4.1 4.1 7.5 7.5-7.5 7.6 4.1 4.1 11.7-11.7z"/><path class="p" d="m1057.6 1339.9l-4.1 4.2 7.5 7.5-7.5 7.5 4.1 4.2 11.6-11.7z"/><path class="p" d="m1082.1 1311.3l-4.2 4.1 7.5 7.6-7.5 7.5 4.2 4.1 11.6-11.6z"/><path class="p" d="m1082.1 1368.6l-4.2 4.1 7.5 7.5-7.5 7.6 4.2 4.1 11.6-11.7z"/><path class="v" d="m1182.7 1270.6h-85.5c-2.7 0-4.9-2.2-4.9-4.9 0-2.7 2.2-4.9 4.9-4.9h85.5c2.7 0 4.9 2.2 4.9 4.9 0 2.7-2.2 4.9-4.9 4.9z"/><path class="p" d="m1349.7 1270.6h-85.5c-2.7 0-4.9-2.2-4.9-4.9 0-2.7 2.2-4.9 4.9-4.9h85.5c2.7 0 4.9 2.2 4.9 4.9 0 2.7-2.2 4.9-4.9 4.9z"/><path class="w" d="m1270.7 1299.3h-166c-2.7 0-4.9-2.2-4.9-5 0-2.7 2.2-4.9 4.9-4.9h166c2.7 0 4.9 2.2 4.9 4.9 0 2.8-2.2 5-4.9 5z"/><path class="m" d="m1455.9 1299.3h-165.9c-2.7 0-4.9-2.2-4.9-5 0-2.7 2.2-4.9 4.9-4.9h165.9c2.7 0 4.9 2.2 4.9 4.9 0 2.8-2.2 5-4.9 5z"/><path class="w" d="m1562 1327.9h-165.9c-2.7 0-4.9-2.2-4.9-4.9 0-2.8 2.2-5 4.9-5h165.9c2.8 0 5 2.2 5 5 0 2.7-2.2 4.9-5 4.9z"/><path class="p" d="m1239.7 1356.5h-158.9c-2.7 0-4.9-2.2-4.9-4.9 0-2.7 2.2-4.9 4.9-4.9h158.9c2.8 0 5 2.2 5 4.9 0 2.7-2.2 4.9-5 4.9z"/><path class="m" d="m1368 1327.9h-258c-2.7 0-4.9-2.2-4.9-4.9 0-2.8 2.2-5 4.9-5h258c2.7 0 4.9 2.2 4.9 5 0 2.7-2.2 4.9-4.9 4.9z"/><path class="m" d="m1579 1356.5h-258c-2.7 0-4.9-2.2-4.9-4.9 0-2.7 2.2-4.9 4.9-4.9h258c2.7 0 4.9 2.2 4.9 4.9 0 2.7-2.2 4.9-4.9 4.9z"/><path class="p" d="m1551 1385.2h-258c-2.7 0-5-2.2-5-5 0-2.7 2.3-4.9 5-4.9h258c2.7 0 4.9 2.2 4.9 4.9 0 2.8-2.2 5-4.9 5z"/><path class="p" d="m1270.7 1385.2h-166c-2.7 0-4.9-2.2-4.9-5 0-2.7 2.2-4.9 4.9-4.9h166c2.7 0 4.9 2.2 4.9 4.9 0 2.8-2.2 5-4.9 5z"/><path class="m" d="m1237.7 1270.6h-33.4c-2.7 0-4.9-2.2-4.9-4.9 0-2.7 2.2-4.9 4.9-4.9h33.4c2.7 0 4.9 2.2 4.9 4.9 0 2.7-2.2 4.9-4.9 4.9z"/><path class="p" d="m1407.9 1270.6h-33.4c-2.7 0-4.9-2.2-4.9-4.9 0-2.7 2.2-4.9 4.9-4.9h33.4c2.7 0 4.9 2.2 4.9 4.9 0 2.7-2.2 4.9-4.9 4.9z"/><path class="p" d="m1466.7 1270.6h-33.4c-2.7 0-4.9-2.2-4.9-4.9 0-2.7 2.2-4.9 4.9-4.9h33.4c2.7 0 4.9 2.2 4.9 4.9 0 2.7-2.2 4.9-4.9 4.9z"/><path class="v" d="m1510 1299.3h-33.4c-2.7 0-5-2.2-5-5 0-2.7 2.3-4.9 5-4.9h33.4c2.7 0 4.9 2.2 4.9 4.9 0 2.8-2.2 5-4.9 5z"/><path class="v" d="m1616.8 1327.9h-33.4c-2.7 0-4.9-2.2-4.9-4.9 0-2.8 2.2-5 4.9-5h33.4c2.7 0 4.9 2.2 4.9 5 0 2.7-2.2 4.9-4.9 4.9z"/><path class="v" d="m1297.6 1356.5h-33.4c-2.7 0-4.9-2.2-4.9-4.9 0-2.7 2.2-4.9 4.9-4.9h33.4c2.7 0 4.9 2.2 4.9 4.9 0 2.7-2.2 4.9-4.9 4.9z"/><path class="w" d="m1564.8 1299.3h-33.5c-2.7 0-4.9-2.2-4.9-5 0-2.7 2.2-4.9 4.9-4.9h33.5c2.7 0 4.9 2.2 4.9 4.9 0 2.8-2.2 5-4.9 5z"/><path class="p" d="m1057.6 1397.5l-4.1 4.1 7.5 7.6-7.5 7.5 4.1 4.1 11.6-11.6z"/><path class="p" d="m1073.9 1426.1l-4.1 4.2 7.5 7.5-7.5 7.5 4.1 4.2 11.7-11.7z"/><path class="p" d="m1057.6 1483.4l-4.1 4.1 7.5 7.6-7.5 7.5 4.1 4.1 11.6-11.6z"/><path class="p" d="m1082.1 1454.8l-4.2 4.1 7.5 7.5-7.5 7.6 4.2 4.1 11.6-11.7z"/><path class="p" d="m1082.1 1512l-4.2 4.2 7.5 7.5-7.5 7.5 4.2 4.2 11.6-11.7z"/><path class="v" d="m1182.7 1414.1h-85.5c-2.7 0-4.9-2.2-4.9-4.9 0-2.8 2.2-5 4.9-5h85.5c2.7 0 4.9 2.2 4.9 5 0 2.7-2.2 4.9-4.9 4.9z"/><path class="m" d="m1349.7 1414.1h-85.5c-2.7 0-4.9-2.2-4.9-4.9 0-2.8 2.2-5 4.9-5h85.5c2.7 0 4.9 2.2 4.9 5 0 2.7-2.2 4.9-4.9 4.9z"/><path class="m" d="m1270.7 1442.7h-166c-2.7 0-4.9-2.2-4.9-4.9 0-2.7 2.2-4.9 4.9-4.9h166c2.7 0 4.9 2.2 4.9 4.9 0 2.7-2.2 4.9-4.9 4.9z"/><path class="v" d="m1455.9 1442.7h-165.9c-2.7 0-4.9-2.2-4.9-4.9 0-2.7 2.2-4.9 4.9-4.9h165.9c2.7 0 4.9 2.2 4.9 4.9 0 2.7-2.2 4.9-4.9 4.9z"/><path class="m" d="m1562 1471.4h-165.9c-2.7 0-4.9-2.2-4.9-5 0-2.7 2.2-4.9 4.9-4.9h165.9c2.8 0 5 2.2 5 4.9 0 2.8-2.2 5-5 5z"/><path class="m" d="m1239.7 1500h-158.9c-2.7 0-4.9-2.2-4.9-4.9 0-2.8 2.2-5 4.9-5h158.9c2.8 0 5 2.2 5 5 0 2.7-2.2 4.9-5 4.9z"/><path class="v" d="m1368 1471.4h-258c-2.7 0-4.9-2.2-4.9-5 0-2.7 2.2-4.9 4.9-4.9h258c2.7 0 4.9 2.2 4.9 4.9 0 2.8-2.2 5-4.9 5z"/><path class="x" d="m1579 1500h-258c-2.7 0-4.9-2.2-4.9-4.9 0-2.8 2.2-5 4.9-5h258c2.7 0 4.9 2.2 4.9 5 0 2.7-2.2 4.9-4.9 4.9z"/><path class="p" d="m1551 1528.6h-258c-2.7 0-5-2.2-5-4.9 0-2.7 2.3-5 5-5h258c2.7 0 4.9 2.3 4.9 5 0 2.7-2.2 4.9-4.9 4.9z"/><path class="m" d="m1270.7 1528.6h-166c-2.7 0-4.9-2.2-4.9-4.9 0-2.7 2.2-5 4.9-5h166c2.7 0 4.9 2.3 4.9 5 0 2.7-2.2 4.9-4.9 4.9z"/><path class="w" d="m1237.7 1414.1h-33.4c-2.7 0-4.9-2.2-4.9-4.9 0-2.8 2.2-5 4.9-5h33.4c2.7 0 4.9 2.2 4.9 5 0 2.7-2.2 4.9-4.9 4.9z"/><path class="w" d="m1407.9 1414.1h-33.4c-2.7 0-4.9-2.2-4.9-4.9 0-2.8 2.2-5 4.9-5h33.4c2.7 0 4.9 2.2 4.9 5 0 2.7-2.2 4.9-4.9 4.9z"/><path class="v" d="m1466.7 1414.1h-33.4c-2.7 0-4.9-2.2-4.9-4.9 0-2.8 2.2-5 4.9-5h33.4c2.7 0 4.9 2.2 4.9 5 0 2.7-2.2 4.9-4.9 4.9z"/><path class="w" d="m1510 1442.7h-33.4c-2.7 0-5-2.2-5-4.9 0-2.7 2.3-4.9 5-4.9h33.4c2.7 0 4.9 2.2 4.9 4.9 0 2.7-2.2 4.9-4.9 4.9z"/><path class="w" d="m1621.7 1471.4h-43.2v-9.9h43.2z"/><path class="p" d="m1297.6 1500h-33.4c-2.7 0-4.9-2.2-4.9-4.9 0-2.8 2.2-5 4.9-5h33.4c2.7 0 4.9 2.2 4.9 5 0 2.7-2.2 4.9-4.9 4.9z"/><path class="p" d="m1057.6 1568.2l-4.1 4.2 7.5 7.5-7.5 7.5 4.1 4.2 11.6-11.7z"/><path class="p" d="m1082.1 1539.6l-4.2 4.1 7.5 7.6-7.5 7.5 4.2 4.1 11.6-11.6z"/><path class="p" d="m1082.1 1596.8l-4.2 4.2 7.5 7.5-7.5 7.5 4.2 4.2 11.6-11.7z"/><path class="m" d="m1562 1556.2h-165.9c-2.7 0-4.9-2.2-4.9-4.9 0-2.8 2.2-5 4.9-5h165.9c2.8 0 5 2.2 5 5 0 2.7-2.2 4.9-5 4.9z"/><path class="v" d="m1239.7 1584.8h-158.9c-2.7 0-4.9-2.2-4.9-4.9 0-2.7 2.2-5 4.9-5h158.9c2.8 0 5 2.3 5 5 0 2.7-2.2 4.9-5 4.9z"/><path class="v" d="m1368 1556.2h-258c-2.7 0-4.9-2.2-4.9-4.9 0-2.8 2.2-5 4.9-5h258c2.7 0 4.9 2.2 4.9 5 0 2.7-2.2 4.9-4.9 4.9z"/><path class="w" d="m1579 1584.8h-258c-2.7 0-4.9-2.2-4.9-4.9 0-2.7 2.2-5 4.9-5h258c2.7 0 4.9 2.3 4.9 5 0 2.7-2.2 4.9-4.9 4.9z"/><path class="p" d="m1551 1613.5h-258c-2.7 0-5-2.3-5-5 0-2.7 2.3-4.9 5-4.9h258c2.7 0 4.9 2.2 4.9 4.9 0 2.7-2.2 5-4.9 5z"/><path class="m" d="m1270.7 1613.5h-166c-2.7 0-4.9-2.3-4.9-5 0-2.7 2.2-4.9 4.9-4.9h166c2.7 0 4.9 2.2 4.9 4.9 0 2.7-2.2 5-4.9 5z"/><path class="w" d="m1621.7 1556.2h-43.2v-9.9h43.2z"/><path class="m" d="m1297.6 1584.8h-33.4c-2.7 0-4.9-2.2-4.9-4.9 0-2.7 2.2-5 4.9-5h33.4c2.7 0 4.9 2.3 4.9 5 0 2.7-2.2 4.9-4.9 4.9z"/><path class="w" d="m1564.8 1442.7h-33.5c-2.7 0-4.9-2.2-4.9-4.9 0-2.7 2.2-4.9 4.9-4.9h33.5c2.7 0 4.9 2.2 4.9 4.9 0 2.7-2.2 4.9-4.9 4.9z"/><path class="q" d="m1574.7 1202.8c0 5.1-4.1 9.2-9.1 9.2-5 0-9.1-4.1-9.1-9.2 0-5.1 4.1-9.2 9.1-9.2 5 0 9.1 4.1 9.1 9.2z"/><path class="m" d="m1572.3 1202.8c0 3.7-3 6.7-6.7 6.7-3.7 0-6.7-3-6.7-6.7 0-3.7 3-6.7 6.7-6.7 3.7 0 6.7 3 6.7 6.7z"/><path class="q" d="m1607.2 1202.8c0 5.1-4.1 9.2-9.1 9.2-5.1 0-9.2-4.1-9.2-9.2 0-5.1 4.1-9.2 9.2-9.2 5 0 9.1 4.1 9.1 9.2z"/><path class="y" d="m1604.7 1202.8c0 3.7-3 6.7-6.6 6.7-3.7 0-6.7-3-6.7-6.7 0-3.7 3-6.7 6.7-6.7 3.6 0 6.6 3 6.6 6.7z"/><path class="q" d="m1639.6 1202.8c0 5.1-4 9.2-9.1 9.2-5 0-9.1-4.1-9.1-9.2 0-5.1 4.1-9.2 9.1-9.2 5.1 0 9.1 4.1 9.1 9.2z"/><path class="p" d="m1637.2 1202.8c0 3.7-3 6.7-6.7 6.7-3.7 0-6.7-3-6.7-6.7 0-3.7 3-6.7 6.7-6.7 3.7 0 6.7 3 6.7 6.7z"/><path class="i" d="m1890.9 818c0 7.3-5.9 13.3-13.2 13.3h-462.5c-7.3 0-13.2-6-13.2-13.3v-278.9c0-7.3 5.9-13.3 13.2-13.3h462.5c7.3 0 13.2 6 13.2 13.3z"/><path class="p" d="m1904.5 802c0 7.3-5.9 13.2-13.2 13.2h-462.5c-7.3 0-13.2-5.9-13.2-13.2v-279c0-7.3 5.9-13.2 13.2-13.2h462.5c7.3 0 13.2 5.9 13.2 13.2z"/><path class="o" d="m1891.3 509.8h-462.5c-7.3 0-13.2 5.9-13.2 13.2v47.9h488.9v-47.9c0-7.3-5.9-13.2-13.2-13.2z"/><path class="z" d="m1871.4 551.1h13.8v-13.8h-13.8z"/><path class="m" d="m1853.4 551.1h13.8v-13.8h-13.8z"/><path class="q" d="m1835.5 551.1h13.7v-13.8h-13.7z"/><path class="p" d="m1546.2 674.1c0 15.2-12.3 27.6-27.5 27.6-15.1 0-27.4-12.4-27.4-27.6 0-15.2 12.3-27.5 27.4-27.5 15.2 0 27.5 12.3 27.5 27.5z"/><path class="p" d="m1645.2 727.7c0 15.2-12.3 27.5-27.4 27.5-15.2 0-27.5-12.3-27.5-27.5 0-15.2 12.3-27.5 27.5-27.5 15.1 0 27.4 12.3 27.4 27.5z"/><path class="i" d="m1655.1 690c0 47.3-38.1 85.6-85.2 85.6-47 0-85.2-38.3-85.2-85.6 0-47.2 38.2-85.5 85.2-85.5 47.1 0 85.2 38.3 85.2 85.5z"/><path fill-rule="evenodd" class="k" d="m1537.1 714.6c-5.2 2-10.8 3.2-16.5 3.5l-11.8 15.2-23.5-7.8-0.6-19.2c-4.4-3.7-8.2-7.9-11.2-12.7l-19-2.6-5.1-24.3 16.4-10.1q0.6-4.2 1.9-8.3 1.4-4.1 3.3-7.8l-7.2-17.9 18.4-16.6 16.9 9.2c5.3-2 10.8-3.2 16.5-3.4l11.8-15.3 23.6 7.8 0.5 19.3c4.4 3.6 8.2 7.8 11.2 12.6l19.1 2.6 5 24.3-16.3 10.1q-0.7 4.2-2 8.3-1.4 4.1-3.3 7.8l7.2 17.9-18.4 16.6zm-14.1-64.6c-8.2-2.7-17 1.8-19.7 10-2.7 8.2 1.8 17.1 10 19.8 8.1 2.7 16.9-1.8 19.6-10 2.7-8.2-1.8-17.1-9.9-19.8z"/><path fill-rule="evenodd" class="m" d="m1557.5 677.9c-7.2 21.8-30.6 33.7-52.3 26.5-21.7-7.1-33.6-30.6-26.5-52.5 7.2-21.8 30.6-33.7 52.3-26.5 21.8 7.2 33.6 30.6 26.5 52.5zm-24.6-8.1c2.7-8.2-1.8-17.1-9.9-19.8-8.2-2.7-17 1.8-19.7 10-2.7 8.2 1.8 17.1 9.9 19.8 8.2 2.7 17-1.8 19.7-10z"/><path fill-rule="evenodd" class="k" d="m1631.9 757c-4.1 1.6-8.4 2.5-12.8 2.7l-9.2 11.9-18.3-6-0.3-15c-3.5-2.8-6.4-6.1-8.8-9.8l-14.8-2.1-3.9-18.8 12.7-7.9q0.5-3.2 1.5-6.4 1.1-3.2 2.6-6.1l-5.6-13.8 14.3-12.9 13.1 7.1c4.1-1.5 8.4-2.5 12.8-2.7l9.2-11.8 18.3 6 0.4 15c3.4 2.8 6.3 6.1 8.7 9.8l14.8 2 3.9 18.9-12.7 7.8q-0.5 3.3-1.5 6.5-1.1 3.1-2.6 6l5.6 13.9-14.3 12.9zm-11-50.1c-6.3-2.1-13.1 1.4-15.2 7.7-2.1 6.4 1.4 13.3 7.7 15.4 6.4 2.1 13.2-1.4 15.3-7.8 2-6.4-1.4-13.2-7.8-15.3z"/><path fill-rule="evenodd" class="o" d="m1647.7 728.5c-5.5 17-23.7 26.2-40.6 20.7-16.8-5.6-26-23.8-20.5-40.8 5.5-16.9 23.7-26.1 40.6-20.6 16.9 5.6 26 23.8 20.5 40.7zm-19.1-6.2c2.1-6.4-1.3-13.3-7.7-15.4-6.3-2-13.2 1.4-15.2 7.8-2.1 6.4 1.3 13.2 7.7 15.3 6.3 2.1 13.2-1.4 15.2-7.7z"/><path class="m" d="m1706.1 754.9c0 12.7 10.3 23 22.9 23h121.2c12.7 0 22.9-10.3 22.9-23v-121.6c0-12.7-10.2-23-22.9-23h-121.2c-12.6 0-22.9 10.3-22.9 23z"/><path class="o" d="m1855.2 636.6c0 4.1-3.4 7.5-7.5 7.5h-116.5c-4.2 0-7.5-3.4-7.5-7.5 0-4.1 3.3-7.5 7.5-7.5h116.5c4.1 0 7.5 3.4 7.5 7.5z"/><path class="o" d="m1815.3 703.2c0 4.1-3.3 7.5-7.5 7.5h-76.6c-4.2 0-7.5-3.4-7.5-7.5 0-4.1 3.3-7.5 7.5-7.5h76.6c4.2 0 7.5 3.4 7.5 7.5z"/><path class="p" d="m1842.3 727.8c0 4.1-3.4 7.4-7.5 7.4h-103.6c-4.2 0-7.5-3.3-7.5-7.4 0-4.2 3.3-7.5 7.5-7.5h103.6c4.1 0 7.5 3.3 7.5 7.5z"/><path class="p" d="m1772.1 661.2c0 4.1-3.4 7.4-7.5 7.4h-33.4c-4.2 0-7.5-3.3-7.5-7.4 0-4.2 3.3-7.5 7.5-7.5h33.4c4.1 0 7.5 3.3 7.5 7.5z"/><path class="p" d="m1749.4 752.3c0 4.2-3.3 7.5-7.4 7.5h-10.8c-4.2 0-7.5-3.3-7.5-7.5 0-4.1 3.3-7.5 7.5-7.5h10.8c4.1 0 7.4 3.4 7.4 7.5z"/><path class="p" d="m1782.4 752.3c0 4.2-3.4 7.5-7.5 7.5h-10.8c-4.1 0-7.5-3.3-7.5-7.5 0-4.1 3.4-7.5 7.5-7.5h10.8c4.1 0 7.5 3.4 7.5 7.5z"/><path class="p" d="m1815.3 752.3c0 4.2-3.4 7.5-7.5 7.5h-10.8c-4.1 0-7.4-3.3-7.4-7.5 0-4.1 3.3-7.5 7.4-7.5h10.8c4.1 0 7.5 3.4 7.5 7.5z"/><path class="p" d="m1828.2 661.2c0 4.1-3.3 7.4-7.5 7.4h-33.4c-4.1 0-7.5-3.3-7.5-7.4 0-4.2 3.4-7.5 7.5-7.5h33.4c4.2 0 7.5 3.3 7.5 7.5z"/><path class="o" d="m1012.9 936.4v-144.2c0-18.8 15.3-34.1 34.2-34.1h315.7c18.8 0 34.1 15.3 34.1 34.1v144.2c0 18.8-15.3 34.1-34.1 34.1h-315.7c-18.9 0-34.2-15.3-34.2-34.1z"/><path class="p" d="m1351.8 954.2h-293.7c-16 0-28.9-12.9-28.9-28.9v-122c0-16 12.9-28.9 28.9-28.9h293.7c16 0 28.9 12.9 28.9 28.9v122c0 16-12.9 28.9-28.9 28.9z"/><path class="m" d="m1119 830.3q0.5-2.1 1.9-3.1 1.4-1.1 3.1-1.1 1.6-0.1 3.1 0.9 1.5 0.9 2.1 3 2 17.6 2.7 34.9 0.8 17.3 0.9 35.1-0.1 1.6-0.9 2.7-0.8 1.1-2 1.6-1.3 0.5-2.7 0.5-1.4 0-2.7-0.5-1.3-0.6-2.1-1.6-0.9-1.1-1.1-2.7-0.1-8.4 0.2-16.4 0.4-8.1 0-16.5-0.3 0.2-0.8 0.3-0.4 0.2-0.9 0.3-4.2-0.1-8-0.3-3.9-0.3-7.6-0.5-3.8-0.1-7.6 0.1-3.8 0.2-7.8 1.1l-0.7 29.7q-0.2 2.4-1.6 3.6-1.5 1.2-3.2 1.2-1.7 0-3.3-1.2-1.6-1.2-1.8-3.6v-67.5q0.4-2.1 1.8-3 1.4-1 3.1-0.9 1.6 0 3.1 1.1 1.6 1 2.2 3l0.4 27.4q4.1-0.7 7.9-0.9 3.8-0.1 7.5 0.1 3.8 0.2 7.7 0.5 3.8 0.3 7.9 0.3 0.3 0.2 0.6 0.2 0.2 0 0.5 0.2-0.5-7.3-0.8-14-0.3-6.6-1.1-14z"/><path class="m" d="m1145 836.9q-2.1-0.3-3.3-1.5-1.2-1.1-1.3-2.4-0.2-1.4 0.6-2.8 0.9-1.4 2.9-2.1 7.7-1 13.9-1.3 6.2-0.3 12.1-0.2 5.9 0 12.2 0.3 6.2 0.2 13.9 0.3 2 0.6 3 1.9 0.9 1.3 0.9 2.7-0.1 1.4-1.1 2.6-1.1 1.2-3.2 1.6-3.1 0-5.5 0.1-2.5 0-4.8 0-2.3 0.1-4.8 0.2-2.4 0-5.5 0 0.1 7.8 0.1 15.5 0 7.7 0.2 15.3 0.1 7.6 0.4 15.3 0.3 7.7 1 15.4-0.1 2.1-1.4 3.5-1.3 1.4-2.9 2-1.7 0.5-3.4-0.1-1.7-0.6-2.6-2.5-0.7-8-0.8-16.1-0.1-8 0-16.1 0.2-8 0.4-16.1 0.3-8.1 0.3-16.1-3.4 0.1-5.9 0-2.5 0-4.8-0.1-2.3 0-4.8 0.1-2.5 0.1-5.8 0.6z"/><path class="m" d="m1250.6 897q-1.6 2.7-3.1 3.3-1.6 0.5-2.9 0-1.3-0.6-2.2-1.7-0.9-1.2-1.2-1.9-1.3-3.2-2.5-7.3-1.2-4.2-2.4-8.9-1.1-4.7-2.3-9.6-1.3-5-2.6-9.6-1.2-4.6-2.7-8.6-1.4-4-3.1-7-1.8 6.4-2.8 13-1 6.5-1.6 13.1-0.7 6.5-1.1 13.1-0.5 6.5-1.3 12.9-0.4 2.7-1.7 4-1.3 1.2-3 1.3-1.6 0-3.3-1.1-1.6-1.2-2.7-3.4 0.3-9.1 1.4-18.6 1-9.4 2.4-18.2 1.3-8.8 2.8-16.7 1.5-7.8 2.6-13.6 0.7-1.6 2.2-2.6 1.6-0.9 3.5-1 1.8-0.2 3.6 0.4 1.7 0.5 2.5 1.9 4.2 5.7 7.1 12.2 2.8 6.5 4.7 13 2 6.5 3.3 12.4 1.3 5.9 2.5 10.3 1.6-7 3.9-13.9 2.3-6.9 4.5-13.1 2.2-6.1 4.1-11.1 1.9-5 2.7-8.3 0.4-1.7 1.8-2.9 1.4-1.3 3.1-1.6 1.7-0.4 3.2 0.4 1.5 0.7 2.1 2.9 1.4 9.1 3.1 17.7 1.8 8.7 3.5 17.1 1.7 8.4 3.1 16.7 1.5 8.3 2.2 16.6 0.2 2.4-1.1 3.7-1.3 1.3-3 1.4-1.7 0.1-3.4-1.1-1.6-1.1-2.1-3.6-1.5-6.6-2.8-12.8-1.3-6.2-2.4-12.3-1.1-6.1-2-12.3-1-6.3-1.7-12.9-1.6 5.9-3.1 11.8-1.5 5.9-3.2 11.9-1.6 5.9-3.7 12.1-2.1 6.2-4.9 12.5z"/><path class="m" d="m1298.1 831.6q0.4-2.1 2-3.1 1.5-0.9 3.4-0.8 1.8 0 3.5 1.1 1.7 1.2 2.3 3.2 0 8.3-0.2 16-0.1 7.7-0.3 15.3-0.2 7.6-0.4 15.4-0.1 7.7-0.2 16 4.2 0.6 8.9 0.8 4.7 0.1 9.5 0.1 4.8-0.1 9.5-0.2 4.7-0.1 8.9-0.1 2 0.5 3 1.8 1 1.3 0.9 2.8 0 1.4-1.1 2.6-1.1 1.1-3.1 1.6-4.7 0-10.1 0.3-5.4 0.3-10.9 0.4-5.6 0.2-10.9 0.1-5.4-0.1-10-0.8-1.7 0.4-3.3-0.8-1.6-1.1-1.9-3.8 0-8.8 0.1-17.2 0-8.4 0.1-16.8 0.1-8.3 0.2-16.7 0.1-8.5 0.1-17.2z"/><path class="k" d="m3036.5 1117.6v-103.3c0-13.5 10.9-24.4 24.4-24.4h216.1c13.5 0 24.4 10.9 24.4 24.4v103.3c0 13.5-10.9 24.5-24.4 24.5h-216.1c-13.5 0-24.4-11-24.4-24.5z"/><path class="o" d="m3268.3 1129.2h-198.7c-11.2 0-20.3-9.1-20.3-20.3v-85.8c0-11.2 9.1-20.3 20.3-20.3h198.7c11.2 0 20.3 9.1 20.3 20.3v85.8c0 11.2-9.1 20.3-20.3 20.3z"/><path class="p" d="m3093.2 1045.5q-1.6-0.2-2.5-1.1-1-0.9-1.1-1.9-0.2-1.1 0.5-2.2 0.7-1.1 2.3-1.7 2.4-0.2 5.3-0.5 2.9-0.3 5.8-0.3 2.9-0.1 5.5 0.2 2.7 0.3 4.7 1.2 1.6 1.1 2 2.6 0.4 1.5-0.1 2.7-0.5 1.2-1.7 1.7-1.2 0.6-3-0.2-1.4-0.7-3.8-0.7 0.3 3.3 0.7 7.2 0.5 4 1 8.2 0.5 4.3 0.7 8.7 0.3 4.3 0.1 8.4-0.1 4.1-0.9 7.8-0.8 3.7-2.5 6.6-1.2 2.1-3.4 3.3-2.1 1.3-4.7 1.8-2.6 0.5-5.5 0.3-2.8-0.2-5.5-1-2.6-0.8-4.8-2.1-2.2-1.3-3.5-3.1-1-1.4-1.5-3-0.5-1.6-0.8-3.4-0.2-1.8-0.3-3.5-0.1-1.7-0.1-3.3 0.3-1.7 1.5-2.5 1.1-0.8 2.5-0.8 1.3 0 2.5 0.9 1.3 0.8 1.7 2.4 0.1 2.3 0 4-0.1 1.7 0.3 2.9 0.3 1.2 1.4 2.2 1 0.9 3.4 1.8 5 1.7 7.7 0 2.7-1.7 3.8-6.9 0.8-4.1 0.8-8.7 0-4.6-0.4-9.3-0.4-4.7-1.1-9.4-0.6-4.7-0.9-9-1.7 0.2-3.4-0.1-1.6-0.3-2.7-0.2z"/><path fill-rule="evenodd" class="p" d="m3119.5 1094.8q1-2.5 2-6.2 0.9-3.7 1.8-8.2 1-4.5 2-9.3 1.1-4.9 2.3-9.7 1.2-4.7 2.7-8.9 1.4-4.3 3.2-7.5 1.8-3.3 4.1-5.2 2.2-1.9 4.9-1.9 1.6 0 3.2 1.9 1.5 1.9 3 5.1 1.5 3.2 3 7.5 1.5 4.2 3 8.8 1.4 4.7 2.9 9.5 1.5 4.8 2.9 9.2 1.4 4.3 2.9 8 1.4 3.6 2.9 5.9 0.4 1.6-0.1 2.8-0.6 1.2-1.7 1.8-1.1 0.6-2.5 0.4-1.4-0.2-2.6-1.4-1.4-2.2-2.6-4.7-1.1-2.4-2-4.7-0.8-2.3-1.4-4.2-0.5-1.8-0.7-2.8-2.9 0-5.6 0-2.7-0.1-5.3-0.1-2.6 0-5.3 0-2.7 0-5.7-0.1-0.7 2.7-1 4.7-0.4 2.1-0.8 4-0.3 1.8-0.9 3.8-0.5 2-1.5 4.6-1 1.3-2.4 1.6-1.4 0.3-2.5-0.2-1.2-0.5-1.9-1.7-0.7-1.2-0.3-2.8zm22.3-47.8q-0.8-0.2-1.6 1.1-0.8 1.3-1.6 3.5-0.8 2.2-1.6 5.1-0.7 2.9-1.4 5.8-0.8 3-1.4 5.6-0.7 2.7-1.3 4.6 2.6 0.1 4.7 0.1 2.1 0.1 4.2 0.2 2.1 0.1 4.2 0.1 2.2 0.1 4.6 0.2-1.4-3.5-2.3-6.7-1-3.3-1.9-6.5-0.9-3.3-2-6.5-1-3.2-2.6-6.6z"/><path class="p" d="m3192.9 1097.7q-0.9 1-1.8 1.4-0.9 0.3-1.8 0.1-0.8-0.2-1.5-0.8-0.7-0.6-1.3-1.5-4.8-13.9-9.8-27-5-13.2-10.3-26.8-0.1-1.6 0.8-2.7 0.9-1 2.3-1.4 1.5-0.3 2.9 0.1 1.5 0.5 2.5 1.9 2.2 6 4.3 11.2 2 5.2 3.9 10.3 1.9 5.1 3.7 10.5 1.8 5.4 3.5 11.8 2.3-5.7 4.4-11.2 2.1-5.5 4-11.1 2-5.5 3.9-11 1.9-5.6 3.7-11.3 0.8-1.4 2.2-1.8 1.3-0.3 2.6 0.2 1.2 0.5 2.1 1.8 0.8 1.2 0.7 2.9-1.9 6.8-4.4 13.6-2.4 6.8-5.2 13.6-2.8 6.8-5.7 13.6-2.9 6.8-5.7 13.6z"/><path fill-rule="evenodd" class="p" d="m3219.5 1094.8q1.1-2.5 2-6.2 0.9-3.7 1.9-8.2 0.9-4.5 2-9.3 1-4.9 2.2-9.7 1.2-4.7 2.7-8.9 1.4-4.3 3.3-7.5 1.8-3.3 4-5.2 2.2-1.9 5-1.9 1.6 0 3.1 1.9 1.6 1.9 3.1 5.1 1.5 3.2 2.9 7.5 1.5 4.2 3 8.8 1.5 4.7 2.9 9.5 1.5 4.8 2.9 9.2 1.5 4.3 2.9 8 1.4 3.6 2.9 5.9 0.5 1.6-0.1 2.8-0.6 1.2-1.7 1.8-1.1 0.6-2.5 0.4-1.4-0.2-2.6-1.4-1.4-2.2-2.5-4.7-1.2-2.4-2.1-4.7-0.8-2.3-1.3-4.2-0.6-1.8-0.7-2.8-3 0-5.7 0-2.6-0.1-5.3-0.1-2.6 0-5.3 0-2.6 0-5.6-0.1-0.7 2.7-1.1 4.7-0.4 2.1-0.7 4-0.4 1.8-0.9 3.8-0.6 2-1.5 4.6-1.1 1.3-2.5 1.6-1.4 0.3-2.5-0.2-1.1-0.5-1.8-1.7-0.7-1.2-0.4-2.8zm22.4-47.8q-0.8-0.2-1.7 1.1-0.8 1.3-1.6 3.5-0.8 2.2-1.5 5.1-0.8 2.9-1.5 5.8-0.8 3-1.4 5.6-0.6 2.7-1.2 4.6 2.5 0.1 4.6 0.1 2.2 0.1 4.2 0.2 2.1 0.1 4.3 0.1 2.1 0.1 4.6 0.2-1.4-3.5-2.4-6.7-1-3.3-1.9-6.5-0.9-3.3-1.9-6.5-1.1-3.2-2.6-6.6z"/><path class="p" d="m1545.3 1592.9v-136.7c0-14.3 11.5-25.9 25.8-25.9h253.4c14.3 0 25.9 11.6 25.9 25.9v136.7c0 14.3-11.6 25.9-25.9 25.9h-253.4c-14.3 0-25.8-11.6-25.8-25.9z"/><path class="m" d="m1816 1599.9h-237c-10 0-18.2-8.1-18.2-18.1v-114.5c0-10 8.2-18.1 18.2-18.1h237c10 0 18.1 8.1 18.1 18.1v114.5c0 10-8.1 18.1-18.1 18.1z"/><path class="p" d="m1647 1483q-0.4-2.7 0.9-4.3 1.2-1.7 2.9-2.1 1.8-0.4 3.6 0.7 1.7 1.1 2.5 3.7 0.8 4.4 1.1 8.8 0.3 4.5 0.3 9.1-0.1 2.8-1.8 4.3-1.6 1.5-3.7 1.8-2 0.2-3.8-1-1.8-1.2-2.1-3.9v-0.7q-4.1-5.4-9.3-7.6-5.2-2.2-10.7-1.8-5.4 0.4-10.8 3-5.3 2.7-9.7 7.1-2.7 2.7-4.4 6.5-1.7 3.8-2.6 8.1-0.9 4.3-1 8.8-0.1 4.5 0.5 8.6 0.5 4.1 1.7 7.6 1.1 3.5 2.7 5.7 2.5 3.5 6.2 5.8 3.6 2.3 7.9 3.5 4.2 1.1 8.8 1.1 4.5 0.1 8.8-0.9 4.3-1 7.9-3.1 3.7-2.1 6.2-5.3 1.2-1.5 1.7-3.4 0.5-1.9 1.3-3.7 1.3-2.4 3-3 1.6-0.7 3 0 1.3 0.8 2.2 2.7 0.9 2 0.8 4.8-0.1 6-4 10.8-3.9 4.8-10.1 7.9-6.1 3.1-13.7 4.4-7.5 1.3-15 0.4-7.5-0.9-14.1-4.1-6.7-3.2-10.9-9.3-2.4-3.4-4.1-8.2-1.7-4.8-2.5-10.4-0.8-5.6-0.7-11.6 0.1-6 1.2-11.7 1.2-5.7 3.5-10.8 2.3-5.2 5.8-9 2.8-3 6.7-5.5 3.9-2.6 8.4-4.4 4.5-1.7 9.4-2.7 4.9-0.9 9.6-0.7 4.7 0.1 9 1.6 4.3 1.4 7.7 4.4-0.1-0.5-0.1-1-0.1-0.5-0.2-1z"/><path class="p" d="m1728.9 1500.8q0.7 2.3-0.5 3.8-1.1 1.5-3.1 2-2 0.5-4.4 0-2.3-0.6-4-2.3-0.2-2.6-1.3-5.4-1.1-2.8-3-5-1.8-2.2-4.4-3.6-2.5-1.5-5.4-1.4-4 0.2-7.1 2.1-3.2 1.9-5 5-1.7 3.1-2 7-0.3 4 1.6 8 0.7 1.7 3.7 2.5 3 0.9 7.2 1.8 4.1 1 8.9 2.5 4.7 1.4 9 4.2 4.3 2.8 7.5 7.4 3.1 4.5 4.2 11.7 0.9 6-1.1 10.6-2 4.6-5.9 7.8-3.9 3.2-9.1 4.9-5.3 1.8-11 2-5.7 0.2-11.2-1.1-5.5-1.3-9.9-4.2-4.3-2.9-7-7.5-2.8-4.5-2.8-10.7 0-1.7 0.1-3.3 0.2-1.6 0.8-2.9 0.6-1.2 1.7-2.1 1.1-0.9 3-1.2 1.7-0.1 2.8 0.6 1.2 0.7 1.9 1.8 0.8 1.2 1 2.8 0.2 1.5 0 3.3-0.4 3.8 1.1 6.5 1.5 2.6 4 4.4 2.6 1.7 5.8 2.5 3.2 0.8 6.3 0.7 3-0.2 6.1-0.9 3.2-0.7 5.7-2.3 2.6-1.6 4.1-4.1 1.5-2.6 1.2-6.4-0.2-2.1-1.2-4.3-0.9-2.2-2.5-4.1-1.7-1.9-3.7-3.5-2-1.5-4.3-2.2-3.4-1-7.1-1.9-3.6-1-7-2.2-3.5-1.1-6.5-2.8-3.1-1.6-5.4-4-2.3-2.3-3.7-5.7-1.4-3.4-1.4-8.1-0.1-5.7 2-10.3 2.2-4.5 5.8-7.8 3.5-3.2 7.9-5 4.4-1.7 8.8-1.7 5.9 0 10.8 1.5 4.9 1.6 8.7 4.5 3.7 2.8 6.1 7 2.3 4.1 3.2 9.1z"/><path class="p" d="m1792.7 1500.8q0.7 2.3-0.4 3.8-1.2 1.5-3.2 2-1.9 0.5-4.3 0-2.4-0.6-4.1-2.3-0.2-2.6-1.3-5.4-1.1-2.8-2.9-5-1.9-2.2-4.4-3.6-2.6-1.5-5.5-1.4-4 0.2-7.1 2.1-3.1 1.9-4.9 5-1.8 3.1-2 7-0.3 4 1.6 8 0.6 1.7 3.7 2.5 3 0.9 7.1 1.8 4.2 1 8.9 2.5 4.8 1.4 9.1 4.2 4.2 2.8 7.4 7.4 3.2 4.5 4.3 11.7 0.8 6-1.1 10.6-2 4.6-5.9 7.8-3.9 3.2-9.2 4.9-5.3 1.8-10.9 2-5.7 0.2-11.2-1.1-5.5-1.3-9.9-4.2-4.4-2.9-7.1-7.5-2.7-4.5-2.8-10.7 0-1.7 0.2-3.3 0.2-1.6 0.7-2.9 0.6-1.2 1.7-2.1 1.1-0.9 3-1.2 1.7-0.1 2.9 0.6 1.2 0.7 1.9 1.8 0.7 1.2 0.9 2.8 0.2 1.5 0.1 3.3-0.4 3.8 1 6.5 1.5 2.6 4.1 4.4 2.5 1.7 5.7 2.5 3.3 0.8 6.3 0.7 3.1-0.2 6.2-0.9 3.1-0.7 5.7-2.3 2.5-1.6 4-4.1 1.6-2.6 1.2-6.4-0.1-2.1-1.1-4.3-1-2.2-2.6-4.1-1.6-1.9-3.6-3.5-2.1-1.5-4.4-2.2-3.4-1-7-1.9-3.7-1-7.1-2.2-3.4-1.1-6.5-2.8-3-1.6-5.4-4-2.3-2.3-3.6-5.7-1.4-3.4-1.5-8.1-0.1-5.7 2.1-10.3 2.2-4.5 5.7-7.8 3.6-3.2 8-5 4.4-1.7 8.7-1.7 6 0 10.9 1.5 4.9 1.6 8.6 4.5 3.8 2.8 6.1 7 2.4 4.1 3.2 9.1z"/><path class="A" d="m2010.6 2553.6l93.6 11.4c6.4-44.3 22.3-119.9 22.3-119.9l-101.7-15.3c0 0-8.2 69.4-14.2 123.8z"/><path class="B" d="m1824.2 2616.7c0 0-16.1 18.6-4.5 22.9 11.6 4.3 90 23.3 111.9 24 21.8 0.7 183.7 33 183.7 33l-1.4-31.8-158.2-36.4z"/><path class="C" d="m2007.6 2549.2c0 0 77.7 17.9 105.3-1.2l1 116.8-174.3-22.5c0 0-91.4 3.2-115.4-25.6 0 0 152.5-12.6 183.4-67.5z"/><path class="B" d="m1964.1 2608.4l-13.1-20.9 5.1-3.2 13.1 20.8z"/><path class="B" d="m1983.5 2597.2l-11-16.7 5-3.4 11.1 16.7z"/><path class="B" d="m2005.2 2585.7l-15.6-17.6 4.5-4.1 15.7 17.6z"/><path class="B" d="m2020.4 2566.3l-18.8-11.6 3.2-5.2 18.7 11.5z"/><path class="A" d="m2268.5 2566.6l95.8 13.4c7.3-45.3 25-122.6 25-122.6l-104-17.6c0 0-9.7 71-16.8 126.8z"/><path class="B" d="m2076 2627.8c0 0-16.9 18.9-5.1 23.5 11.8 4.6 92 25.6 114.4 26.7 22.4 1.1 187.9 37.3 187.9 37.3l-0.9-32.7-161.6-40.3z"/><path class="C" d="m2265.4 2562c0 0 79.4 19.9 108.1 0.7l-1.2 119.9-178.4-26.3c0 0-93.9 1.5-117.9-28.5 0 0 156.7-10.1 189.4-65.8z"/><path class="B" d="m2219.7 2621.9l-13.1-21.6 5.3-3.3 13.1 21.7z"/><path class="B" d="m2239.8 2610.8l-11-17.3 5.2-3.4 11.1 17.3z"/><path class="B" d="m2262.3 2599.4l-15.7-18.3 4.7-4.1 15.7 18.3z"/><path class="B" d="m2278.2 2579.7l-19.1-12.1 3.4-5.3 19 12.2z"/><path class="D" d="m2720.2 2755.8c-0.8 0-1.6-0.7-1.7-1.5l-113.7-712.5c-0.2-1 0.5-1.9 1.5-2 1-0.2 1.8 0.5 2 1.4l113.7 712.5c0.1 1-0.5 1.9-1.5 2q-0.1 0.1-0.3 0.1z"/><path class="D" d="m3237.9 2755.8c-0.9 0-1.6-0.7-1.8-1.5l-113.7-712.5c-0.1-1 0.5-1.9 1.5-2 1-0.2 1.9 0.5 2 1.4l113.7 712.5c0.2 1-0.5 1.9-1.5 2q-0.1 0.1-0.2 0.1z"/><path class="D" d="m2803.4 2755.8q-0.1 0-0.2-0.1c-1-0.1-1.7-1-1.5-2l113.7-712.5c0.1-0.9 1.1-1.6 2-1.4 1 0.1 1.6 1 1.5 2l-113.7 712.5c-0.1 0.8-0.9 1.5-1.8 1.5z"/><path class="E" d="m3364 1467.9l-88.1 260.6-116.9 345.8c-6.7 19.8-28.1 36-47.6 36h-328c-19.4 0-29.9-16.2-23.2-36l8.7-26 49-144.8 147.4-435.6c6.7-19.8 28.1-36 47.6-36h328c19.4 0 29.9 16.2 23.1 36z"/><path fill-rule="evenodd" class="e" d="m3164.9 1749.3c-38.3 9.6-140.7 3-140.7 3v28.8l-10.2 3.4-53.9 18c0 0-5.2 3-48.7-3.6-42.4-6.5-307.5-32-320.8-33.2 1.6-5.5 1.3-12-1-19l-6.2-246-53.2 82.4-42.2-116.4c-7.1-19.6-28.8-35.5-48.3-35.5h-5.4c33.5-61.6 109-199.2 123.3-214.6 15.2-16.5 144.9-48.2 204.9-65.8l-40.3 75.7 82.6-49.2 62 56-12.9-84.7c41.7 13.3 122.6 39.7 148.7 52.8 53.1 26.6 102.7 49.1 118.7 81.6 29.2 59.1 96.7 318.4 99.7 388.6 2.9 70.3-17.7 68.1-56.1 77.7zm-151-233.8v68.8c0 0 25.8 6 28 3.7 2.2-2.2-25.8-68.1-28-72.5z"/><path class="F" d="m1982.9 1803.2c-18.8 33-1.8 652.6-1.8 652.6l210.8 17.3c0 0 39.3-225.5 19.3-453.7l85.4 11.3c2.9-39.5 5.7-69.9 8-85.7 13.6-91.6 47.4-138 95.9-161.7-67.6-5.6-257.8-21.7-314.8-23.6-66.3-2.3-84 10.5-102.8 43.5z"/><path class="E" d="m2835.8 2048.3h-379.1c-0.9 0-1.6 0.7-1.6 1.5v59c0 0.8 0.7 1.5 1.6 1.5h379.1c0.8 0 1.5-0.7 1.5-1.5v-59c0-0.8-0.7-1.5-1.5-1.5z"/><path class="G" d="m2590 1765.6c0 0 0.3 0 0.6 0.1 1.6-5.5 1.4-12-1.1-19z"/><path class="p" d="m2823.7 1160.4c-5.5 6.1-29.9 7.8-37.1 0-2-2.2-4.1-8.1-6-15.3-4.8 1.7-83.3 24.2-90.4 26.3l20.6 111.4 83.9-70.6 84.3 76.1 46.1-117.2c-18.5-5.9-93.3-29.4-93.3-29.4-3 8.8-6.1 16.5-8.1 18.7z"/><path class="o" d="m2624.6 1783.4c0 0-206.4-12.8-232.6-1.7-2.7 1.2-5.4 2.4-8 3.7-48.6 23.7-104 71.2-117.6 162.8-2.4 15.8 0.1 7.5-2.8 47-13.6 186.2-47.8 408.7-50.3 465.5l202.6 38.7c20-52.8 31.4-139.6 62.3-248.1 34.3-120 23.3-201 23.3-201 0 0 192.3 2.2 264.2 0l0.2-0.2c12.2-40.2 34.6-94.5 74.8-144.6 12.3-15.4 26.3-30.5 42.3-44.6 25.1-22.2 57.9-41 94.3-56.8l-196.4-20.7z"/><path class="H" d="m2518.4 1750.8l11.3 31h330.6l-11.3-31z"/><path class="m" d="m2589.5 1746.7c0-0.1 0-0.2-0.1-0.4l-59.2-163.3-42.2-116.3c-7.1-19.6-28.8-35.5-48.2-35.5h-5.5-398.1c-19.5 0-29.6 15.9-22.5 35.5l101.4 279.6c7.1 19.6 28.8 35.5 48.3 35.5h403.5c12.4 0 20.9-6.4 23.7-16.1-0.3-0.1-0.6-0.1-0.6-0.1z"/><path class="A" d="m2156.6 1696.8c0 0 45.7-5.2 45-15.6-0.8-10.3-73-10.3-73-10.3 0 0 23.6-16.3 22.9-24.4-0.8-8.2-15.5-3.7-15.5-3.7-58.3 22.1-56 61.4-54.6 79.9 1.5 18.5 17 36.3 60.5 43 43.5 6.6 58.2-1.6 55.3-6.1-3-4.4-39.8-8.1-39.8-8.1 0 0 47.9-4.4 47.9-13.3 0-8.9-48.7-13.3-48.7-13.3 0 0 56.8-0.8 57.5-12.6 0.7-11.8-57.5-15.5-57.5-15.5z"/><path class="I" d="m2994.2 1368c0.2-1-0.3-1.9-1.3-2.2-1-0.2-1.9 0.3-2.1 1.3-9.6 36.3 20.1 144.3 21.4 149.1 0.2 0.5 20.9 50.6 27.2 69.7l-25.3-3.3c-50.4-8.7-295.9-50.4-318.2-50.4q-1.1 0-1.5 0.1c-0.5 0.3-0.8 0.8-0.9 1.3-0.2 0.6 0 1.2 0.4 1.6 0.2 0.2 18.7 20.4 16.5 52.7-2.3 33-10 61.5-10 61.8-0.3 0.9 0.2 1.8 1.1 2.1 1 0.4 100 32.7 147.2 54.7 48.5 22.5 156 46.7 179.1 47.8q0.1 0 0.1 0c1 0 1.8-0.8 1.8-1.7 0-1-0.7-1.8-1.7-1.9-22.9-1.1-129.7-25.1-177.8-47.5-44.1-20.5-133.1-50-146-54.2 1.6-6.6 7.7-32 9.7-60.8 1.9-27-9.7-45.6-15-52.5 26.5 2 198.5 30.5 314.7 50.4l28.1 3.7c0.6 0.1 1.2-0.2 1.5-0.6l-27.6-74.2c-0.3-1.1-30.8-111.6-21.4-147z"/><path class="J" d="m2778 1543.6c-0.8-0.5-1.9-0.2-2.4 0.6-0.5 0.9-0.2 2 0.6 2.5 8.9 5.1 19.8 27.6 25.8 53.6 3.8 16.4 10.8 57.1-6.1 82.3-0.5 0.8-0.3 1.9 0.5 2.4q0.5 0.3 1 0.3c0.6 0 1.1-0.2 1.5-0.7 17.6-26.3 10.4-68.3 6.5-85.1-6.3-27.3-17.6-50.3-27.4-55.9z"/><path class="K" d="m2722.4 1658.9c4.2 2 104.4 51.7 137.9 69.4 24.8 13.1 109.2 41.6 153.7 56.2l10.2-3.4v-28.8c0 0-100-22.1-163.9-44.7-61.9-21.8-133.5-47.2-137.9-48.7z"/><path class="L" d="m2954.6 1802c-36.4 15.8-69.3 34.7-94.3 56.8-16 14.1-30.1 29.2-42.4 44.7-40.1 50.1-62.5 104.3-74.7 144.6q-0.1 0.1-0.1 0.2c-11.1 36.8-13.8 62-13.8 62h382.1c19.5 0 40.9-16.2 47.6-36l116.9-345.8c-14.1-2.4-190.2 16.2-321.3 73.5z"/><path class="M" d="m2990.8 1367.1c-10.9 38.9 0 211.5 0 211.5l22.8 7.5 2-71.1c0 0-13.5-58.7-19.4-97.2-5.9-38.4-5.4-50.7-5.4-50.7z"/><path class="p" d="m2276.7 1569.9c-6.1 1.4-8.8 12.3-6.1 24.4 2.7 12.2 9.9 20.9 16 19.5 6.1-1.4 8.8-12.3 6.1-24.5-2.7-12.1-9.9-20.8-16-19.4z"/><path class="y" d="m2805.6 2326.9l1.5 441.3 604.7-29.5-52.1-438z"/><path class="q" d="m2883.3 2323.9c-0.9 0 3.2 98.5 9 219.8 5.9 121.4 11.4 219.8 12.2 219.7 0.9 0-3.2-98.4-9-219.8-5.9-121.4-11.3-219.7-12.2-219.7z"/><path class="N" d="m3358.2 2305.2q-0.1-1.8-0.2-1.8-0.1 0-0.2 1.8 0 2 0 5.3 0 3.6 0 8.6c-0.1 3.5-0.5 7.4-0.7 11.8-1.5 17.6-5.3 43.3-17.4 72.6-11.9 29.2-31.9 62.1-63 90.1-15.6 13.8-33.8 26.3-54.3 35.9-20.4 9.4-43.5 15.9-67.4 15.1-23.9-0.8-46.6-8-67.1-17.6-20.4-9.8-39-21.4-55.6-34.1-33.3-25.3-58.6-53.6-79.1-77.7-20.2-24.4-35.4-45-46.1-59.2-5.2-7-9.3-12.5-12.2-16.4q-2-2.6-3.2-4.2-1.1-1.4-1.2-1.4-0.1 0 0.9 1.6 1.2 1.7 3 4.4c2.8 4 6.7 9.6 11.7 16.7 10.4 14.4 25.4 35.3 45.4 59.9 20.3 24.4 45.6 53 79.1 78.6 16.6 12.9 35.4 24.7 56 34.7 20.7 9.7 43.8 17.1 68.3 17.9 24.5 0.8 48.1-5.9 68.8-15.5 20.8-9.8 39.2-22.4 54.9-36.6 31.4-28.3 51.4-61.8 63.2-91.3 11.9-29.7 15.4-55.7 16.5-73.4 0.2-4.5 0.4-8.4 0.4-11.8q-0.1-5.1-0.3-8.7-0.1-3.3-0.2-5.3z"/><path class="q" d="m3160 2521.7c-14.3 0.7-25.3 13-24.6 27.4 0.7 14.4 12.8 25.5 27.2 24.8 14.3-0.7 25.3-13 24.6-27.4-0.6-14.4-12.8-25.5-27.2-24.8z"/><path class="N" d="m3114.9 2236.8c-31.9-16.2-71.3-21.7-106.6-16.4-14.7 2.2-29.8 6.6-40.1 17.3-10.7 10.9-14.8 27.1-14.4 42.4 0.5 15.4 5.1 30.3 9.6 45 14.9-1.1 18.4-1.4 33.4-2.5-9.3-10.6-14.8-19.3-19.3-39.6-3-13.8-1.5-24.8 11.4-34.9 6.3-4.9 17.2-8.4 25-10 33.9-7.2 65 0.1 94.8 17.9 29.8 17.8 49.8 46.2 59.7 79.6l19.4-22.5c-16.7-31.7-41-60.1-72.9-76.3z"/><path class="O" d="m2861.2 822.5c-54.2-0.1-57.1-32.8-88.7-43.6-47-16.2-68.8 9.6-76.6 27.8-7.8 18.1-45 17.6-61.6 26.4-20.8 11.1-27.3 46.4-3.2 67.8 24.1 21.4 24.6 11.3 16.5 49.4-12.4 58.3 74 67.2 74 67.2l167.7-26.8c1.4 10.1 29.4-40.2 40.8-71 16.4-44-7.8-97-68.9-97.2z"/><path class="O" d="m2896.7 830.2c0.7 1.1-0.4 0.7-0.4 0.7 0 0 26.7 31.4 13.6 87.7-13.2 56.2-55.8 32-71.7 21.4l-4.2 49.6c0 0 1.6 4.3 4.4 9.2l63.3 1.2c1.3 10 20.2-39.3 31.7-70.1 16.3-43.8-5-82.4-36.7-99.7z"/><path class="A" d="m2747.2 1161.9c0 0 2.6 32.4 44.9 37.9 35.6 4.6 68.7-32 68.7-32l7.5-142.5-114.5 9.3z"/><path class="P" d="m2747.1 1162.5l84.3-65.9-82.4 29.4z"/><path class="A" d="m2671.3 1070.8c-0.4 7.3 2.8 14.4 8.6 19l43.8 34.2c6.1 4.8 14.3 6.1 21.6 3.5l86.4-30.8c8.6-3 14.6-11 15.1-20.2l11.5-181.6-180.7-15.3z"/><path class="P" d="m2675.6 988.1l-3.4 65.6c18.2 1 33.7-12.9 34.6-31.1 1-18.1-13-33.6-31.2-34.5z"/><path class="Q" d="m2741.1 1021.9l-22.6-1.2 10.7-68.1c0.2-1.4-0.8-2.7-2.1-2.9-1.4-0.2-2.7 0.8-2.9 2.1l-11.1 70.9c-0.1 0.7 0.1 1.4 0.5 2 0.5 0.5 1.1 0.9 1.8 0.9l25.4 1.3q0.1 0 0.2 0c1.3 0 2.4-1 2.5-2.4 0.1-1.4-1-2.5-2.4-2.6z"/><path  d="m2773.4 937c-0.3 9.5 31.1 17.4 33.2 8.8 3.4-14.4-32.7-24-33.2-8.8z"/><path class="P" d="m2804.7 992.6c-18.2-0.9-33.7 13-34.6 31.1-1 18.2 13 33.6 31.2 34.6 18.2 0.9 33.7-13 34.7-31.2 0.9-18.1-13.1-33.6-31.3-34.5z"/><path  d="m2771.5 965.1c-3.9-0.1-7.2 5.2-7.4 11.8-0.2 6.6 2.8 12.1 6.7 12.2 3.8 0.1 7.1-5.2 7.3-11.8 0.2-6.6-2.8-12.1-6.6-12.2z"/><path  d="m2700.3 961.4c-3.9-0.1-7.2 5.2-7.4 11.8-0.2 6.6 2.8 12.1 6.7 12.2 3.9 0.1 7.2-5.2 7.4-11.8 0.1-6.6-2.8-12.1-6.7-12.2z"/><path class="Q" d="m2754.6 1059.6c-0.6 0.5-16.3 12.9-34.9-1-1.2-0.8-2.8-0.6-3.6 0.5-0.8 1.2-0.6 2.7 0.5 3.6 7.6 5.6 14.8 7.5 21.1 7.5 11.8 0 20-6.6 20.1-6.7 1.1-0.9 1.3-2.5 0.4-3.6-0.9-1-2.5-1.2-3.6-0.3z"/><path class="A" d="m2881.9 983.8c-23.1-1.2-42.7 16.4-43.9 39.4-1.2 22.9 16.5 42.5 39.5 43.7 23.1 1.2 42.7-16.5 43.9-39.4 1.2-22.9-16.5-42.5-39.5-43.7z"/><path class="Q" d="m2891.1 1001.4c-10.9 0.9-31.1 8.2-29.4 29.3 0.6 7.2 2.5 13.1 5.8 17.8 0.5 0.7 1.3 1.1 2.1 1.1 0.5 0 1-0.2 1.4-0.5 1.2-0.8 1.4-2.4 0.6-3.5-2.7-3.9-4.4-9-4.9-15.3-1.7-21.3 23.7-23.8 24.8-23.9 1.4-0.1 2.4-1.3 2.3-2.7-0.1-1.4-1.3-2.4-2.7-2.3z"/><path class="Q" d="m2889 1024c-5.2-3.8-17.5-7.6-26.8 5-0.9 1.2-0.6 2.7 0.5 3.6 0.5 0.3 1 0.4 1.5 0.4 0.8 0 1.6-0.3 2.1-1 8.4-11.5 18.6-4.7 19.7-3.9 1.2 0.8 2.7 0.6 3.6-0.6 0.8-1.1 0.5-2.7-0.6-3.5z"/><path class="O" d="m2779.1 823c-49.2 6.5-125.4 45.1-123.5 90.4 1 24.3 58.8 15.2 72.6-2.4 13.8-17.6 36.8-28.2 54.8-15.7 24.6 17.2 48 11.8 56.9 20.9 8.9 9-4 81.4 10.9 78.3 14.9-3 11.4-30.5 21.4-42.4 10-11.9 28.3-12.1 28.3-12.1 0 0 16.6-22.8-1.7-70.5-18.3-47.7-70.6-53.1-119.7-46.5z"/><path  d="m2676.9 939.7c4 7.8 32.8 0.3 30.6-7.6-3.6-13.1-37-4.9-30.6 7.6z"/><path  d="m2695.9 806.7c-7.8 18.1-45 17.6-61.6 26.4-20.8 11.1-27.3 46.4-3.2 67.8 24.1 21.4 24.6 11.3 16.5 49.4-1.3 6.1-1.5 11.6-0.8 16.7 8.3-8.1 13.3-20.5 15.5-24.6 3.6-6.5 16.8-40.4 0.7-43.3-16.1-2.9-30.7-22.9-27.2-38 3.6-15.2 22.8-20.4 46-21.8 23.2-1.3 25.9-20.6 25.9-20.6 26.4-49.7 84.3-28.3 84.3-28.3q0.1 0 0.1-0.1c-5.6-4.6-11.7-8.7-19.6-11.4-47-16.2-68.8 9.6-76.6 27.8z"/><path class="O" d="m2871.8 930.4c-1.3 0.4-14.1 12.3-14.3 13.4-0.2 1.1-20.6 51.4-0.9 46 19.6-5.3 43.9-49.8 43.9-49.8l-3-15.4c0 0-24.5 5.4-25.7 5.8z"/><path class="A" d="m2675.1 1543.1c-11.1-4-24-8.2-39-12.6-13.8-4.1-36.8-14.7-48.5-15.2-17.3-0.9-90.6 6.5-89.2 24.4 0.8 10.3 26.4 8.2 44.8 5.3-18.5 4.2-43.5 12.4-40.2 24.6 2.1 8.1 15.3 8.2 29.9 5.7-10 4.7-17 10.5-13.9 17.5 3.3 7.4 21.5 5.7 38.5 2.4-12 4.2-22.3 9.9-19.6 16.8 6.5 16.6 47.8-16 84.4 1 27.7 12.9 46.4 15.5 60.3 14.8 10.2-0.5 16.8-2.3 23.5-3.4 3.2-23.3 7.2-46.7-0.3-70.3-7.8-3.7-19.6-7-30.7-11z"/><path class="R" d="m2588.3 1587.4c0 0-16.6 2.8-30.8 7.8 16-3.2 30.8-7.8 30.8-7.8z"/><path class="R" d="m2561.8 1541.5c-0.8 0.1-8.8 1.2-18.6 3.5 9.9-1.6 17.8-3.4 18.6-3.5z"/><path class="R" d="m2576.1 1563.2c0 0-26 4.2-43.2 12.1 20.3-3.5 43.2-12.1 43.2-12.1z"/><path class="P" d="m2583.8 1536.9c-7.6 0.8-15.2 1.5-22.7 3-7.5 1.4-14.9 3.2-22.2 5.3-17.8 5.3-28.2 11.4-27.5 11.1 16.1-7.3 42.7-12.9 50.2-14.4 7.4-1.4 14.8-3.3 22.2-4.7 0.2 0 0.1-0.3 0-0.3z"/><path class="P" d="m2589.5 1563.8c-10.5-1.1-40.1 4.2-56.4 11.3-0.7 0.3-0.4 0.5 0.3 0.3 9.5-2.1 46.7-9.7 56.1-11.3 0.2-0.1 0.1-0.2 0-0.3z"/><path class="P" d="m2598.6 1586.1c-13.6 0-28.4 3.7-43.5 10-0.7 0.2-0.2 0.6 0.5 0.4 14.4-3.6 25.7-6.5 43-9.9 0.3-0.1 0.3-0.5 0-0.5z"/><path class="P" d="m2675.1 1543.1c0 0 28.8 56.4 15.2 83.9l-0.4 0.2c10.1-0.5 10.4-2 17.1-3.2 3.2-23.3 5.7-46.8-1.2-69.9-7.8-3.7-19.6-7-30.7-11z"/><path class="A" d="m2604.3 1492.7c-5.3-10.7-17.2-12.7-18.8 2.3-1.7 15.1 2.1 20.3 2.1 20.3 10.5 0.5 56.1 20.6 78.5 24.7-0.6-0.7-56-35.5-61.8-47.3z"/><path class="A" d="m2373.5 2527.2l7.8-34.2-100.3-19.7z"/><path class="A" d="m2114.1 2504.2l8.9-35.9-99.2-8.3z"/><path class="e" d="m1279.7 1817.3c-6.5-14.2-10.7-31.1-4-45.2 2.3-4.6 5.5-8.6 8.3-12.9 3.8-5.8 6.8-12.2 8.6-18.9q-1.6 0.5-3.6 0.5c-5.5 0-10-3.4-10-7.6 0-4.1 4.5-7.5 10-7.5 2.2 0 4.2 0.5 5.9 1.4q0.1-1.5 0.1-2.9c0-12.5-8.1-22.6-8.3-34.4-0.2-12.1 3.2-23.6-3.9-34.7-6.7-10.3-20.8-14.5-32.7-11.3-29 7.8-37.2 44.8-37.5 70.6-0.1 7.2 0.4 14.4-1.3 21.4-1.5 5.7-4.4 10.9-7.3 16-1.4 2.3-2.7 4.7-3.9 7-12.5 24-12.2 52-8.9 78.2 1.6 12.9 2.6 25 7.8 37.2 5.2 12.3 12.5 23.7 20.7 34.2 3 3.8 33.5 35.1 30.7 37.8 12.1-11.7 28.2-23.2 36.3-37.9 8.2-15 14-30.3 10.9-47.8-2.6-15.4-11.4-28.9-17.9-43.2z"/><g style="opacity:.2;mix-blend-mode:multiply"><path class="f" d="m1250.1 1643.8c-29 7.8-37.2 44.8-37.5 70.6-0.1 7.2 0.4 14.4-1.3 21.4-1.5 5.7-4.4 10.9-7.3 16-1.4 2.3-2.7 4.7-3.9 7-12.5 24-12.2 52-8.9 78.2 1.6 12.9 2.6 25 7.8 37.2 5.2 12.3 12.5 23.7 20.7 34.2 3 3.8 33.5 35.1 30.7 37.8 3.1-2.9 6.4-5.8 9.7-8.8-7.6-16.1-16.6-31.7-23.8-48-16.9-38.3-14.3-75.6 3.3-113 5.6-12.1 12.1-24.4 12.5-37.7 0.4-11.2-3.5-22-4.2-33.2-1.4-21.7 9.3-42.2 19.9-61.3-5.7-1.8-12-2-17.7-0.4z"/></g><path class="c" d="m1245.5 1757.9c1.7-28 4.8-56.1 11.5-83.4 0.6-2.6-3.3-3.7-3.9-1.1-6.5 26.4-9.8 53.7-11.5 80.7-1.7 27.6 1.8 52.1 9.7 78.5 4.2 13.9 8.5 28.2 8.9 42.8 0.4 14.4-1.4 28.5-4.5 42.5-5.4 24-12.9 47.6-15.7 72.1-0.3 2.6 3.8 2.6 4.1 0 3.2-27.8 13.1-54.2 17.6-81.7 4-24.1 2.6-46.3-4.3-69.7-8-27-13.7-52.2-11.9-80.7z"/><path class="c" d="m1194 1857q0.3 1.6 0.6 3.1c20.8 16.6 42.5 32 65 46.1-0.2 0.7 0.6 1.7 1.5 1.2q0.2-0.1 0.4-0.3c0.3 0 0.6-0.2 0.8-0.5q17.8-10.6 34.5-22.9 0.3-1.5 0.6-3-17.4 13-36.1 24.1c-23.4-14.6-45.8-30.5-67.3-47.8z"/><path class="c" d="m1262 1861.8c-1 0.8 0 2.6 1 1.8q14.5-10.6 28.9-21.2-0.4-0.9-0.9-1.9-14.5 10.7-29 21.3z"/><path class="c" d="m1189.4 1813.8q0 1.2 0 2.4c24.4 14.3 48 29.9 70.6 46.8 1.1 0.7 2.1-1 1.1-1.8-23.1-17.1-47-32.9-71.7-47.4z"/><path class="c" d="m1249.6 1818.9c0.1-0.3 0-0.7-0.4-1-18.6-13.7-37.3-27.1-56.3-40.2q-0.2 1-0.5 2.1c18.8 13 37.4 26.3 55.8 39.9 0.3 0.2 0.7 0.2 0.9 0 0 0.8 0.7 1.6 1.5 1q11.9-8.9 23.8-17.9-0.3-1.1-0.6-2.1-12.1 9.1-24.2 18.2z"/><path class="c" d="m1243.9 1777.1q-17.7-16.6-36-32.6-0.4 1-0.9 1.9 18 15.8 35.5 32.2 0 0 0.1 0.1c0.2 0.5 0.8 1 1.5 0.6 15-7.5 29.4-16.1 43.1-25.7q1-1.8 1.9-3.7c-14.4 10.1-29.5 19.3-45.2 27.2q0 0 0 0z"/><path class="c" d="m1246.6 1731.6q-16.5-16.4-32.9-32.7-0.2 1.3-0.3 2.6 15.6 15.5 31.3 31.1c-0.5 0.7 0.4 1.9 1.4 1.4q0 0 0.1 0c0.6 0.5 1.5 0 1.6-0.7q22.7-9.9 45.4-19.9-0.3-0.9-0.6-1.9-23 10-46 20.1z"/><path class="c" d="m1228.4 1658.7q-0.6 0.8-1.2 1.6 12.1 13.4 23.4 27.6 0 0 0.1 0c0.1 0.5 0.6 0.8 1.1 0.6q17.8-6.6 35.5-13.2 0-1.1 0-2.2-17.7 6.6-35.4 13.2-11.3-14.2-23.5-27.6z"/><path class="e" d="m1417.8 1763.1c-8.9 4.3-12 12.5-16.4 20.4 1.7 1 3.3 2.8 4.3 5.1 2.2 4.8 1.4 9.9-1.9 11.4-3.3 1.5-7.7-1.2-9.9-5.9q-0.2-0.4-0.3-0.8c-5.2 4.6-11.5 8.4-15.3 14.7-5.5 9.1-7.9 19.9-7.5 30.5 0.1 4.4 0.7 8.7 0.3 13.1-1.3 13.3-11.9 23.8-22.9 31.3-11.1 7.5-23.5 13.4-32.3 23.5-9.9 11.4-12.5 25.1-13.1 39.7-0.6 14.4 6 30 9.6 43.9-0.8-3.2 35.4-12.6 39.2-14 10.7-4 21.1-9.1 30.3-15.8 9.2-6.6 15.2-14.9 22.2-23.6 12-15.2 23-32.3 26.8-51.4q-0.6 0-1.2 0c-7.1 0-12.9-3-12.9-6.7 0-3.7 5.8-6.7 12.9-6.7q1.4 0 2.7 0.1 0.1-1.6 0.1-3.2c0.1-5.1 0.3-10.1 1.7-15 1.8-5.8 5.4-10.9 8.6-16.2 11.2-18.9 21.6-49.6 3.9-68.2-7.3-7.6-19.4-10.8-28.9-6.2z"/><path class="c" d="m1428 1788.7c-7.2 22.9-17.4 44.8-28.5 66-11.3 21.6-26.7 37.5-44.5 53.6-15.4 14-26.3 29.6-34 48.9-8.9 22.2-13.4 45.8-23.3 67.6-0.9 2 2 3.9 3 1.8 8.7-19.2 13.7-39.7 20.5-59.7 3.9-11.6 8.8-22.7 15.4-33 6.8-10.5 16.3-19 25.5-27.3 17.5-15.7 30.9-32 41.9-52.9 10.7-20.6 20.4-42 27.4-64.1 0.6-2.1-2.7-3.1-3.4-0.9z"/><path class="c" d="m1307.2 1921.2q-0.5 1.3-0.9 2.5 6.7 16.4 15 32.1c0 0.3 0.1 0.6 0.4 0.7q0.1 0.2 0.2 0.4c0.4 0.7 1.4 0.4 1.6-0.3 22.7-0.2 45.3-1.8 67.8-4.7q1-1 1.9-2c-23.4 3.1-46.9 4.8-70.4 5q-8.7-16.4-15.6-33.7z"/><path class="c" d="m1329.6 1894.7q-0.7 0.6-1.5 1.1 5.9 14.1 11.7 28.2c0.5 1.1 2 0.2 1.6-0.8q-5.9-14.2-11.8-28.5z"/><path class="c" d="m1342.3 1923.2c-1.1 0.1-1.1 1.8 0 1.7 24-2.2 48.1-3.1 72.3-2.7q0.5-0.9 1.1-1.7c-24.5-0.5-49 0.4-73.4 2.7z"/><path class="c" d="m1369.4 1897.4q-4.8-12-9.6-24.1-0.6 0.7-1.3 1.3 4.7 11.8 9.4 23.7c0.3 0.8 1.2 0.5 1.5-0.1 0.1 0.2 0.4 0.4 0.8 0.4q29.1-2.6 58.3-4.3 0.3-0.9 0.6-1.8-29.5 1.7-58.9 4.3c-0.4 0.1-0.7 0.3-0.8 0.6z"/><path class="c" d="m1392.1 1869.4c-7.9-12.8-14.9-26.2-20.9-40q-0.2 1.8-0.3 3.6c5.8 13.1 12.5 25.8 20.1 37.9 0.3 0.6 1 0.5 1.4 0.2q0 0 0.1 0 20.1-4.1 40.2-7.7 0-0.9 0.1-1.8-20.4 3.6-40.7 7.8 0 0 0 0z"/><path class="c" d="m1385.6 1799.8q-0.6 0.6-1.3 1.2 12.2 17.3 24.4 34.7c-0.2 0.5 0.1 1.3 0.9 1.2q0 0 0 0.1c0.5 0.7 1.7 0.3 1.7-0.5q18.3-4.4 36.6-8.7 0.5-1 0.9-2.1-19.2 4.7-38.5 9.3-12.3-17.6-24.7-35.2z"/><path class="c" d="m1426.5 1799.5q-10-12.7-20-25.3-0.5 0.8-1 1.6 10.1 12.7 20.1 25.4c0.3 0.4 0.8 0.3 1.1 0.1q0 0 0.1 0 14.5-5.3 29.2-9.7 0-0.9-0.1-1.8-14.9 4.4-29.4 9.7z"/><path class="c" d="m1372.5 1747.1c-4.7-18.5 7.6-37.9 4.6-56.8-1.3-8-5.1-15.8-11.5-21-7.3-5.9-16.3-2.8-23.7 1.8-12.5 7.7-22.3 19.7-27.2 33.6-4.3 12-5.2 25.5-12.4 36-3.9 5.6-9.3 10-13.3 15.4-11.6 15.5-5.2 31.3-7.8 48.4-1.2 7.4-5.7 12.9-10.6 18.2-7.5 8.2-14.9 16.5-20.1 26.4-3 5.8-4.6 11.7-5.6 17.7-1.2 6.3-1.7 12.8-2.6 19.5-1.8 12.9 0.5 28.1 5.1 40.2 3.1 8.2 8 15.7 12 23.5 4 7.9 7.1 16.6 6.3 25.3 22.5-21.9 64.4-35 80.8-63.8-1.4 0.6-3.1 1-4.8 1-5.3 0-9.6-3.2-9.6-7.2 0-3.9 4.3-7.1 9.6-7.1 3.9 0 7.3 1.8 8.8 4.3q1-2.9 1.7-6c1.2-6 1.4-12.2 1.6-18.3 0.5-12.2-1.7-25 6.1-35 4.6-6 10.5-10.8 15.7-16.2 12.2-12.6 17.1-39.1 9.3-54.9-4-8.4-10.1-15.9-12.4-25z"/><path class="S" d="m1345.6 1706.2c-11.1 24.2-21 48.6-25.5 75-2.4 14.2-4.1 28.6-4.7 43.1-0.6 14.1 0.3 28.3-1.4 42.3-3.6 30-21.6 50.5-35.9 75.9-12.2 21.7-21.6 44.7-26.3 69.3-0.5 2.6 3.5 3.2 4 0.6 5.5-28.8 17.6-55.9 33.4-80.5 13.2-20.5 26.5-39.5 28.8-64.6 2.5-27.3 0.8-54.5 5.5-81.6 4.6-27.4 14.3-52.6 25.8-77.8 1.1-2.4-2.6-4.1-3.7-1.7z"/><path class="S" d="m1243.1 1880.3q-0.2 1.4-0.4 2.7c14 16.9 28.4 33.4 43.2 49.5-0.5 0.7-0.1 1.9 0.9 1.7q0.3-0.1 0.7-0.2c0.4 0.2 0.8 0.1 1.1-0.2q24.2-4.5 48.2-9.6 1.2-1.3 2.4-2.6-25.5 5.4-51.2 10.3c-15.4-16.8-30.4-34.1-44.9-51.6z"/><path class="S" d="m1312 1887.6c-8.7-13-18.1-25.4-28.2-37.3-6.1-7.2-12.6-14.2-18.7-21.4q-0.7 0.7-1.4 1.5c6.1 7.1 12.4 14 18.5 21.1q15.4 18.3 28.7 38.1c0.5 0.7 1.3 0.5 1.7 0 10.4-0.6 20.8-2.9 31.1-4.4q5-0.7 9.9-1.5 0.1-1 0.1-2.1-5.1 0.8-10.2 1.6c-10.4 1.5-21 3.9-31.5 4.4z"/><path class="S" d="m1281.6 1801.1q-0.2 1.5-0.4 3 17.3 24.2 35.5 47.9c-0.1 0.6 0.2 1.1 0.8 1.1q0.1 0.1 0.2 0.2c0.6 0.8 1.7 0.3 1.8-0.5q19.4-3.6 38.7-7.1 0.7-1.2 1.6-2.4-20.7 3.8-41.4 7.6-18.8-24.6-36.8-49.8z"/><path class="S" d="m1289.4 1755.6q-0.2 0.2-0.4 0.5c-0.3 0.4-0.6 0.8-0.9 1.2q16.4 23.4 30.5 48.2-0.2 0-0.3 0c-1.3 0.3-1.1 2.3 0.2 2.1q34.9-6.5 69.9-11.7 0.1-1 0.1-2.1-34 5.1-67.8 11.3-14.4-25.6-31.3-49.5z"/><path class="S" d="m1327.4 1758.5q-10.6-13.4-20.2-27.5-0.4 1.2-0.9 2.3 9.4 13.7 19.7 26.7 0.1 0.3 0.4 0.5c0.3 0.2 0.8 0.2 1.1 0.1q24-2 47.7-6.1-0.4-1-0.8-2-23.4 4.1-47 6z"/><path class="S" d="m1326.3 1684.6q-0.8 0.9-1.4 1.7 8.4 15.8 16.2 31.9c0.3 0.8 1.3 0.7 1.8 0.2q16.5-3.3 32.9-7.2 0.2-1.1 0.4-2.2-16.8 4-33.8 7.4-7.8-16-16.1-31.8z"/><g style="opacity:.2;mix-blend-mode:multiply"><path  d="m1365.6 1669.3c-7.3-5.9-16.3-2.8-23.7 1.8-12.5 7.7-22.3 19.7-27.2 33.6-4.3 12-5.2 25.5-12.4 36-3.9 5.6-9.3 10-13.3 15.4-11.6 15.5-5.2 31.3-7.8 48.4-1.2 7.4-5.7 12.9-10.6 18.2-7.5 8.2-14.9 16.5-20.1 26.4-3 5.8-4.6 11.7-5.6 17.7-1.2 6.3-1.7 12.8-2.6 19.5-1.8 12.9 0.5 28.1 5.1 40.2 3.1 8.2 8 15.7 12 23.5 4 7.9 7.1 16.6 6.3 25.3q1.4-1.3 2.9-2.7c-5.5-17-6-35.8-2.1-53.4 5.6-25.9 19.8-49.3 37-69.4 13-15.1 28.6-30 31.4-49.8 1.5-10.3-0.7-20.7-1.4-31-0.9-15.1 1.7-30.3 7.5-44.1 6.7-16.1 17.4-29.9 27.4-44 1-1.5 2.2-3.1 3.3-4.7-1.6-2.6-3.7-4.9-6.1-6.9z"/></g><path class="c" d="m1237.1 1904.9c-1-5.6-2.9-11.1-6.3-15.7-4-5.7-9.9-9.8-14.9-14.7-17.8-17.5-23.7-43.9-24-68.9-0.1-11.2 0.6-22.6-2.8-33.3-3.4-10.6-10.7-19.3-18.2-27.6q0 0 0 0.1c0.7 6.6-3.4 12.3-9.2 12.9-5.7 0.6-10.9-4.2-11.5-10.8-0.7-6.5 3.4-12.2 9.1-12.8q1-0.1 1.9 0-5.1-5.6-10.3-11c-3.5-3.6-7.2-7.3-12-8.8-4.2-1.4-8.8-0.9-13 0.4-8.8 2.5-16.8 8.4-20.9 16.5-14.5 28.9 14.3 60.5 8.8 90.2-1.9 10.2-7.6 19.6-8.6 29.9-1.4 13.7 7.1 28.1 17 36.8 4.8 4.2 10.1 8.1 13.3 13.5 3.2 5.4 4.2 11.8 5.5 18 0.8 3.5 1.8 7.6 3 11.8 1.6-0.5 3.3-0.9 5.2-1.1 7.3-0.8 13.7 1.9 14.1 5.9 0.4 4-5.3 7.8-12.7 8.6q-0.8 0-1.5 0.1 0.6 1.2 1.2 2.4c1.8 3.2 3.9 6 6.4 8.1 7.2 6.2 17.4 12.2 26.8 14.3 7 1.6 14.2 1.7 20.9 4 2.9 0.9 5.9 2 8.8 2.7 2.3 0.6 10.8 0.5 12.1 2.9-0.9-1.8-0.3-4 0.6-5.9 3.4-7.2 6.6-14.8 10-22.2 4.7-10 6.4-21.4 4.9-32.4-0.7-4.8-2.7-9.1-3.7-13.9z"/><path class="S" d="m1196.3 1923.9c-4.8-10.8-10.5-21-15.8-31.5-11.4-22.8-22-46.3-30.6-70.2-8.1-22.7-10.7-45.8-14.3-69.5-0.4-2.3-3.9-1.3-3.6 1 3.7 23.7 6 46.9 14.4 69.5 8.2 22 17.4 43.7 27.8 64.7 5.7 11.7 12.3 22.9 17.6 34.8 4.7 10.6 11.3 19.8 17.2 29.7 12.2 20.6 21.6 42.6 21.9 66.9 0 2.3 3.7 2.3 3.7-0.1-0.3-22.3-8-43.6-19-62.8-6.3-10.9-14.1-21.1-19.3-32.5z"/><path class="S" d="m1153.9 1837q-20-7.9-40-16.2 0 0.3-0.1 0.6c-0.1 0.4-0.2 0.8-0.3 1.3q19.6 8 39.3 15.8c0.1 0.7 1 1.3 1.6 0.7 12.6-13.4 25.1-27 37.5-40.6q0-1.4 0-2.7c-12.6 13.8-25.2 27.5-38 41.1z"/><path class="S" d="m1142.2 1802.5q-16.2-7.3-32.5-14.7 0.4 1.2 0.7 2.3 15.5 7 30.9 14c1.1 0.5 2-1.1 0.9-1.6z"/><path class="S" d="m1143.3 1800.5c-0.7 0.9 0.6 2.2 1.3 1.2q17.7-22.7 36.8-44.1-0.5-0.8-1.1-1.6-19.2 21.6-37 44.5z"/><path class="S" d="m1194.2 1830.2q-15.7 16.3-30.5 33.5c-0.1 0.2-0.2 0.5-0.2 0.7-7.9-0.7-15.4-3.9-23-6.2-7.5-2.4-15.2-4.6-22.8-6.7q-6-1.6-12.1-3.1-0.1 1-0.2 1.9 6.7 1.6 13.5 3.4c8.2 2.3 16.3 4.7 24.4 7.3 7 2.2 13.9 4.9 21.3 5.4 0.9 0 1.1-1 0.6-1.5q14.2-16.7 29.5-32.5-0.3-1.1-0.5-2.2z"/><path class="S" d="m1179.9 1893.5c-0.8 1 0.6 2.2 1.3 1.3q12.7-15.9 25.4-31.8-0.5-0.8-1-1.6-12.9 16.1-25.7 32.1z"/><path class="S" d="m1179.2 1894.6c-20.3-4.6-40.8-8.2-61.3-10.8q0.9 1.1 2 2.1c19.7 2.6 39.4 6 58.8 10.5 1.2 0.2 1.6-1.6 0.5-1.8z"/><path class="S" d="m1196.9 1928.9c-0.4 0.5-0.2 1.2 0.3 1.4q-0.2-0.1-0.4-0.1-27.9-6.5-56.1-12 0.2 0.7 0.3 1.4 0.1 0.3 0.1 0.5 27.8 5.5 55.3 11.9c1 0.2 1.5-1.1 0.8-1.6 0.3 0.1 0.7 0.1 1-0.2q16.1-20.9 31.7-42.2-0.6-0.7-1.2-1.5-15.6 21.4-31.8 42.4z"/><path class="S" d="m1162.9 1955.1q-3.8-0.5-7.6-1.1 0.7 0.8 1.4 1.4 0.5 0.4 1 0.8 2.3 0.3 4.7 0.7 27.1 3.7 54.2 7.4c0.3 0.5 1.1 0.6 1.5 0q11.6-17.6 23.1-35.2 0.1-1.7 0.1-3.4-12.1 18.4-24.3 36.9-27-3.8-54.1-7.5z"/><g style="opacity:.2;mix-blend-mode:multiply"><path  d="m1175.6 1911.7c-5.5-19.4 1.9-40.4-1.8-60.2-5.2-27.9-30.7-47.4-41.4-73.7-8.2-20.2-7-42.7-1.6-64.1-1.7 0.2-3.4 0.5-4.9 1-8.8 2.5-16.8 8.4-20.9 16.5-14.5 28.9 14.3 60.5 8.8 90.2-1.9 10.2-7.6 19.6-8.6 29.9-1.4 13.7 7.1 28.1 17 36.8 4.8 4.2 10.1 8.1 13.3 13.5 3.2 5.4 4.2 11.8 5.5 18 0.8 3.5 1.8 7.6 3 11.8 1.6-0.5 3.3-0.9 5.2-1.1 7.3-0.8 13.7 1.9 14.1 5.9 0.4 4-5.3 7.8-12.7 8.6q-0.8 0-1.5 0.1 0.6 1.2 1.2 2.4c1.8 3.2 3.9 6 6.4 8.1 7.2 6.2 17.4 12.2 26.8 14.3 7 1.6 14.2 1.7 20.9 4 2.9 0.9 5.9 2 8.8 2.7 1.7 0.4 6.9 0.5 10 1.5q-13.7-16.6-27.4-33.2c-8.2-10-16.7-20.4-20.2-33z"/></g><g style="opacity:.2;mix-blend-mode:multiply"><path class="f" d="m1433.6 1761.7c-0.8 18.7-2 38.4-12.7 53.7-5.4 7.8-13.1 14-17.8 22.3-5.5 9.9-6.3 21.8-7.5 33.1-3.7 35.2-18.4 63.5-47.6 84-12.5 8.7-26 16.1-38.7 24.4 1.1 3.7 2.2 7.3 3.1 10.8-0.8-3.2 35.4-12.6 39.2-14 10.7-4 21.1-9.1 30.3-15.8 9.2-6.6 15.2-14.9 22.2-23.6 12-15.2 23-32.4 26.9-51.6q-1.4 0.3-2.8 0.3c-6.3 0-11.4-3.1-11.4-6.8 0-3.8 5.1-6.8 11.4-6.8q2.2 0 4.2 0.5 0.1-1.8 0.1-3.5c0.1-5.1 0.3-10.1 1.7-15 1.8-5.8 5.4-10.9 8.6-16.2 11.2-18.9 21.6-49.6 3.9-68.2-3.6-3.7-8.2-6.3-13.1-7.6z"/></g><path class="L" d="m1302.4 1967.7h-82.6-55.7c-0.5 11.2-2 66.9 14.5 116.8 14.3 43.5 27.8 60.6 37.7 68.5 2.8 2.2 6.1 3.4 9.6 3.5h0.4 69.6 0.4c3.5-0.1 6.8-1.3 9.5-3.5 9.9-7.9 23.5-25 37.8-68.5 16.5-49.9 15-105.6 14.5-116.8z"/><g style="opacity:.2"><path class="p" d="m1164.2 1999.3c61.8 22.1 123.2 45.2 183.7 70.8 2.5-9.7 4.4-19.5 5.9-28.9-62.4-26.2-125.9-50-189.7-72.7-0.2 5-0.5 16.1 0.1 30.8z"/><path class="p" d="m1168.4 2041.5c56.3 20.2 112.3 41.3 167.5 64.2q2.2-5.5 4.5-11.8c-57.3-23.8-115.4-45.7-173.9-66.5q0.8 6.9 1.9 14.1z"/><path class="p" d="m1178.6 2084.5c2 6.1 4 11.7 5.9 16.8 41.8 15.5 83.4 31.7 124.5 49 5.1-4.8 11-12.2 17.4-24-50.5-21.4-101.6-41.1-153-60 1.5 6.1 3.2 12.2 5.2 18.2z"/></g><g style="opacity:.4"><path class="E" d="m1205.5 1967.7h-41.4c-0.5 11.2-2 66.9 14.5 116.8 14.3 43.5 27.8 60.6 37.7 68.5 2.8 2.2 6.1 3.4 9.6 3.5h0.4 23.4c-16.1-25.8-27.7-54.5-34.9-84.1-8.2-34.2-10.8-69.5-9.3-104.7z"/></g><path class="E" d="m1363.8 1961.5h-203.5c-1.8 0-3.2 1.4-3.2 3.2v20.6c0 1.7 1.4 3.1 3.2 3.1h203.5c1.7 0 3.1-1.4 3.1-3.1v-20.6c0-1.8-1.4-3.2-3.1-3.2z"/><path class="D" d="m2137 2146h-981.7c-22.3 0-40.4 18.1-40.4 40.5v0.3c0 22.3 18.1 40.4 40.4 40.4h981.7c22.3 0 40.4-18.1 40.4-40.4v-0.3c0-22.4-18.1-40.5-40.4-40.5z"/><path class="D" d="m1940.6 2229.4l165.2 507h24.8l-94.3-508.7z"/><path class="T" d="m1939.8 2227l12.6 40.7 86.1-28.5-1.5-12.2z"/><path class="D" d="m1149.9 2741.5h32.4l160.6-510.4-105-3.4z"/><path class="T" d="m1227.1 2295.3l105-28.7 11.6-39.8-105.8 0.9z"/><path class="U" d="m1931.6 2067.5h-287.4v76.8h287.4c15 0 27.3-12.3 27.3-27.3v-22.2c0-15-12.3-27.3-27.3-27.3z"/><path class="p" d="m1915.5 2079.3h-271.3v50.2h271.3c14.1 0 25.7-8 25.7-17.8v-14.5c0-9.9-11.6-17.9-25.7-17.9z"/><path class="r" d="m1870.6 2112.1v79.5l11.8-23.7 14.7 23.7-2.5-79.5z"/><path class="V" d="m1940.1 1989.3h-287.4v76.8h287.4c14.9 0 27.2-12.3 27.2-27.4v-22.1c0-15-12.3-27.3-27.2-27.3z"/><path class="p" d="m1923.9 2001.1h-271.2v50.2h271.2c14.2 0 25.7-8 25.7-17.9v-14.4c0-9.9-11.5-17.9-25.7-17.9z"/><path class="W" d="m1879 2033.8v79.5l11.8-23.6 14.7 23.6-2.5-79.5z"/><path fill-rule="evenodd" class="X" d="m1620.1 2057.6c0 27.9-22.5 50.5-50.3 50.5-27.8 0-50.3-22.6-50.3-50.5 0-27.9 22.5-50.5 50.3-50.5 27.8 0 50.3 22.6 50.3 50.5zm-18.3 0c0-17.7-14.3-32.1-32-32.1-17.7 0-32 14.4-32 32.1 0 17.8 14.3 32.2 32 32.2 17.7 0 32-14.4 32-32.2z"/><path class="X" d="m1434.6 1992.7c0 0-12.4 112.8 26.8 153.5l82.9-1.3c0 0 35.3-47.9 21.6-152.2z"/><path class="K" d="m2573.3 1515.5l10.1-14.8 15-139.4-40.4 154.9z"/><path class="e" d="m3504.1 899.5c-0.7 0-0.7 1 0 1 0.6 0 0.6-1 0-1z"/></svg>