<svg version="1.2" xmlns="http://www.w3.org/2000/svg" viewBox="0 0 4680 3120" width="720" height="480"><defs><linearGradient id="P" gradientUnits="userSpaceOnUse"/><linearGradient id="g1" x1="3419.5" y1="2084.3" x2="3419.5" y2="2084.3" href="#P"><stop stop-color="#419786"/><stop offset="1" stop-color="#419786"/></linearGradient></defs><style>.a{opacity:0;fill:#fff}.b{fill:#f5f5f7}.c{fill:#9a9a9a}.d{opacity:.5;fill:#9bb0c4}.e{fill:#b9d2ea}.f{fill:#5291ce}.g{fill:#e6f1ff}.h{fill:#2e4ea4}.i{fill:#5eabea}.j{fill:#fff}.k{opacity:.7;mix-blend-mode:screen;fill:#4d4d4d}.l{fill:#b2b2b2}.m{fill:#a2bcdb}.n{fill:#afc0d8}.o{fill:#facc88}.p{fill:#f4a471}.q{fill:#fafafa}.r{fill:#ededed}.s{fill:#446ea0}.t{fill:#5d8ec9}.u{opacity:.4;fill:#e9e9e9}.v{fill:#6c97c1}.w{fill:#e9e9e9}.x{opacity:.7;fill:#e9e9e9}.y{opacity:.2;fill:#e9e9e9}.z{fill:#6fc183}.A{fill:#419786}.B{fill:url(#g1)}.C{fill:#33776a}.D{fill:#7e7e7e}.E{fill:#35776a}.F{fill:#a5a5a5}.G{fill:#f6f6f6}.H{fill:#7a8db0}.I{fill:#1d2f59}.J{fill:#5aa86a}.K{fill:#385d82}.L{fill:#f4aea2}.M{fill:#f18a8b}.N{fill:#020202}.O{fill:#d1696e}.P{fill:#393939}.Q{opacity:.2;fill:#020202}</style><path class="a" d="m4679.9 3119.6h-4680v-3120h4680z"/><path class="b" d="m2878.4 708.7c-69.3 0-137.1 5.7-202.9 16.6-206.1-284.1-521.1-465.7-874.2-465.7-620.9 0-1124.2 561.6-1124.2 1254.4 0 584.6 358.3 1075.7 843.3 1214.9 115 42.7 409.1 129 852.2 101.5 545.5-33.9 865.2-104.1 950.5-168 399.7-156.1 679.5-516.2 679.5-935.5 0-562.3-503.3-1018.2-1124.2-1018.2z"/><g style="opacity:.2"><path class="c" d="m1213.4 828c-1 0-96.6-5-138.1-57.9-0.6-0.8-1.4-1.3-2.3-1.3-0.9-0.1-1.8 0.2-2.5 0.8-0.8 0.6-77.4 65.7-137.2 65.7-1.7 0-3.2 1.3-3.4 3-0.6 5.7-14.5 140 22 168.3 9.9 7.8 24.1 17.4 39.2 27.6 35.4 23.9 83.8 56.6 83.8 72.5 0 1.5 1.1 2.9 2.6 3.3q0.4 0.1 0.8 0.1c1.2 0 2.4-0.7 3-1.8 0.1-0.4 20.4-36.7 113-89.3 48.6-27.6 23.4-181.6 22.2-188.2-0.2-1.5-1.6-2.7-3.1-2.8z"/></g><path class="d" d="m1252.3 1179.9l-349.8 0.3c-2.7 0-16.6 4.5-16.4 15.5l-0.2 668.1c0 2.6 3.1 14.1 11.1 15.1l355.3-0.2c16.4 0 29.7-13.4 29.7-29.8v-639.3c0-16.3-13.3-29.7-29.7-29.7z"/><path class="d" d="m3295.9 755.5h-1807.7c-29.8 0-53.9 24.3-53.9 54.1v1366.4c0 29.8 24.1 54 53.9 54h1807.7c29.8 0 53.9-24.2 53.9-54v-1366.4c0-29.8-24.1-54.1-53.9-54.1z"/><path class="e" d="m3815.8 1473.7h-339.9c-17.1 0-30.9 13.8-30.9 30.9v312.7c0 17.1 13.8 30.9 30.9 30.9h339.9c17 0 30.9-13.8 30.9-30.9v-312.7c0-17.1-13.9-30.9-30.9-30.9z"/><path class="f" d="m3260.2 715.4h-1807.7c-29.8 0-53.9 24.3-53.9 54.1v1366.4c0 29.8 24.1 54 53.9 54h1807.7c29.8 0 53.9-24.2 53.9-54v-1366.4c0-29.8-24.1-54.1-53.9-54.1z"/><path class="g" d="m1472.6 2115.6h1767.4v-1325.8h-1767.4z"/><path class="h" d="m1272.2 1157.3l-349.9 0.3c-2.7 0-16.6 4.6-16.4 15.5l-0.2 668.1c0 2.7 3.1 14.2 11.1 15.1l355.3-0.1c16.4 0 29.7-13.4 29.7-29.8v-639.3c0-16.4-13.3-29.8-29.6-29.8z"/><path class="i" d="m1276.5 1207.4h-345.5c-2.7 0-4.9 2.2-4.9 4.8v584.8c0 2.6 2.2 4.9 4.9 4.9h345.5c2.6 0 4.8-2.3 4.8-4.9v-584.8c0-2.6-2.2-4.8-4.8-4.8z"/><path class="j" d="m1103.8 1807.9c-11.4 0-20.5 9.2-20.5 20.5 0 11.4 9.1 20.6 20.5 20.6 11.3 0 20.4-9.2 20.4-20.6 0-11.3-9.1-20.5-20.4-20.5z"/><path class="j" d="m1103.8 1168.3c-2.3 0-4.1 1.8-4.1 4 0 2.3 1.8 4 4.1 4 2.2 0 4-1.7 4-4 0-2.2-1.8-4-4-4z"/><path class="j" d="m1152.1 1188.8h-96.7c-0.7 0-1.2 0.5-1.2 1.2 0 0.6 0.5 1.2 1.2 1.2h96.7c0.7 0 1.2-0.6 1.2-1.2 0-0.7-0.5-1.2-1.2-1.2z"/><path class="k" d="m1276.5 1207.4h-345.5c-2.7 0-4.9 2.2-4.9 4.8v105.2l355.2 458v-563.2c0-2.6-2.2-4.8-4.8-4.8z"/><path class="l" d="m1833.9 1835.8h324.3v-27.9h-324.3z"/><path class="l" d="m1833.9 1882.1h276.1v-22.5h-276.1z"/><path class="l" d="m1833.9 1933.9h187.6v-24.8h-187.6z"/><path class="l" d="m1833.9 1986.8h276.1v-33.8h-276.1z"/><path class="l" d="m1833.9 2028.5h145.9v-28.1h-145.9z"/><path class="l" d="m1833.9 2070.1h281.7v-27.3h-281.7z"/><path class="m" d="m2512.8 2089.3h83.1v-668.4h-83.1z"/><path class="m" d="m2617.2 2089.3h18.2l-0.3-449.6h65.2v-218.7h-83.1z"/><path class="n" d="m2640.7 1628.8l-0.1 10.9h75l-0.2-10.9z"/><path class="m" d="m2922.4 1705.3h262.6v-25.6h-262.6z"/><path class="m" d="m2922.4 1751.5h262.6v-25.5h-262.6z"/><path class="m" d="m2922.4 1797.8h262.6v-25.5h-262.6z"/><path class="m" d="m2922.4 1844.1h262.6v-25.6h-262.6z"/><path class="m" d="m2922.4 1890.4h262.6v-25.6h-262.6z"/><path class="m" d="m2922.4 1936.6h262.6v-25.5h-262.6z"/><path class="m" d="m2922.4 1982.9h262.6v-25.6h-262.6z"/><path class="m" d="m2922.4 2029.2h262.6v-25.6h-262.6z"/><path class="m" d="m2922.4 2075.4h262.6v-25.5h-262.6z"/><path class="m" d="m2181.8 1418.4h-703.6c-1.4 0-2.5 1.2-2.5 2.5 0 1.5 1.1 2.6 2.5 2.6h701.1v672.6c0 1.3 1.1 2.5 2.5 2.5 1.4 0 2.5-1.2 2.5-2.5v-675.2c0-1.3-1.1-2.5-2.5-2.5z"/><path class="m" d="m2078.6 1312h-557.7c-1.4 0-2.6 1.1-2.6 2.5 0 1.4 1.2 2.6 2.6 2.6h557.7c1.4 0 2.5-1.2 2.5-2.6 0-1.4-1.1-2.5-2.5-2.5z"/><path class="m" d="m1584.8 1350.3h-63.9c-1.4 0-2.6 1.1-2.6 2.5 0 1.4 1.2 2.5 2.6 2.5h63.9c1.4 0 2.6-1.1 2.6-2.5 0-1.4-1.2-2.5-2.6-2.5z"/><path class="m" d="m1920.4 1388.6h-399.5c-1.4 0-2.6 1.1-2.6 2.5 0 1.4 1.2 2.5 2.6 2.5h399.5c1.4 0 2.5-1.1 2.5-2.5 0-1.4-1.1-2.5-2.5-2.5z"/><path class="m" d="m1686.9 852.5h-159.9c-1.4 0-2.6 1.2-2.6 2.6 0 1.4 1.2 2.5 2.6 2.5h159.9c1.5 0 2.6-1.1 2.6-2.5 0-1.4-1.1-2.6-2.6-2.6z"/><path class="m" d="m1775.8 890.8h-248.8c-1.4 0-2.6 1.2-2.6 2.6 0 1.4 1.2 2.5 2.6 2.5h248.8c1.4 0 2.5-1.1 2.5-2.5 0-1.4-1.1-2.6-2.5-2.6z"/><path class="m" d="m2108.9 929.1h-581.9c-1.4 0-2.6 1.1-2.6 2.6 0 1.3 1.2 2.5 2.6 2.5h581.9c1.4 0 2.5-1.2 2.5-2.5 0-1.5-1.1-2.6-2.5-2.6z"/><path class="m" d="m2025.8 967.4h-498.8c-1.4 0-2.6 1.1-2.6 2.5 0 1.4 1.2 2.6 2.6 2.6h498.8c1.4 0 2.6-1.2 2.6-2.6 0-1.4-1.2-2.5-2.6-2.5z"/><path class="m" d="m1811.5 1005.7h-235.6c-1.4 0-2.5 1.1-2.5 2.5 0 1.4 1.1 2.6 2.5 2.6h235.6c1.4 0 2.5-1.2 2.5-2.6 0-1.4-1.1-2.5-2.5-2.5z"/><path class="m" d="m1663.4 1044h-87.5c-1.4 0-2.5 1.1-2.5 2.5 0 1.4 1.1 2.5 2.5 2.5h87.5c1.4 0 2.5-1.1 2.5-2.5 0-1.4-1.1-2.5-2.5-2.5z"/><path class="m" d="m2015.7 1082.2h-439.8c-1.4 0-2.5 1.2-2.5 2.6 0 1.4 1.1 2.5 2.5 2.5h439.8c1.4 0 2.6-1.1 2.6-2.5 0-1.4-1.2-2.6-2.6-2.6z"/><path class="m" d="m1660.4 1120.5h-84.5c-1.4 0-2.5 1.2-2.5 2.6 0 1.4 1.1 2.5 2.5 2.5h84.5c1.4 0 2.5-1.1 2.5-2.5 0-1.4-1.1-2.6-2.5-2.6z"/><path class="m" d="m1595.3 1158.9h-60.9c-1.4 0-2.6 1.1-2.6 2.5 0 1.4 1.2 2.5 2.6 2.5h60.9c1.4 0 2.5-1.1 2.5-2.5 0-1.4-1.1-2.5-2.5-2.5z"/><path class="m" d="m1559.1 1197.1h-38.2c-1.4 0-2.6 1.2-2.6 2.6 0 1.4 1.2 2.5 2.6 2.5h38.2c1.4 0 2.5-1.1 2.5-2.5 0-1.4-1.1-2.6-2.5-2.6z"/><path class="m" d="m2091.5 1235.4h-570.6c-1.4 0-2.6 1.2-2.6 2.6 0 1.3 1.2 2.5 2.6 2.5h570.6c1.4 0 2.5-1.2 2.5-2.5 0-1.4-1.1-2.6-2.5-2.6z"/><path class="m" d="m1983.3 1273.7h-462.4c-1.4 0-2.6 1.1-2.6 2.5 0 1.5 1.2 2.6 2.6 2.6h462.4c1.4 0 2.5-1.1 2.5-2.6 0-1.4-1.1-2.5-2.5-2.5z"/><path class="j" d="m2786.6 803.5c-1.4 0-2.5 1.1-2.5 2.5v588.7h-631.2v-588.7c0-1.4-1.1-2.5-2.5-2.5-1.4 0-2.5 1.1-2.5 2.5v591.3c0 1.4 1.1 2.5 2.5 2.5h636.2c1.4 0 2.5-1.1 2.5-2.5v-591.3c0-1.4-1.1-2.5-2.5-2.5z"/><path class="j" d="m3226.8 1637.2h-591.7c-1.4 0-2.5 1.1-2.5 2.5v464.2c0 1.4 1.1 2.5 2.5 2.5 1.4 0 2.6-1.1 2.6-2.5v-461.6h589.1c1.3 0 2.5-1.2 2.5-2.6 0-1.4-1.2-2.5-2.5-2.5z"/><path class="m" d="m2320.3 1577.8h-105.5c-1.4 0-2.6 1.1-2.6 2.5 0 1.4 1.2 2.5 2.6 2.5h105.5c1.4 0 2.4-1.1 2.4-2.5 0-1.4-1-2.5-2.4-2.5z"/><path class="m" d="m2336 1432.8h-121.2c-1.4 0-2.6 1.1-2.6 2.5 0 1.4 1.2 2.5 2.6 2.5h121.2c1.3 0 2.5-1.1 2.5-2.5 0-1.4-1.2-2.5-2.5-2.5z"/><path class="j" d="m2359.5 1469h-144.7c-1.4 0-2.6 1.1-2.6 2.6 0 1.3 1.2 2.5 2.6 2.5h144.7c1.4 0 2.5-1.2 2.5-2.5 0-1.5-1.1-2.6-2.5-2.6z"/><path class="j" d="m2444.8 1505.3h-230c-1.4 0-2.6 1.1-2.6 2.5 0 1.4 1.2 2.5 2.6 2.5h230c1.4 0 2.5-1.1 2.5-2.5 0-1.4-1.1-2.5-2.5-2.5z"/><path class="m" d="m2359.5 1541.5h-144.7c-1.4 0-2.6 1.1-2.6 2.5 0 1.4 1.2 2.6 2.6 2.6h144.7c1.4 0 2.5-1.2 2.5-2.6 0-1.4-1.1-2.5-2.5-2.5z"/><path class="j" d="m2459.9 1614.4h-245.1c-1.4 0-2.6 1.1-2.6 2.5 0 1.5 1.2 2.6 2.6 2.6h245.1c1.5 0 2.6-1.1 2.6-2.6 0-1.4-1.1-2.5-2.6-2.5z"/><path class="j" d="m2488.1 1626.2c-1.3 0-2.5 1.1-2.5 2.6v457.6c0 1.4 1.2 2.5 2.5 2.5 1.5 0 2.6-1.1 2.6-2.5v-457.6c0-1.5-1.1-2.6-2.6-2.6z"/><path class="m" d="m2786.6 1701.2h-109.9c-1.5 0-2.6 1.1-2.6 2.5 0 1.4 1.1 2.6 2.6 2.6h109.9c1.4 0 2.5-1.2 2.5-2.6 0-1.4-1.1-2.5-2.5-2.5z"/><path class="n" d="m2754.1 1732.6h-77.4c-1.5 0-2.6 1.1-2.6 2.5 0 1.4 1.1 2.5 2.6 2.5h77.4c1.4 0 2.5-1.1 2.5-2.5 0-1.4-1.1-2.5-2.5-2.5z"/><path class="m" d="m2856.2 1763.9h-179.5c-1.5 0-2.6 1.1-2.6 2.5 0 1.5 1.1 2.6 2.6 2.6h179.5c1.4 0 2.5-1.1 2.5-2.6 0-1.4-1.1-2.5-2.5-2.5z"/><path class="n" d="m2754.1 1795.3h-77.4c-1.5 0-2.6 1.1-2.6 2.5 0 1.4 1.1 2.5 2.6 2.5h77.4c1.4 0 2.5-1.1 2.5-2.5 0-1.4-1.1-2.5-2.5-2.5z"/><path class="m" d="m2877.5 1826.7h-200.8c-1.5 0-2.6 1.1-2.6 2.5 0 1.4 1.1 2.5 2.6 2.5h200.8c1.4 0 2.5-1.1 2.5-2.5 0-1.4-1.1-2.5-2.5-2.5z"/><path class="n" d="m2777.1 1858h-100.4c-1.5 0-2.6 1.1-2.6 2.5 0 1.4 1.1 2.6 2.6 2.6h100.4c1.4 0 2.5-1.2 2.5-2.6 0-1.4-1.1-2.5-2.5-2.5z"/><path class="m" d="m2882 1889.4h-205.3c-1.5 0-2.6 1.1-2.6 2.5 0 1.4 1.1 2.6 2.6 2.6h205.3c1.4 0 2.6-1.2 2.6-2.6 0-1.4-1.2-2.5-2.6-2.5z"/><path class="m" d="m2786.6 1920.7h-109.9c-1.5 0-2.6 1.2-2.6 2.6 0 1.4 1.1 2.5 2.6 2.5h109.9c1.4 0 2.5-1.1 2.5-2.5 0-1.4-1.1-2.6-2.5-2.6z"/><path class="n" d="m2754.1 1952.1h-77.4c-1.5 0-2.6 1.2-2.6 2.6 0 1.3 1.1 2.5 2.6 2.5h77.4c1.4 0 2.5-1.2 2.5-2.5 0-1.4-1.1-2.6-2.5-2.6z"/><path class="m" d="m2846.1 1983.5h-169.4c-1.5 0-2.6 1.1-2.6 2.5 0 1.4 1.1 2.5 2.6 2.5h169.4c1.4 0 2.5-1.1 2.5-2.5 0-1.4-1.1-2.5-2.5-2.5z"/><path class="n" d="m2791.1 2014.9h-114.4c-1.5 0-2.6 1.1-2.6 2.5 0 1.4 1.1 2.5 2.6 2.5h114.4c1.4 0 2.5-1.1 2.5-2.5 0-1.4-1.1-2.5-2.5-2.5z"/><path class="m" d="m2846.2 2046.2h-169.5c-1.5 0-2.6 1.1-2.6 2.5 0 1.5 1.1 2.6 2.6 2.6h169.5c1.3 0 2.4-1.1 2.4-2.6 0-1.4-1.1-2.5-2.4-2.5z"/><path class="n" d="m2859.6 803.5h-43.8c-1.4 0-2.5 1.1-2.5 2.5 0 1.4 1.1 2.5 2.5 2.5h43.8c1.4 0 2.5-1.1 2.5-2.5 0-1.4-1.1-2.5-2.5-2.5z"/><path class="n" d="m2859.6 823.3h-43.8c-1.4 0-2.5 1.1-2.5 2.5 0 1.4 1.1 2.5 2.5 2.5h43.8c1.4 0 2.5-1.1 2.5-2.5 0-1.4-1.1-2.5-2.5-2.5z"/><path class="n" d="m2859.6 843.1h-43.8c-1.4 0-2.5 1.1-2.5 2.5 0 1.4 1.1 2.5 2.5 2.5h43.8c1.4 0 2.5-1.1 2.5-2.5 0-1.4-1.1-2.5-2.5-2.5z"/><path class="n" d="m2859.6 862.8h-43.8c-1.4 0-2.5 1.2-2.5 2.6 0 1.4 1.1 2.5 2.5 2.5h43.8c1.4 0 2.5-1.1 2.5-2.5 0-1.4-1.1-2.6-2.5-2.6z"/><path class="n" d="m2859.6 882.6h-43.8c-1.4 0-2.5 1.1-2.5 2.5 0 1.4 1.1 2.6 2.5 2.6h43.8c1.4 0 2.5-1.2 2.5-2.6 0-1.4-1.1-2.5-2.5-2.5z"/><path class="n" d="m2859.6 902.4h-43.8c-1.4 0-2.5 1.2-2.5 2.5 0 1.4 1.1 2.6 2.5 2.6h43.8c1.4 0 2.5-1.2 2.5-2.6 0-1.3-1.1-2.5-2.5-2.5z"/><path class="n" d="m2859.6 922.2h-43.8c-1.4 0-2.5 1.1-2.5 2.5 0 1.4 1.1 2.5 2.5 2.5h43.8c1.4 0 2.5-1.1 2.5-2.5 0-1.4-1.1-2.5-2.5-2.5z"/><path class="n" d="m2859.6 942h-43.8c-1.4 0-2.5 1.1-2.5 2.5 0 1.4 1.1 2.5 2.5 2.5h43.8c1.4 0 2.5-1.1 2.5-2.5 0-1.4-1.1-2.5-2.5-2.5z"/><path class="n" d="m2859.6 961.8h-43.8c-1.4 0-2.5 1.1-2.5 2.5 0 1.4 1.1 2.5 2.5 2.5h43.8c1.4 0 2.5-1.1 2.5-2.5 0-1.4-1.1-2.5-2.5-2.5z"/><path class="n" d="m2859.6 981.5h-43.8c-1.4 0-2.5 1.2-2.5 2.6 0 1.4 1.1 2.5 2.5 2.5h43.8c1.4 0 2.5-1.1 2.5-2.5 0-1.4-1.1-2.6-2.5-2.6z"/><path class="n" d="m2859.6 1001.3h-43.8c-1.4 0-2.5 1.2-2.5 2.6 0 1.4 1.1 2.5 2.5 2.5h43.8c1.4 0 2.5-1.1 2.5-2.5 0-1.4-1.1-2.6-2.5-2.6z"/><path class="n" d="m2859.6 1021.1h-43.8c-1.4 0-2.5 1.1-2.5 2.5 0 1.4 1.1 2.6 2.5 2.6h43.8c1.4 0 2.5-1.2 2.5-2.6 0-1.4-1.1-2.5-2.5-2.5z"/><path class="n" d="m2859.6 1040.9h-43.8c-1.4 0-2.5 1.1-2.5 2.5 0 1.4 1.1 2.5 2.5 2.5h43.8c1.4 0 2.5-1.1 2.5-2.5 0-1.4-1.1-2.5-2.5-2.5z"/><path class="n" d="m2859.6 1060.7h-43.8c-1.4 0-2.5 1.1-2.5 2.5 0 1.4 1.1 2.5 2.5 2.5h43.8c1.4 0 2.5-1.1 2.5-2.5 0-1.4-1.1-2.5-2.5-2.5z"/><path class="n" d="m2859.6 1080.5h-43.8c-1.4 0-2.5 1.1-2.5 2.5 0 1.4 1.1 2.5 2.5 2.5h43.8c1.4 0 2.5-1.1 2.5-2.5 0-1.4-1.1-2.5-2.5-2.5z"/><path class="n" d="m2859.6 1100.3h-43.8c-1.4 0-2.5 1.1-2.5 2.5 0 1.4 1.1 2.5 2.5 2.5h43.8c1.4 0 2.5-1.1 2.5-2.5 0-1.4-1.1-2.5-2.5-2.5z"/><path class="n" d="m2859.6 1120h-43.8c-1.4 0-2.5 1.2-2.5 2.6 0 1.4 1.1 2.5 2.5 2.5h43.8c1.4 0 2.5-1.1 2.5-2.5 0-1.4-1.1-2.6-2.5-2.6z"/><path class="n" d="m2859.6 1139.8h-43.8c-1.4 0-2.5 1.2-2.5 2.5 0 1.5 1.1 2.6 2.5 2.6h43.8c1.4 0 2.5-1.1 2.5-2.6 0-1.3-1.1-2.5-2.5-2.5z"/><path class="n" d="m3008.2 803.5h-111c-1.5 0-2.5 1.1-2.5 2.5 0 1.4 1 2.5 2.5 2.5h111c1.5 0 2.5-1.1 2.5-2.5 0-1.4-1-2.5-2.5-2.5z"/><path class="n" d="m3008.2 823.3h-111c-1.5 0-2.5 1.1-2.5 2.5 0 1.4 1 2.5 2.5 2.5h111c1.5 0 2.5-1.1 2.5-2.5 0-1.4-1-2.5-2.5-2.5z"/><path class="n" d="m3008.2 843.1h-111c-1.5 0-2.5 1.1-2.5 2.5 0 1.4 1 2.5 2.5 2.5h111c1.5 0 2.5-1.1 2.5-2.5 0-1.4-1-2.5-2.5-2.5z"/><path class="n" d="m3008.2 862.8h-111c-1.5 0-2.5 1.2-2.5 2.6 0 1.4 1 2.5 2.5 2.5h111c1.5 0 2.5-1.1 2.5-2.5 0-1.4-1-2.6-2.5-2.6z"/><path class="n" d="m3008.2 882.6h-111c-1.5 0-2.5 1.1-2.5 2.5 0 1.4 1 2.6 2.5 2.6h111c1.5 0 2.5-1.2 2.5-2.6 0-1.4-1-2.5-2.5-2.5z"/><path class="n" d="m3008.2 902.4h-111c-1.5 0-2.5 1.2-2.5 2.5 0 1.4 1 2.6 2.5 2.6h111c1.5 0 2.5-1.2 2.5-2.6 0-1.3-1-2.5-2.5-2.5z"/><path class="n" d="m3008.2 922.2h-111c-1.5 0-2.5 1.1-2.5 2.5 0 1.4 1 2.5 2.5 2.5h111c1.5 0 2.5-1.1 2.5-2.5 0-1.4-1-2.5-2.5-2.5z"/><path class="n" d="m3008.2 942h-111c-1.5 0-2.5 1.1-2.5 2.5 0 1.4 1 2.5 2.5 2.5h111c1.5 0 2.5-1.1 2.5-2.5 0-1.4-1-2.5-2.5-2.5z"/><path class="n" d="m3008.2 961.8h-111c-1.5 0-2.5 1.1-2.5 2.5 0 1.4 1 2.5 2.5 2.5h111c1.5 0 2.5-1.1 2.5-2.5 0-1.4-1-2.5-2.5-2.5z"/><path class="n" d="m3008.2 981.5h-111c-1.5 0-2.5 1.2-2.5 2.6 0 1.4 1 2.5 2.5 2.5h111c1.5 0 2.5-1.1 2.5-2.5 0-1.4-1-2.6-2.5-2.6z"/><path class="n" d="m3008.2 1001.3h-111c-1.5 0-2.5 1.2-2.5 2.6 0 1.4 1 2.5 2.5 2.5h111c1.5 0 2.5-1.1 2.5-2.5 0-1.4-1-2.6-2.5-2.6z"/><path class="n" d="m3008.2 1021.1h-111c-1.5 0-2.5 1.1-2.5 2.5 0 1.4 1 2.6 2.5 2.6h111c1.5 0 2.5-1.2 2.5-2.6 0-1.4-1-2.5-2.5-2.5z"/><path class="n" d="m3008.2 1040.9h-111c-1.5 0-2.5 1.1-2.5 2.5 0 1.4 1 2.5 2.5 2.5h111c1.5 0 2.5-1.1 2.5-2.5 0-1.4-1-2.5-2.5-2.5z"/><path class="n" d="m3008.2 1060.7h-111c-1.5 0-2.5 1.1-2.5 2.5 0 1.4 1 2.5 2.5 2.5h111c1.5 0 2.5-1.1 2.5-2.5 0-1.4-1-2.5-2.5-2.5z"/><path class="n" d="m3008.2 1080.5h-111c-1.5 0-2.5 1.1-2.5 2.5 0 1.4 1 2.5 2.5 2.5h111c1.5 0 2.5-1.1 2.5-2.5 0-1.4-1-2.5-2.5-2.5z"/><path class="n" d="m3008.2 1100.3h-111c-1.5 0-2.5 1.1-2.5 2.5 0 1.4 1 2.5 2.5 2.5h111c1.5 0 2.5-1.1 2.5-2.5 0-1.4-1-2.5-2.5-2.5z"/><path class="n" d="m3008.2 1120h-111c-1.5 0-2.5 1.2-2.5 2.6 0 1.4 1 2.5 2.5 2.5h111c1.5 0 2.5-1.1 2.5-2.5 0-1.4-1-2.6-2.5-2.6z"/><path class="n" d="m3008.2 1139.8h-111c-1.5 0-2.5 1.2-2.5 2.5 0 1.5 1 2.6 2.5 2.6h111c1.5 0 2.5-1.1 2.5-2.6 0-1.3-1-2.5-2.5-2.5z"/><path class="n" d="m3198.5 803.5h-153.8c-1.4 0-2.5 1.1-2.5 2.5 0 1.4 1.1 2.5 2.5 2.5h153.8c1.3 0 2.5-1.1 2.5-2.5 0-1.4-1.2-2.5-2.5-2.5z"/><path class="n" d="m3198.5 823.3h-153.8c-1.4 0-2.5 1.1-2.5 2.5 0 1.4 1.1 2.5 2.5 2.5h153.8c1.3 0 2.5-1.1 2.5-2.5 0-1.4-1.2-2.5-2.5-2.5z"/><path class="n" d="m3198.5 843.1h-153.8c-1.4 0-2.5 1.1-2.5 2.5 0 1.4 1.1 2.5 2.5 2.5h153.8c1.3 0 2.5-1.1 2.5-2.5 0-1.4-1.2-2.5-2.5-2.5z"/><path class="n" d="m3198.5 862.8h-153.8c-1.4 0-2.5 1.2-2.5 2.6 0 1.4 1.1 2.5 2.5 2.5h153.8c1.3 0 2.5-1.1 2.5-2.5 0-1.4-1.2-2.6-2.5-2.6z"/><path class="n" d="m3198.5 882.6h-153.8c-1.4 0-2.5 1.1-2.5 2.5 0 1.4 1.1 2.6 2.5 2.6h153.8c1.3 0 2.5-1.2 2.5-2.6 0-1.4-1.2-2.5-2.5-2.5z"/><path class="n" d="m3198.5 902.4h-153.8c-1.4 0-2.5 1.2-2.5 2.5 0 1.4 1.1 2.6 2.5 2.6h153.8c1.3 0 2.5-1.2 2.5-2.6 0-1.3-1.2-2.5-2.5-2.5z"/><path class="n" d="m3198.5 922.2h-153.8c-1.4 0-2.5 1.1-2.5 2.5 0 1.4 1.1 2.5 2.5 2.5h153.8c1.3 0 2.5-1.1 2.5-2.5 0-1.4-1.2-2.5-2.5-2.5z"/><path class="n" d="m3198.5 942h-153.8c-1.4 0-2.5 1.1-2.5 2.5 0 1.4 1.1 2.5 2.5 2.5h153.8c1.3 0 2.5-1.1 2.5-2.5 0-1.4-1.2-2.5-2.5-2.5z"/><path class="n" d="m3198.5 961.8h-153.8c-1.4 0-2.5 1.1-2.5 2.5 0 1.4 1.1 2.5 2.5 2.5h153.8c1.3 0 2.5-1.1 2.5-2.5 0-1.4-1.2-2.5-2.5-2.5z"/><path class="n" d="m3198.5 981.5h-153.8c-1.4 0-2.5 1.2-2.5 2.6 0 1.4 1.1 2.5 2.5 2.5h153.8c1.3 0 2.5-1.1 2.5-2.5 0-1.4-1.2-2.6-2.5-2.6z"/><path class="n" d="m3198.5 1001.3h-153.8c-1.4 0-2.5 1.2-2.5 2.6 0 1.4 1.1 2.5 2.5 2.5h153.8c1.3 0 2.5-1.1 2.5-2.5 0-1.4-1.2-2.6-2.5-2.6z"/><path class="n" d="m3198.5 1021.1h-153.8c-1.4 0-2.5 1.1-2.5 2.5 0 1.4 1.1 2.6 2.5 2.6h153.8c1.3 0 2.5-1.2 2.5-2.6 0-1.4-1.2-2.5-2.5-2.5z"/><path class="n" d="m3198.5 1040.9h-153.8c-1.4 0-2.5 1.1-2.5 2.5 0 1.4 1.1 2.5 2.5 2.5h153.8c1.3 0 2.5-1.1 2.5-2.5 0-1.4-1.2-2.5-2.5-2.5z"/><path class="n" d="m3198.5 1060.7h-153.8c-1.4 0-2.5 1.1-2.5 2.5 0 1.4 1.1 2.5 2.5 2.5h153.8c1.3 0 2.5-1.1 2.5-2.5 0-1.4-1.2-2.5-2.5-2.5z"/><path class="n" d="m3198.5 1080.5h-153.8c-1.4 0-2.5 1.1-2.5 2.5 0 1.4 1.1 2.5 2.5 2.5h153.8c1.3 0 2.5-1.1 2.5-2.5 0-1.4-1.2-2.5-2.5-2.5z"/><path class="n" d="m3198.5 1100.3h-153.8c-1.4 0-2.5 1.1-2.5 2.5 0 1.4 1.1 2.5 2.5 2.5h153.8c1.3 0 2.5-1.1 2.5-2.5 0-1.4-1.2-2.5-2.5-2.5z"/><path class="n" d="m3198.5 1120h-153.8c-1.4 0-2.5 1.2-2.5 2.6 0 1.4 1.1 2.5 2.5 2.5h153.8c1.3 0 2.5-1.1 2.5-2.5 0-1.4-1.2-2.6-2.5-2.6z"/><path class="n" d="m3198.5 1139.8h-153.8c-1.4 0-2.5 1.2-2.5 2.5 0 1.5 1.1 2.6 2.5 2.6h153.8c1.3 0 2.5-1.1 2.5-2.6 0-1.3-1.2-2.5-2.5-2.5z"/><path class="j" d="m3219.8 1199.4h-404c-1.4 0-2.5 1.1-2.5 2.5 0 1.4 1.1 2.5 2.5 2.5h404c1.3 0 2.5-1.1 2.5-2.5 0-1.4-1.2-2.5-2.5-2.5z"/><path class="j" d="m2859.6 1234.3h-43.8c-1.4 0-2.5 1.1-2.5 2.5 0 1.4 1.1 2.5 2.5 2.5h43.8c1.4 0 2.5-1.1 2.5-2.5 0-1.4-1.1-2.5-2.5-2.5z"/><path class="j" d="m3098.6 1273.7h-282.8c-1.4 0-2.5 1.1-2.5 2.5 0 1.5 1.1 2.6 2.5 2.6h282.8c1.4 0 2.5-1.1 2.5-2.6 0-1.4-1.1-2.5-2.5-2.5z"/><path class="n" d="m1146.9 652.6h-26.6c-1.9 0-3.4 1.5-3.4 3.4v13.8c0 1.9 1.5 3.4 3.4 3.4 1.9 0 3.4-1.5 3.4-3.4v-10.4h23.2c1.9 0 3.4-1.5 3.4-3.4 0-1.9-1.5-3.4-3.4-3.4z"/><path class="n" d="m1227.7 652.6h-40.4c-1.8 0-3.3 1.5-3.3 3.4 0 1.9 1.5 3.4 3.3 3.4h40.4c1.9 0 3.4-1.5 3.4-3.4 0-1.9-1.5-3.4-3.4-3.4z"/><path class="n" d="m1120.3 707c-1.9 0-3.4 1.5-3.4 3.4v40.5c0 1.9 1.5 3.4 3.4 3.4 1.9 0 3.4-1.5 3.4-3.4v-40.5c0-1.9-1.5-3.4-3.4-3.4z"/><path class="n" d="m1308.5 652.6h-40.4c-1.9 0-3.3 1.5-3.3 3.4 0 1.9 1.4 3.4 3.3 3.4h40.4c1.9 0 3.4-1.5 3.4-3.4 0-1.9-1.5-3.4-3.4-3.4z"/><path class="n" d="m1470.1 652.6h-40.4c-1.9 0-3.4 1.5-3.4 3.4 0 1.9 1.5 3.4 3.4 3.4h40.4c1.8 0 3.4-1.5 3.4-3.4 0-1.9-1.6-3.4-3.4-3.4z"/><path class="n" d="m1389.3 652.6h-40.4c-1.9 0-3.4 1.5-3.4 3.4 0 1.9 1.5 3.4 3.4 3.4h40.4c1.8 0 3.3-1.5 3.3-3.4 0-1.9-1.5-3.4-3.3-3.4z"/><path class="n" d="m3395.1 1965.2h-40.4c-1.8 0-3.3 1.5-3.3 3.3 0 1.9 1.5 3.4 3.3 3.4l40.4 0.1c1.9 0 3.4-1.5 3.4-3.4 0-1.8-1.5-3.4-3.4-3.4z"/><path class="n" d="m3314.4 1965.1h-40.5c-1.8 0-3.3 1.5-3.3 3.3 0 1.9 1.5 3.4 3.3 3.4l40.5 0.1c1.8 0 3.3-1.5 3.3-3.4 0-1.9-1.5-3.4-3.3-3.4z"/><path class="n" d="m3475.9 1965.4l-40.4-0.1c-1.8 0-3.4 1.5-3.4 3.4 0 1.8 1.6 3.3 3.4 3.4h40.4c1.9 0 3.3-1.5 3.4-3.4 0-1.8-1.5-3.3-3.4-3.3z"/><path class="n" d="m3623.9 1870.7c-1.9 0-3.4 1.5-3.4 3.4v40.5c-0.1 1.8 1.4 3.4 3.3 3.4 1.9 0 3.4-1.5 3.4-3.4v-40.5c0-1.9-1.4-3.4-3.3-3.4z"/><path class="n" d="m3623.7 1951.8c-1.8 0-3.3 1.5-3.3 3.3v10.5l-23.3-0.1c-1.9 0-3.3 1.5-3.3 3.4 0 1.9 1.4 3.4 3.3 3.4h26.6c1.9 0 3.4-1.5 3.4-3.3v-13.9c0-1.8-1.5-3.3-3.4-3.3z"/><path class="n" d="m3556.7 1965.5l-40.4-0.1c-1.8 0-3.4 1.5-3.4 3.4 0 1.9 1.6 3.4 3.4 3.4h40.4c1.9 0 3.4-1.5 3.4-3.3 0-1.9-1.5-3.4-3.4-3.4z"/><path class="o" d="m1225.5 817.7c-1-0.1-96.6-5.1-138.1-58-0.6-0.7-1.4-1.2-2.3-1.3-0.9 0-1.8 0.2-2.6 0.8-0.7 0.7-77.3 65.7-137.2 65.7-1.7 0-3.1 1.4-3.3 3.1-0.6 5.7-14.5 139.9 22 168.3 9.9 7.8 24.1 17.3 39.2 27.5 35.4 23.9 83.8 56.7 83.8 72.5 0 1.6 1 2.9 2.6 3.3q0.4 0.1 0.8 0.1c1.2 0 2.3-0.7 2.9-1.8 0.2-0.3 20.4-36.7 113.1-89.3 48.6-27.6 23.3-181.6 22.2-188.1-0.2-1.6-1.6-2.8-3.1-2.8z"/><path class="p" d="m1076 2305.8v1.2c0 21.7 13.7 40.3 32.9 47.4 3.3 10.4 12.8 18 24 18 11.3 0 20.8-7.6 24-18 19.2-7.1 32.9-25.7 32.9-47.4 0-7.6 1.8-15 4.7-22.2h-122.9c2.8 6.8 4.4 13.9 4.4 21z"/><path class="o" d="m1128.9 2026c-65.8 2.1-120 54.9-123.7 120.8-2.3 39 12.9 74.5 38.4 99.5 11 10.7 22.1 24 28 38.5h122.9c6.1-14.7 17.2-28.1 28.3-39 23.5-23.3 38.1-55.7 38.1-91.4 0-72.3-59.5-130.6-132-128.4z"/><path class="j" d="m1190.2 2284.7h-114.6c-1.9 0-3.4 1.5-3.4 3.4 0 1.8 1.5 3.3 3.4 3.3h114.6c1.9 0 3.4-1.5 3.4-3.3 0-1.9-1.5-3.4-3.4-3.4z"/><path class="j" d="m1186 2312.4h-106.1c-1.9 0-3.4 1.5-3.4 3.4 0 1.8 1.5 3.3 3.4 3.3h106.1c1.8 0 3.3-1.5 3.3-3.3 0-1.9-1.5-3.4-3.3-3.4z"/><path fill-rule="evenodd" class="j" d="m1146 2178.7c0 1.9-1.5 3.4-3.4 3.4h-22.7v102.2c0 1.9-1.5 3.4-3.4 3.4-1.8 0-3.3-1.5-3.3-3.4v-102.2h-20.1c-13.6 0-24.7-11.1-24.7-24.8 0-13.7 11.1-24.8 24.7-24.8h2.1c13.6 0 24.7 11.1 24.7 24.8v18.1h22.7c1.9 0 3.4 1.5 3.4 3.3zm-32.8-21.4c0-10-8.1-18.1-18-18.1h-2.1c-9.9 0-18 8.1-18 18.1 0 10 8.1 18.1 18 18.1h20.1z"/><path fill-rule="evenodd" class="j" d="m1197.4 2157.3c0 13.7-11.1 24.8-24.7 24.8h-20.1v102.2c0 1.9-1.5 3.4-3.3 3.4-1.8 0-3.3-1.5-3.3-3.4v-102.2h-22.8c-1.8 0-3.3-1.5-3.3-3.4 0-1.8 1.5-3.3 3.3-3.3h22.8v-18.1c0-13.7 11-24.8 24.7-24.8h2c13.6 0 24.7 11.1 24.7 24.8zm-6.7 0c0-10-8.1-18.1-18-18.1h-2c-10 0-18.1 8.1-18.1 18.1v18.1h20.1c9.9 0 18-8.1 18-18.1z"/><path class="o" d="m1282.5 1988.9l-28.5 34.2c-1.5 1.8-1.3 4.5 0.5 6 1.9 1.6 4.6 1.3 6.1-0.5l28.5-34.1c1.5-1.8 1.3-4.6-0.5-6.1-1.8-1.5-4.5-1.3-6.1 0.5z"/><path class="o" d="m1363.5 2123.7l-43.8 7.7c-2.3 0.4-3.8 2.7-3.4 5 0.4 2.4 2.6 3.9 4.9 3.5l43.7-7.7c2.4-0.4 3.9-2.7 3.5-5-0.4-2.4-2.6-3.9-4.9-3.5z"/><path class="o" d="m1339.1 2279.1l-38.4-22.3c-2.1-1.1-4.7-0.4-5.9 1.6-1.2 2.1-0.4 4.7 1.6 5.9l38.4 22.3c2.1 1.2 4.7 0.5 5.9-1.6 1.2-2.1 0.5-4.7-1.6-5.9z"/><path class="o" d="m976.4 2256.8l-38.4 22.3c-2.1 1.2-2.8 3.8-1.6 5.9 1.2 2 3.8 2.8 5.8 1.6l38.5-22.3c2-1.2 2.7-3.8 1.5-5.9-1.1-2-3.8-2.7-5.8-1.6z"/><path class="o" d="m957.3 2131.4l-43.7-7.7c-2.3-0.4-4.5 1.1-4.9 3.5-0.5 2.3 1.1 4.6 3.4 5l43.7 7.7c2.4 0.4 4.6-1.1 5-3.5 0.4-2.3-1.1-4.6-3.5-5z"/><path class="o" d="m994.5 1988.9c-1.5-1.8-4.2-2-6-0.5-1.8 1.5-2.1 4.3-0.5 6.1l28.5 34.1c1.5 1.8 4.2 2.1 6 0.5 1.9-1.5 2.1-4.2 0.6-6z"/><path class="o" d="m1138.5 1933.6c-2.3 0-4.2 1.9-4.2 4.3v44.6c0 2.3 1.9 4.3 4.2 4.3 2.4 0 4.3-2 4.3-4.3v-44.6c0-2.4-1.9-4.3-4.3-4.3z"/><path class="f" d="m1521.7 2678.5h-170.5v78.8h171.5c5.1 0 9.2-4.1 9.2-9.1v-59.6c0-5.6-4.6-10.1-10.2-10.1z"/><path class="q" d="m1027.6 2746.1h352.9v-58.6h-352.9z"/><path class="r" d="m1027.6 2700.3c0.2 2.1 0.4 3.4 0.4 3.4l332 1.4c0 0 11.7-0.3 20.1 15.2v-32.8h-352.5z"/><path class="e" d="m1364 2679l-356.9 0.9-0.4 14.6 352.5-0.7c0 0 18.3-1 20.7 22.3 2.4 23.3-18.3 26.7-18.3 26.7l-351.9 0.3-0.6 16.9 346.6-1.3c0 0 36.6 2.7 39.6-36.5 2.9-39.2-31.3-43.2-31.3-43.2z"/><path class="s" d="m1524.7 2599.1h-170.6v78.8h171.6c5 0 9.1-4 9.1-9.1v-59.6c0-5.5-4.5-10.1-10.1-10.1z"/><path class="q" d="m1026.4 2665.7h353.4v-58.6h-353.4z"/><path class="r" d="m1026.4 2619.9c0.2 2.1 0.4 3.4 0.4 3.4l331.9 1.4c0 0 11.8-0.3 20.1 15.2v-32.8h-352.4z"/><path class="t" d="m1362.8 2598.6l-356.9 0.9-0.4 14.6 352.6-0.7c0 0 18.3-1 20.6 22.3 2.4 23.3-18.3 26.7-18.3 26.7l-351.9 0.3-0.6 16.9 346.6-1.3c0 0 36.6 2.7 39.6-36.5 2.9-39.2-31.3-43.2-31.3-43.2z"/><path class="n" d="m3381 1292.3h4.7v-18.8h-4.7z"/><path class="n" d="m3381 1405.2h4.7v-18.8h-4.7z"/><path class="n" d="m3381 1330h4.7v-18.8h-4.7z"/><path class="n" d="m3381 1518h4.7v-18.8h-4.7z"/><path class="n" d="m3381 1442.8h4.7v-18.8h-4.7z"/><path class="n" d="m3390.2 1532.3h18.8v-4.7h-18.8z"/><path class="n" d="m3381 1480.4h4.7v-18.8h-4.7z"/><path class="n" d="m3381 1367.6h4.7v-18.8h-4.7z"/><path class="n" d="m3550.5 1274.4h18.8v-4.7h-18.8z"/><path class="n" d="m3588 1274.4h18.7v-4.7h-18.7z"/><path class="n" d="m3625.5 1274.4h18.7v-4.7h-18.7z"/><path class="n" d="m3513 1274.4h18.8v-4.7h-18.8z"/><path class="n" d="m3438.1 1274.4h18.7v-4.7h-18.7z"/><path class="n" d="m3475.6 1274.4h18.7v-4.7h-18.7z"/><path class="n" d="m3427.7 1532.3h18.7v-4.7h-18.7z"/><path class="n" d="m3400.6 1274.4h18.8v-4.7h-18.8z"/><path class="j" d="m3618.5 1679.8h-129.2c-3.9 0-7.1 3.2-7.1 7.1v1c0 3.9 3.2 7 7.1 7h129.2c3.9 0 7.1-3.1 7.1-7v-1c0-3.9-3.2-7.1-7.1-7.1z"/><path class="j" d="m3695.6 1727.4h-206.3c-3.9 0-7.1 3.2-7.1 7.1v0.5c0 3.9 3.2 7 7.1 7h206.3c3.9 0 7.1-3.1 7.1-7v-0.5c0-3.9-3.2-7.1-7.1-7.1z"/><path class="j" d="m3550.2 1775h-60.9c-3.9 0-7.1 3.2-7.1 7.1v3c0 3.9 3.2 7 7.1 7h60.9c3.9 0 7.1-3.1 7.1-7v-3c0-3.9-3.2-7.1-7.1-7.1z"/><path class="m" d="m3656 1775h-61c-3.9 0-7.1 3.2-7.1 7.1v3c0 3.9 3.2 7 7.1 7h61c3.9 0 7-3.1 7-7v-3c0-3.9-3.1-7.1-7-7.1z"/><path class="m" d="m3790.7 1775h-93.7c-3.9 0-7.1 3.2-7.1 7.1v3c0 3.9 3.2 7 7.1 7h93.7c3.9 0 7.1-3.1 7.1-7v-3c0-3.9-3.2-7.1-7.1-7.1z"/><path class="m" d="m3790.7 1727.4h-51.3c-4 0-7.1 3.2-7.1 7.1v0.5c0 3.9 3.1 7 7.1 7h51.3c3.9 0 7.1-3.1 7.1-7v-0.5c0-3.9-3.2-7.1-7.1-7.1z"/><path class="m" d="m3790.7 1679.8h-129.3c-3.9 0-7.1 3.2-7.1 7.1v1c0 3.9 3.2 7 7.1 7h129.3c3.9 0 7.1-3.1 7.1-7v-1c0-3.9-3.2-7.1-7.1-7.1z"/><path class="j" d="m3624.8 1523.8h-133.3c-3.9 0-7.1 3.1-7.1 7.1v4.3c0 3.9 3.2 7.1 7.1 7.1h133.3c3.9 0 7.1-3.2 7.1-7.1v-4.3c0-4-3.2-7.1-7.1-7.1z"/><path class="j" d="m3704.1 1572.7h-212.6c-3.9 0-7.1 3.2-7.1 7.1v4.9c0 3.9 3.2 7.1 7.1 7.1h212.6c3.9 0 7.1-3.2 7.1-7.1v-4.9c0-3.9-3.2-7.1-7.1-7.1z"/><path class="j" d="m3554.6 1621.7h-63.1c-3.9 0-7.1 3.1-7.1 7v4.9c0 3.9 3.2 7.1 7.1 7.1h63.1c3.9 0 7-3.2 7-7.1v-4.9c0-3.9-3.1-7-7-7z"/><path class="m" d="m3663.3 1621.7h-63.1c-3.9 0-7 3.1-7 7v4.9c0 3.9 3.1 7.1 7 7.1h63.1c3.9 0 7.1-3.2 7.1-7.1v-4.9c0-3.9-3.2-7-7.1-7z"/><path class="m" d="m3801.8 1621.7h-96.7c-3.9 0-7.1 3.1-7.1 7v4.9c0 3.9 3.2 7.1 7.1 7.1h96.7c4 0 7.1-3.2 7.1-7.1v-4.9c0-3.9-3.1-7-7.1-7z"/><path class="m" d="m3801.8 1572.7h-53.1c-3.9 0-7.1 3.2-7.1 7.1v4.9c0 3.9 3.2 7.1 7.1 7.1h53.1c4 0 7.1-3.2 7.1-7.1v-4.9c0-3.9-3.1-7.1-7.1-7.1z"/><path class="m" d="m3801.8 1523.8h-133.3c-3.9 0-7.1 3.1-7.1 7.1v4.3c0 3.9 3.2 7.1 7.1 7.1h133.3c4 0 7.1-3.2 7.1-7.1v-4.3c0-4-3.1-7.1-7.1-7.1z"/><path class="d" d="m3887.8 1132.5h-332.4c-16.6 0-30.1 13.6-30.1 30.2v203.9c0 16.7 13.5 30.2 30.1 30.2h332.4c16.6 0 30.1-13.5 30.1-30.2v-203.9c0-16.6-13.5-30.2-30.1-30.2z"/><path class="f" d="m3868.6 1111.7h-332.4c-16.6 0-30.1 13.5-30.1 30.2v203.9c0 16.7 13.5 30.2 30.1 30.2h332.4c16.6 0 30.1-13.5 30.1-30.2v-203.9c0-16.7-13.5-30.2-30.1-30.2z"/><path class="h" d="m3868.6 1111.7h-332.4c-16.6 0-30.1 13.5-30.1 30.2v21.9h392.6v-21.9c0-16.7-13.5-30.2-30.1-30.2z"/><path class="u" d="m3805.8 1219.9q0.1-1.4 0.1-2.9c0-20.8-16.8-37.6-37.5-37.6-10.9 0-20.6 4.6-27.4 12-3.6-1.7-7.5-2.6-11.7-2.6-15.5 0-28 12.6-28 28.2q0 1 0.1 1.9c-11 5.5-18.5 16.8-18.5 29.9 0 18.4 14.9 33.4 33.3 33.4 6.7 0 13-2.1 18.2-5.5 5.2 3.4 11.5 5.5 18.2 5.5 6.8 0 13-2.1 18.3-5.5 5.2 3.4 11.5 5.5 18.2 5.5 18.4 0 33.3-15 33.3-33.4 0-12.4-6.7-23.1-16.6-28.9z"/><path class="j" d="m3766.3 1247.6c0.1-0.9 0.1-1.9 0.1-2.9 0-24.4-19.7-44.2-44-44.2-6.5 0-12.6 1.4-18.2 4-10.7-11.5-26-18.8-42.9-18.8-32.5 0-58.8 26.4-58.8 58.9q0 2.3 0.2 4.6c-15.5 9-26 25.9-26 45.2 0 28.9 23.3 52.3 52.1 52.3 10.5 0 20.4-3.1 28.6-8.6 8.2 5.5 18 8.6 28.5 8.6 10.6 0 20.4-3.1 28.6-8.6 8.2 5.5 18 8.6 28.6 8.6 28.8 0 52.1-23.4 52.1-52.3 0-20.5-11.8-38.2-28.9-46.8z"/><path class="v" d="m3646.3 1275.7h20.1v28.1h39.1v-28.1h20.1l-39.7-39.7z"/><path class="w" d="m3858.3 1148.7h17.9v-17.9h-17.9z"/><path class="x" d="m3835 1148.7h17.9v-17.9h-17.9z"/><path class="y" d="m3811.6 1148.7h17.9v-17.9h-17.9z"/><path class="d" d="m1877.5 517.1h-402.1c-6.3 0-11.4 5.2-11.4 11.5v242.5c0 6.4 5.1 11.5 11.4 11.5h402.1c6.3 0 11.4-5.1 11.4-11.5v-242.5c0-6.3-5.1-11.5-11.4-11.5z"/><path class="g" d="m1897 494.1h-402.1c-6.3 0-11.4 5.1-11.4 11.5v242.5c0 6.3 5.1 11.5 11.4 11.5h402.1c6.3 0 11.5-5.2 11.5-11.5v-242.5c0-6.4-5.2-11.5-11.5-11.5z"/><path class="h" d="m1897 494.1h-402.1c-6.3 0-11.4 5.1-11.4 11.5v41.6h425v-41.6c0-6.4-5.2-11.5-11.5-11.5z"/><path class="j" d="m1879.7 530h12v-12h-12z"/><path class="j" d="m1864.1 530h12v-12h-12z"/><path class="j" d="m1848.5 530h12v-12h-12z"/><path class="v" d="m1600.2 655.9l62.4 26.8v-14.3l-50-20.8 50-20.7v-14.5l-62.4 27z"/><path class="v" d="m1663.9 711.4h16l45.9-134.8h-15.9z"/><path class="v" d="m1721.1 626.1l49.9 20.7-49.9 20.7v14.5l62.3-27v-16.5l-62.3-26.8z"/><path class="z" d="m3763.6 1993.2c-5.6-9.8-11.1-19.6-13.9-30.4-3.3-13.2-2.3-27-2.4-40.6-0.6-48.9-16.1-119.1-71.1-133.9-22.5-6.1-49.2 1.8-61.9 21.5-13.5 20.9-7.1 42.9-7.4 65.7-0.4 22.4-15.7 41.6-15.7 65.2q0 2.8 0.2 5.6c3.1-1.7 6.9-2.7 11.1-2.7 10.5 0 19 6.4 19 14.4 0 7.9-8.5 14.4-19 14.4-2.5 0-4.8-0.4-6.9-1 3.6 12.7 9.2 24.8 16.4 35.8 5.3 8.1 11.4 15.7 15.6 24.5 12.8 26.7 4.9 58.8-7.4 85.8-12.3 27-29 52.7-34.1 82-5.7 33.1 5.2 62.1 20.9 90.5 15.3 27.9 45.7 49.9 68.6 72-5.3-5.1 52.5-64.6 58.1-71.8 15.6-19.9 29.5-41.5 39.3-64.9 9.8-23.1 11.7-46 14.8-70.5 6.2-49.6 6.8-102.8-16.8-148.3-2.3-4.5-4.8-8.9-7.4-13.3z"/><g style="opacity:.2;mix-blend-mode:multiply"><path class="A" d="m3763.6 1993.2c-5.6-9.8-11.1-19.6-13.9-30.4-3.3-13.2-2.3-27-2.4-40.6-0.6-48.9-16.1-119.1-71.1-133.9-10.9-3-22.7-2.6-33.5 0.7 20.1 36.3 40.3 75.1 37.7 116.4-1.4 21.1-8.7 41.7-8 62.9 0.9 25.3 13.1 48.6 23.8 71.5 33.3 71 38.1 141.7 6.2 214.4-13.6 31-30.7 60.5-45.1 91.1 6.3 5.6 12.5 11.2 18.3 16.7-5.3-5.1 52.5-64.6 58.1-71.8 15.6-19.9 29.5-41.5 39.3-64.9 9.8-23.1 11.7-46 14.8-70.5 6.2-49.6 6.8-102.8-16.8-148.3-2.3-4.5-4.8-8.9-7.4-13.3z"/></g><path class="A" d="m3665.6 2308.2c-5.9-26.5-9.3-53.3-8.6-80.5 0.8-27.8 8.9-54.9 16.9-81.3 15.1-50 21.7-96.5 18.4-148.8-3.2-51.4-9.4-103.1-21.7-153.2-1.2-4.8-8.7-2.8-7.5 2.1 12.7 51.8 18.6 105.1 21.9 158.3 3.4 54-7.4 101.8-22.6 153.1-13.1 44.3-15.8 86.5-8.3 132.1 8.7 52.3 27.4 102.3 33.6 155.1 0.5 4.9 8.3 5 7.7 0-5.5-46.6-19.6-91.2-29.8-136.9z"/><path class="A" d="m3586.6 2237.7q0.5 2.9 1.2 5.8c21 15.5 42.8 30 65.3 43.4 0.3 0.6 0.9 1 1.5 1q0.4 0.2 0.8 0.4c1.6 1 3.2-0.8 2.7-2.3 42.8-26.7 83.9-55.9 123.2-87.3q0.6-3 1.2-5.9c-40.7 32.7-83.3 63-127.6 90.7-23.6-14.1-46.3-29.4-68.3-45.8z"/><path class="A" d="m3653.6 2201.9q-27.4-20.2-54.9-40.4-0.9 1.8-1.7 3.6 27.4 20.1 54.7 40.1c2 1.5 3.9-1.9 1.9-3.3z"/><path class="A" d="m3657.4 2204.1c43-32 87.6-61.5 133.7-88.7q0.1-2.3 0.2-4.6c-46.9 27.5-92.2 57.5-135.9 89.9-2 1.5 0 4.8 2 3.4z"/><path class="A" d="m3677.9 2118.6c-0.6 0.5-0.8 1.3-0.7 2q-23-17.4-46-34.7-0.4 2-1 4 22.5 17 45.1 34.1c1.4 1.1 2.9-0.5 2.7-2 0.5 0.4 1.2 0.5 1.9-0.1 34.8-25.7 70-50.9 105.6-75.6-0.3-1.4-0.6-2.7-1-4.1-35.9 25-71.4 50.4-106.6 76.4z"/><path class="A" d="m3688 2041.2q-0.1 0-0.1 0.1c-29.7-15.2-58.3-32.5-85.6-51.8q1.7 3.6 3.6 7.1c26 18.1 53.3 34.5 81.6 48.8 1.3 0.7 2.5-0.2 2.9-1.3 0.1 0 0.2-0.1 0.3-0.2 22.1-20.7 44.5-41 67.2-61q-0.9-1.7-1.8-3.5c-23 20.2-45.8 40.8-68.1 61.8z"/><path class="A" d="m3745.2 1892.8q-31.2 31-62.4 62-43.5-19-87.1-38.1-0.6 1.9-1.2 3.7 43.1 18.8 86.1 37.7c0.2 1.3 1.8 2.3 3.1 1.3q0 0 0.1 0c1.9 0.9 3.6-1.4 2.7-2.7q29.6-29.5 59.3-59-0.3-2.4-0.6-4.9z"/><path class="A" d="m3672.7 1868.9q-33.5-12.5-67-25 0 2.1 0.1 4.2 33.5 12.5 67.1 25c1.1 0.4 1.9-0.2 2.2-1.1 0.1-0.1 0.1-0.1 0.2-0.1 14.2-17.9 29-35.3 44.3-52.3q-1.2-1.6-2.4-3.1-23 25.5-44.5 52.4z"/><path class="z" d="m3551.5 2286.5c-16.6-19.1-40.2-30.4-61.1-44.7-20.9-14.2-40.9-34.1-43.4-59.3-0.8-8.3 0.3-16.6 0.6-24.9 0.7-20.1-3.9-40.5-14.3-57.7-7.2-12.1-19-19.3-28.9-28q-0.3 0.8-0.7 1.5c-4.1 9-12.5 14-18.7 11.2-6.1-2.9-7.8-12.6-3.6-21.6 2-4.3 5-7.7 8.2-9.7-8.3-14.9-14.2-30.6-31-38.7-18-8.8-41-2.7-54.8 11.8-33.5 35.3-13.8 93.5 7.4 129.4 5.9 10 12.8 19.7 16.2 30.8 2.8 9.1 3.1 18.7 3.3 28.4q0 3 0.1 6.1 2.5-0.3 5.1-0.3c13.5 0 24.5 5.7 24.5 12.7 0 7.1-11 12.8-24.5 12.8q-1.1 0-2.3-0.1c7.3 36.3 28.2 68.8 50.9 97.5 13.1 16.5 24.6 32.4 42 44.9 17.5 12.7 37.2 22.3 57.4 29.9 7.3 2.7 75.8 20.4 74.2 26.5 6.9-26.4 19.4-55.9 18.3-83.1-1.2-27.8-6-53.7-24.9-75.4z"/><path class="A" d="m3541.9 2382.9c-14.6-36.6-35.3-66.3-64.4-92.8-33.8-30.6-62.9-60.8-84.3-101.7-21.1-40.3-40.4-81.8-54-125.3-1.3-4.1-7.7-2.3-6.4 1.8 13.2 42 31.5 82.6 51.9 121.5 20.8 39.7 46.1 70.7 79.3 100.5 17.5 15.7 35.4 31.8 48.3 51.8 12.5 19.5 21.9 40.6 29.3 62.6 12.8 37.9 22.2 76.8 38.8 113.2 1.8 3.9 7.4 0.4 5.7-3.4-18.9-41.3-27.4-86.2-44.2-128.2z"/><path class="A" d="m3538.5 2378.5c-44.6-0.5-89.1-3.6-133.3-9.4q1.7 1.9 3.5 3.7c42.6 5.5 85.5 8.5 128.5 9 0.4 1.2 2.3 1.9 3.1 0.4q0.1-0.3 0.3-0.6c0.5-0.3 0.7-0.9 0.7-1.4 10.5-19.8 20-40.1 28.5-60.8q-0.8-2.4-1.7-4.8c-8.8 21.8-18.6 43.1-29.6 63.9z"/><path class="A" d="m3503.3 2318.3c-0.8 2 2.1 3.6 2.9 1.6q11.1-26.8 22.2-53.6-1.4-1-2.8-1.9-11.2 26.9-22.3 53.9z"/><path class="A" d="m3501.5 2318.3c-46.2-4.3-92.6-5.9-139-5.1q1.1 1.6 2.2 3.3c45.6-0.8 91.3 0.9 136.8 5.1 2.2 0.2 2.1-3.2 0-3.3z"/><path class="A" d="m3450.1 2269.4c-0.2-0.5-0.7-1-1.4-1-37.2-3.4-74.4-6.1-111.6-8.3 0.4 1.1 0.7 2.2 1.1 3.4 36.9 2.2 73.8 4.9 110.6 8.2 0.7 0 1.1-0.3 1.4-0.8 0.5 1.1 2.2 1.6 2.8 0.2q9-22.5 17.9-44.9-1.3-1.3-2.6-2.5-9.1 22.8-18.2 45.7z"/><path class="A" d="m3407.2 2216.3q0 0 0 0c-25.7-5.3-51.4-10.2-77.1-14.8q0.1 1.7 0.2 3.4c25.4 4.5 50.8 9.3 76.1 14.6 0.1 0.1 0.2 0 0.3 0 0.7 0.7 2 0.8 2.6-0.3 14.4-23.1 27.1-47.2 38.1-72q-0.2-3.4-0.6-6.8c-11.3 26.2-24.6 51.6-39.6 75.9z"/><path class="B" d="m3421.9 2086.5q-1.2-1.1-2.4-2.2-13.9 19.7-27.7 39.5 0.2 0.2 0.5 0.4c1-0.6 2-0.8 3-1.3 2.1-2.4 3.2-3.6 5.3-6q6.8-9.6 13.6-19.3 3.9-5.6 7.7-11.1zm-26.6 36.4c-1 0.5-2 0.7-3 1.3q-0.3-0.2-0.5-0.4-9.6 13.6-19.1 27.2-36.5-8.8-73-17.5 0.9 1.9 1.8 3.8 34.7 8.3 69.4 16.6c-0.1 1.4 2.1 2.3 3.2 0.9q0-0.1 0-0.1c1.4 0.1 2.1-1.3 1.7-2.4q12.4-17.7 24.8-35.4c-2.1 2.4-3.2 3.6-5.3 6z"/><path class="A" d="m3342.1 2083.7q-27.6-10.1-55.7-18.4-0.2 1.6-0.3 3.3 28 8.3 55.4 18.4c0.1 0 0.1 0 0.2 0 0.6 0.5 1.4 0.7 2.1-0.1q19-24.1 37.9-48.2-0.8-1.6-1.8-3.1-18.9 24.1-37.8 48.1z"/><path class="A" d="m3686.2 2211.3c-2-11.4-5.1-22.5-10.8-33.5-9.9-18.9-23.8-34.5-38-50.1-9.3-10.1-17.9-20.5-20-34.5-5.1-32.5 7.2-62.5-14.8-91.9-7.7-10.3-18-18.5-25.3-29.1-13.7-19.9-15.3-45.6-23.5-68.4-9.3-26.3-27.8-49.2-51.5-63.8-14.1-8.6-31.1-14.5-44.9-3.3-12.1 9.8-19.4 24.6-21.8 39.7-5.6 36 17.7 72.7 8.8 108-4.4 17.1-15.9 31.4-23.7 47.3-14.6 30-5.3 80.3 17.8 104.2 9.9 10.2 21 19.4 29.7 30.6 14.8 19 10.7 43.4 11.5 66.5 0.4 11.6 0.8 23.3 3.2 34.6q1.2 6 3.1 11.6c2.8-4.9 9.2-8.4 16.8-8.4 10 0 18.1 6.1 18.1 13.6 0 7.5-8.1 13.6-18.1 13.6-3.4 0-6.5-0.7-9.2-1.9 31 54.7 110.4 79.6 153.1 121.1-1.6-16.6 4.3-33.1 11.8-48 7.6-14.9 16.9-29 22.8-44.6 8.8-22.9 13.2-51.9 9.7-76.3-1.8-12.7-2.7-25-4.8-37z"/><path class="C" d="m3623.1 2354.9c-27-48-61.2-87.1-67.9-143.9-3.2-26.5-1.5-53.6-2.7-80.3-1.2-27.4-4.3-54.7-8.9-81.8-8.5-50-27.3-96.3-48.2-142.2-2.1-4.6-9.2-1.3-7.1 3.2 21.8 47.9 40.1 95.5 48.9 147.6 8.8 51.5 5.7 103.1 10.3 154.7 4.4 47.6 29.6 83.8 54.6 122.7 29.9 46.7 52.9 98.1 63.3 152.7 0.9 4.9 8.5 3.7 7.6-1.2-8.9-46.7-26.7-90.2-49.9-131.5z"/><path class="C" d="m3604.3 2334.8c-32.3-6.1-64.6-12.6-96.9-19.4q2.2 2.5 4.5 4.9c30.4 6.3 60.9 12.4 91.4 18.2 0.6 0.5 1.4 0.7 2.1 0.4q0.7 0.1 1.3 0.3c1.9 0.3 2.6-1.9 1.7-3.1 28.1-30.6 55.3-62 81.8-93.9q-0.3-2.7-0.6-5.3c-27.6 33.3-55.9 66-85.3 97.9z"/><path class="C" d="m3612.3 2180.1c-19.1 22.4-36.8 46.1-53.3 70.6-19.9-0.9-40-5.4-59.7-8.3q-9.7-1.5-19.4-2.9 0.1 2 0.2 3.9 9.4 1.4 18.7 2.8c19.5 3 39.4 7.3 59.1 8.3 0.7 1 2.2 1.5 3.1 0.1q25.2-37.6 54.4-72.3c11.5-13.5 23.6-26.5 35-40q-1.3-1.5-2.5-2.9c-11.6 13.8-23.9 27-35.6 40.7z"/><path class="C" d="m3616.6 2086.7q-34.1 47.9-69.8 94.6-39.2-7.3-78.4-14.6c1.1 1.5 2.1 3 3 4.5q36.7 6.8 73.3 13.6c0.2 1.5 2.3 2.5 3.5 1q0.1-0.2 0.3-0.4c1.2 0 1.8-1.1 1.6-2.1q34.4-44.9 67.2-91-0.5-2.8-0.7-5.6z"/><path class="C" d="m3602.6 2001.3q-0.4-0.5-0.8-1c-21.3 30.3-41.1 61.7-59.3 94q-64.1-11.8-128.5-21.4 0.1 2 0.3 4 66.3 9.9 132.3 22.1c2.4 0.4 2.8-3.4 0.4-3.9q-0.3 0-0.5-0.1c17.8-31.4 37-61.8 57.7-91.4-0.6-0.7-1-1.5-1.6-2.3z"/><path class="C" d="m3529.7 2005.9c-29.8-2.4-59.4-6.2-88.9-11.3q-0.8 1.8-1.6 3.6c29.9 5.3 60.1 9.2 90.4 11.6 0.6 0.3 1.4 0.3 2.1-0.2q0.5-0.3 0.7-0.8c13.1-16.5 25.5-33.4 37.3-50.7q-0.9-2.2-1.7-4.4-18.2 26.8-38.3 52.2z"/><path class="C" d="m3501.3 1926.1c-21.4-4.3-42.8-9.1-64-14.1q0.4 2 0.8 4.1c20.7 4.9 41.5 9.5 62.4 13.7 0.8 1 2.7 1.2 3.4-0.3 9.8-20.4 20.1-40.5 30.7-60.5q-1.3-1.6-2.7-3.2c-10.5 19.9-20.8 40-30.6 60.3z"/><g style="opacity:.2;mix-blend-mode:multiply"><path class="D" d="m3686.2 2211.3c-2-11.4-5.1-22.5-10.8-33.5-9.9-18.9-23.8-34.5-38-50.1-9.3-10.1-17.9-20.5-20-34.5-5.1-32.5 7.2-62.5-14.8-91.9-7.7-10.3-18-18.5-25.3-29.1-13.7-19.9-15.3-45.6-23.5-68.4-9.3-26.3-27.8-49.2-51.5-63.8-14.1-8.6-31.1-14.5-44.9-3.3-4.6 3.7-8.4 8.1-11.6 13 2.2 3.2 4.4 6.2 6.3 8.9 19 26.7 39.2 53 51.9 83.5 11 26.3 15.8 55.2 14.1 83.6-1.1 19.7-5.4 39.5-2.6 59 5.4 37.4 34.9 65.8 59.5 94.5 32.7 38.1 59.5 82.4 70.2 131.5 7.2 33.4 6.4 69.1-4 101.4q2.9 2.5 5.5 5.1c-1.6-16.6 4.3-33.1 11.8-48 7.6-14.9 16.9-29 22.8-44.6 8.8-22.9 13.2-51.9 9.7-76.3-1.8-12.7-2.7-25-4.8-37z"/></g><path class="A" d="m3951.1 1954.1c-7.8-15.5-22.9-26.5-39.5-31.4-8-2.3-16.8-3.2-24.7-0.7-9.1 2.9-16.2 9.9-22.8 16.8-6.6 6.8-13.1 13.8-19.5 20.8q1.8-0.2 3.6 0c10.8 1.1 18.6 12 17.3 24.4-1.3 12.4-11.1 21.5-21.9 20.4-10.8-1.1-18.6-12-17.3-24.4q0-0.2 0-0.4c-14.2 15.8-28 32.4-34.5 52.5-6.5 20.2-5.1 41.9-5.3 63.2-0.6 47.3-11.8 97.5-45.5 130.6-9.5 9.3-20.6 17.1-28.3 27.9-6.3 8.8-9.9 19.2-11.9 29.8-1.8 9.1-5.6 17.3-6.9 26.5-2.9 20.8 0.3 42.4 9.2 61.4 6.5 14.1 12.5 28.4 19 42.2 1.7 3.5 2.9 7.7 1.1 11.1 2.4-4.6 18.5-4.5 22.9-5.6 5.5-1.3 11.3-3.3 16.6-5.1 12.9-4.3 26.4-4.5 39.7-7.5 17.8-4.1 37.1-15.3 50.7-27.1 4.7-4 8.7-9.4 12.1-15.5q1.3-2.2 2.4-4.5-1.4-0.1-2.9-0.2c-14-1.5-24.8-8.8-24-16.4 0.8-7.5 12.7-12.5 26.8-11.1 3.5 0.4 6.8 1.1 9.7 2.1 2.4-8 4.2-15.8 5.7-22.4 2.5-11.7 4.3-23.9 10.4-34.1 6.2-10.3 16.1-17.6 25.1-25.6 18.9-16.6 34.9-43.8 32.3-69.8-1.9-19.7-12.7-37.4-16.3-56.8-10.4-56.3 44.2-116.3 16.7-171.1z"/><path class="E" d="m3893.2 1994.9c-6.9 44.9-11.8 88.7-27.2 131.8-16.3 45.4-36.4 90-57.9 133.2-10 20-21 39.3-30.1 59.8-9.6 21.7-24.6 41-36.4 61.6-20.8 36.5-35.4 76.8-35.9 119.2-0.1 4.5 6.9 4.6 6.9 0.1 0.5-46 18.4-87.8 41.5-126.9 11.1-18.8 23.6-36.3 32.5-56.3 10-22.5 22.5-43.9 33.4-65.9 19.6-39.9 37.2-81.2 52.6-122.9 15.9-42.9 20.4-86.9 27.3-131.8 0.6-4.3-6-6.4-6.7-1.9z"/><path class="E" d="m3934.2 2124.1c-25.2 10.4-50.4 20.7-75.8 30.7-24.2-25.8-48.1-51.8-71.9-78q0 2.6 0 5.2c23.5 25.8 47.1 51.5 71 76.9 1.2 1.3 2.9 0.1 3-1.2 24.9-9.9 49.7-19.9 74.4-30.1-0.1-0.8-0.4-1.6-0.5-2.4q-0.1-0.5-0.2-1.1z"/><path class="E" d="m3882.3 2092.5q29.2-13.3 58.5-26.6 0.7-2.2 1.3-4.4-30.7 14-61.5 27.9c-2.1 1-0.4 4 1.7 3.1z"/><path class="E" d="m3808.4 2001.2q-1.1 1.4-2.1 2.9c24.2 27.1 47.4 55.1 69.8 83.8 1.3 1.8 3.8-0.6 2.5-2.4-22.5-28.9-45.9-57-70.2-84.3z"/><path class="E" d="m3927.1 2182.3c-14.5 3.9-29 8.2-43.3 12.7-14.3 4.5-28.6 10.6-43.6 11.9 0.1-0.5 0-1-0.4-1.4-18.6-21.8-37.8-43-57.7-63.6q-0.4 2.1-0.9 4.1c19.2 20 37.9 40.6 55.9 61.7-0.9 1-0.5 3 1.1 2.9 14-0.9 27.1-6 40.3-10.3 15.3-4.9 30.8-9.5 46.3-13.7q12.8-3.5 25.6-6.6-0.2-1.8-0.5-3.5-11.4 2.8-22.8 5.8z"/><path class="E" d="m3760.5 2201.1q-0.9 1.5-1.9 3.1 24.1 30.1 48.1 60.3c1.5 1.7 4-0.7 2.6-2.4q-24.4-30.5-48.8-61z"/><path class="E" d="m3811.4 2267.4c36.9-8.3 74.1-14.9 111.6-19.8q1.9-2 3.7-4c-39 4.9-77.7 11.7-116.1 20.5-2.2 0.5-1.3 3.8 0.8 3.3z"/><path class="E" d="m3776.5 2331.9c0.8-0.5 1.3-1.7 0.6-2.8-20.5-26.5-40.6-53.3-60.4-80.3q-1.1 1.4-2.2 2.8c19.7 26.9 39.7 53.5 60 79.9 0.6 0.8 1.3 0.8 1.9 0.4-1.2 1-0.3 3.5 1.6 3.1 34.7-8.1 69.6-15.6 104.6-22.5 0.1-0.3 0.2-0.7 0.3-1q0.3-1.3 0.5-2.7c-35.5 7-71 14.6-106.3 22.8q-0.4 0.1-0.6 0.3z"/><path class="E" d="m3738.8 2393q-22.9-35-45.9-69.9 0 3.2 0.1 6.4 21.9 33.4 43.8 66.7c0.8 1.2 2.3 1 3 0.2q51.2-7.1 102.5-14.2 4.5-0.6 9-1.2c0.6-0.5 1.3-1 1.8-1.5 1-0.8 1.9-1.7 2.8-2.6q-7.2 0.9-14.4 1.9-51.4 7.1-102.7 14.2z"/><g style="opacity:.2;mix-blend-mode:multiply"><path class="D" d="m3951.1 1954.1c-7.8-15.5-22.9-26.5-39.5-31.4-3-0.8-6.1-1.5-9.3-1.9 10.1 40.7 12.4 83.4-3.1 121.7-20.3 49.8-68.5 86.9-78.4 139.8-7 37.6 7 77.4-3.4 114.3-6.7 23.7-22.7 43.5-38.3 62.5q-26 31.5-51.9 63.1c5.8-2 15.6-2.2 18.9-3 5.5-1.3 11.3-3.3 16.6-5.1 12.9-4.3 26.4-4.5 39.7-7.5 17.8-4.1 37.1-15.3 50.7-27.1 4.7-4 8.7-9.4 12.1-15.5q1.3-2.2 2.4-4.5-1.4-0.1-2.9-0.2c-14-1.5-24.8-8.8-24-16.4 0.8-7.5 12.7-12.5 26.8-11.1 3.5 0.4 6.8 1.1 9.7 2.1 2.4-8 4.2-15.8 5.7-22.4 2.5-11.7 4.3-23.9 10.4-34.1 6.2-10.3 16.1-17.6 25.1-25.6 18.9-16.6 34.9-43.8 32.3-69.8-1.9-19.7-12.7-37.4-16.3-56.8-10.4-56.3 44.2-116.3 16.7-171.1z"/></g><g style="opacity:.2;mix-blend-mode:multiply"><path class="F" d="m3400.5 2218.9c-2.3-21.5-3.7-43.9-14.2-62.7-8.9-15.8-23.4-27.6-33.7-42.4-20.2-29-22.6-66.3-23.9-101.8-9.4 2.4-18.2 7.4-24.9 14.4-33.5 35.3-13.8 93.5 7.4 129.4 5.9 10 12.8 19.7 16.2 30.8 2.8 9.1 3.1 18.7 3.3 28.4q0.1 3.2 0.2 6.5c2.4-0.6 5.1-0.9 7.9-0.9 12 0 21.7 5.8 21.7 12.9 0 7.1-9.7 12.9-21.7 12.9q-2.7 0-5.2-0.4c7.2 36.3 28.1 68.9 50.9 97.7 13.1 16.5 24.6 32.4 42 44.9 17.5 12.7 37.2 22.3 57.4 29.9 7.3 2.7 75.8 20.4 74.2 26.5 1.8-6.6 3.8-13.4 6-20.3-24.1-15.9-49.6-29.9-73.3-46.5-55.4-38.8-83.2-92.6-90.3-159.3z"/></g><path class="o" d="m3733.6 2402.8h-156.4-105.6c-0.9 21.2-3.8 126.9 27.4 221.6 27.2 82.5 52.9 114.9 71.6 129.9 5.2 4.2 11.5 6.5 18.1 6.7h0.8 131.8 0.8c6.6-0.2 12.9-2.5 18.1-6.7 18.7-15 44.4-47.4 71.6-129.9 31.2-94.7 28.3-200.4 27.4-221.6z"/><g style="opacity:.2"><path class="j" d="m3479.7 2542.2c2.8 17.9 6.5 36.3 11.3 54.7 114.5-48.4 230.8-92.3 347.9-134.2 1.2-27.8 0.7-49 0.3-58.4-121 43.1-241.2 88.2-359.5 137.9z"/><path class="j" d="m3513.7 2664.6c104.6-43.6 210.6-83.6 317.3-121.8 1.4-9.2 2.6-18.1 3.6-26.8-110.8 39.5-220.9 81-329.4 126.2q4.3 12 8.5 22.4z"/><path class="j" d="m3564.7 2749.2c77.9-32.8 156.5-63.6 235.7-93 3.8-9.7 7.5-20.3 11.4-31.8 3.7-11.4 7-23 9.8-34.5-97.5 35.7-194.3 73.2-289.9 113.7 12.1 22.5 23.3 36.5 33 45.6z"/></g><g style="opacity:.4"><path class="p" d="m3760.7 2402.8c2.8 66.7-2.1 133.7-17.7 198.6-13.5 56.1-35.5 110.7-66 159.6h44.3 0.8c6.6-0.2 12.9-2.5 18.1-6.7 18.7-15 44.4-47.4 71.6-129.9 31.2-94.7 28.3-200.4 27.4-221.6z"/></g><path class="p" d="m3849.2 2391h-391.2c-1.7 0-3.1 1.5-3.1 3.2v44.7c0 1.8 1.4 3.2 3.1 3.2h391.2c1.8 0 3.2-1.4 3.2-3.2v-44.7c0-1.7-1.4-3.2-3.2-3.2z"/><path class="s" d="m3193.1 2568.6q-0.2 0-0.3 0.1c-28.4-0.4-30.4 43.9-27.8 65.4 3.6 30.5 16 68.4 43.3 85.9 3.1 13.8 6.6 24 10.7 28.1 6.4 6.5 14.5 10.5 23.8 13h86.5c9.3-2.5 17.3-6.5 23.7-13 21.1-21.1 26.9-201 26.9-201h-187.7c0 0 0.3 8.3 0.9 21.5z"/><path class="G" d="m3198.6 2606.7c-0.4-10.7-16.7-10.8-16.6 0 0.1 22.1 1.8 44.4 6.5 66.1 2.4 11.6 19.6 6.6 17.5-4.9-3.8-20.3-6.7-40.5-7.4-61.2z"/><g style="opacity:.3"><path class="m" d="m3346.6 2303.2c-13.1-4.8-27.1-7.4-39.4-14.1-12.3-6.7-23-19-22.2-33-4.5 18.6-0.3 39 11 54.4 5.2 7.2 11.9 13.2 17.4 20.2 5.5 7 9.9 15.5 9.4 24.4-0.5 8.9-5.8 16.8-11.5 23.7-8.2 9.7-17.7 18.4-28.2 25.6-17.1 11.6-37.6 20.3-47.8 38.3-8.3 14.4-7.7 31.4-2.3 46.8 2.7 7.8 6.6 15.1 11.3 21.5 7.2 9.9 15.2 19.2 23.9 27.8-0.7-7.9-1.1-16.8 3.7-23.1 3.1-4.1 8.3-7 9.6-12 0.8-3-0.1-6.2-1-9.2-4.8-15.4-15.1-24.9-0.9-37.8 13.7-12.4 32.6-16.9 50.8-19.3 18.3-2.4 37-3.3 54.1-10.1 17.2-6.8 32.8-21.2 34.5-39.6 1.2-12.5-4.1-24.8-10.9-35.3-14.5-22.5-36.4-40.1-61.5-49.2z"/></g><path class="n" d="m2200.8 829.5h78.9v-10.7h-78.9z"/><path class="n" d="m2304.7 829.5h161.5v-10.7h-161.5z"/><path class="j" d="m2234.3 872.9h78.9v-10.7h-78.9z"/><path class="j" d="m2234.3 913.1h78.9v-10.7h-78.9z"/><path class="j" d="m2234.3 953.3h78.9v-10.7h-78.9z"/><path class="j" d="m2234.3 993.6h78.9v-10.8h-78.9z"/><path class="n" d="m2200.8 1036.1h78.9v-10.7h-78.9z"/><path class="n" d="m2304.7 1036.1h161.5v-10.7h-161.5z"/><path class="j" d="m2657.1 1079.5h90.7v-10.7h-90.7z"/><path class="j" d="m2657.1 1119.7h90.7v-10.7h-90.7z"/><path class="j" d="m2657.1 1159.9h90.7v-10.7h-90.7z"/><path class="m" d="m2353.8 875.1h87.2v-13.8h-87.2z"/><path class="j" d="m2506.4 875.1h87.2v-13.8h-87.2z"/><path class="m" d="m2352.2 913.1h160.6v-13.8h-160.6z"/><path class="m" d="m2530 915h160.7v-13.8h-160.7z"/><path class="m" d="m2627 955h117.2v-13.8h-117.2z"/><path class="j" d="m2338.9 995h154.2v-13.8h-154.2z"/><path class="m" d="m2348.4 955h244.8v-13.8h-244.8z"/><path class="n" d="m2558.4 995h187.4v-13.8h-187.4z"/><path class="n" d="m2451.7 875.1h39.5v-13.8h-39.5z"/><path class="j" d="m2607.3 875.1h39.5v-13.8h-39.5z"/><path class="j" d="m2661 875.1h39.6v-13.8h-39.6z"/><path class="m" d="m2506.4 995h39.6v-13.8h-39.6z"/><path class="n" d="m2476 1080.6h151.4v-13.5h-151.4z"/><path class="m" d="m2316.3 1080.6h151.5v-13.5h-151.5z"/><path class="m" d="m2224.9 1119.6h151.4v-13.4h-151.4z"/><path class="m" d="m2502.6 1158.7h125.4v-13.5h-125.4z"/><path class="m" d="m2396.7 1120.3h230.7v-13.5h-230.7z"/><path class="n" d="m2210.3 1158.7h230.7v-13.5h-230.7z"/><path class="m" d="m2269.7 1080.6h37.3v-13.5h-37.3z"/><path class="m" d="m2177.7 1119.6h37.3v-13.4h-37.3z"/><path class="j" d="m2452.7 1158.7h37.3v-13.5h-37.3z"/><path class="m" d="m2222.6 1080.6h37.2v-13.5h-37.2z"/><path class="j" d="m2167 867.4l17.3 8.9v-2.6l-14.6-7.3v-0.1l14.6-7.3v-2.6l-17.3 8.9z"/><path class="j" d="m2186.7 877.8h2.5l10.5-27.2h-2.6z"/><path class="j" d="m2202 859l14.7 7.3v0.1l-14.7 7.3v2.6l17.4-8.9v-2.1l-17.4-8.9z"/><path class="n" d="m2895.6 1458.2h-131.3c-0.7 0-1.3 0.6-1.3 1.3v13.7c0 0.7 0.6 1.3 1.3 1.3h131.3c0.7 0 1.3-0.6 1.3-1.3v-13.7c0-0.7-0.6-1.3-1.3-1.3z"/><path class="n" d="m3008.5 1501.5h-239.9c-0.7 0-1.3 0.6-1.3 1.4v13.6c0 0.8 0.6 1.4 1.3 1.4h239.9c0.7 0 1.3-0.6 1.3-1.4v-13.6c0-0.8-0.6-1.4-1.3-1.4z"/><path class="n" d="m3202.9 1501.5h-128.2c-0.7 0-1.3 0.6-1.3 1.4v13.6c0 0.8 0.6 1.4 1.3 1.4h128.2c0.7 0 1.3-0.6 1.3-1.4v-13.6c0-0.8-0.6-1.4-1.3-1.4z"/><path class="n" d="m3011.9 1536h-243.3c-0.7 0-1.3 0.6-1.3 1.4v13.6c0 0.7 0.6 1.3 1.3 1.3h243.3c0.7 0 1.3-0.6 1.3-1.3v-13.6c0-0.8-0.6-1.4-1.3-1.4z"/><path class="n" d="m3202.9 1536h-125.9c-0.8 0-1.4 0.6-1.4 1.4v13.6c0 0.7 0.6 1.3 1.4 1.3h125.9c0.7 0 1.3-0.6 1.3-1.3v-13.6c0-0.8-0.6-1.4-1.3-1.4z"/><path class="n" d="m3013.8 1570.5h-245.2c-0.7 0-1.3 0.6-1.3 1.3v13.7c0 0.7 0.6 1.3 1.3 1.3h245.2c0.7 0 1.3-0.6 1.3-1.3v-13.7c0-0.7-0.6-1.3-1.3-1.3z"/><path class="n" d="m3196.1 1570.5h-110.7c-4.5 0-8.1 3.6-8.1 8.2 0 4.5 3.6 8.1 8.1 8.1h110.7c4.5 0 8.1-3.6 8.1-8.1 0-4.6-3.6-8.2-8.1-8.2z"/><path class="j" d="m2740.6 1501.5c-4.5 0-8.2 3.7-8.2 8.2 0 4.5 3.7 8.2 8.2 8.2 4.5 0 8.1-3.7 8.1-8.2 0-4.5-3.6-8.2-8.1-8.2z"/><path class="j" d="m2740.6 1536c-4.5 0-8.2 3.7-8.2 8.2 0 4.5 3.7 8.1 8.2 8.1 4.5 0 8.1-3.6 8.1-8.1 0-4.5-3.6-8.2-8.1-8.2z"/><path class="j" d="m2740.6 1570.5c-4.5 0-8.2 3.6-8.2 8.2 0 4.5 3.7 8.1 8.2 8.1 4.5 0 8.1-3.6 8.1-8.1 0-4.6-3.6-8.2-8.1-8.2z"/><path class="j" d="m2624 1237h129.3v-11.9h-129.3z"/><path class="j" d="m2624 1281.8h129.3v-11.9h-129.3z"/><path class="j" d="m2624 1326.6h129.3v-11.9h-129.3z"/><path class="n" d="m2463.3 1238.3h134.3v-15.1h-134.3z"/><path class="m" d="m2321.7 1238.3h134.3v-15.1h-134.3z"/><path class="m" d="m2240.6 1281.8h134.3v-15.1h-134.3z"/><path class="m" d="m2486.9 1325.2h111.2v-15h-111.2z"/><path class="m" d="m2392.9 1282.5h204.7v-15h-204.7z"/><path class="n" d="m2227.6 1325.2h204.7v-15h-204.7z"/><path class="m" d="m2280.3 1238.3h33.1v-15.1h-33.1z"/><path class="m" d="m2198.7 1281.8h33.1v-15.1h-33.1z"/><path class="j" d="m2442.7 1325.2h33v-15h-33z"/><path class="m" d="m2238.5 1238.3h33.1v-15.1h-33.1z"/><path class="h" d="m945.2 1245.5h40.9v-5.6h-40.9z"/><path class="h" d="m999 1245.5h83.7v-5.6h-83.7z"/><path class="j" d="m962.6 1267.9h40.8v-5.5h-40.8z"/><path class="h" d="m1016.4 1267.9h238.9v-5.5h-238.9z"/><path class="j" d="m962.6 1288.8h40.8v-5.6h-40.8z"/><path class="h" d="m1016.4 1288.8h238.9v-5.6h-238.9z"/><path class="j" d="m962.6 1309.6h40.8v-5.5h-40.8z"/><path class="h" d="m1016.4 1309.6h238.9v-5.5h-238.9z"/><path class="j" d="m962.6 1330.4h40.8v-5.5h-40.8z"/><path class="h" d="m945.2 1352.5h40.9v-5.6h-40.9z"/><path class="h" d="m999 1352.5h83.7v-5.6h-83.7z"/><path class="j" d="m1016.4 1374.9h154.1v-5.5h-154.1z"/><path class="j" d="m1016.4 1395.8h154.1v-5.6h-154.1z"/><path class="h" d="m989.9 1395.8h13.5v-5.6h-13.5z"/><path class="h" d="m962.6 1416.6h40.8v-5.6h-40.8z"/><path class="j" d="m1016.4 1416.6h154.1v-5.6h-154.1z"/><path class="j" d="m1181.5 1374.9h75.6v-5.5h-75.6z"/><path class="j" d="m1181.5 1395.8h75.6v-5.6h-75.6z"/><path class="j" d="m1181.5 1416.6h75.6v-5.6h-75.6z"/><path class="h" d="m1016.4 1330.4h238.9v-5.5h-238.9z"/><path class="j" d="m1077.9 958.1l-71.7-72.7-10.9 10.9 83.5 84.8 105.3-125-11.8-10z"/><path class="e" d="m2127.4 1489.3h-606.4c-3.7 0-6.7 3-6.7 6.7v498.5c0 3.8 3 6.8 6.7 6.8h606.4c3.7 0 6.7-3 6.7-6.8v-498.5c0-3.7-3-6.7-6.7-6.7z"/><path class="m" d="m1723.5 1533.9h-136.5c-1 0-1.8 0.8-1.8 1.8v16.2c0 1 0.8 1.8 1.8 1.8h136.5c1 0 1.8-0.8 1.8-1.8v-16.2c0-1-0.8-1.8-1.8-1.8z"/><path class="m" d="m1760 1592.8h-136.6c-1 0-1.8 0.8-1.8 1.8v16.2c0 1 0.8 1.8 1.8 1.8h136.6c1 0 1.8-0.8 1.8-1.8v-16.2c0-1-0.8-1.8-1.8-1.8z"/><path class="m" d="m2077.1 1592.8h-295c-0.9 0-1.8 0.8-1.8 1.8v16.2c0 1 0.9 1.8 1.8 1.8h295c1 0 1.8-0.8 1.8-1.8v-16.2c0-1-0.8-1.8-1.8-1.8z"/><path class="m" d="m1830.4 1634.6h-207c-1 0-1.8 0.9-1.8 1.9v16.2c0 1 0.8 1.8 1.8 1.8h207c1 0 1.8-0.8 1.8-1.8v-16.2c0-1-0.8-1.9-1.8-1.9z"/><path class="r" d="m2077.1 1634.6h-206.9c-1 0-1.8 0.9-1.8 1.9v16.2c0 1 0.8 1.8 1.8 1.8h206.9c1 0 1.8-0.8 1.8-1.8v-16.2c0-1-0.8-1.9-1.8-1.9z"/><path class="m" d="m1890.6 1676.5h-267.2c-1 0-1.8 0.8-1.8 1.8v16.2c0 1 0.8 1.8 1.8 1.8h267.2c1 0 1.8-0.8 1.8-1.8v-16.2c0-1-0.8-1.8-1.8-1.8z"/><path class="r" d="m2070.4 1676.5h-115.8c-4.7 0-8.5 4.5-8.5 9.9 0 5.5 3.8 9.9 8.5 9.9h115.8c4.7 0 8.5-4.4 8.5-9.9 0-5.4-3.8-9.9-8.5-9.9z"/><path class="j" d="m1593.7 1592.8c-4.7 0-8.5 4.4-8.5 9.9 0 5.4 3.8 9.9 8.5 9.9 4.7 0 8.5-4.5 8.5-9.9 0-5.5-3.8-9.9-8.5-9.9z"/><path class="j" d="m1593.7 1634.6c-4.7 0-8.5 4.5-8.5 10 0 5.4 3.8 9.9 8.5 9.9 4.7 0 8.5-4.5 8.5-9.9 0-5.5-3.8-10-8.5-10z"/><path class="j" d="m1593.7 1676.5c-4.7 0-8.5 4.5-8.5 9.9 0 5.5 3.8 9.9 8.5 9.9 4.7 0 8.5-4.4 8.5-9.9 0-5.4-3.8-9.9-8.5-9.9z"/><path class="m" d="m1818.7 1717.9h-228.1c-3 0-5.4 2.9-5.4 6.4 0 3.5 2.4 6.4 5.4 6.4h228.1c3.1 0 5.5-2.9 5.5-6.4 0-3.5-2.4-6.4-5.5-6.4z"/><path class="m" d="m1760 1804.1h-136.6c-1 0-1.8 0.8-1.8 1.8v16.3c0 0.9 0.8 1.8 1.8 1.8h136.6c1 0 1.8-0.9 1.8-1.8v-16.3c0-1-0.8-1.8-1.8-1.8z"/><path class="m" d="m1880.8 1804.1h-91.9c-4.7 0-8.6 4.5-8.6 9.9 0 5.5 3.9 10 8.6 10h91.9c4.7 0 8.5-4.5 8.5-10 0-5.4-3.8-9.9-8.5-9.9z"/><path class="m" d="m1764 1846h-140.6c-1 0-1.8 0.8-1.8 1.8v16.2c0 1 0.8 1.8 1.8 1.8h140.6c1 0 1.8-0.8 1.8-1.8v-16.2c0-1-0.8-1.8-1.8-1.8z"/><path class="r" d="m2077.1 1846h-295c-0.9 0-1.8 0.8-1.8 1.8v16.2c0 1 0.9 1.8 1.8 1.8h295c1 0 1.8-0.8 1.8-1.8v-16.2c0-1-0.8-1.8-1.8-1.8z"/><path class="m" d="m1890.6 1887.9h-267.2c-1 0-1.8 0.8-1.8 1.8v16.2c0 1 0.8 1.8 1.8 1.8h267.2c1 0 1.8-0.8 1.8-1.8v-16.2c0-1-0.8-1.8-1.8-1.8z"/><path class="r" d="m2070.4 1887.9h-146.9c-4.7 0-8.5 4.4-8.5 9.9 0 5.5 3.8 9.9 8.5 9.9h146.9c4.7 0 8.5-4.4 8.5-9.9 0-5.5-3.8-9.9-8.5-9.9z"/><path class="j" d="m1593.7 1804.1c-4.7 0-8.5 4.5-8.5 9.9 0 5.5 3.8 10 8.5 10 4.7 0 8.5-4.5 8.5-10 0-5.4-3.8-9.9-8.5-9.9z"/><path class="j" d="m1593.7 1846c-4.7 0-8.5 4.5-8.5 9.9 0 5.5 3.8 9.9 8.5 9.9 4.7 0 8.5-4.4 8.5-9.9 0-5.4-3.8-9.9-8.5-9.9z"/><path class="j" d="m1593.7 1887.9c-4.7 0-8.5 4.4-8.5 9.9 0 5.5 3.8 9.9 8.5 9.9 4.7 0 8.5-4.4 8.5-9.9 0-5.5-3.8-9.9-8.5-9.9z"/><path class="m" d="m1818.7 1929.3h-228.1c-3 0-5.4 2.8-5.4 6.4 0 3.5 2.4 6.3 5.4 6.3h228.1c3.1 0 5.5-2.8 5.5-6.3 0-3.6-2.4-6.4-5.5-6.4z"/><path class="o" d="m2420.9 1590.6h-153.4c-314.9 0-570.1 282.2-570.1 630.3v562.6h1293.6v-562.6c0-348.1-255.2-630.3-570.1-630.3z"/><path class="H" d="m3918.8 2761.9h-3032.2c-25.1 0-45.5 21.8-45.5 48.8 0 27 20.4 48.9 45.5 48.9h3032.2c25.2 0 45.5-21.9 45.5-48.9 0-27-20.3-48.8-45.5-48.8z"/><path class="z" d="m1949.9 2598.8l-4.9-2.8-26.8 166.6 851-1.6-8-155.9z"/><path class="I" d="m2007.2 2655.2c0 0-11.2 57.1-22.6 133.8h738.9c-8.8-71.8-16.2-123.8-16.2-123.8z"/><path class="z" d="m2728.5 1772.3c-21.2 275.3-30.1 515.5-67.1 791.1 84.4 63.6 281.3 75.6 395.2 22.1 84-39.5 98.3-172.4-16.2-297.8-94.7-103.6-163.5-459.1-311.9-515.4z"/><path class="z" d="m1976 1772.3c-181.9 69.7-273.2 447.4-361.8 571.7-134.6 188.9-37.4 385.5 138.4 352.4 66.5-12.5 100.7-33.5 143.6-56.6 43.3-23.3 78.1-65.3 48.3-119.8l-35.3-107.4-26.6-22 156.9-185.9z"/><path class="z" d="m2367.4 1629c0 0-322.4 92.6-405.8 153.2-42.2 30.7 13.1 712.3 24.9 781.7 11.5 67.6 27.2 93.2 27.2 93.2l674.4 4c0 0 31.5-38 34.4-81.7 5.3-81 97.3-680.7 35.5-791.1-55-48.3-390.6-159.3-390.6-159.3z"/><path class="z" d="m2914.7 2359.5c-126-5.8-308.7 24.9-427.1 45.6 5.5 49.2-6.2 116.3 14.2 158.3 200.4 39.6 450.7 98.2 549.5 11.3 120.2-105.7-3.4-209-136.6-215.2z"/><path class="C" d="m1914.4 2395.9c-62.4-21-107.8-27.1-170.7-35.7-24.2-3.3-51.7-7-83.9-12.1-2.5-0.4-4.8 1.3-5.2 3.7-0.4 2.4 1.3 4.7 3.8 5.1 32.3 5.1 59.8 8.8 84 12.1 62.4 8.5 107.5 14.6 169.1 35.3q0.7 0.3 1.4 0.3c1.9 0 3.7-1.2 4.3-3 0.8-2.4-0.5-4.9-2.8-5.7z"/><path class="C" d="m1807.3 2353.1c-32.5-22.6-44.5-30.4-78.7-49.1-2.2-1.2-5-0.5-6.2 1.7-1.2 2.1-0.4 4.9 1.8 6 33.8 18.5 45.7 26.2 77.8 48.6 0.8 0.6 1.8 0.9 2.7 0.9 1.4 0 2.8-0.7 3.7-1.9 1.4-2 0.9-4.8-1.1-6.2z"/><path class="C" d="m2981.4 2353.8c-83.3-21.9-185.6-6.8-283.7 12.7-2.4 0.5-4 2.9-3.5 5.3 0.4 2.1 2.3 3.6 4.4 3.6q0.5 0 0.9-0.1c97-19.4 198.1-34.3 279.5-12.9 2.5 0.7 4.9-0.8 5.6-3.1 0.6-2.4-0.8-4.8-3.2-5.5z"/><path class="C" d="m2932.7 2307.5c-9.5 3.7-19.2 7.6-28.8 11.5-23.9 9.6-46.4 18.7-66 23.9-2.4 0.7-3.8 3.1-3.1 5.5 0.5 2 2.3 3.3 4.3 3.3q0.6 0 1.2-0.2c20.1-5.3 42.9-14.5 67-24.3 9.6-3.9 19.2-7.8 28.7-11.4 2.4-0.9 3.5-3.5 2.6-5.8-0.9-2.3-3.5-3.4-5.9-2.5z"/><path class="J" d="m2366.9 1593.8c-56.7 17.2-103.9 29.1-165.1 86.4-2.9 69.6 28.9 134.5 65.8 179.5l99.8-51.2 105.5 52.1c38.9-58.7 70.3-114.7 64.9-171.9-42-47.9-103.3-66.3-170.9-94.9z"/><path class="j" d="m2414 1650.2l-127.4 8-23.3 4.3c-1.3 24.8 64.4 125.7 104.1 146 49-23.3 117.2-116.8 116.1-146.4z"/><path class="A" d="m2717.2 2056.3h-245.3c-2.5 0-4.5 2-4.5 4.5v62c0 2.4 2 4.4 4.5 4.4h245.3c2.5 0 4.6-2 4.6-4.4v-62c0-2.5-2.1-4.5-4.6-4.5z"/><path class="j" d="m2380.8 1837.6c-5.8 0-10.5 4.6-10.5 10.3 0 5.8 4.7 10.4 10.5 10.4 5.8 0 10.5-4.6 10.5-10.4 0-5.7-4.7-10.3-10.5-10.3z"/><path class="j" d="m2380.8 1935.5c-5.8 0-10.5 4.7-10.5 10.4 0 5.7 4.7 10.3 10.5 10.3 5.8 0 10.5-4.6 10.5-10.3 0-5.7-4.7-10.4-10.5-10.4z"/><path class="j" d="m2380.8 2033.4c-5.8 0-10.5 4.7-10.5 10.4 0 5.7 4.7 10.3 10.5 10.3 5.8 0 10.5-4.6 10.5-10.3 0-5.7-4.7-10.4-10.5-10.4z"/><path class="j" d="m2380.8 2131.4c-5.8 0-10.5 4.6-10.5 10.3 0 5.7 4.7 10.4 10.5 10.4 5.8 0 10.5-4.7 10.5-10.4 0-5.7-4.7-10.3-10.5-10.3z"/><path class="C" d="m2360.6 1987.4c0.2-54.7 0.4-111 0.5-168.1-2.6 1.8-5.3 3.3-8.4 4.2q-0.3 0.2-0.7 0.4c-0.1 55.5-0.3 110.3-0.5 163.5-0.7 189.4-1.4 368.3 3.2 583.1 0 2.5 2.1 4.4 4.5 4.4h0.1c2.5-0.1 4.5-2.1 4.4-4.6-4.6-214.7-3.9-393.5-3.1-582.9z"/><path class="C" d="m1990.9 2562.7c-13.7-46.5-32-380.8-44.1-601.9l-0.9-17.4c-0.1-2.4-2.3-4.3-4.8-4.2-2.5 0.1-4.4 2.2-4.2 4.7l0.9 17.4c12.1 221.5 30.5 556.4 44.4 603.8 19.8 67.6 27.1 93.2 27.1 93.2 0.6 2 2.4 3.3 4.4 3.3q0.6 0 1.2-0.2c2.4-0.7 3.8-3.1 3.1-5.5 0 0-7.3-25.6-27.1-93.2z"/><path class="I" d="m1761 2500.9q-1.8 10.6-1.9 21.5-0.1 3.4 0 6.8c2.8 81.7 93.5 121 168 84.7 0.3-0.1 32.2-19 32.2-40.3l-56.9-162.6c-64.7-15.8-130.4 25.3-141.4 89.9z"/><path class="j" d="m1778.2 2493.8c-16.3 2.3-26.4 25.9-22.6 52.9 3.9 27 20.2 47.1 36.5 44.8 16.3-2.2 26.3-25.9 22.5-52.9-3.8-27-20.2-47-36.4-44.8z"/><path class="C" d="m2781.4 1936.5c-2.6 0-4.6 1.8-4.7 4.3-5.4 129-18.9 274.6-29.7 391.7-11.5 123.9-20.5 221.7-16.1 253.1 0.3 2.3 2.2 3.9 4.5 3.9q0.3 0 0.6-0.1c2.5-0.3 4.2-2.5 3.8-5-4.2-30.4 4.8-127.8 16.2-251.1 10.8-117.2 24.3-262.9 29.7-392.2 0.1-2.4-1.8-4.5-4.3-4.6z"/><path class="K" d="m2782 2204.2h-854.6c-9.8 0-17.6 8.3-16.7 17.9l53.6 520.8c1 11 10.3 19.5 21.6 19.7l740.5 0.1c11.5 0.1 21.1-8.5 22.1-19.8l50.2-520.9c0.8-9.6-6.9-17.8-16.7-17.8z"/><path class="L" d="m1968.1 2440.4c14.7-6.7 30.4-12.9 45.9-19.2 49.1-20 85.4-41.2 73.4-61-11.4-18.9-47.4-6.6-91.7 8.6-20.5 7.1-41 17.6-58.4 23.9q-1.7 0.6-3.1 1.3c-5.4-1.1 25.5-15.3 44.7-21.8 23.1-7.9 49.2-18.6 63.4-26.8 26.4-15.1 29.4-39.4-1.6-40.1-22.6-0.8-47.1 8.5-70.4 14.8-10.1 2.7-82.2 25.2-95.8 32.7-18.9 10.3-48.2 60.3-54.6 76.5-16.2 41.3-11.8 53.2 12.3 122.2 17.7 50.5 66.9 59.6 112.8 40.6-0.1-4.4-0.3-9.1-0.4-13.7-0.7-16.5 9.7-31.5 25.6-36.7 17.7-5.8 39.2-13.1 49.2-17.3 22.6-9.3 57.9-27.8 44.9-48.1-3.1-4.9-15.1-8.8-27-7.4 24.5-11.1 63.7-34.4 52.3-52.9-11.4-18.5-77 6.9-121.5 24.4z"/><path class="M" d="m2052.5 2408c23.6-12.2 36.6-23.3 40.2-33.9 1.8-5.5 1.2-10.8-1.8-15.9-8.3-13.5-25.7-13.7-49-8q1.3-0.7 2.4-1.4c16.3-9.3 25-22.4 22.2-33.2-1.1-4.2-5.7-13.8-25.6-14.2-18.3-0.7-37.6 5-56.2 10.5-5.2 1.5-10.4 3-15.5 4.4-10.7 2.9-82.6 25.4-96.6 33.1-2 1-2.7 3.4-1.6 5.3 1.1 1.9 3.5 2.5 5.4 1.5 13.3-7.2 84.7-29.6 94.9-32.4 5.2-1.3 10.5-2.9 15.6-4.4 18.1-5.3 36.7-10.8 53.7-10.2 10.3 0.2 16.9 3.3 18.2 8.3 1.5 5.9-3.6 16-18.5 24.6-13.1 7.5-37.8 17.9-62.7 26.4-8.7 3-20.1 7.6-29.8 12.1-17.3 8-18.4 10.3-18.2 13.2 0.1 1.5 1.2 3.5 3.8 4 0.8 0.2 1.7 0.1 2.5-0.3q1.2-0.6 2.8-1.1c8-2.9 16.5-6.6 25.6-10.6 10.6-4.7 21.6-9.5 32.7-13.3 41.4-14.2 77.2-26.5 87-10.3 1.9 3.1 2.3 6.1 1.1 9.5-4.2 12.5-28.6 28-72.6 45.9l-7.8 3.1c-12.8 5.2-26 10.5-38.3 16.1-2 0.9-2.8 3.2-2 5.1 0.9 2 3.1 2.9 5.1 2.1 34.7-13.6 106.9-41.9 116.7-26 1.6 2.6 1.8 5.3 0.9 8.4-4.3 13.6-30.4 29.4-51.4 38.9-1.8 0.8-2.7 2.8-2.2 4.6 0.5 1.9 2.3 3.1 4.3 2.8 11-1.2 21.2 2.6 23.2 5.7 2.2 3.4 2.7 6.8 1.5 10.4-3.2 10-19.1 21.4-44.7 32-10.1 4.2-32.1 11.7-48.8 17.2-17.5 5.7-29.2 22.4-28.4 40.6 0.2 4.5 0.3 9.2 0.4 13.5 0 2.2 1.8 3.9 4 3.9q0 0 0.1 0c2.1-0.1 3.9-1.8 3.9-4-0.1-4.4-0.3-9.1-0.5-13.7-0.6-14.7 8.9-28.3 23-32.9 16.8-5.6 39.1-13.1 49.4-17.4 19.7-8.1 44.2-21.1 49.2-36.8 1.9-5.8 1.1-11.5-2.4-17-2.5-3.8-8.3-6.9-15.2-8.4 15.7-8.3 37.5-22.2 42.2-37.1 1.6-5.3 1.1-10.2-1.7-14.7-5.7-9.3-20.4-10.1-40.5-6z"/><path class="M" d="m2039.4 2462.7c-36.4 16.4-63.7 27.9-91.3 38.3-2.4 0.8-3.5 3.4-2.7 5.7 0.7 1.8 2.4 2.9 4.3 2.9q0.8 0 1.6-0.3c27.8-10.5 55.3-22 91.9-38.5 2.2-1 3.2-3.7 2.2-5.9-1.1-2.2-3.7-3.2-6-2.2z"/><path class="M" d="m2026.5 2411.3c-36.4 16.4-63.7 27.8-91.3 38.2-2.4 0.9-3.5 3.5-2.6 5.8 0.6 1.7 2.4 2.8 4.2 2.8q0.8 0 1.6-0.3c27.8-10.4 55.3-21.9 91.9-38.4 2.2-1.1 3.2-3.7 2.2-5.9-1-2.3-3.7-3.2-6-2.2z"/><path class="M" d="m2031 2347.5c-23.9 10.4-51.4 21.4-75.6 31.1-15 6.1-29.3 11.8-41.3 16.8-2.3 0.9-3.4 3.5-2.4 5.8 0.7 1.7 2.4 2.7 4.2 2.7q0.9 0 1.7-0.3c12-5 26.2-10.7 41.2-16.7 24.3-9.8 51.8-20.8 75.8-31.3 2.3-1 3.3-3.6 2.3-5.9-1-2.2-3.7-3.2-5.9-2.2z"/><path class="j" d="m2357.6 2485.7c-36.6 0-66.3 26-66.3 58.1 0 32.1 29.7 58.1 66.3 58.1 36.6 0 66.3-26 66.3-58.1 0-32.1-29.7-58.1-66.3-58.1z"/><path class="L" d="m2262.9 1505v154c0 29.3 44.8 73.2 73.7 77.9 15.4 2.5 10.4 42.4 31.9 40.8 22.2-1.7 6.6-28.3 21.1-30.5 29.3-4.4 94.3-53 94.3-82.7l-4.7-132z"/><path class="M" d="m2480.6 1580.4l-11.2-48.2-201.8-27.2-5.1 81.4c8.7 20.3 39.8 67.4 102.9 66.8 82.5-0.9 115.2-69.2 115.2-69.2 0 0-0.8-3.4 0-3.6z"/><path class="L" d="m2194.9 1327.5c-36.9 0-66.7 30-66.7 66.9 0 37 29.8 67 66.7 67 36.9 0 66.7-30 66.7-67 0-36.9-29.8-66.9-66.7-66.9z"/><path class="N" d="m2181.1 1369.7c-1.7-1.5-4.2-1.4-5.7 0.3-1.5 1.7-1.4 4.2 0.3 5.7l45.2 41c0.8 0.7 1.7 1 2.7 1 1.1 0 2.2-0.4 3-1.3 1.5-1.7 1.4-4.2-0.3-5.7z"/><path class="L" d="m2544.3 1327.5c-36.9 0-66.8 30-66.8 66.9 0 37 29.9 67 66.8 67 36.8 0 66.7-30 66.7-67 0-36.9-29.9-66.9-66.7-66.9z"/><path class="N" d="m2562.6 1376l-45.2 41c-1.7 1.5-1.8 4-0.3 5.7 0.8 0.9 1.9 1.3 3 1.3 1 0 2-0.3 2.7-1l45.2-41c1.7-1.5 1.8-4 0.3-5.7-1.5-1.7-4-1.8-5.7-0.3z"/><path class="L" d="m2271 1141.5l-68.2 102.1v268.7c0 11.8 5.8 22.9 15.4 29.8 0 0 76.4 78.2 155.3 82.5 78.9-4.3 155.4-82.5 155.4-82.5 9.6-6.9 15.4-18 15.4-29.8v-268.7l-57.6-61.9z"/><path class="O" d="m2385.8 1300.5c-2.4 0.2-4.2 2.4-3.9 4.8l12.2 119.3h-39.1c-2.4 0-4.3 2-4.3 4.4 0 2.4 1.9 4.4 4.3 4.4h44c1.2 0 2.4-0.5 3.2-1.5 0.8-0.9 1.2-2.1 1.1-3.4l-12.7-124.1c-0.3-2.4-2.4-4.2-4.8-3.9z"/><path  d="m2254.7 1308.4c2.7 14.4 54.7 4.1 55-11.7 0.4-25-59.4-12.3-55 11.7z"/><path  d="m2442.7 1290.3c-4.2 12.8 42.3 27.7 49.5 15.1 11.4-20-42.4-36.4-49.5-15.1z"/><path class="M" d="m2263.9 1387.3c-29.9 0-54.1 24.3-54.1 54.2 0 30 24.2 54.2 54.1 54.2 29.8 0 54-24.2 54-54.2 0-29.9-24.2-54.2-54-54.2z"/><path class="M" d="m2479.4 1387.3c-29.9 0-54.1 24.3-54.1 54.2 0 30 24.2 54.2 54.1 54.2 29.8 0 54-24.2 54-54.2 0-29.9-24.2-54.2-54-54.2z"/><path  d="m2299.9 1340.4c-6.3-0.2-11.7 8.6-11.9 19.5-0.3 10.9 4.7 19.9 11 20.1 6.4 0.1 11.7-8.6 12-19.6 0.2-10.9-4.7-19.9-11.1-20z"/><path  d="m2452.6 1337.7c-6.4-0.2-11.7 8.6-12 19.5-0.2 10.9 4.7 19.9 11.1 20.1 6.3 0.1 11.7-8.6 11.9-19.6 0.3-10.9-4.7-19.9-11-20z"/><path class="O" d="m2409.9 1497c-31.6 21.3-56.2-0.5-57.3-1.4-1.6-1.6-4.3-1.4-5.8 0.3-1.6 1.7-1.4 4.3 0.3 5.8 0.2 0.2 14.3 12.8 35 12.8 9.6 0 20.7-2.7 32.4-10.6 1.9-1.3 2.4-3.8 1.2-5.7-1.3-2-3.9-2.5-5.8-1.2z"/><path class="N" d="m2582.3 1149.5c1.3-5.2 0.1-10.6-1.7-15.7-0.8-2.2-1.5-4.4-2.6-6.4-11.8-26.7-40.1-45.5-69.3-45.6 0.1-19.3-7.7-39.7-20.1-56.8-4.9-6.7-10.5-13-17.8-16.7-7.2-3.8-16.4-4.8-23.5-0.8-7.3 3.8-11.5 13.3-8.2 20.8-33.1-12.6-71-19.3-107.4-16-36.4 3.3-71.5 16.2-103.8 33.2-10.8 5.8-21.9 12.5-27.9 23.2-6 10.8-4.3 26.6 6.3 32.6-24.7 19.8-44 39.2-56.3 62.4-4.6 8.7-8.3 18.2-7.9 28 0 0.4 0.1 0.7 0.1 1.1 0.7 10.2 7.1 20.5 16.9 23.1-8.4 44.4 2.6 77 21.2 124.6 13.7 23.1 18.5 29.1 28.9 42.7 2.9-51.3 1.1-94.4 20.7-143.1 31.3 16.5 73 6.9 97.7-20.1 26.6 16.2 62.4 12.5 91.6-1.7 29.2-14.2 41.6-17.3 63.9-37.9 13.9 48 35.1 57.4 59.3 97.8 1.6 31.9 5 60.6-2.7 91.6 41.5-61.3 56.3-140.6 29.3-207.5 7.5-2.9 12-7.5 13.3-12.8z"/><path class="P" d="m2508.8 1081.8c0.1-19.3-7.7-39.7-20.1-56.8-4.9-6.7-10.5-13-17.8-16.8-7.2-3.7-16.4-4.7-23.6-0.8-7.2 3.9-11.4 13.4-8.1 20.9-33.1-12.6-71-19.3-107.4-16.1-36.4 3.4-71.5 16.3-103.8 33.3-10.8 5.8-21.9 12.5-27.9 23.2-6 10.8-4.3 26.6 6.3 32.6-24.7 19.8-44 39.2-56.3 62.4-4.6 8.7-8.3 18.2-7.9 28 22.4-37.8 58.3-67.7 101.2-83.3-5.2-7.3-4-17.8 1-25.4 4.9-7.6 12.6-12.7 20.6-17 54.8-29.3 125.9-24.6 174.2 9.6 2.2-10.1 5.9-21.8 15.7-25 8.3-2.7 17.3 2.3 23.5 8.7 10.5 11.1 15.9 26.8 16.3 43 22.8-4.3 47.2 0.2 67.1 12.3 5.9 3.7 11.4 7.9 16.3 12.8-11.8-26.7-40.1-45.5-69.3-45.6z"/><path fill-rule="evenodd" class="j" d="m2340.5 1338.6c0 38.5-31.2 69.8-69.6 69.8-38.4 0-69.6-31.3-69.6-69.8 0-38.5 31.2-69.8 69.6-69.8 38.4 0 69.6 31.3 69.6 69.8zm-6.2 0c0-35.1-28.5-63.6-63.4-63.6-35 0-63.4 28.5-63.4 63.6 0 35 28.4 63.6 63.4 63.6 34.9 0 63.4-28.6 63.4-63.6z"/><path fill-rule="evenodd" class="j" d="m2554.4 1338.6c0 38.5-31.2 69.8-69.5 69.8-38.4 0-69.6-31.3-69.6-69.8 0-38.5 31.2-69.8 69.6-69.8 38.3 0 69.5 31.3 69.5 69.8zm-6.2 0c0-35.1-28.4-63.6-63.3-63.6-35 0-63.4 28.5-63.4 63.6 0 35 28.4 63.6 63.4 63.6 34.9 0 63.3-28.6 63.3-63.6z"/><path class="j" d="m2334.5 1332.7l3.8 4.8c1.9-1.5 46.4-36.2 77.7 3l4.8-3.9c-35.2-44-85.8-4.3-86.3-3.9z"/><path class="Q" d="m966.7 1461.1v315.5h260.6v-286.5l-32.5-29z"/><path class="j" d="m977.8 1449.8v315.6h260.6v-286.5l-32.4-29.1z"/><path class="g" d="m1022.3 1481.6h102.4v-10.7h-102.4z"/><path class="g" d="m992.6 1500.3h132.1v-10.7h-132.1z"/><path class="g" d="m992.6 1519h132.1v-10.7h-132.1z"/><path class="g" d="m992.6 1537.8h132.1v-10.7h-132.1z"/><path class="g" d="m992.6 1556.5h132.1v-10.7h-132.1z"/><path class="g" d="m992.6 1575.2h132.1v-10.7h-132.1z"/><path class="g" d="m1136.3 1575.2h87.3v-104.3h-87.3z"/><path class="g" d="m992.6 1681h231v-91.5h-231z"/><path class="h" d="m1043.8 1616.7c4.8 0 8.9 1 11.7 2.2l1.8-5.5c-2-0.9-6.5-2.3-13.7-2.3-18 0-30.2 11-30.2 27.2 0 17 12.2 26.3 28.5 26.3 7.1 0 12.6-1.3 15.3-2.5l-1.5-5.3c-3 1.3-7.7 2.1-12.2 2.1-14.1 0-22.2-8.1-22.2-20.8 0-13.6 9-21.4 22.5-21.4z"/><path class="h" d="m1110.9 1612l-10.3 25c-2.6 6.6-4.6 12.3-6.1 17.5h-0.2c-1.5-5.4-3.5-11.1-5.9-17.5l-9.8-25h-9.6l-4 51.8h7.1l1.6-22.2c0.5-7.8 0.9-16.5 1.1-22.9h0.2c1.6 6.1 3.9 12.8 6.7 20.1l9.3 24.7h5.7l10.2-25.2c2.9-7.1 5.3-13.6 7.3-19.6h0.2c-0.1 6.4 0.5 15.1 0.9 22.3l1.4 22.8h7.3l-3.6-51.8z"/><path class="h" d="m1152.9 1634.4c-8-2.7-11.5-5.1-11.5-10 0-3.5 3-7.7 10.9-7.7 5.2 0 9.1 1.5 10.9 2.4l2.1-5.4c-2.6-1.3-6.9-2.6-12.8-2.6-11.2 0-18.7 6-18.7 14.1 0 7.3 5.9 11.7 15.3 14.7 7.8 2.7 10.9 5.4 10.9 10.3 0 5.2-4.5 8.8-12.1 8.8-5.2 0-10.1-1.5-13.4-3.4l-1.9 5.7c3.1 1.8 9.2 3.3 14.8 3.3 13.6 0 20.2-7 20.2-15 0-7.6-5-11.8-14.7-15.2z"/><path class="v" d="m1180 1498.1c-15.4 0-27.9 11.2-27.9 25 0 13.8 12.5 24.9 27.9 24.9 15.3 0 27.8-11.1 27.8-24.9 0-13.8-12.5-25-27.8-25z"/><path class="j" d="m1171.6 1535.5l24.1-12.4-24.1-12.4z"/><path class="f" d="m992.6 1729.5h87.1v-33.9h-87.1z"/><path class="g" d="m1091.3 1729.5h132.2v-33.9h-132.2z"/><path class="g" d="m1206 1478.9h32.4l-32.4-29.1z"/></svg>